<?xml version="1.0" encoding="UTF-8"?>
<svg id="Layer_2" data-name="Layer 2" xmlns="http://www.w3.org/2000/svg" viewBox="0 0 1853.99 1469.9">
  <defs>
    <style>
      .cls-1 {
        fill: #ede9dc;
      }

      .cls-2 {
        fill: #017c83;
      }

      .cls-3 {
        fill: #bc032f;
      }

      .cls-4 {
        fill: #d7d7d7;
      }

      .cls-5 {
        fill: #5e5e5e;
      }

      .cls-6 {
        fill: #9b9b9b;
      }

      .cls-7 {
        fill: #363636;
      }

      .cls-8 {
        fill: #01afb9;
      }

      .cls-9 {
        fill: #41ccd2;
      }

      .cls-10 {
        fill: #e40136;
      }

      .cls-11 {
        fill: #474747;
      }

      .cls-12 {
        fill: #fefbf1;
      }

      .cls-13 {
        fill: #949494;
      }

      .cls-14 {
        fill: gray;
      }

      .cls-15 {
        fill: #00b0ba;
      }
    </style>
  </defs>
  <g id="Layer_1-2" data-name="Layer 1">
    <g>
      <path class="cls-12" d="M1367.81,96.9c-26.76,9.72-48.37,33.47-53.73,61.77-12.08,63.8,74.89,89.45,72.72,151.72-2.08,59.3-30.74,97.85,3.84,158.18,47.76,83.32,146.89,119.35,186.94,217.06,15.97,38.96,19.76,96.8,40.43,129.57,6,9.51,8.31,7.49,15.33,12.67,2.04,1.5,3.22,4.65,5.44,6.56,13.31,11.5,31.35,1.42,45.28-3.78,28.24-10.55,55.79-23.06,83.73-34.36,1.03-.4,2-.48,3.02.05,2.7,1.4,5.56,22.76,6,27.07,5.32,53.02-18.75,135.63-45.19,181.79-53.69,93.73-138.46,148.29-235.12,190.88-112.39,49.51-215.02,74.91-339.22,68.87-15.38-.75-35.05-4.86-49.98-3.07-3.15.38-5.35,2.29-8.21,2.79-8.2,1.43-22.82-1.42-31.72-1.8-128.87-5.59-258.01-9.89-386.99-10.01-57.39-.05-113.26,7.21-170.01,9.09-21.97.73-44.12-.88-66.08-.08-78.07,2.82-149.68,16.67-224.88,36.12-18.89,4.89-37.56,10.47-55.97,16.88-1.59-.68-1.49-2-1.65-3.41-2.41-20.77,1.15-58.68,5.73-79.36,30.25-136.48,193.17-182.77,311.07-213.03,3.27-.36,5.34,5.98,7.73,8.86,12.35,14.88,40.76,16.45,58.97,17.03,74.04,2.34,102.37-58.23,146.51-105.57,26.76-28.7,59.88-61.83,89.01-87.99,10.35-9.29,13.15-12.65,27.64-14.36,44.55-5.26,95.19,8.53,132.89-23.11,42.62-35.76,34.78-91.38,27.44-140.54-.28-1.87,1.25-4.05-1.97-3.49-.07-5.83.12-11.7.04-17.54-.52-37.17,5.18-72.26-26.57-99.43-49.08-42.01-97.13-4.44-138.47,23.97-7.52,5.17-15.18,10.28-23,15l-17.48-1.02c-142.79-36.9-288.44-65.37-426.52-117.98,7.27-14.09,13.09-29.21,21.2-43.3,43.79-76.15,101.79-148.57,162.8-211.7.27,3.88,6.04,9.16,8.99,11.51,31.98,25.48,73.61-7.03,99.93-26.1,19.63-14.22,37.92-30.29,57.83-44.17,48.71,2.62,96.05-21.37,141.74-36.27,90.94-29.64,190.7-53.88,285.31-68.69,18.59-2.91,38.13-3.41,56.42-6.58,6.59-1.14,14.52-2.51,19.79-6.71,58.18,11.99,112.47,30.08,167.99,50.51,3.51,1.29,8.11,4.43,11.01,5.49ZM957.81,116.9c-6.56,1.91-11.71,9.19-12.76,15.74-1,6.24,1.13,11.02.76,16.74s-3.6,11.69-4.04,17.98c-3.56,50.93,68.55,45.26,101.49,44.5,57.16-1.34,127.2-.52,182.73-11.27,18.61-3.61,37.59-12.21,33.55-34.97-.3-1.67-.56-3.2-2.74-2.72,1.98-10.48-8.83-15.24-16.64-18.86-3.13-1.45-10.3-4.62-13.36-5.14-.32-.06-.67.04-1,0s-.67.03-1,0c-1.08-1.08-2.59-1.57-4-2-5.8-1.78-14.13-4.49-20-5-37.43-11.29-75.88-21.11-114.67-26.83-32.21-4.75-84.36-9.68-115.54-1.87-7.12,1.78-14.21,4.7-12.8,13.7Z"/>
      <path class="cls-1" d="M1400.81,106.9c-20.38,7.58-46.31,23.52-43.99,48.49,1.29,13.9,23.47,44.15,32.17,56.82,11.3,16.45,32.51,39.3,36.95,58.05,9.48,40.03-15.82,83.37-6.67,123.67,7.48,32.94,64.74,92.65,90.01,116.99,38.5,37.09,77.29,65.21,105.69,112.31,28.94,47.97,44.96,103.19,62.57,156.43,6.42,19.39,10.78,8.77,22.13,1.61,3.63-2.29,7.36-4.34,11.13-6.37s7.53-4.16,11-6c7.02-3.72,14.79-7.06,22-11,12.47-6.81,20.83-10.95,31.76-20.02,4.09-3.39,6.92-1.54,8-8.73,4.81-67.11,9.98-134.2,15.24-201.26,3.26.82,1.39-3.52,4-5,105.49,218.87,38.35,506.55-114.03,687.47-43.54,51.69-90.9,100.66-135.48,151.51-1.35,1.54-2.39,3.31-3.49,5.01-93.11-22.8-188.37-34.05-283.49-45.01-119.06-13.72-241.19-25.78-361.05-28.95-197.26-5.22-393.65-2.45-589.95,17.96-36.31,3.78-79.05,9.81-114.33,18.67-18.48,4.64-48.27,13.24-65.44,20.56-3.73,1.59-8,3.74-10.74,6.76,1.75-4.59-2.23-7.86-2.7-10.63-2.36-14.06-2.32-28.46-4.75-42.41-13.9-79.61-22.97-160.67-37.3-240.7-.71-3.98.31-7.42-2.25-11.25,5.06,1.97,12.62,6.17,17.19,7.32,5.89,1.48,18.82-4.9,25.8-6.83,38.56-10.61,79.32-17.55,118.43-27.57,57.98-14.85,122.26-37.79,180.37-47.63,6.55-1.11,30.15-2.16,33.25-6.01,4.52-5.6.48-15.39-5.09-18.74-5.03-3.03-25.72-4.99-31.96-4.54-3.06-1-8.32-1.83-11.51-1.99-35.37-1.8-71.57,1.93-106.87,6.11-68.97,8.19-140.67,20.69-208.62,34.88.01-2.92-1.04-5.52-1.08-8.49-.09-6.84,2.97-8.85-4.92-13.51,9.78-27.73,29.28-58.06,45.58-82.92,4.66-7.11,9.91-19.69,19.42-18.08,1.16.2,2.64,1.67,4.55,1.94,3.19.45,20.14-.76,21.45-2.94,2.75,3.15,8.1,1.92,12,2,3.65.08,7.35.06,11,0,3.31-.06,6.7.19,10,0,1.42-.08,2.89.27,4.3-.16,2.8-1.07,20.2-41.27,23.5-47.54,28.26-53.62,60.64-111.61,92.2-163.3,6.52-10.68,14.59-20.73,20-32,1.32.38,2.68.62,4,1,.49,2.23-.48,3.38-1.36,5.14-4.61,9.25-12.02,18.67-17.43,27.57-31.54,51.8-66.92,111.91-93.21,166.29-2.25,4.65-6.04,11.23-7,16-2.3-.5-2.16,1.13-2.84,2.61-2.78,6.05-9.6,17.74-11.14,22.92-.55,1.87.3,1.32,1.46,1.47,2.89.38,6.47-.15,9.52,0,.66.03,1.34-.04,2,0,72.45,4.31,140.59.77,213,14,10.2,18.04,15.75,37.18,18.86,57.64,2.59,17.09,2.43,51.21,14.12,63.88,12.83,13.92,44.88,13.73,62.57,14.43,23.91.95,41.02,4.39,58.97-14.94,11.29-12.16,20.94-27.82,29.49-42.01,29.36-29.12,58.93-58.07,88.03-87.47,22.54-22.78,54.54-63.58,86.92-70.08,30.34-6.09,54.75,3.23,83.57,4.54,15.71.72,50.56-20.71,60.99-32.98,26.68-31.39,19.94-64.17,19.49-102.01,3.22-.56,1.69,1.62,1.97,3.49,7.34,49.16,15.18,104.77-27.44,140.54-37.7,31.64-88.35,17.85-132.89,23.11-14.5,1.71-17.3,5.07-27.64,14.36-29.14,26.16-62.25,59.29-89.01,87.99-44.15,47.34-72.48,107.91-146.51,105.57-18.21-.58-46.62-2.15-58.97-17.03-2.39-2.88-4.47-9.22-7.73-8.86-117.91,30.26-280.82,76.55-311.07,213.03-4.58,20.68-8.14,58.6-5.73,79.36.16,1.41.06,2.73,1.65,3.41,18.41-6.41,37.08-11.99,55.97-16.88,75.2-19.45,146.81-33.3,224.88-36.12,21.96-.79,44.11.81,66.08.08,56.74-1.88,112.61-9.14,170.01-9.09,128.98.11,258.12,4.42,386.99,10.01,8.9.39,23.52,3.24,31.72,1.8,2.86-.5,5.06-2.41,8.21-2.79,14.94-1.79,34.6,2.32,49.98,3.07,124.19,6.05,226.83-19.36,339.22-68.87,96.66-42.58,181.43-97.15,235.12-190.88,26.44-46.16,50.52-128.78,45.19-181.79-.43-4.31-3.3-25.67-6-27.07-1.02-.53-1.98-.45-3.02-.05-27.94,11.31-55.49,23.81-83.73,34.36-13.94,5.21-31.97,15.28-45.28,3.78-2.21-1.91-3.4-5.06-5.44-6.56-7.02-5.18-9.33-3.16-15.33-12.67-20.67-32.77-24.46-90.6-40.43-129.57-40.05-97.71-139.18-133.75-186.94-217.06-34.58-60.33-5.92-98.88-3.84-158.18,2.18-62.27-84.8-87.92-72.72-151.72,5.36-28.3,26.96-52.06,53.73-61.77,10.5,3.82,22.59,5.58,33,10ZM120.81,937.89c1.54,1.55,26.83-4.53,31.02-5.48,23.39-5.3,51.1-11.26,73.77-18.23,6.63-2.04,13.93-3.71,16.71-10.29,5.09-12.06-6.11-7.83-13.95-10.04l-89.84,2.02c-2.23.54-19.62,40.09-17.71,42.01Z"/>
      <path class="cls-15" d="M1400.81,106.9c3.85-1.43,22.12-3.68,23.63-3.14s3.71.07,5.37.14c43.53,17.88,87.09,35.71,128.67,57.83,55.44,29.5,114.28,65.88,153.89,115.11.61,29.51.69,59.08.49,88.6-.71,106.8-1.19,214.12-2.09,320.91-.25,29.51.27,59.04.04,88.54-3.78,2.02-7.5,4.08-11.13,6.37-11.35,7.17-15.71,17.79-22.13-1.61-17.61-53.24-33.63-108.46-62.57-156.43-28.41-47.09-67.2-75.21-105.69-112.31-25.27-24.35-82.53-84.05-90.01-116.99-9.15-40.3,16.15-83.64,6.67-123.67-4.44-18.75-25.65-41.6-36.95-58.05-8.71-12.67-30.88-42.93-32.17-56.82-2.32-24.97,23.61-40.92,43.99-48.49Z"/>
      <path class="cls-8" d="M121.81,1386.9c30.78-8.38,61.42-17.55,92.79-23.71,188.66-37.04,377.64-35.68,568.75-41.25,216.94-6.32,441.7,9.99,654.65,52.27,32.4,6.43,66.03,13.96,97.63,23.42,1.71.51,3.79-.69,3.18,2.27-2.41,2.11-4.69,5.73-7.52,7.98-12.84,10.17-16.09,10.33-32.48,10.02-25.42-.48-49.93-8.39-74.81-12.69-34.79-6.01-67.91-6.7-102.68-10.32-60.3-6.28-119.43-20.04-180.02-24.98-175.03-14.28-351.34-1.8-527.03-6.05-138.82,8.65-278.15,13.8-414.66,41.34-16.9,3.41-33.11,12.45-47.8,15.7-6.47,1.43-16.61,1.1-21.03-4.47-3.24-4.08-7.7-23.5-8.97-29.53Z"/>
      <path class="cls-2" d="M1787.81,171.9c.99-.03,2.02-.06,3,0,5.74.32,15.89,3.67,20.7,6.8,1.74,1.13,9.28,8.16,10.37,9.63,3.4,4.58,1.07,21.17.93,27.57.17.61-22.73,297.62-23,301s-.71,7.35-1,11c-5.26,67.06-10.43,134.15-15.24,201.26-1.07,7.18-3.9,5.33-8,8.73-10.93,9.06-19.29,13.21-31.76,20.02.21-22.22.37-44.34.96-66.54,2.14-80.3,4.76-160.57,6-241,.71-45.71,4.92-96.88-16.08-138.84-2.91-5.82-6.79-12.55-10.87-17.62l-2.01,475c-3.47,1.84-7.34,4.04-11,6,.23-29.5-.29-59.03-.04-88.54.9-106.79,1.38-214.11,2.09-320.91.19-29.52.12-59.1-.49-88.6-39.61-49.23-98.44-85.62-153.89-115.11-41.58-22.12-85.14-39.95-128.67-57.83,21.38.91,32.7,4.37,52.92,9.58,89.54,23.09,181.49,48.3,269.53,57.48,11.87,1.24,23.82,1.33,35.55.94Z"/>
      <path class="cls-3" d="M1498.81,1417.9c-1.15,2.29-3.61,3.51-5.7,4.8-13.74,8.53-33.12,17.69-49.3,19.2h-2c-9.05.46-19.91.37-29,0h-2c-7.99-.38-16.38-1.32-24.38-2.12-33.17-3.34-66.54-8.55-98.25-18.85-3.74-.64-5.71,3.31-8.38,5.98-29.7-3.93-59.61-6.63-89.51-8.99-115.96-9.13-231.75-18.01-348.03-19.97-208-3.5-417.58-5.72-622.48,32.44-16.38,3.05-32.89,6.22-48.98,10.52-8.22-3.62-16.68-11.07-19-20,14.69-3.25,30.89-12.3,47.8-15.7,136.51-27.53,275.84-32.69,414.66-41.34,175.69,4.25,352-8.23,527.03,6.05,60.59,4.94,119.72,18.7,180.02,24.98,34.76,3.62,67.88,4.31,102.68,10.32,24.88,4.3,49.39,12.21,74.81,12.69Z"/>
      <path class="cls-2" d="M1549.81,1366.9c18.09,10.9,1.27,23.23-8.5,32.04-.83.74-2.23.72-2.5.96.61-2.96-1.48-1.76-3.18-2.27-31.6-9.46-65.23-16.99-97.63-23.42-212.95-42.28-437.71-58.59-654.65-52.27-191.11,5.57-380.09,4.21-568.75,41.25-31.38,6.16-62.01,15.33-92.79,23.71-2.38-11.28-5.79-20.28,3-30,2.74-3.03,7.01-5.17,10.74-6.76,17.17-7.32,46.95-15.92,65.44-20.56,35.29-8.86,78.02-14.89,114.33-18.67,196.3-20.41,392.69-23.18,589.95-17.96,119.86,3.17,241.99,15.24,361.05,28.95,95.13,10.96,190.39,22.2,283.49,45.01Z"/>
      <path class="cls-14" d="M317.81,504.9c138.53,37.83,276.38,78.42,414.77,116.82,1.87.6,3.03-.25,4.57-.98,12.97-6.12,28.74-21.29,41.66-28.84,7.82-4.72,15.48-9.83,23-15,1.88,2.47.67,5.85,1.47,9.03,1.54,6.11,10.9,19.15,14.43,25.57,1.04,1.9.92,5.11,1.1,5.4l-114.28,70.22-4.19.84c-92.57-30.55-186.95-55.27-280.54-82.56-50.07-14.6-99.99-29.75-150-44.5,5.65-14.45,12.21-28.29,17.54-42.96,1.21-3.34,4.3-17.14,6.41-18.59s20.1,4.47,24.05,5.55Z"/>
      <path class="cls-11" d="M818.81,616.9c.09.14,2.02.04,2.87,1.59,1.69,3.07,9.88,17.18,8.92,19.21-.1.21-3.08,3.06-3.26,3.19-8.32,6.4-21.7,12.88-31.05,18.99-18.7,12.23-37.21,24.8-55.8,37.2-8.41,5.61-19.4,15.37-27.68,19.82-2.51,1.35-10.69,4.09-13.45,4.04-6.19-.12-22.45-6.1-29.55-8.04-106.49-29.02-213.04-59.1-319-90-1.32-.38-2.68-.62-4-1-29.9-8.75-59.66-17.5-89-28,3.68-11.08,7.75-22.13,12-33,50.01,14.75,99.93,29.9,150,44.5,93.59,27.29,187.97,52.01,280.54,82.56l4.19-.84,114.28-70.22Z"/>
      <path class="cls-1" d="M1188.81,40.9c-5.28,4.2-13.21,5.57-19.79,6.71-18.28,3.17-37.83,3.67-56.42,6.58-94.62,14.81-194.37,39.05-285.31,68.69-45.69,14.89-93.03,38.89-141.74,36.27-19.91,13.87-38.19,29.94-57.83,44.17-26.31,19.06-67.95,51.57-99.93,26.1-2.95-2.35-8.72-7.63-8.99-11.51,9.82-10.16,19.41-20.61,30-30,1.51,5.12,7.29,12.63,11.67,15.83,11.4,8.33,18.51,3.79,28.64-3.01l91.69-68.81c10.57,8.77,31.73,1.74,43.54-1.96,18.51-5.8,36.54-13.83,54.94-20.06,74.31-25.16,150.12-45.51,228.16-55.84,20.09-2.66,40.85-3.51,60.73-6.27,11.47-1.59,33.27-4.21,28.63-20.87,30.96,3.05,61.58,7.73,92,14Z"/>
      <path class="cls-3" d="M1096.81,26.9c4.64,16.66-17.15,19.28-28.63,20.87-19.88,2.76-40.64,3.61-60.73,6.27-78.04,10.33-153.85,30.68-228.16,55.84-18.4,6.23-36.43,14.26-54.94,20.06-11.81,3.7-32.97,10.74-43.54,1.96-8.09-6.72-5.71-18.08-5-27,.2-2.53,1.03-4.63,1-8,103.06-25.73,204.87-56.61,309.81-74.69l82.19-12.31c9.99,2.36,24.84,5.66,28,17Z"/>
      <path class="cls-1" d="M778.81,591.9c-12.92,7.55-28.68,22.72-41.66,28.84-1.54.73-2.7,1.58-4.57.98-138.39-38.4-276.24-78.99-414.77-116.82,2.92-11.56,11.69-21.71,17-32,138.08,52.61,283.72,81.08,426.52,117.98l17.48,1.02Z"/>
      <path class="cls-3" d="M415.81,947.9c6.24-.45,26.93,1.51,31.96,4.54,5.57,3.35,9.61,13.14,5.09,18.74-3.11,3.85-26.71,4.9-33.25,6.01-58.11,9.84-122.39,32.78-180.37,47.63-39.1,10.02-79.87,16.96-118.43,27.57-6.99,1.92-19.91,8.31-25.8,6.83-4.56-1.15-12.13-5.35-17.19-7.32-8.64-3.37-17.36-6.64-26-10-.52-2.47,1.16-2.11,2.71-2.74,81.09-32.63,183.15-57.13,269.08-74.97,27.91-5.79,64.33-14.29,92.21-16.29Z"/>
      <path class="cls-10" d="M1023.81,3.9c-18.48,1.04-39.01,6.46-57.19,10.31-63.18,13.39-125.86,28.73-188.39,44.61-34.31,8.72-69.57,14.42-102.42,28.08-.21-9.19.48-13.36,3-22,11.46-39.33,32.79-43.78,69.81-50.69C820.28.85,904.54-1.72,977.27.94c15.54.57,31.2.32,46.54,2.96Z"/>
      <path class="cls-4" d="M257.81,593.9c29.34,10.5,59.1,19.25,89,28-5.41,11.27-13.48,21.32-20,32l-5.32-.9c-41.29,68.64-79.36,139.79-114.68,211.9-3.3.19-6.69-.06-10,0l109.57-210.96c1.92-5.27-4.67-3.74-7.99-4.87l-112.58,215.83c-3.9-.08-9.25,1.15-12-2,22.71-76.22,64.8-145.19,98.96-216.55.39-2.13-.29-1.14-1.4-1.48-11.46-3.44-25.85-3.45-37.55-6.97,5.34-10.84,10.33-26.02,16.07-36.22.28-.49,5.06-6.58,5.4-6.85.81-.65,1.46-1.02,2.53-.93Z"/>
      <path class="cls-10" d="M415.81,947.9c-27.88,2-64.3,10.5-92.21,16.29-85.93,17.84-187.99,42.34-269.08,74.97-1.55.63-3.23.26-2.71,2.74-11.59-4.51-23-9.49-34.49-14.01-5.11-2.01-14.72-2.86-17.05-8.02-2.5-5.51,13.07-13.07,17.34-14.68,18.97-7.13,39.63-10.99,59.2-15.3,3.96-.87,8.03-2.17,12-3,67.96-14.19,139.66-26.69,208.62-34.88,35.29-4.19,71.5-7.92,106.87-6.11,3.19.16,8.45.99,11.51,1.99Z"/>
      <path class="cls-6" d="M233.81,637.9c11.7,3.52,26.09,3.53,37.55,6.97,1.11.33,1.79-.65,1.4,1.48-34.15,71.37-76.25,140.34-98.96,216.55-1.31,2.18-18.26,3.39-21.45,2.94-1.91-.27-3.39-1.74-4.55-1.94.34-2.4-.83-4.66-.56-7.04,2.17-19.06,17.28-50.77,24.32-69.69,15.33-41.19,30.82-85.04,49.47-124.53,3.92-8.29,8.64-16.36,12.77-24.73Z"/>
      <path class="cls-11" d="M675.81,104.9c-.71,8.92-3.09,20.28,5,27l-91.69,68.81c-10.13,6.81-17.25,11.34-28.64,3.01-4.38-3.2-10.16-10.7-11.67-15.83-.84-2.86-.45-7.34-1-10,35.94-22.65,72.33-44.77,109.98-64.52,5.72-3,11.92-6.39,18.02-8.48Z"/>
      <path class="cls-5" d="M675.81,86.9c.05,2.26.99,4.49,1,5,.03,1.66-.01,3.33,0,5,.03,3.37-.8,5.47-1,8-6.1,2.09-12.3,5.48-18.02,8.48-37.65,19.75-74.04,41.87-109.98,64.52-1.76-8.45-4.32-12.41-2.76-22.26,2.86-18.1,32.49-34.05,47.09-42.91,28.11-17.08,57.03-33.61,86.67-47.83-2.52,8.64-3.21,12.81-3,22Z"/>
      <path class="cls-10" d="M1068.81,9.9l-82.19,12.31c-104.95,18.07-206.75,48.95-309.81,74.69-.01-1.67.03-3.34,0-5,34.17-14.04,70.76-20.09,106.42-29.08,38.29-9.65,76-18.76,114.59-27.41,48.93-10.96,94.17-23.16,144.54-27.46,1.82-.16,3.72.29,4.45-2.06,7.44.94,14.7,2.28,22,4Z"/>
      <path class="cls-3" d="M1046.81,5.9c-.72,2.34-2.62,1.9-4.45,2.06-50.37,4.3-95.61,16.5-144.54,27.46-38.59,8.65-76.3,17.75-114.59,27.41-35.67,8.99-72.25,15.03-106.42,29.08-.01-.51-.95-2.74-1-5,32.85-13.66,68.11-19.36,102.42-28.08,62.52-15.88,125.21-31.22,188.39-44.61,18.18-3.85,38.71-9.27,57.19-10.31,6.88-.39,16.01,1.11,23,2Z"/>
      <path class="cls-12" d="M88.81,986.9c-3.97.83-8.04,2.13-12,3,.94-5.57,1.12-11.56,2.47-17.03.8-3.25,2.72-5.68,3.53-7.97,7.89,4.67,4.83,6.68,4.92,13.51.04,2.97,1.09,5.57,1.08,8.49Z"/>
      <path class="cls-12" d="M1802.81,522.9c-2.61,1.48-.74,5.82-4,5,.29-3.65.73-7.62,1-11,1.38,1.76,2.03,3.99,3,6Z"/>
      <path class="cls-12" d="M921.81,1454.9c-3.67,1.68-10.27,1.69-14,0,4.51-.05,9.66-.1,14,0Z"/>
      <path class="cls-12" d="M300.81,1446.9c-2.18,1.65-5.86,1.63-8,0,2.41-.04,5.6,0,8,0Z"/>
      <path class="cls-12" d="M219.81,1446.9c-2.1-.02-3.05.21-6,0,.95-1.61,4.99-1.64,6,0Z"/>
      <path class="cls-12" d="M491.81,1440.9c-1.03-.02-2.91.01-4,0,.32-1.5,3.59-1.56,4,0Z"/>
      <path class="cls-12" d="M435.81,1440.9c-.83,0-2.25-.01-3,0,.14-1.5,2.86-1.5,3,0Z"/>
      <path class="cls-12" d="M590.81,1444.9c-.77-.02-2.13.02-3,0,.14-1.5,2.86-1.5,3,0Z"/>
      <path class="cls-12" d="M539.81,1442.9c-.44-.02-1.16.03-2,0l.51-.99,1.49.99Z"/>
      <path class="cls-12" d="M709.81,1448.9c-.52-.01-1.4.02-2,0l.51-.99,1.49.99Z"/>
      <path class="cls-12" d="M765.81,1449.9c-.42-.02-1.16.03-2,0l.51-.99,1.49.99Z"/>
      <path class="cls-12" d="M802.81,1451.9c-.41-.02-1.14.03-2,0l.51-.99,1.49.99Z"/>
      <path class="cls-12" d="M824.81,1452.9c-.42-.02-1.14.03-2,0l.51-.99,1.49.99Z"/>
      <path class="cls-12" d="M855.81,1453.9c-.48-.01-1.39.02-2,0l.51-.99,1.49.99Z"/>
      <path class="cls-12" d="M966.81,1453.9c-.58,0-1.5,0-2,0l.51-.99,1.49.99Z"/>
      <path class="cls-13" d="M966.81,669.9c.45,37.85,7.19,70.62-19.49,102.01-10.43,12.27-45.28,33.7-60.99,32.98-28.82-1.31-53.23-10.63-83.57-4.54-32.39,6.5-64.38,47.3-86.92,70.08-29.1,29.4-58.67,58.35-88.03,87.47l-16.96,11.54c-11.97,1.35-15.18,10.43-24.37,15.63-16.97,9.59-42.2,9.13-60.87,5.54-28.32-5.46-23.38-27.91-28.48-50.52-2.55-11.31-9.05-29.37-18.29-36.71-7.03-5.59-24.8-7.29-14.02-19.48,3.49.25,12.36-1.82,16.51-1.99,28.14-1.12,56.37-3.36,84.49-5.01,25.78-1.51,51.08-2.08,76.22-9.28,39.85-11.43,70.26-58.89,72.83-99.17,1.04-16.34.37-35.46-2.04-51.54,8.28-4.45,19.27-14.2,27.68-19.82,18.59-12.4,37.09-24.98,55.8-37.2,9.35-6.11,22.73-12.59,31.05-18.99.18-.14,3.16-2.99,3.26-3.19.96-2.03-7.23-16.14-8.92-19.21-.85-1.55-2.78-1.45-2.87-1.59-.18-.29-.05-3.5-1.1-5.4-3.53-6.42-12.9-19.47-14.43-25.57-.8-3.18.41-6.56-1.47-9.03,41.34-28.41,89.39-65.98,138.47-23.97,31.75,27.17,26.05,62.25,26.57,99.43.08,5.84-.11,11.71-.04,17.54ZM885.59,561.18c-55.45,6.68-48.69,93.64,9.71,89.7,58.98-3.98,52.96-97.25-9.71-89.7ZM841.81,751.9c8.24,5.02,19.25,9.09,28.78,10.72,16.71,2.85,48.01.16,61.7-10.74,20.26-16.15,8.31-46.7-16.06-49.89-12.83-1.68-35.12,2.7-46.42-2.08-2.87-1.22-4.37-6.39-6.48-9.02-30.07-37.6-91.41,8.72-60.5,47.5,7.9,9.91,26.77,17.16,38.98,13.52ZM580.57,884.15c-35.81,4.85-36.52,60.31-1,65.48,52.83,7.69,51.55-72.33,1-65.48Z"/>
      <path class="cls-1" d="M957.81,116.9c.58,3.67,8.21,15.51,10.18,20.32,1.47,3.58,4.03,10.14,4.82,13.68.25,1.13.88,4.08,1,5s-.13,2.04,0,3c1.21,8.69-1.1,20.89,8.68,25.79,6.66,3.34,19.16,2.54,26.81,2.2,46.06-2.07,93.69-8.99,140.02-11.98,25.3-1.63,50.65-2.39,75.95-4.05,7.52-.49,29.63,2.17,31.54-7.96,2.18-.49,2.44,1.04,2.74,2.72,4.04,22.76-14.94,31.36-33.55,34.97-55.52,10.76-125.56,9.94-182.73,11.27-32.94.77-105.06,6.43-101.49-44.5.44-6.3,3.67-12.35,4.04-17.98s-1.76-10.5-.76-16.74c1.05-6.55,6.2-13.83,12.76-15.74Z"/>
      <path class="cls-3" d="M1224.81,138.9c.33.03.67-.04,1,0h1c3.05.52,10.22,3.69,13.36,5.14,7.81,3.62,18.62,8.38,16.64,18.86s-24.02,7.46-31.54,7.96c-25.3,1.66-50.65,2.42-75.95,4.05-46.33,2.99-93.96,9.9-140.02,11.98-7.65.34-20.15,1.14-26.81-2.2-9.78-4.9-7.47-17.1-8.68-25.79,45.66-6.69,91.4-13.63,137.51-16.99,34.23-2.49,79.75-5.86,113.49-3.01Z"/>
      <path class="cls-10" d="M1200.81,131.9c-15.24-1.32-31.37.5-46.51.99-37.83,1.22-77.4,2.34-114.98,6.02-22.43,2.2-44.87,5.79-66.51,11.99-.79-3.54-3.35-10.1-4.82-13.68-1.97-4.81-9.6-16.65-10.18-20.32-1.42-9,5.68-11.92,12.8-13.7,31.18-7.81,83.33-2.88,115.54,1.87,38.79,5.72,77.24,15.54,114.67,26.83Z"/>
      <path class="cls-3" d="M1200.81,131.9c5.87.51,14.2,3.22,20,5-3.67,1.66-9.52,1.24-13.55,1.05-49.81-2.33-105.04.76-154.94,4.96-26.46,2.23-53.02,5.58-78.51,12.99-.12-.92-.75-3.87-1-5,21.64-6.21,44.07-9.8,66.51-11.99,37.59-3.68,77.16-4.79,114.98-6.02,15.14-.49,31.27-2.3,46.51-.99Z"/>
      <path class="cls-10" d="M1220.81,136.9c1.41.43,2.92.92,4,2-33.74-2.85-79.26.52-113.49,3.01-46.11,3.36-91.85,10.3-137.51,16.99-.13-.96.13-2.04,0-3,25.49-7.41,52.05-10.77,78.51-12.99,49.91-4.2,105.13-7.29,154.94-4.96,4.03.19,9.88.61,13.55-1.05Z"/>
      <path class="cls-4" d="M669.81,712.9c.11,3.48-.17,7,0,10.49.81,15.87-2.76,35.85-6.32,51.7-3.62,16.14-8.95,35.55-25.42,42.58-27.43,11.7-67.97,9.04-97.8,10.2-13.45.52-28.76,3.15-41.96,3.12-25.5-.05-53.99-4.91-79.96-6.12-31.02-1.45-63-2.35-94-3-28.48-.6-57.06.53-85.54.04,26.29-54.38,61.67-114.49,93.21-166.29,5.42-8.9,12.82-18.32,17.43-27.57.87-1.75,1.85-2.91,1.36-5.14,105.96,30.9,212.51,60.98,319,90Z"/>
      <path class="cls-5" d="M712.81,716.9c2.42,16.08,3.08,35.2,2.04,51.54-2.57,40.29-32.97,87.74-72.83,99.17-25.13,7.21-50.44,7.77-76.22,9.28.29-2.97.42-2.6-2.14-3.32-18.35-5.14-48.56-.24-68.35-.69-36.39-.83-81.37-14.26-116.06-9.05-11.58,1.74-30.88-3.1-42.96-3.93-32.36-2.22-64.68-.53-97.03-.96-5.43-.07-8.84-3.33-8.46,5.95-.66-.04-1.34.03-2,0,1.11-8.86,1.24-18.26,3-27,.96-4.77,4.75-11.35,7-16,28.48.49,57.06-.64,85.54-.04,31,.65,62.98,1.55,94,3,25.97,1.21,54.45,6.07,79.96,6.12,13.2.03,28.51-2.6,41.96-3.12,29.84-1.16,70.37,1.51,97.8-10.2,16.48-7.03,21.8-26.43,25.42-42.58,3.56-15.84,7.13-35.83,6.32-51.7-.18-3.49.1-7.01,0-10.49,7.1,1.93,23.36,7.92,29.55,8.04,2.76.05,10.94-2.69,13.45-4.04Z"/>
      <path class="cls-8" d="M1743.81,757.9c-7.21,3.94-14.98,7.28-22,11l2.01-475c4.08,5.07,7.96,11.8,10.87,17.62,21,41.96,16.79,93.13,16.08,138.84-1.24,80.43-3.86,160.7-6,241-.59,22.21-.75,44.32-.96,66.54Z"/>
      <path class="cls-7" d="M464.81,883.9c-10.77,12.19,6.99,13.89,14.02,19.48,9.24,7.34,15.74,25.4,18.29,36.71,5.1,22.61.16,45.06,28.48,50.52,18.67,3.6,43.9,4.06,60.87-5.54,9.19-5.2,12.4-14.28,24.37-15.63l16.96-11.54c-8.54,14.2-18.19,29.85-29.49,42.01-17.95,19.33-35.06,15.89-58.97,14.94-17.69-.7-49.74-.51-62.57-14.43-11.68-12.68-11.53-46.79-14.12-63.88-3.1-20.47-8.65-39.6-18.86-57.64,4.53.83,18.78,4.84,21,5Z"/>
      <path class="cls-7" d="M120.81,937.89c-1.91-1.92,15.48-41.47,17.71-42.01l89.84-2.02c7.84,2.21,19.04-2.02,13.95,10.04-2.78,6.58-10.08,8.25-16.71,10.29-22.67,6.97-50.38,12.93-73.77,18.23-4.19.95-29.47,7.03-31.02,5.48Z"/>
      <path class="cls-11" d="M230.81,864.9c-.38-9.28,3.03-6.02,8.46-5.95,32.35.43,64.66-1.25,97.03.96,12.08.83,31.38,5.67,42.96,3.93,34.7-5.21,79.67,8.22,116.06,9.05,19.78.45,50-4.44,68.35.69,2.56.72,2.44.34,2.14,3.32-28.12,1.65-56.35,3.89-84.49,5.01-4.15.17-13.02,2.24-16.51,1.99-2.22-.16-16.47-4.17-21-5-72.41-13.23-140.55-9.69-213-14Z"/>
      <path class="cls-6" d="M196.81,864.9c-3.65.06-7.35.08-11,0l112.58-215.83c3.32,1.13,9.91-.4,7.99,4.87l-109.57,210.96Z"/>
      <path class="cls-6" d="M326.81,653.9c-31.55,51.69-63.93,109.69-92.2,163.3-3.3,6.26-20.7,46.47-23.5,47.54-1.42.43-2.88.08-4.3.16,35.32-72.11,73.39-143.25,114.68-211.9l5.32.9Z"/>
      <path class="cls-4" d="M231.81,837.9c-1.76,8.74-1.89,18.14-3,27-3.05-.14-6.63.38-9.52,0-1.15-.15-2.01.4-1.46-1.47,1.54-5.18,8.36-16.87,11.14-22.92.68-1.48.54-3.11,2.84-2.61Z"/>
      <path class="cls-11" d="M885.59,561.18c62.67-7.55,68.69,85.72,9.71,89.7-58.4,3.94-65.15-83.02-9.71-89.7Z"/>
      <path class="cls-9" d="M841.81,751.9c.12-.03.65-1.4,1.69-1.77,14.58-5.09,24.38-15.21,27.2-30.84l-.89-19.39c11.29,4.79,33.58.4,46.42,2.08,24.37,3.2,36.32,33.74,16.06,49.89-13.69,10.91-44.99,13.6-61.7,10.74-9.53-1.63-20.54-5.7-28.78-10.72Z"/>
      <path class="cls-8" d="M869.81,699.9l.89,19.39c-2.82,15.63-12.62,25.75-27.2,30.84-1.05.37-1.57,1.73-1.69,1.77-12.21,3.64-31.07-3.61-38.98-13.52-30.91-38.78,30.43-85.1,60.5-47.5,2.11,2.64,3.6,7.81,6.48,9.02ZM830.57,688.16c-35.26,4.28-25.62,64.01,12.52,50.52,27.48-9.72,18.28-54.26-12.52-50.52Z"/>
      <path class="cls-10" d="M580.57,884.15c50.55-6.85,51.83,73.17-1,65.48-35.52-5.17-34.81-60.63,1-65.48ZM580.54,892.12c-21.29,4.32-24.1,44.23.86,47.69,37.29,5.16,37.41-55.45-.86-47.69Z"/>
      <path class="cls-2" d="M830.57,688.16c30.8-3.74,40,40.8,12.52,50.52-38.14,13.49-47.78-46.23-12.52-50.52Z"/>
      <path class="cls-3" d="M580.54,892.12c38.27-7.76,38.15,52.84.86,47.69-24.96-3.45-22.15-43.37-.86-47.69Z"/>
      <path class="cls-10" d="M1229.05,1452.89c22.46-5.23,33.91-9.15,50.76-26-29.7-3.93-59.61-6.63-89.51-8.99-115.96-9.13-231.75-18.01-348.03-19.97-208-3.5-417.58-5.72-622.48,32.44-16.38,3.05-32.89,6.22-48.98,10.52,3.84,1.69,14.67,5,18.5,5h14.92c59.91,8.4,259.09,24,495.58,24,425.77,0,518.54-9,529.24-17Z"/>
    </g>
  </g>
</svg>