<?xml version="1.0" encoding="UTF-8"?>
<svg id="Layer_2" data-name="Layer 2" xmlns="http://www.w3.org/2000/svg" viewBox="0 0 842.81 668.2">
  <defs>
    <style>
      .cls-1 {
        fill: #ede9dc;
      }

      .cls-2 {
        fill: #017c83;
      }

      .cls-3 {
        fill: #bc032f;
      }

      .cls-4 {
        fill: #d7d7d7;
      }

      .cls-5 {
        fill: #5e5e5e;
      }

      .cls-6 {
        fill: #9b9b9b;
      }

      .cls-7 {
        fill: #363636;
      }

      .cls-8 {
        fill: #01afb9;
      }

      .cls-9 {
        fill: #41ccd2;
      }

      .cls-10 {
        fill: #e40136;
      }

      .cls-11 {
        fill: #474747;
      }

      .cls-12 {
        fill: #fefbf1;
      }

      .cls-13 {
        fill: #949494;
      }

      .cls-14 {
        fill: gray;
      }

      .cls-15 {
        fill: #00b0ba;
      }
    </style>
  </defs>
  <g id="Layer_1-2" data-name="Layer 1">
    <g>
      <path class="cls-12" d="M621.8,44.05c-12.17,4.42-21.99,15.22-24.42,28.08-5.49,29,34.05,40.66,33.06,68.97-.94,26.96-13.97,44.48,1.75,71.91,21.71,37.87,66.77,54.26,84.98,98.68,7.26,17.71,8.98,44,18.38,58.9,2.73,4.32,3.78,3.41,6.97,5.76.93.68,1.47,2.11,2.47,2.98,6.05,5.23,14.25.65,20.59-1.72,12.84-4.8,25.36-10.48,38.06-15.62.47-.18.91-.22,1.37.02,1.23.64,2.53,10.35,2.73,12.31,2.42,24.1-8.52,61.66-20.54,82.64-24.41,42.61-62.94,67.41-106.89,86.77-51.09,22.51-97.75,34.05-154.21,31.31-6.99-.34-15.93-2.21-22.72-1.39-1.43.17-2.43,1.04-3.73,1.27-3.73.65-10.38-.65-14.42-.82-58.58-2.54-117.29-4.5-175.92-4.55-26.09-.02-51.49,3.28-77.28,4.13-9.99.33-20.06-.4-30.04-.04-35.49,1.28-68.04,7.58-102.23,16.42-8.59,2.22-17.07,4.76-25.45,7.67-.72-.31-.68-.91-.75-1.55-1.1-9.44.52-26.68,2.61-36.08,13.75-62.04,87.81-83.08,141.41-96.84,1.48-.16,2.43,2.72,3.52,4.03,5.62,6.76,18.53,7.48,26.81,7.74,33.66,1.06,46.54-26.47,66.6-47.99,12.17-13.05,27.22-28.11,40.46-40,4.7-4.22,5.98-5.75,12.57-6.53,20.25-2.39,43.27,3.88,60.41-10.5,19.37-16.26,15.81-41.54,12.48-63.89-.13-.85.57-1.84-.89-1.59-.03-2.65.06-5.32.02-7.97-.23-16.9,2.35-32.85-12.08-45.2-22.31-19.1-44.16-2.02-62.95,10.9-3.42,2.35-6.9,4.67-10.46,6.82l-7.95-.46c-64.91-16.78-131.12-29.72-193.89-53.63,3.31-6.4,5.95-13.28,9.64-19.68,19.91-34.62,46.27-67.54,74.01-96.24.12,1.76,2.74,4.16,4.09,5.23,14.54,11.58,33.46-3.2,45.43-11.86,8.93-6.47,17.24-13.77,26.29-20.08,22.15,1.19,43.66-9.72,64.43-16.49,41.34-13.47,86.69-24.49,129.7-31.23,8.45-1.32,17.33-1.55,25.65-2.99,2.99-.52,6.6-1.14,9-3.05,26.45,5.45,51.13,13.68,76.37,22.96,1.6.59,3.69,2.01,5.01,2.49ZM435.41,53.14c-2.98.87-5.32,4.18-5.8,7.16s.51,5.01.34,7.61-1.63,5.31-1.83,8.18c-1.62,23.15,31.16,20.58,46.14,20.23,25.99-.61,57.82-.24,83.07-5.13,8.46-1.64,17.09-5.55,15.25-15.9-.13-.76-.25-1.46-1.24-1.23.9-4.77-4.02-6.93-7.57-8.57-1.43-.66-4.68-2.1-6.07-2.34-.15-.03-.31.02-.45,0s-.3.01-.45,0c-.49-.49-1.18-.71-1.82-.91-2.63-.81-6.42-2.04-9.09-2.27-17.01-5.13-34.49-9.6-52.13-12.2-14.64-2.16-38.35-4.4-52.52-.85-3.24.81-6.46,2.14-5.82,6.23Z"/>
      <path class="cls-1" d="M636.8,48.59c-9.26,3.44-21.05,10.69-20,22.04.59,6.32,10.67,20.07,14.63,25.83,5.14,7.48,14.78,17.87,16.8,26.39,4.31,18.2-7.19,37.9-3.03,56.22,3.4,14.98,29.43,42.12,40.92,53.18,17.5,16.86,35.13,29.65,48.05,51.05,13.15,21.81,20.44,46.91,28.44,71.11,2.92,8.82,4.9,3.99,10.06.73,1.65-1.04,3.34-1.97,5.06-2.9s3.43-1.89,5-2.73c3.19-1.69,6.72-3.21,10-5,5.67-3.1,9.47-4.98,14.44-9.1,1.86-1.54,3.15-.7,3.64-3.97,2.19-30.51,4.54-61,6.93-91.49,1.48.37.63-1.6,1.82-2.27,47.96,99.5,17.43,230.27-51.84,312.52-19.79,23.5-41.32,45.76-61.59,68.88-.61.7-1.08,1.51-1.59,2.28-42.33-10.37-85.63-15.48-128.87-20.46-54.12-6.24-109.64-11.72-164.13-13.16-89.67-2.37-178.95-1.11-268.19,8.17-16.51,1.72-35.93,4.46-51.97,8.49-8.4,2.11-21.94,6.02-29.75,9.35-1.7.72-3.64,1.7-4.88,3.07.8-2.09-1.01-3.57-1.23-4.83-1.07-6.39-1.05-12.94-2.16-19.28-6.32-36.19-10.44-73.04-16.96-109.42-.32-1.81.14-3.38-1.02-5.12,2.3.9,5.74,2.81,7.81,3.33,2.68.67,8.55-2.23,11.73-3.1,17.53-4.83,36.06-7.98,53.84-12.53,26.36-6.75,55.58-17.18,81.99-21.65,2.98-.5,13.7-.98,15.12-2.73,2.06-2.55.22-7-2.31-8.52-2.29-1.38-11.69-2.27-14.53-2.06-1.39-.45-3.78-.83-5.23-.9-16.08-.82-32.54.88-48.58,2.78-31.35,3.72-63.95,9.4-94.84,15.85,0-1.33-.47-2.51-.49-3.86-.04-3.11,1.35-4.02-2.24-6.14,4.44-12.6,13.31-26.39,20.72-37.69,2.12-3.23,4.51-8.95,8.83-8.22.53.09,1.2.76,2.07.88,1.45.21,9.15-.35,9.75-1.34,1.25,1.43,3.68.87,5.46.91,1.66.04,3.34.03,5,0,1.51-.03,3.05.08,4.55,0,.65-.04,1.31.12,1.96-.07,1.27-.49,9.18-18.76,10.68-21.61,12.85-24.37,27.57-50.74,41.91-74.24,2.96-4.85,6.63-9.43,9.09-14.55.6.17,1.22.28,1.82.45.22,1.01-.22,1.54-.62,2.34-2.1,4.21-5.46,8.49-7.93,12.53-14.34,23.55-30.42,50.87-42.37,75.59-1.02,2.11-2.74,5.1-3.18,7.27-1.05-.23-.98.51-1.29,1.19-1.26,2.75-4.36,8.07-5.06,10.42-.25.85.14.6.66.67,1.32.17,2.94-.07,4.33,0,.3.01.61-.02.91,0,32.93,1.96,63.91.35,96.83,6.36,4.64,8.2,7.16,16.9,8.57,26.2,1.18,7.77,1.11,23.28,6.42,29.04,5.83,6.33,20.4,6.24,28.44,6.56,10.87.43,18.65,1.99,26.81-6.79,5.13-5.53,9.52-12.65,13.4-19.1,13.35-13.24,26.79-26.4,40.02-39.76,10.25-10.35,24.79-28.9,39.51-31.86,13.79-2.77,24.89,1.47,37.99,2.07,7.14.33,22.99-9.41,27.73-14.99,12.13-14.27,9.07-29.17,8.86-46.37,1.46-.26.77.74.89,1.59,3.34,22.35,6.9,47.63-12.48,63.89-17.14,14.38-40.16,8.11-60.41,10.5-6.59.78-7.86,2.3-12.57,6.53-13.25,11.89-28.3,26.95-40.46,40-20.07,21.52-32.95,49.05-66.6,47.99-8.28-.26-21.19-.98-26.81-7.74-1.09-1.31-2.03-4.19-3.52-4.03-53.6,13.76-127.66,34.8-141.41,96.84-2.08,9.4-3.7,26.64-2.61,36.08.07.64.03,1.24.75,1.55,8.37-2.91,16.86-5.45,25.45-7.67,34.19-8.84,66.74-15.14,102.23-16.42,9.98-.36,20.05.37,30.04.04,25.8-.86,51.19-4.15,77.28-4.13,58.63.05,117.34,2.01,175.92,4.55,4.05.18,10.69,1.47,14.42.82,1.3-.23,2.3-1.1,3.73-1.27,6.79-.81,15.73,1.05,22.72,1.39,56.46,2.75,103.11-8.8,154.21-31.31,43.94-19.36,82.48-44.16,106.89-86.77,12.02-20.98,22.96-58.54,20.54-82.64-.2-1.96-1.5-11.67-2.73-12.31-.46-.24-.9-.2-1.37-.02-12.7,5.14-25.22,10.83-38.06,15.62-6.34,2.37-14.53,6.95-20.59,1.72-1.01-.87-1.55-2.3-2.47-2.98-3.19-2.35-4.24-1.44-6.97-5.76-9.4-14.9-11.12-41.19-18.38-58.9-18.21-44.42-63.27-60.8-84.98-98.68-15.72-27.42-2.69-44.95-1.75-71.91.99-28.31-38.55-39.97-33.06-68.97,2.44-12.87,12.26-23.66,24.42-28.08,4.78,1.74,10.27,2.54,15,4.55ZM54.92,426.36c.7.71,12.19-2.06,14.1-2.49,10.63-2.41,23.23-5.12,33.54-8.29,3.01-.93,6.33-1.69,7.59-4.68,2.31-5.48-2.78-3.56-6.34-4.56l-40.84.92c-1.01.25-8.92,18.23-8.05,19.1Z"/>
      <path class="cls-15" d="M636.8,48.59c1.75-.65,10.06-1.67,10.74-1.43s1.69.03,2.44.06c19.79,8.13,39.59,16.23,58.49,26.29,25.2,13.41,51.95,29.95,69.95,52.33.28,13.41.31,26.86.22,40.28-.32,48.55-.54,97.34-.95,145.88-.11,13.41.12,26.84.02,40.25-1.72.92-3.41,1.85-5.06,2.9-5.16,3.26-7.14,8.09-10.06-.73-8.01-24.2-15.29-49.31-28.44-71.11-12.91-21.41-30.55-34.19-48.05-51.05-11.49-11.07-37.52-38.21-40.92-53.18-4.16-18.32,7.34-38.02,3.03-56.22-2.02-8.52-11.66-18.91-16.8-26.39-3.96-5.76-14.04-19.51-14.63-25.83-1.06-11.35,10.73-18.6,20-22.04Z"/>
      <path class="cls-8" d="M55.37,630.47c13.99-3.81,27.92-7.98,42.18-10.78,85.76-16.84,171.67-16.22,258.55-18.75,98.62-2.87,200.79,4.54,297.6,23.76,14.73,2.92,30.02,6.34,44.38,10.65.78.23,1.72-.31,1.45,1.03-1.1.96-2.13,2.61-3.42,3.63-5.84,4.62-7.31,4.7-14.76,4.56-11.56-.22-22.7-3.81-34.01-5.77-15.82-2.73-30.87-3.05-46.68-4.69-27.41-2.86-54.29-9.11-81.83-11.36-79.57-6.49-159.72-.82-239.58-2.75-63.11,3.93-126.45,6.27-188.5,18.79-7.68,1.55-15.05,5.66-21.73,7.14-2.94.65-7.55.5-9.56-2.03-1.47-1.86-3.5-10.68-4.08-13.42Z"/>
      <path class="cls-2" d="M812.72,78.14c.45-.01.92-.03,1.36,0,2.61.15,7.22,1.67,9.41,3.09.79.52,4.22,3.71,4.71,4.38,1.54,2.08.48,9.62.42,12.53.08.28-10.33,135.3-10.46,136.83s-.32,3.34-.45,5c-2.39,30.49-4.74,60.98-6.93,91.49-.49,3.27-1.77,2.42-3.64,3.97-4.97,4.12-8.77,6-14.44,9.1.1-10.1.17-20.15.44-30.25.97-36.5,2.16-72.99,2.73-109.56.32-20.78,2.24-44.04-7.31-63.11-1.32-2.64-3.09-5.71-4.94-8.01l-.91,215.93c-1.58.84-3.34,1.84-5,2.73.1-13.41-.13-26.84-.02-40.25.41-48.55.63-97.33.95-145.88.09-13.42.06-26.86-.22-40.28-18-22.38-44.75-38.92-69.95-52.33-18.9-10.06-38.7-18.16-58.49-26.29,9.72.41,14.86,1.99,24.06,4.36,40.7,10.49,82.5,21.96,122.52,26.13,5.4.56,10.83.6,16.16.43Z"/>
      <path class="cls-3" d="M681.35,644.56c-.52,1.04-1.64,1.59-2.59,2.18-6.25,3.88-15.06,8.04-22.41,8.73h-.91c-4.12.21-9.05.17-13.18,0h-.91c-3.63-.17-7.44-.6-11.08-.97-15.08-1.52-30.25-3.89-44.66-8.57-1.7-.29-2.6,1.5-3.81,2.72-13.5-1.79-27.1-3.02-40.69-4.09-52.71-4.15-105.35-8.19-158.21-9.08-94.55-1.59-189.83-2.6-282.98,14.74-7.44,1.39-14.95,2.83-22.26,4.78-3.74-1.65-7.58-5.03-8.64-9.09,6.68-1.48,14.04-5.59,21.73-7.14,62.06-12.52,125.4-14.86,188.5-18.79,79.87,1.93,160.02-3.74,239.58,2.75,27.54,2.25,54.42,8.5,81.83,11.36,15.8,1.65,30.86,1.96,46.68,4.69,11.31,1.95,22.45,5.55,34.01,5.77Z"/>
      <path class="cls-2" d="M704.53,621.38c8.22,4.96.58,10.56-3.86,14.56-.38.34-1.01.33-1.14.44.28-1.35-.67-.8-1.45-1.03-14.37-4.3-29.65-7.72-44.38-10.65-96.8-19.22-198.98-26.63-297.6-23.76-86.88,2.53-172.78,1.92-258.55,18.75-14.26,2.8-28.19,6.97-42.18,10.78-1.08-5.13-2.63-9.22,1.36-13.64,1.24-1.38,3.18-2.35,4.88-3.07,7.8-3.33,21.34-7.24,29.75-9.35,16.04-4.03,35.47-6.77,51.97-8.49,89.24-9.28,178.52-10.54,268.19-8.17,54.49,1.44,110.01,6.93,164.13,13.16,43.24,4.98,86.55,10.09,128.87,20.46Z"/>
      <path class="cls-14" d="M144.47,229.52c62.98,17.2,125.64,35.65,188.55,53.11.85.27,1.38-.11,2.08-.44,5.9-2.78,13.06-9.68,18.94-13.11,3.55-2.15,7.04-4.47,10.46-6.82.85,1.12.3,2.66.67,4.11.7,2.78,4.96,8.71,6.56,11.62.47.86.42,2.32.5,2.45l-51.95,31.92-1.9.38c-42.08-13.89-84.99-25.12-127.53-37.53-22.76-6.64-45.45-13.52-68.19-20.23,2.57-6.57,5.55-12.86,7.97-19.53.55-1.52,1.95-7.79,2.92-8.45s9.14,2.03,10.93,2.52Z"/>
      <path class="cls-11" d="M372.22,280.44c.04.06.92.02,1.31.72.77,1.4,4.49,7.81,4.05,8.73-.04.09-1.4,1.39-1.48,1.45-3.78,2.91-9.87,5.85-14.12,8.63-8.5,5.56-16.91,11.28-25.36,16.91-3.82,2.55-8.82,6.99-12.58,9.01-1.14.61-4.86,1.86-6.12,1.83-2.81-.05-10.2-2.77-13.43-3.65-48.41-13.19-96.85-26.87-145.01-40.91-.6-.17-1.22-.28-1.82-.45-13.59-3.98-27.12-7.96-40.46-12.73,1.67-5.04,3.52-10.06,5.46-15,22.74,6.7,45.43,13.59,68.19,20.23,42.54,12.4,85.45,23.64,127.53,37.53l1.9-.38,51.95-31.92Z"/>
      <path class="cls-1" d="M540.42,18.59c-2.4,1.91-6,2.53-9,3.05-8.31,1.44-17.2,1.67-25.65,2.99-43.01,6.73-88.36,17.75-129.7,31.23-20.77,6.77-42.29,17.68-64.43,16.49-9.05,6.31-17.36,13.61-26.29,20.08-11.96,8.67-30.89,23.45-45.43,11.86-1.34-1.07-3.96-3.47-4.09-5.23,4.46-4.62,8.82-9.37,13.64-13.64.69,2.33,3.31,5.74,5.31,7.2,5.18,3.79,8.42,1.72,13.02-1.37l41.68-31.28c4.8,3.99,14.42.79,19.79-.89,8.42-2.64,16.61-6.28,24.98-9.12,33.78-11.44,68.24-20.69,103.72-25.38,9.13-1.21,18.57-1.59,27.61-2.85,5.22-.72,15.12-1.92,13.01-9.49,14.07,1.39,27.99,3.51,41.82,6.36Z"/>
      <path class="cls-3" d="M498.6,12.23c2.11,7.57-7.8,8.76-13.01,9.49-9.04,1.26-18.47,1.64-27.61,2.85-35.48,4.7-69.94,13.95-103.72,25.38-8.37,2.83-16.56,6.48-24.98,9.12-5.37,1.68-14.99,4.88-19.79.89-3.68-3.05-2.6-8.22-2.27-12.27.09-1.15.47-2.1.45-3.64,46.85-11.7,93.13-25.73,140.84-33.95l37.36-5.6c4.54,1.07,11.29,2.57,12.73,7.73Z"/>
      <path class="cls-1" d="M354.04,269.07c-5.87,3.43-13.04,10.33-18.94,13.11-.7.33-1.23.72-2.08.44-62.91-17.46-125.58-35.91-188.55-53.11,1.33-5.26,5.31-9.87,7.73-14.55,62.77,23.92,128.98,36.86,193.89,53.63l7.95.46Z"/>
      <path class="cls-3" d="M189.02,430.91c2.84-.2,12.24.69,14.53,2.06,2.53,1.52,4.37,5.97,2.31,8.52-1.41,1.75-12.14,2.23-15.12,2.73-26.42,4.47-55.64,14.9-81.99,21.65-17.78,4.55-36.31,7.71-53.84,12.53-3.18.87-9.05,3.78-11.73,3.1-2.08-.52-5.52-2.43-7.81-3.33-3.93-1.53-7.89-3.02-11.82-4.55-.23-1.12.53-.96,1.23-1.24,36.86-14.83,83.26-25.97,122.32-34.08,12.69-2.63,29.24-6.5,41.92-7.41Z"/>
      <path class="cls-10" d="M465.42,1.77c-8.4.47-17.73,2.94-26,4.69-28.72,6.09-57.22,13.06-85.64,20.28-15.6,3.96-31.63,6.56-46.56,12.76-.09-4.18.22-6.07,1.36-10,5.21-17.88,14.91-19.9,31.74-23.04C372.89.39,411.2-.78,444.26.43c7.06.26,14.18.15,21.16,1.35Z"/>
      <path class="cls-4" d="M117.2,269.98c13.34,4.77,26.87,8.75,40.46,12.73-2.46,5.12-6.13,9.69-9.09,14.55l-2.42-.41c-18.77,31.2-36.08,63.55-52.13,96.33-1.5.08-3.04-.03-4.55,0l49.81-95.9c.87-2.39-2.12-1.7-3.63-2.21l-51.18,98.11c-1.77-.04-4.21.52-5.46-.91,10.32-34.65,29.46-66,44.98-98.44.18-.97-.13-.52-.64-.67-5.21-1.57-11.75-1.57-17.07-3.17,2.43-4.93,4.7-11.83,7.3-16.47.13-.22,2.3-2.99,2.46-3.11.37-.3.66-.46,1.15-.42Z"/>
      <path class="cls-10" d="M189.02,430.91c-12.67.91-29.23,4.77-41.92,7.41-39.06,8.11-85.46,19.25-122.32,34.08-.71.28-1.47.12-1.23,1.24-5.27-2.05-10.46-4.31-15.68-6.37-2.32-.92-6.69-1.3-7.75-3.64-1.13-2.5,5.94-5.94,7.88-6.67,8.62-3.24,18.02-5,26.91-6.95,1.8-.4,3.65-.99,5.46-1.36,30.89-6.45,63.49-12.13,94.84-15.85,16.04-1.9,32.5-3.6,48.58-2.78,1.45.07,3.84.45,5.23.9Z"/>
      <path class="cls-6" d="M106.29,289.98c5.32,1.6,11.86,1.6,17.07,3.17.51.15.82-.3.64.67-15.53,32.44-34.66,63.8-44.98,98.44-.6.99-8.3,1.54-9.75,1.34-.87-.12-1.54-.79-2.07-.88.16-1.09-.38-2.12-.25-3.2.99-8.66,7.86-23.08,11.06-31.68,6.97-18.72,14.01-38.66,22.49-56.61,1.78-3.77,3.93-7.44,5.8-11.24Z"/>
      <path class="cls-11" d="M307.22,47.68c-.32,4.06-1.41,9.22,2.27,12.27l-41.68,31.28c-4.61,3.09-7.84,5.16-13.02,1.37-1.99-1.46-4.62-4.87-5.31-7.2-.38-1.3-.2-3.34-.45-4.55,16.34-10.3,32.88-20.35,50-29.33,2.6-1.37,5.42-2.91,8.19-3.85Z"/>
      <path class="cls-5" d="M307.22,39.5c.02,1.03.45,2.04.45,2.27.02.76,0,1.52,0,2.27.01,1.53-.36,2.49-.45,3.64-2.77.95-5.59,2.49-8.19,3.85-17.12,8.98-33.66,19.04-50,29.33-.8-3.84-1.96-5.64-1.25-10.12,1.3-8.23,14.77-15.48,21.4-19.51,12.78-7.76,25.93-15.28,39.4-21.74-1.14,3.93-1.46,5.82-1.36,10Z"/>
      <path class="cls-10" d="M485.87,4.5l-37.36,5.6c-47.71,8.22-93.99,22.25-140.84,33.95,0-.76.02-1.52,0-2.27,15.53-6.38,32.16-9.13,48.38-13.22,17.41-4.39,34.55-8.53,52.09-12.46,22.24-4.98,42.81-10.53,65.71-12.48.83-.07,1.69.13,2.02-.94,3.38.43,6.68,1.04,10,1.82Z"/>
      <path class="cls-3" d="M475.87,2.68c-.33,1.07-1.19.86-2.02.94-22.9,1.95-43.46,7.5-65.71,12.48-17.54,3.93-34.69,8.07-52.09,12.46-16.21,4.09-32.85,6.83-48.38,13.22,0-.23-.43-1.25-.45-2.27,14.93-6.21,30.96-8.8,46.56-12.76,28.42-7.22,56.92-14.19,85.64-20.28,8.26-1.75,17.6-4.21,26-4.69,3.13-.18,7.28.51,10.46.91Z"/>
      <path class="cls-12" d="M40.37,448.63c-1.8.38-3.65.97-5.46,1.36.43-2.53.51-5.25,1.12-7.74.36-1.48,1.24-2.58,1.61-3.62,3.59,2.12,2.2,3.04,2.24,6.14.02,1.35.5,2.53.49,3.86Z"/>
      <path class="cls-12" d="M819.54,237.7c-1.18.67-.34,2.65-1.82,2.27.13-1.66.33-3.46.45-5,.63.8.92,1.81,1.36,2.73Z"/>
      <path class="cls-12" d="M419.05,661.38c-1.67.76-4.67.77-6.36,0,2.05-.02,4.39-.04,6.36,0Z"/>
      <path class="cls-12" d="M136.75,657.75c-.99.75-2.66.74-3.64,0,1.09-.02,2.55,0,3.64,0Z"/>
      <path class="cls-12" d="M99.92,657.75c-.96,0-1.39.1-2.73,0,.43-.73,2.27-.74,2.73,0Z"/>
      <path class="cls-12" d="M223.57,655.02c-.47,0-1.32,0-1.82,0,.15-.68,1.63-.71,1.82,0Z"/>
      <path class="cls-12" d="M198.12,655.02c-.38,0-1.02,0-1.36,0,.06-.68,1.3-.68,1.36,0Z"/>
      <path class="cls-12" d="M268.58,656.84c-.35,0-.97,0-1.36,0,.06-.68,1.3-.68,1.36,0Z"/>
      <path class="cls-12" d="M245.39,655.93c-.2,0-.53.01-.91,0l.23-.45.68.45Z"/>
      <path class="cls-12" d="M322.67,658.66c-.24,0-.64,0-.91,0l.23-.45.68.45Z"/>
      <path class="cls-12" d="M348.13,659.11c-.19,0-.53.01-.91,0l.23-.45.68.45Z"/>
      <path class="cls-12" d="M364.95,660.02c-.19,0-.52.02-.91,0l.23-.45.68.45Z"/>
      <path class="cls-12" d="M374.95,660.47c-.19,0-.52.02-.91,0l.23-.45.68.45Z"/>
      <path class="cls-12" d="M389.04,660.93c-.22,0-.63,0-.91,0l.23-.45.68.45Z"/>
      <path class="cls-12" d="M439.5,660.93c-.26,0-.68,0-.91,0l.23-.45.68.45Z"/>
      <path class="cls-13" d="M439.5,304.53c.21,17.2,3.27,32.1-8.86,46.37-4.74,5.58-20.59,15.32-27.73,14.99-13.1-.6-24.2-4.83-37.99-2.07-14.72,2.95-29.27,21.5-39.51,31.86-13.23,13.36-26.67,26.53-40.02,39.76l-7.71,5.24c-5.44.61-6.9,4.74-11.08,7.1-7.71,4.36-19.18,4.15-27.67,2.52-12.87-2.48-10.63-12.69-12.95-22.97-1.16-5.14-4.12-13.35-8.32-16.69-3.2-2.54-11.27-3.31-6.37-8.85,1.58.11,5.62-.83,7.51-.9,12.79-.51,25.63-1.53,38.41-2.28,11.72-.69,23.22-.94,34.65-4.22,18.12-5.2,31.94-26.77,33.11-45.08.47-7.43.17-16.12-.93-23.43,3.77-2.02,8.76-6.46,12.58-9.01,8.45-5.64,16.86-11.36,25.36-16.91,4.25-2.78,10.33-5.72,14.12-8.63.08-.06,1.44-1.36,1.48-1.45.44-.92-3.29-7.34-4.05-8.73-.39-.7-1.27-.66-1.31-.72-.08-.13-.02-1.59-.5-2.45-1.61-2.92-5.86-8.85-6.56-11.62-.36-1.45.19-2.98-.67-4.11,18.79-12.91,40.63-29.99,62.95-10.9,14.43,12.35,11.84,28.3,12.08,45.2.04,2.66-.05,5.32-.02,7.97ZM402.58,255.11c-25.21,3.04-22.13,42.57,4.41,40.78,26.81-1.81,24.07-44.21-4.41-40.78ZM382.68,341.81c3.75,2.28,8.75,4.13,13.08,4.87,7.6,1.3,21.82.07,28.05-4.88,9.21-7.34,3.78-21.23-7.3-22.68-5.83-.77-15.97,1.23-21.1-.95-1.31-.55-1.98-2.9-2.94-4.1-13.67-17.09-41.55,3.97-27.5,21.59,3.59,4.51,12.17,7.8,17.72,6.15ZM263.92,401.93c-16.28,2.21-16.6,27.42-.45,29.77,24.02,3.5,23.43-32.88.45-29.77Z"/>
      <path class="cls-1" d="M435.41,53.14c.26,1.67,3.73,7.05,4.63,9.24.67,1.63,1.83,4.61,2.19,6.22.11.51.4,1.85.45,2.27s-.06.93,0,1.36c.55,3.95-.5,9.5,3.94,11.73,3.03,1.52,8.71,1.16,12.19,1,20.94-.94,42.59-4.09,63.65-5.45,11.5-.74,23.03-1.09,34.53-1.84,3.42-.22,13.47.99,14.34-3.62.99-.22,1.11.47,1.24,1.23,1.84,10.34-6.79,14.26-15.25,15.9-25.24,4.89-57.08,4.52-83.07,5.13-14.98.35-47.76,2.92-46.14-20.23.2-2.86,1.67-5.61,1.83-8.18s-.8-4.77-.34-7.61c.48-2.98,2.82-6.29,5.8-7.16Z"/>
      <path class="cls-3" d="M556.79,63.14c.15.01.31-.02.45,0h.45c1.39.24,4.65,1.68,6.07,2.34,3.55,1.65,8.46,3.81,7.57,8.57s-10.92,3.39-14.34,3.62c-11.5.76-23.02,1.1-34.53,1.84-21.06,1.36-42.71,4.5-63.65,5.45-3.48.16-9.16.52-12.19-1-4.45-2.23-3.4-7.78-3.94-11.73,20.75-3.04,41.55-6.2,62.51-7.72,15.56-1.13,36.25-2.66,51.59-1.37Z"/>
      <path class="cls-10" d="M545.88,59.96c-6.93-.6-14.26.23-21.14.45-17.2.56-35.18,1.06-52.27,2.73-10.2,1-20.4,2.63-30.23,5.45-.36-1.61-1.52-4.59-2.19-6.22-.9-2.19-4.37-7.57-4.63-9.24-.64-4.09,2.58-5.42,5.82-6.23,14.17-3.55,37.88-1.31,52.52.85,17.63,2.6,35.11,7.07,52.13,12.2Z"/>
      <path class="cls-3" d="M545.88,59.96c2.67.23,6.46,1.47,9.09,2.27-1.67.75-4.33.56-6.16.48-22.64-1.06-47.75.35-70.44,2.25-12.03,1.01-24.1,2.54-35.69,5.91-.06-.42-.34-1.76-.45-2.27,9.84-2.82,20.04-4.45,30.23-5.45,17.09-1.67,35.07-2.18,52.27-2.73,6.88-.22,14.22-1.05,21.14-.45Z"/>
      <path class="cls-10" d="M554.97,62.23c.64.2,1.33.42,1.82.91-15.34-1.29-36.03.23-51.59,1.37-20.96,1.53-41.76,4.68-62.51,7.72-.06-.44.06-.93,0-1.36,11.59-3.37,23.66-4.89,35.69-5.91,22.69-1.91,47.79-3.31,70.44-2.25,1.83.09,4.49.28,6.16-.48Z"/>
      <path class="cls-4" d="M304.49,324.08c.05,1.58-.08,3.18,0,4.77.37,7.21-1.26,16.3-2.87,23.5s-4.07,16.16-11.56,19.35c-12.47,5.32-30.9,4.11-44.46,4.64-6.12.24-13.07,1.43-19.07,1.42-11.59-.02-24.54-2.23-36.35-2.78-14.1-.66-28.64-1.07-42.73-1.36-12.95-.27-25.94.24-38.89.02,11.95-24.72,28.03-52.05,42.37-75.59,2.46-4.04,5.83-8.33,7.93-12.53.4-.8.84-1.32.62-2.34,48.17,14.05,96.61,27.72,145.01,40.91Z"/>
      <path class="cls-5" d="M324.04,325.9c1.1,7.31,1.4,16,.93,23.43-1.17,18.31-14.99,39.89-33.11,45.08-11.43,3.28-22.93,3.53-34.65,4.22.13-1.35.19-1.18-.97-1.51-8.34-2.33-22.08-.11-31.07-.32-16.54-.38-36.99-6.48-52.76-4.11-5.26.79-14.04-1.41-19.53-1.79-14.71-1.01-29.4-.24-44.11-.44-2.47-.03-4.02-1.51-3.85,2.71-.3-.02-.61.01-.91,0,.5-4.03.56-8.3,1.36-12.27.44-2.17,2.16-5.16,3.18-7.27,12.95.22,25.94-.29,38.89-.02,14.09.3,28.63.7,42.73,1.36,11.8.55,24.75,2.76,36.35,2.78,6,.01,12.96-1.18,19.07-1.42,13.56-.53,31.99.69,44.46-4.64,7.49-3.2,9.91-12.02,11.56-19.35s3.24-16.29,2.87-23.5c-.08-1.59.05-3.19,0-4.77,3.23.88,10.62,3.6,13.43,3.65,1.25.02,4.97-1.22,6.12-1.83Z"/>
      <path class="cls-8" d="M792.72,344.53c-3.28,1.79-6.81,3.31-10,5l.91-215.93c1.85,2.3,3.62,5.37,4.94,8.01,9.55,19.07,7.63,42.33,7.31,63.11-.56,36.56-1.75,73.05-2.73,109.56-.27,10.09-.34,20.15-.44,30.25Z"/>
      <path class="cls-7" d="M211.3,401.81c-4.9,5.54,3.18,6.31,6.37,8.85,4.2,3.34,7.16,11.54,8.32,16.69,2.32,10.28.07,20.49,12.95,22.97,8.49,1.64,19.96,1.84,27.67-2.52,4.18-2.36,5.64-6.49,11.08-7.1l7.71-5.24c-3.88,6.45-8.27,13.57-13.4,19.1-8.16,8.79-15.94,7.22-26.81,6.79-8.04-.32-22.61-.23-28.44-6.56-5.31-5.76-5.24-21.27-6.42-29.04-1.41-9.3-3.93-18-8.57-26.2,2.06.38,8.54,2.2,9.55,2.27Z"/>
      <path class="cls-7" d="M54.92,426.36c-.87-.87,7.04-18.85,8.05-19.1l40.84-.92c3.56,1,8.66-.92,6.34,4.56-1.26,2.99-4.58,3.75-7.59,4.68-10.3,3.17-22.9,5.88-33.54,8.29-1.91.43-13.4,3.2-14.1,2.49Z"/>
      <path class="cls-11" d="M104.92,393.17c-.17-4.22,1.38-2.74,3.85-2.71,14.71.2,29.4-.57,44.11.44,5.49.38,14.27,2.58,19.53,1.79,15.77-2.37,36.22,3.74,52.76,4.11,8.99.21,22.73-2.02,31.07.32,1.16.33,1.11.16.97,1.51-12.78.75-25.62,1.77-38.41,2.28-1.89.08-5.92,1.02-7.51.9-1.01-.07-7.49-1.9-9.55-2.27-32.92-6.01-63.89-4.41-96.83-6.36Z"/>
      <path class="cls-6" d="M89.47,393.17c-1.66.03-3.34.04-5,0l51.18-98.11c1.51.51,4.51-.18,3.63,2.21l-49.81,95.9Z"/>
      <path class="cls-6" d="M148.57,297.26c-14.34,23.5-29.06,49.86-41.91,74.24-1.5,2.85-9.41,21.12-10.68,21.61-.64.2-1.31.04-1.96.07,16.06-32.78,33.36-65.12,52.13-96.33l2.42.41Z"/>
      <path class="cls-4" d="M105.38,380.9c-.8,3.97-.86,8.25-1.36,12.27-1.39-.07-3.01.17-4.33,0-.52-.07-.91.18-.66-.67.7-2.35,3.8-7.67,5.06-10.42.31-.67.24-1.41,1.29-1.19Z"/>
      <path class="cls-11" d="M402.58,255.11c28.49-3.43,31.22,38.97,4.41,40.78-26.55,1.79-29.62-37.74-4.41-40.78Z"/>
      <path class="cls-9" d="M382.68,341.81c.05-.02.29-.64.77-.8,6.63-2.31,11.08-6.92,12.37-14.02l-.41-8.82c5.13,2.18,15.27.18,21.1.95,11.08,1.45,16.51,15.34,7.3,22.68-6.22,4.96-20.45,6.18-28.05,4.88-4.33-.74-9.34-2.59-13.08-4.87Z"/>
      <path class="cls-8" d="M395.41,318.17l.41,8.82c-1.28,7.1-5.74,11.71-12.37,14.02-.48.17-.72.79-.77.8-5.55,1.65-14.13-1.64-17.72-6.15-14.05-17.63,13.83-38.69,27.5-21.59.96,1.2,1.64,3.55,2.94,4.1ZM377.57,312.83c-16.03,1.95-11.65,29.1,5.69,22.96,12.49-4.42,8.31-24.67-5.69-22.96Z"/>
      <path class="cls-10" d="M263.92,401.93c22.98-3.11,23.56,33.26-.45,29.77-16.15-2.35-15.82-27.56.45-29.77ZM263.91,405.55c-9.68,1.96-10.95,20.11.39,21.68,16.95,2.34,17.01-25.21-.39-21.68Z"/>
      <path class="cls-2" d="M377.57,312.83c14-1.7,18.18,18.55,5.69,22.96-17.34,6.13-21.72-21.02-5.69-22.96Z"/>
      <path class="cls-3" d="M263.91,405.55c17.4-3.53,17.34,24.02.39,21.68-11.35-1.57-10.07-19.72-.39-21.68Z"/>
      <path class="cls-10" d="M558.72,660.47c10.21-2.38,15.42-4.16,23.07-11.82-13.5-1.79-27.1-3.02-40.69-4.09-52.71-4.15-105.35-8.19-158.21-9.08-94.55-1.59-189.83-2.6-282.98,14.74-7.45,1.39-14.95,2.83-22.26,4.78,1.74.77,6.67,2.27,8.41,2.27h6.78c27.23,3.82,117.78,10.91,225.28,10.91,193.55,0,235.72-4.09,240.59-7.73Z"/>
    </g>
  </g>
</svg>