<svg width="1918" height="493" viewBox="0 0 1918 493" fill="none" xmlns="http://www.w3.org/2000/svg">
<rect x="246.5" y="431.375" width="61.625" height="61.625" fill="#08A9B5" fill-opacity="0.1"/>
<rect x="308.125" y="369.75" width="61.625" height="61.625" fill="#08A9B5" fill-opacity="0.3"/>
<rect x="493.742" y="431.375" width="61.625" height="61.625" fill="#08A9B5" fill-opacity="0.1"/>
<rect x="555.367" y="369.75" width="61.625" height="61.625" fill="#08A9B5" fill-opacity="0.3"/>
<rect x="740.242" y="431.375" width="61.625" height="61.625" fill="#08A9B5" fill-opacity="0.3"/>
<rect x="184.875" y="369.75" width="61.625" height="61.625" fill="#08A9B5" fill-opacity="0.1"/>
<rect x="431.375" y="369.75" width="62.3675" height="61.625" fill="#08A9B5" fill-opacity="0.3"/>
<rect x="616.992" y="431.375" width="61.625" height="61.625" fill="#08A9B5" fill-opacity="0.1"/>
<rect x="678.617" y="369.75" width="61.625" height="61.625" fill="#08A9B5" fill-opacity="0.3"/>
<rect x="925.117" y="369.75" width="61.625" height="61.625" fill="#08A9B5" fill-opacity="0.3"/>
<rect x="1110.74" y="431.375" width="61.625" height="61.625" fill="#08A9B5" fill-opacity="0.3"/>
<rect x="1172.36" y="369.75" width="61.625" height="61.625" fill="#08A9B5" fill-opacity="0.3"/>
<rect x="1357.24" y="431.375" width="61.625" height="61.625" fill="#08A9B5" fill-opacity="0.1"/>
<rect x="801.867" y="369.75" width="61.625" height="61.625" fill="#08A9B5" fill-opacity="0.1"/>
<rect x="986.742" y="431.375" width="62.3675" height="61.625" fill="#08A9B5" fill-opacity="0.1"/>
<rect x="1048.37" y="369.75" width="62.3675" height="61.625" fill="#08A9B5" fill-opacity="0.1"/>
<rect x="1233.99" y="431.375" width="61.625" height="61.625" fill="#08A9B5" fill-opacity="0.3"/>
<rect x="1295.61" y="369.75" width="61.625" height="61.625" fill="#08A9B5" fill-opacity="0.3"/>
<rect x="498.222" y="308.125" width="61.625" height="61.625" fill="#08A9B5" fill-opacity="0.3"/>
<rect x="559.847" y="246.5" width="61.625" height="61.625" fill="#08A9B5" fill-opacity="0.3"/>
<rect x="744.722" y="308.125" width="61.625" height="61.625" fill="#08A9B5" fill-opacity="0.3"/>
<rect x="806.347" y="246.5" width="61.625" height="61.625" fill="#08A9B5" fill-opacity="0.3"/>
<rect x="991.965" y="308.125" width="61.625" height="61.625" fill="#08A9B5" fill-opacity="0.3"/>
<rect x="1053.59" y="246.5" width="61.625" height="61.625" fill="#08A9B5" fill-opacity="0.3"/>
<rect x="1238.46" y="308.125" width="61.625" height="61.625" fill="#08A9B5" fill-opacity="0.3"/>
<rect x="621.472" y="308.125" width="61.625" height="61.625" fill="#08A9B5" fill-opacity="0.3"/>
<rect x="683.097" y="246.5" width="61.625" height="61.625" fill="#08A9B5" fill-opacity="0.3"/>
<rect x="867.972" y="308.125" width="62.3675" height="61.625" fill="#08A9B5" fill-opacity="0.3"/>
<rect x="929.597" y="246.5" width="62.3675" height="61.625" fill="#08A9B5" fill-opacity="0.3"/>
<rect x="1115.21" y="308.125" width="61.625" height="61.625" fill="#08A9B5" fill-opacity="0.3"/>
<rect x="1176.84" y="246.5" width="61.625" height="61.625" fill="#08A9B5" fill-opacity="0.3"/>
<rect x="1361.71" y="308.125" width="61.625" height="61.625" fill="#08A9B5" fill-opacity="0.3"/>
<rect x="1423.34" y="246.5" width="61.625" height="61.625" fill="#08A9B5" fill-opacity="0.3"/>
<rect x="1608.96" y="308.125" width="61.625" height="61.625" fill="#08A9B5" fill-opacity="0.3"/>
<rect x="1670.58" y="246.5" width="61.625" height="61.625" fill="#08A9B5" fill-opacity="0.3"/>
<rect x="1855.46" y="308.125" width="61.625" height="61.625" fill="#08A9B5" fill-opacity="0.3"/>
<rect x="1300.09" y="246.5" width="61.625" height="61.625" fill="#08A9B5" fill-opacity="0.3"/>
<rect x="1484.96" y="308.125" width="62.3675" height="61.625" fill="#08A9B5" fill-opacity="0.3"/>
<rect x="1546.59" y="246.5" width="62.3675" height="61.625" fill="#08A9B5" fill-opacity="0.3"/>
<rect x="1732.21" y="308.125" width="61.625" height="61.625" fill="#08A9B5" fill-opacity="0.3"/>
<rect x="1793.83" y="246.5" width="61.625" height="61.625" fill="#08A9B5" fill-opacity="0.3"/>
<rect x="498.222" y="184.875" width="61.625" height="61.625" fill="#08A9B5" fill-opacity="0.3"/>
<rect x="559.847" y="123.25" width="61.625" height="61.625" fill="#08A9B5" fill-opacity="0.3"/>
<rect x="744.722" y="184.875" width="61.625" height="61.625" fill="#08A9B5" fill-opacity="0.3"/>
<rect x="806.347" y="123.25" width="61.625" height="61.625" fill="#08A9B5" fill-opacity="0.3"/>
<rect x="991.965" y="184.875" width="61.625" height="61.625" fill="#08A9B5" fill-opacity="0.3"/>
<rect x="1053.59" y="123.25" width="61.625" height="61.625" fill="#08A9B5" fill-opacity="0.3"/>
<rect x="1238.46" y="184.875" width="61.625" height="61.625" fill="#08A9B5" fill-opacity="0.3"/>
<rect x="621.472" y="184.875" width="61.625" height="61.625" fill="#08A9B5" fill-opacity="0.3"/>
<rect x="683.097" y="123.25" width="61.625" height="61.625" fill="#08A9B5" fill-opacity="0.3"/>
<rect x="867.972" y="184.875" width="62.3675" height="61.625" fill="#08A9B5" fill-opacity="0.3"/>
<rect x="929.597" y="123.25" width="62.3675" height="61.625" fill="#08A9B5" fill-opacity="0.3"/>
<rect x="1115.21" y="184.875" width="61.625" height="61.625" fill="#08A9B5" fill-opacity="0.3"/>
<rect x="1176.84" y="123.25" width="61.625" height="61.625" fill="#08A9B5" fill-opacity="0.3"/>
<rect x="1361.71" y="184.875" width="61.625" height="61.625" fill="#08A9B5" fill-opacity="0.3"/>
<rect x="1423.34" y="123.25" width="61.625" height="61.625" fill="#08A9B5" fill-opacity="0.3"/>
<rect x="1608.96" y="184.875" width="61.625" height="61.625" fill="#08A9B5" fill-opacity="0.3"/>
<rect x="1670.58" y="123.25" width="61.625" height="61.625" fill="#08A9B5" fill-opacity="0.3"/>
<rect x="1855.46" y="184.875" width="61.625" height="61.625" fill="#08A9B5" fill-opacity="0.3"/>
<rect x="1300.09" y="123.25" width="61.625" height="61.625" fill="#08A9B5" fill-opacity="0.3"/>
<rect x="1484.96" y="184.875" width="62.3675" height="61.625" fill="#08A9B5" fill-opacity="0.3"/>
<rect x="1546.59" y="123.25" width="62.3675" height="61.625" fill="#08A9B5" fill-opacity="0.3"/>
<rect x="1732.21" y="184.875" width="61.625" height="61.625" fill="#08A9B5" fill-opacity="0.3"/>
<rect x="1793.83" y="123.25" width="61.625" height="61.625" fill="#08A9B5" fill-opacity="0.3"/>
<rect x="374.972" y="61.625" width="61.625" height="61.625" fill="#08A9B5" fill-opacity="0.3"/>
<rect x="621.472" y="61.625" width="61.625" height="61.625" fill="#08A9B5" fill-opacity="0.1"/>
<rect x="868.715" y="61.625" width="61.625" height="61.625" fill="#08A9B5" fill-opacity="0.1"/>
<rect x="930.34" width="61.625" height="61.625" fill="#08A9B5" fill-opacity="0.1"/>
<rect x="1115.21" y="61.625" width="61.625" height="61.625" fill="#08A9B5" fill-opacity="0.1"/>
<rect x="498.222" y="61.625" width="61.625" height="61.625" fill="#08A9B5" fill-opacity="0.3"/>
<rect x="559.847" width="61.625" height="61.625" fill="#08A9B5" fill-opacity="0.3"/>
<rect x="744.722" y="61.625" width="62.3675" height="61.625" fill="#08A9B5" fill-opacity="0.3"/>
<rect x="806.347" width="62.3675" height="61.625" fill="#08A9B5" fill-opacity="0.3"/>
<rect x="991.965" y="61.625" width="61.625" height="61.625" fill="#08A9B5" fill-opacity="0.3"/>
<rect x="1238.46" y="61.625" width="61.625" height="61.625" fill="#08A9B5" fill-opacity="0.1"/>
<rect x="1300.09" width="61.625" height="61.625" fill="#08A9B5" fill-opacity="0.1"/>
<rect x="1485.71" y="61.625" width="61.625" height="61.625" fill="#08A9B5" fill-opacity="0.1"/>
<rect x="1732.21" y="61.625" width="61.625" height="61.625" fill="#08A9B5" fill-opacity="0.3"/>
<rect x="1361.71" y="61.625" width="62.3675" height="61.625" fill="#08A9B5" fill-opacity="0.3"/>
<rect x="1423.34" width="62.3675" height="61.625" fill="#08A9B5" fill-opacity="0.3"/>
<rect x="1608.96" y="61.625" width="61.625" height="61.625" fill="#08A9B5" fill-opacity="0.3"/>
<rect x="1670.58" width="61.625" height="61.625" fill="#08A9B5" fill-opacity="0.3"/>
</svg>
