<svg width="750" height="516" viewBox="0 0 750 516" fill="none" xmlns="http://www.w3.org/2000/svg">
<path d="M314.957 136.562L320.775 138.095L324.686 139.12C323.555 139.059 322.416 138.991 321.291 138.937C322.484 139.021 324.535 139.18 326.259 139.317L328.886 139.393L320.973 137.321L316.841 136.244L282.337 127.206L281.692 127.828L282.269 127.98L314.957 136.562ZM280.066 209.523C281.357 208.21 289.135 200.387 298.324 192.161C311.578 180.286 321.39 173.183 327.512 171.028C327.086 168.198 323.236 146.321 304.036 139.142C303.709 139.013 303.375 138.892 303.041 138.77C302.942 138.748 302.843 138.71 302.745 138.679C302.403 138.566 302.054 138.459 301.704 138.361C298.408 137.389 294.694 136.835 290.524 136.851C290.297 136.835 282.694 136.38 272.046 137.078C271.659 137.101 271.279 137.124 270.884 137.154H270.876C266.859 137.45 262.454 137.905 257.866 138.604C252.884 139.362 247.697 140.41 242.585 141.859C242.532 141.874 242.487 141.882 242.433 141.897C241.006 142.307 239.578 142.747 238.165 143.225C230.973 145.615 224.099 148.87 218.342 153.287C213.793 156.77 209.957 160.974 207.223 166.05C209.388 169.427 240.633 217.309 279.307 224.7C280.393 223.41 287.441 215.078 295.605 206.791C306.816 195.432 315.011 189.255 319.993 188.397C320.175 188.36 320.365 188.337 320.54 188.314L320.464 175.551C304.514 185.757 280.704 209.956 280.423 210.244L280.233 210.434L245.388 194.354L245.699 193.671L280.066 209.523ZM307.59 138.437C309.436 138.475 311.274 138.52 313.127 138.596L309.162 137.572L304.461 138.383C305.502 138.391 306.557 138.414 307.59 138.437ZM226.446 331.914C225.649 331.056 224.859 330.199 224.076 329.326C204.869 308.003 190.271 282.613 180.679 253.8C177.755 245.036 175.461 236.454 173.692 228.251C172.56 223.023 171.626 217.961 170.866 213.097C167.79 193.277 167.532 176.833 167.798 167.113C167.958 161.148 168.322 157.718 168.33 157.597L168.36 157.346L168.596 157.271C170.206 156.8 171.808 156.345 173.418 155.897C174.071 155.715 174.725 155.533 175.385 155.358C176.297 155.1 177.231 154.842 178.158 154.6C179.221 154.319 180.269 154.038 181.332 153.757H181.34C200.107 148.832 218.927 145.084 237.732 142.519C239.259 142.003 240.778 141.533 242.289 141.1C246.785 139.818 251.221 138.869 255.352 138.171C256.097 138.042 256.833 137.928 257.562 137.814L254.069 134.013L252.314 132.776L238.469 132.859H238.454C232.461 132.32 223.704 130.12 211.112 124.368L220.416 115.186L188.927 120.635L159.679 125.696L168.915 129.915L178.917 134.483L171.049 142.246L116.487 196.1L85.4614 181.538L121.917 145.494L122.555 144.864L138.178 129.422L136.872 129.649L110.692 134.18L69.1552 141.366L74.1374 170.117L77.3273 188.511L77.4488 189.209L77.4868 189.422L78.1855 193.466L91.6817 271.352C92.988 274.228 94.0741 277.104 94.9323 279.942C95.145 280.633 95.3424 281.315 95.5247 281.991C95.8589 283.212 96.1475 284.434 96.3905 285.633C96.5424 286.377 96.6792 287.12 96.8007 287.849C97.0285 289.23 97.1956 290.596 97.3095 291.939C97.4766 293.942 97.5146 295.9 97.4235 297.782C97.3627 299.224 97.2184 300.635 96.9981 301.993L98.0311 307.965C109.742 295.627 128.198 276.216 131.297 273.082C131.358 273.021 131.411 272.961 131.472 272.893C129.937 270.517 129.299 268.931 128.882 267.884L134.198 265.76C134.464 264.394 134.661 262.884 134.768 261.237C134.889 259.408 134.897 257.412 134.76 255.295C134.677 253.96 134.532 252.571 134.312 251.137C134.206 250.401 134.084 249.65 133.932 248.883C133.704 247.684 133.431 246.463 133.097 245.218C132.922 244.543 132.725 243.852 132.512 243.162C131.79 240.787 130.872 238.343 129.732 235.854L132.269 235.414L131.866 235.877C138.892 241.895 141.846 249.839 140.623 259.492C140.449 260.903 140.19 262.246 139.887 263.498C138.641 268.666 136.659 272.255 136.644 272.301L136.545 272.483L136.644 272.665C141.854 282.363 163.469 299.626 200.866 323.969C228.694 342.09 255.33 357.562 255.595 357.721L250.362 353.753C241.75 347.052 233.775 339.768 226.446 331.914Z" fill="#00AEB9"/>
<path d="M255.573 357.706C254.935 357.327 240.208 348.76 221.395 337.036C221.061 336.831 220.735 336.626 220.4 336.421C214.195 332.536 207.565 328.332 200.866 323.969C163.469 299.626 141.854 282.363 136.644 272.665L136.545 272.483L136.644 272.301C136.659 272.255 138.641 268.666 139.887 263.498L140.494 260.516C141.702 263.536 151.697 277.719 197.251 310.674C199.902 312.587 202.552 314.484 205.188 316.343C211.666 320.926 218.061 325.304 224.076 329.326C224.859 330.199 225.649 331.056 226.446 331.914C226.59 332.066 226.735 332.225 226.887 332.377C226.894 332.392 226.909 332.399 226.917 332.415C226.94 332.437 226.963 332.46 226.978 332.483C234.162 340.124 241.955 347.219 250.362 353.753L255.573 357.706Z" fill="#176D73"/>
<path d="M226.887 332.377C226.735 332.225 226.59 332.066 226.446 331.914C225.649 331.056 224.859 330.199 224.076 329.326C218.061 325.304 211.666 320.926 205.188 316.343C182.35 283.577 162.459 240.324 160.416 174.405L167.806 167.113L167.859 167.059C168.755 250.075 198.155 297.213 226.887 332.377Z" fill="#158F97"/>
<path d="M314.957 136.562L304.461 138.383C304.378 138.383 304.302 138.376 304.218 138.376C300.307 136.926 295.788 136.077 290.547 136.092C290.448 136.084 283.195 135.621 272.942 136.221H272.935C272.547 136.244 272.167 136.266 271.78 136.289L272.114 135.97L272.502 135.599L272.897 135.219L277.522 131.493L281.692 127.828L282.269 127.98L308.38 134.832L314.957 136.562Z" fill="#00AEB9"/>
<path d="M331.127 139.863L304.461 138.383C304.378 138.383 304.302 138.376 304.218 138.376C300.307 136.927 295.788 136.077 290.547 136.092C290.449 136.084 283.195 135.621 272.942 136.221H272.935C272.547 136.244 272.168 136.266 271.78 136.289C267.436 136.57 262.598 137.048 257.563 137.814C256.833 137.928 256.097 138.042 255.352 138.171C251.221 138.869 246.785 139.818 242.289 141.1C240.778 141.533 239.259 142.003 237.732 142.519C218.927 145.084 200.107 148.832 181.34 153.757L186.861 148.301C199.864 144.962 231.049 137.981 272.502 135.599C283.757 134.954 297.246 134.362 309.861 134.551L331.127 139.863Z" fill="#158F97"/>
<path d="M313.248 90.5017C313.226 90.8659 313.195 91.215 313.157 91.564C312.664 97.0352 311.183 100.92 309.778 102.347C306.679 105.481 288.223 124.892 276.512 137.23C274.294 139.567 272.312 141.654 270.732 143.323C273.178 139.916 274.757 135.826 275.479 131.258C275.699 129.907 275.843 128.504 275.904 127.069V127.047C275.988 125.37 275.965 123.624 275.836 121.849C275.821 121.636 275.805 121.424 275.79 121.211C275.676 119.861 275.509 118.495 275.281 117.114C275.183 116.507 275.069 115.884 274.94 115.262C274.917 115.141 274.894 115.019 274.871 114.898C274.742 114.26 274.598 113.615 274.438 112.963C274.309 112.394 274.165 111.825 274.005 111.256C273.907 110.891 273.8 110.519 273.694 110.148C273.603 109.837 273.512 109.518 273.413 109.207C273.292 108.805 273.162 108.402 273.033 108C272.798 107.272 272.547 106.543 272.281 105.807C272.038 105.132 271.78 104.449 271.507 103.766C271.089 102.719 270.641 101.664 270.162 100.617C267.147 93.924 262.962 87.2084 257.684 80.8798C257.251 80.3638 256.818 79.8554 256.378 79.3546C256.355 79.3166 256.324 79.2863 256.287 79.2483C255.914 78.8234 255.535 78.3984 255.162 77.9811C255.071 77.8824 254.98 77.7838 254.897 77.6927C254.016 76.729 253.127 75.7957 252.216 74.8927C251.692 74.3691 251.168 73.8531 250.636 73.3523C250.241 72.9653 249.846 72.5934 249.444 72.2292C247.978 70.8785 246.489 69.6037 244.978 68.4047C244.507 68.0253 244.028 67.6535 243.55 67.2893C243.527 67.2741 243.512 67.2589 243.489 67.2437C242.995 66.8643 242.494 66.4925 241.993 66.1359C241.985 66.1283 241.978 66.1207 241.97 66.1207C241.613 65.8551 241.249 65.5971 240.884 65.3467C240.633 65.1722 240.39 64.9976 240.14 64.8307C239.327 64.2692 238.507 63.738 237.694 63.2296C237.33 63.0019 236.957 62.7743 236.585 62.5542C236.198 62.319 235.803 62.0838 235.416 61.8637C234.755 61.4767 234.087 61.1124 233.426 60.7634C232.454 60.2322 231.481 59.7466 230.509 59.2989C229.955 59.0333 229.4 58.7753 228.846 58.54C228.292 58.2972 227.745 58.062 227.19 57.8495C226.849 57.7129 226.507 57.5839 226.165 57.4473C226.089 57.417 226.013 57.3866 225.945 57.3639C224.965 57.0072 223.985 56.6733 223.013 56.3698C222.861 56.3167 222.702 56.2712 222.55 56.2256C222.542 56.2105 222.535 56.2105 222.527 56.218C222.14 56.1042 221.76 55.998 221.38 55.8917C221.244 55.8538 221.099 55.8159 220.963 55.7779C220.78 55.7248 220.606 55.6793 220.423 55.6337C220.173 55.5655 219.922 55.5047 219.671 55.4516C219.39 55.3833 219.102 55.3226 218.821 55.2619C218.411 55.1709 218.001 55.0874 217.59 55.0115C217.309 54.9584 217.036 54.9129 216.763 54.8673C216.633 54.8446 216.497 54.8218 216.368 54.799C215.927 54.7307 215.494 54.67 215.069 54.6169C215.023 54.6093 214.978 54.6093 214.932 54.6017C214.788 54.5866 214.651 54.5714 214.507 54.5562C214.476 54.5562 214.454 54.5562 214.423 54.5562C214.119 54.5183 213.816 54.4955 213.527 54.4727C213.345 54.45 213.163 54.4424 212.973 54.4272C212.676 54.4045 212.388 54.3893 212.107 54.3817C211.856 54.3665 211.598 54.3589 211.347 54.3513C211.097 54.3362 210.846 54.3362 210.603 54.3362H210.413C210.041 54.3362 209.669 54.3438 209.297 54.3589C209.114 54.3665 208.932 54.3741 208.75 54.3817C208.606 54.3893 208.469 54.3969 208.332 54.412C208.18 54.4196 208.021 54.4272 207.869 54.4424C207.846 54.4424 207.831 54.4424 207.808 54.45C207.656 54.4576 207.489 54.4728 207.337 54.4879C207.087 54.5107 206.844 54.541 206.601 54.579C206.464 54.5866 206.335 54.6093 206.206 54.6245C205.963 54.6549 205.727 54.6928 205.492 54.7307C205.325 54.7535 205.165 54.7763 205.006 54.8142C204.573 54.8825 204.14 54.9736 203.714 55.0722C203.54 55.1177 203.365 55.1557 203.198 55.2012C202.932 55.2619 202.666 55.3302 202.408 55.4061C202.089 55.4972 201.77 55.5958 201.459 55.6945C201.413 55.7096 201.368 55.7248 201.322 55.74C201.033 55.8386 200.745 55.9373 200.464 56.0435C199.469 56.4077 198.504 56.8403 197.578 57.3411C197.426 57.417 197.274 57.5005 197.122 57.5915C196.871 57.7281 196.621 57.8723 196.378 58.024C196.059 58.2137 195.755 58.411 195.451 58.6235C195.14 58.8284 194.844 59.0409 194.547 59.2685C194.251 59.4886 193.963 59.7238 193.674 59.959L209.828 45.4428L210.39 44.9267L235.438 22.42C235.438 22.42 236.836 21.9192 239.403 21.5626C239.525 21.5474 239.646 21.5322 239.768 21.517H239.775C240.557 21.4184 241.431 21.3273 242.395 21.2742C242.509 21.2742 242.623 21.259 242.745 21.259C242.897 21.2515 243.056 21.2515 243.216 21.2439C243.246 21.2363 243.284 21.2363 243.314 21.2363H243.36C244.021 21.2135 244.727 21.1983 245.464 21.2211C245.638 21.2211 245.813 21.2211 245.995 21.2363C246.132 21.2363 246.261 21.2439 246.398 21.2515C246.603 21.2515 246.808 21.259 247.013 21.2742L248.168 21.3501C248.456 21.3729 248.745 21.3956 249.041 21.426C249.178 21.4336 249.322 21.4487 249.466 21.4639C249.565 21.4715 249.664 21.4867 249.762 21.4943C250.294 21.555 250.849 21.6233 251.418 21.7067C251.646 21.7371 251.874 21.7675 252.109 21.8054C252.17 21.8206 252.223 21.8282 252.284 21.8357C252.428 21.8585 252.58 21.8813 252.724 21.9116C253.887 22.1089 255.102 22.3593 256.37 22.6705C256.469 22.6856 256.568 22.716 256.666 22.7387C256.833 22.7767 257 22.8222 257.168 22.8677C257.593 22.974 258.026 23.0878 258.466 23.2168C258.717 23.2851 258.975 23.361 259.233 23.4445C266.304 25.5236 274.666 29.4012 283.856 36.3293C284.297 36.6556 284.737 36.9895 285.178 37.3385C285.375 37.4979 285.58 37.6572 285.778 37.8166C286.849 38.6589 287.935 39.5467 289.028 40.4876C291.375 42.4833 293.509 44.517 295.446 46.5506C296.851 48.0303 298.157 49.5252 299.365 51.0201C303.216 55.7552 306.102 60.5206 308.213 65.1266C309.352 67.6156 310.271 70.059 310.993 72.4341C311.205 73.1246 311.403 73.8152 311.578 74.4905C311.805 75.3404 312.003 76.1827 312.178 77.0098C312.261 77.3968 312.337 77.7762 312.413 78.1556C312.497 78.5578 312.565 78.96 312.626 79.3546C312.686 79.7112 312.74 80.0603 312.793 80.4093C313.013 81.8435 313.157 83.2322 313.241 84.5677C313.279 85.1065 313.302 85.63 313.317 86.146C313.37 87.6789 313.34 89.1434 313.248 90.5093V90.5017Z" fill="#2D2D2A"/>
<path d="M245.464 21.2135L218.578 46.3609H218.388C218.016 46.3609 217.644 46.3685 217.271 46.3837C217.089 46.3913 216.907 46.3989 216.725 46.4141C216.58 46.4141 216.444 46.4217 216.307 46.4368C216.155 46.4444 215.995 46.452 215.844 46.4672C215.821 46.4672 215.806 46.4672 215.783 46.4748L242.745 21.2515C242.897 21.2439 243.056 21.2439 243.216 21.2363C243.246 21.2287 243.284 21.2287 243.314 21.2287H243.36C244.021 21.2059 244.727 21.1908 245.464 21.2135Z" fill="#1D1D1B"/>
<path d="M251.418 21.6991L228.535 43.1056C228.406 43.0828 228.269 43.06 228.14 43.0373C227.699 42.969 227.266 42.9083 226.841 42.8551C226.795 42.8476 226.75 42.8476 226.704 42.84C226.56 42.8248 226.423 42.8096 226.279 42.7944C226.249 42.7944 226.226 42.7944 226.195 42.7944L249.041 21.426C249.178 21.4336 249.322 21.4487 249.466 21.4639C249.565 21.4715 249.664 21.4867 249.762 21.4943C250.294 21.555 250.849 21.6233 251.418 21.7067V21.6991Z" fill="#1D1D1B"/>
<path d="M259.233 23.4369L243.899 37.7786C243.747 37.7255 243.588 37.68 243.436 37.6345C243.428 37.6193 243.421 37.6193 243.413 37.6269C243.026 37.5131 242.646 37.4068 242.266 37.3006C242.13 37.2626 241.985 37.2247 241.849 37.1868L257.168 22.8602C257.593 22.9664 258.026 23.0802 258.466 23.2092C258.717 23.2775 258.975 23.3534 259.233 23.4369Z" fill="#1D1D1B"/>
<path d="M313.249 90.5017C313.226 90.8659 313.195 91.215 313.157 91.564L275.904 127.069V127.047C275.988 125.37 275.965 123.624 275.836 121.849L313.317 86.1384C313.37 87.6713 313.34 89.1358 313.249 90.5017Z" fill="#1D1D1B"/>
<path d="M312.626 79.347L274.94 115.262C274.917 115.141 274.894 115.019 274.871 114.898C274.742 114.26 274.598 113.615 274.438 112.963L312.178 77.0022C312.261 77.3892 312.337 77.7686 312.413 78.148C312.497 78.5502 312.565 78.9524 312.626 79.347Z" fill="#1D1D1B"/>
<path d="M304.909 80.4017L273.694 110.148C273.603 109.837 273.512 109.518 273.413 109.207C273.292 108.805 273.162 108.402 273.033 108L303.519 78.9524L304.909 80.4017Z" fill="#1D1D1B"/>
<path d="M296.555 82.6782L272.281 105.807C272.038 105.132 271.78 104.449 271.507 103.766L295.165 81.2289L296.555 82.6782Z" fill="#1D1D1B"/>
<path d="M275.904 127.047V127.069C275.843 128.504 275.699 129.907 275.479 131.258C274.757 135.826 273.178 139.916 270.732 143.323H270.724C268.256 145.926 266.737 147.527 266.737 147.527L252.451 130.401C257.722 122.205 254.076 106.839 243.185 93.7798C243.011 93.5749 242.843 93.37 242.669 93.1727L243.064 92.7857L241.773 91.4274C241.378 91.0101 236.988 86.571 236.532 86.2143L235.317 85.0306C235.317 85.0306 235.294 85.0154 235.287 85.0002L232.393 82.1926L232.142 82.4354L231.451 83.1107C223.264 77.6244 214.826 75.6211 208.811 78.0949H208.803L193.674 59.9514C193.963 59.7162 194.251 59.481 194.547 59.2609C194.844 59.0333 195.14 58.8208 195.451 58.6159C195.755 58.4034 196.059 58.2061 196.378 58.0164C196.621 57.8647 196.871 57.7205 197.122 57.5839C197.274 57.4929 197.426 57.4094 197.578 57.3335C198.504 56.8327 199.469 56.4001 200.464 56.0359C200.745 55.9297 201.033 55.831 201.322 55.7324C201.368 55.7172 201.413 55.702 201.459 55.6869C201.77 55.5882 202.089 55.4896 202.408 55.3985C202.666 55.3226 202.932 55.2543 203.198 55.1936C203.365 55.1481 203.54 55.1101 203.714 55.0646C204.14 54.966 204.573 54.8749 205.006 54.8066C205.165 54.7687 205.325 54.7459 205.492 54.7231C205.727 54.6852 205.963 54.6473 206.206 54.6169C206.335 54.6017 206.464 54.579 206.601 54.5714C206.844 54.5334 207.087 54.5031 207.337 54.4803C207.489 54.4651 207.656 54.45 207.808 54.4424C207.831 54.4348 207.846 54.4348 207.869 54.4348C208.021 54.4196 208.18 54.412 208.332 54.4044C208.469 54.3893 208.606 54.3817 208.75 54.3817C208.932 54.3665 209.114 54.3589 209.297 54.3513C209.669 54.3361 210.041 54.3286 210.413 54.3286H210.603C210.846 54.3286 211.097 54.3286 211.347 54.3437C211.598 54.3513 211.856 54.3589 212.107 54.3741C212.388 54.3817 212.676 54.3968 212.973 54.4196C213.163 54.4348 213.345 54.4424 213.527 54.4651C213.816 54.4879 214.119 54.5107 214.423 54.5486C214.454 54.5486 214.476 54.5486 214.507 54.5486C214.651 54.5638 214.788 54.579 214.932 54.5941C214.978 54.5941 215.023 54.5941 215.069 54.6093C215.494 54.6624 215.927 54.7231 216.368 54.7914C216.497 54.8142 216.633 54.837 216.763 54.8597C217.036 54.9053 217.309 54.9508 217.59 55.0039C218.001 55.0798 218.411 55.1633 218.821 55.2543C219.102 55.315 219.39 55.3757 219.671 55.444C219.922 55.4971 220.173 55.5579 220.423 55.6261C220.606 55.6717 220.78 55.7172 220.963 55.7703C221.099 55.8083 221.244 55.8462 221.38 55.8841C221.76 55.9904 222.14 56.0966 222.527 56.2104C222.535 56.2104 222.542 56.2104 222.55 56.218C222.702 56.2636 222.861 56.3091 223.013 56.3622C223.985 56.6657 224.965 56.9996 225.945 57.3563C226.013 57.379 226.089 57.4094 226.165 57.4397C226.507 57.5763 226.849 57.7053 227.19 57.8419C227.745 58.062 228.292 58.2972 228.846 58.5324C229.4 58.7677 229.955 59.0257 230.509 59.2913C231.481 59.739 232.454 60.2246 233.426 60.7558C234.087 61.1048 234.755 61.4691 235.416 61.8561C235.803 62.0761 236.198 62.3114 236.585 62.5466C236.957 62.7667 237.33 62.9943 237.694 63.222C238.507 63.7304 239.327 64.2616 240.14 64.8231C240.39 64.99 240.633 65.1645 240.884 65.3391C241.249 65.5895 241.613 65.8475 241.97 66.1131C241.978 66.1131 241.985 66.1131 241.993 66.1283C242.494 66.4849 242.995 66.8567 243.489 67.2361C243.512 67.2513 243.527 67.2665 243.55 67.2817C244.028 67.6459 244.507 68.0177 244.978 68.3971C246.489 69.5961 247.978 70.8709 249.444 72.2216C249.846 72.5858 250.241 72.9577 250.636 73.3447C251.168 73.8455 251.692 74.3615 252.216 74.8851C253.127 75.7881 254.016 76.7214 254.897 77.6851C254.98 77.7762 255.071 77.8748 255.162 77.9735C255.535 78.3908 255.914 78.8158 256.287 79.2407C256.324 79.2787 256.355 79.309 256.378 79.347C256.818 79.8478 257.251 80.3562 257.684 80.8722C262.962 87.2008 267.147 93.9164 270.162 100.609C270.641 101.656 271.089 102.711 271.507 103.758C271.78 104.441 272.038 105.124 272.281 105.8C272.547 106.536 272.798 107.264 273.033 107.993C273.162 108.395 273.292 108.797 273.413 109.199C273.512 109.51 273.603 109.829 273.694 110.14C273.8 110.512 273.907 110.884 274.005 111.248C274.165 111.817 274.309 112.386 274.438 112.955C274.598 113.608 274.742 114.253 274.871 114.89C274.894 115.012 274.917 115.133 274.94 115.254C275.069 115.877 275.183 116.499 275.281 117.106C275.509 118.487 275.676 119.853 275.79 121.196C275.805 121.416 275.821 121.629 275.836 121.841C275.965 123.617 275.988 125.362 275.904 127.039V127.047Z" fill="#42423D"/>
<path d="M526.43 365.697L524.243 368.034H524.236L519.155 373.452L488.35 406.263L477.139 395.875L478.704 394.175H478.712L484.263 388.15V388.143L502.393 368.474L507.405 363.041L514.4 355.453L526.43 365.697Z" fill="#696964"/>
<path d="M502.248 405.512L511.294 413.89L549.329 373.293L539.539 365.112L502.248 405.512Z" fill="#696964"/>
<path d="M496.028 341.149L491.714 358.382L490.104 364.832L484.263 388.143V388.15L482.524 395.101L478.712 394.175H478.704L465.481 390.95L472.947 359.74L474.496 353.275L478.263 337.506L496.028 341.149Z" fill="#696964"/>
<path d="M484.446 373.573L487.56 374.332L490.324 363.253L487.074 362.601L484.446 373.573Z" fill="#464645"/>
<path d="M526.377 427.336C526.134 437.519 522.154 443.84 522.154 443.84L478.97 487.594C483.215 482.373 485.175 475.271 484.97 467.235C484.917 465.011 484.696 462.712 484.309 460.367C484.013 458.554 483.618 456.71 483.124 454.843C482.874 453.857 482.585 452.855 482.266 451.853C481.993 450.966 481.689 450.078 481.377 449.182C481.043 448.257 480.686 447.323 480.314 446.39C479.782 445.085 479.213 443.78 478.59 442.467C478.187 441.602 477.762 440.737 477.314 439.872C474.428 434.241 470.737 428.641 466.279 423.299C445.772 398.736 416.843 389.076 401.653 401.733L445.013 362.039C445.013 362.039 465.868 349.587 502.871 382.649C514.567 393.098 520.795 403.053 523.841 411.787C524.19 412.782 524.501 413.76 524.767 414.724C525.299 416.636 525.686 418.488 525.944 420.256C526.316 422.783 526.438 425.15 526.377 427.336Z" fill="#2D2D2A"/>
<path d="M478.97 487.594L475.909 490.698L401.653 401.733C416.843 389.076 445.772 398.736 466.279 423.299C470.737 428.641 474.428 434.241 477.314 439.872C477.762 440.737 478.187 441.602 478.59 442.467C479.213 443.78 479.782 445.085 480.314 446.39C480.686 447.323 481.043 448.257 481.377 449.182C481.689 450.078 481.993 450.966 482.266 451.854C482.585 452.855 482.874 453.857 483.124 454.843C483.618 456.71 484.013 458.554 484.309 460.367C484.696 462.712 484.917 465.011 484.97 467.235C485.175 475.271 483.215 482.373 478.97 487.594Z" fill="#42423D"/>
<path d="M401.653 401.733L475.909 490.698C460.719 503.347 431.79 493.687 411.284 469.124C390.777 444.554 386.471 414.383 401.653 401.733Z" fill="#42423D"/>
<path d="M460.516 475.088C469.922 467.25 466.833 448.062 453.617 432.231C440.402 416.4 422.063 409.92 412.657 417.758C403.251 425.596 406.34 444.784 419.556 460.615C432.771 476.446 451.11 482.926 460.516 475.088Z" fill="#FEFCF3"/>
<path d="M458.741 464.803C465.857 458.873 463.488 444.319 453.451 432.295C443.414 420.271 429.508 415.331 422.393 421.261C415.277 427.19 417.646 441.744 427.683 453.768C437.72 465.792 451.626 470.732 458.741 464.803Z" fill="#E2DFD4"/>
<path d="M524.767 414.724L483.124 454.843C482.874 453.857 482.585 452.855 482.266 451.854L523.841 411.788C524.19 412.782 524.501 413.761 524.767 414.724Z" fill="#1D1D1B"/>
<path d="M503.706 427.67L481.377 449.182C481.043 448.257 480.686 447.323 480.314 446.39L501.8 425.689L503.706 427.67Z" fill="#1D1D1B"/>
<path d="M490.795 430.705L478.59 442.467C478.187 441.602 477.762 440.737 477.314 439.872L488.889 428.724L490.795 430.705Z" fill="#1D1D1B"/>
<path d="M526.377 427.336L484.97 467.235C484.917 465.011 484.696 462.712 484.309 460.368L525.944 420.256C526.317 422.783 526.438 425.151 526.377 427.336Z" fill="#1D1D1B"/>
<path d="M270.724 143.331C269.6 144.887 268.286 146.306 266.79 147.55C251.638 160.184 222.975 150.813 202.788 126.622C182.593 102.43 178.514 72.5783 193.674 59.9515L208.803 78.0874L252.451 130.401L266.737 147.527C266.737 147.527 268.256 145.926 270.724 143.331Z" fill="#42423D"/>
<path d="M252.451 130.401L231.026 104.722L221.251 93.0058L208.811 78.0949C214.826 75.6212 223.264 77.6245 231.451 83.1107L232.142 82.4354L232.393 82.1926L235.287 85.0002C235.287 85.0002 235.309 85.023 235.317 85.0306L236.532 86.2143C236.988 86.571 241.378 91.0101 241.773 91.4274L243.064 92.7857L242.669 93.1727C242.844 93.37 243.011 93.5749 243.185 93.7798C254.076 106.839 257.722 122.205 252.451 130.401Z" fill="#42423D"/>
<path d="M252.451 130.401C251.798 131.425 251 132.336 250.066 133.117C242 139.833 226.347 134.498 214.279 121.242C213.709 120.612 213.14 119.952 212.578 119.284C209.638 115.763 207.231 112.083 205.385 108.418C199.507 96.7696 199.271 85.3113 205.697 79.954C206.638 79.1725 207.679 78.5502 208.811 78.0949C214.826 75.6212 223.264 77.6245 231.451 83.1107C235.347 85.7135 239.183 89.1055 242.669 93.1727C242.844 93.37 243.011 93.5749 243.185 93.7798C254.076 106.839 257.722 122.205 252.451 130.401Z" fill="#282825"/>
<path d="M320.57 138.892C318.094 138.77 315.603 138.672 313.127 138.596L320.175 140.409L320.57 138.892Z" fill="#00AEB9"/>
<path d="M92.2437 314.066C91.1197 315.622 89.8057 317.041 88.3095 318.285C73.1577 330.92 44.4944 321.548 24.3071 297.357C4.1122 273.166 0.0337296 243.314 15.1932 230.687L30.3223 248.823L73.9703 301.136L88.2564 318.263C88.2564 318.263 89.7754 316.661 92.2437 314.066Z" fill="#D2273D"/>
<path d="M91.6817 271.352C88.6665 264.659 84.4817 257.944 79.2032 251.615C59.0083 227.424 30.3527 218.052 15.1932 230.687L31.3476 216.17L13.2869 200.948L13.1806 200.857L1.43881 133.125L33.6489 149.485L35.1603 150.251L41.9501 153.704L45.5501 155.533L52.2792 158.948L53.7906 159.714L59.2666 162.499L62.6463 181.409L62.6691 181.53L63.0336 183.564H63.064L66.1855 199.613L64.8185 200.971L65.145 201.305L66.2919 200.174L66.3602 200.508L66.5045 200.364L74.2438 192.639L77.4868 189.422L77.5627 189.87L78.1855 193.466L91.6817 271.352Z" fill="#D2273D"/>
<path d="M63.064 183.556L63.0336 183.564L62.6691 181.53L63.064 183.556Z" fill="#D2273D"/>
<path d="M183.732 62.3797L154.112 91.4957L140.715 104.669L110.692 134.18L69.1552 141.366L74.1374 170.117L62.6463 181.409L59.2666 162.499L53.7906 159.714L52.2792 158.948L45.5501 155.533L41.9501 153.704L35.1603 150.251L33.6489 149.485L1.43881 133.125L1.39324 132.882L1.31729 132.844L1.08185 132.73L130.963 5.89283L136.431 0.550717L136.583 0.816304L137.153 0.490009L137.198 0.459656C137.388 0.770773 154.742 30.2662 162.117 35.8208C162.565 36.1623 162.975 36.4051 163.34 36.5569L163.849 36.7694H163.871L163.864 36.7845L159.656 40.9353C159.618 40.867 159.596 40.7911 159.573 40.7228L158.851 40.9581C158.912 41.1402 158.988 41.3223 159.064 41.512C159.299 42.0735 159.634 42.6502 160.044 43.2573C160.332 43.6822 160.666 44.1224 161.031 44.5776C161.153 44.7294 161.282 44.8812 161.418 45.0405C161.95 45.6628 162.55 46.3002 163.203 46.9528C163.628 47.3777 164.077 47.8102 164.547 48.2428C165.026 48.6905 165.527 49.1382 166.051 49.5859C166.309 49.8135 166.575 50.0412 166.849 50.2688C168.193 51.4146 169.659 52.5681 171.178 53.7139C171.793 54.1768 172.408 54.6396 173.039 55.0949C173.35 55.3302 173.669 55.5578 173.98 55.7779C174.087 55.8538 174.193 55.9297 174.299 56.0055C174.512 56.1573 174.725 56.3091 174.937 56.4608C175.294 56.7188 175.659 56.9768 176.016 57.2272C176.623 57.6446 177.231 58.0695 177.831 58.4793C179.775 59.8072 181.72 61.0821 183.58 62.281C183.633 62.3114 183.679 62.3493 183.732 62.3797Z" fill="#D2273D"/>
<path d="M198.125 70.1652L193.795 74.4449L193.697 74.5436L147.831 120.225L147.785 120.263L147.649 120.202L147.55 120.156L142.712 124.937L138.178 129.422L122.555 144.864L121.917 145.494L85.4614 181.538L85.8032 181.697L116.487 196.1L118.325 196.957L118.811 197.192L107.297 208.544C108.368 209.387 109.454 210.274 110.547 211.215C112.894 213.211 115.028 215.245 116.965 217.278C118.37 218.758 119.677 220.253 120.884 221.748C124.735 226.483 127.621 231.248 129.732 235.854C130.871 238.343 131.79 240.787 132.512 243.162C132.725 243.852 132.922 244.543 133.097 245.218C133.431 246.463 133.704 247.684 133.932 248.883C134.084 249.65 134.206 250.401 134.312 251.137C134.532 252.571 134.677 253.96 134.76 255.295C134.897 257.412 134.889 259.408 134.768 261.237C134.373 267.262 132.793 271.565 131.297 273.082C128.198 276.216 109.742 295.627 98.0311 307.965C95.8133 310.302 93.8311 312.389 92.2513 314.059C94.6969 310.652 96.2766 306.561 96.9981 301.993C97.2184 300.635 97.3627 299.224 97.4235 297.782C97.5146 295.9 97.4766 293.942 97.3095 291.947C97.1956 290.596 97.0285 289.23 96.8007 287.849C96.6792 287.12 96.5424 286.377 96.3905 285.633C96.1475 284.434 95.8589 283.212 95.5247 281.991C95.3424 281.315 95.145 280.632 94.9323 279.942C94.0741 277.104 92.988 274.228 91.6817 271.352L78.1855 193.466L77.5627 189.87L77.4868 189.422L74.2438 192.639L66.5045 200.364L66.3602 200.508L66.2919 200.174L65.145 201.305L64.8185 200.971L66.1855 199.613L62.6463 181.409L74.1374 170.117L69.1552 141.366L110.692 134.18L140.715 104.669L154.112 91.4957L183.732 62.3797C183.679 62.3493 183.633 62.3114 183.58 62.281C181.72 61.0821 179.775 59.8072 177.831 58.4793C177.231 58.0695 176.623 57.6446 176.016 57.2273C175.659 56.9768 175.294 56.7188 174.937 56.4608C174.725 56.3091 174.512 56.1573 174.299 56.0055C174.193 55.9297 174.087 55.8538 173.98 55.7779C173.669 55.5578 173.35 55.3302 173.039 55.0949C172.408 54.6397 171.793 54.1768 171.178 53.7139C169.659 52.5681 168.193 51.4147 166.849 50.2688C166.575 50.0412 166.309 49.8135 166.051 49.5859C165.527 49.1382 165.026 48.6905 164.547 48.2428C164.077 47.8102 163.628 47.3777 163.203 46.9528C162.55 46.3002 161.95 45.6628 161.418 45.0405C161.282 44.8812 161.152 44.7294 161.031 44.5777C160.659 44.1224 160.332 43.6822 160.044 43.2573C159.633 42.6502 159.299 42.0735 159.064 41.5196C158.988 41.3223 158.912 41.1402 158.851 40.9581L159.573 40.7228C159.596 40.7911 159.618 40.867 159.656 40.9353C159.861 41.4817 160.173 42.0659 160.575 42.6806C160.613 42.7413 160.651 42.7944 160.689 42.8551C160.879 43.1359 161.092 43.4318 161.327 43.7278C161.639 44.1375 161.988 44.5473 162.368 44.9722C162.55 45.1771 162.74 45.3744 162.93 45.5793C163.127 45.7918 163.34 46.0118 163.56 46.2243C164.107 46.7783 164.692 47.3398 165.322 47.9089C165.444 48.0303 165.573 48.1365 165.694 48.2504C165.93 48.4552 166.173 48.6677 166.423 48.8878C166.439 48.903 166.454 48.9181 166.469 48.9333C166.712 49.1382 166.963 49.3582 167.221 49.5707C167.494 49.7984 167.768 50.026 168.049 50.2612C168.611 50.7317 169.188 51.187 169.773 51.6423C170.365 52.1128 170.973 52.5757 171.588 53.0385C171.611 53.0689 171.641 53.0841 171.671 53.1068C172.256 53.5545 172.856 53.9947 173.464 54.4348C173.509 54.4651 173.555 54.5031 173.601 54.5334C173.874 54.7383 174.147 54.928 174.421 55.1253C174.573 55.2315 174.717 55.3378 174.869 55.4364C175.363 55.8007 175.864 56.1497 176.365 56.4988C176.692 56.734 177.018 56.9617 177.345 57.1817C177.671 57.4094 178.006 57.637 178.332 57.8571C180.299 59.2002 182.266 60.4978 184.157 61.7119C184.211 61.7498 184.256 61.7802 184.309 61.8105C191.525 66.4394 197.54 69.8389 197.684 69.9224L198.102 70.15L198.125 70.1652Z" fill="#D2273D"/>
<path d="M478.97 487.594C478.058 488.717 477.033 489.757 475.909 490.698L478.97 487.594Z" fill="#42423D"/>
<path d="M198.125 70.1652L193.795 74.4449L193.697 74.5436L148.127 119.595L147.55 120.156L142.712 124.937L138.178 129.422L122.555 144.864L121.917 145.494L85.4615 181.538L84.8843 182.107L77.4868 189.422L74.2438 192.639L77.3273 188.511L136.872 129.649L142.621 123.966L196.871 70.3397C195.284 69.4291 189.937 66.3483 183.732 62.3797C183.679 62.3493 183.633 62.3114 183.58 62.281C181.72 61.0821 179.775 59.8072 177.831 58.4793C177.231 58.0695 176.623 57.6446 176.016 57.2272C175.659 56.9768 175.294 56.7188 174.937 56.4608C174.725 56.3091 174.512 56.1573 174.299 56.0055C174.193 55.9297 174.087 55.8538 173.98 55.7779C173.669 55.5578 173.35 55.3302 173.039 55.0949C172.408 54.6397 171.793 54.1768 171.178 53.7139C169.659 52.5681 168.193 51.4147 166.849 50.2688C166.575 50.0412 166.309 49.8135 166.051 49.5859C165.527 49.1382 165.026 48.6905 164.547 48.2428C164.077 47.8102 163.628 47.3777 163.203 46.9528C162.55 46.3002 161.95 45.6628 161.418 45.0405C161.282 44.8812 161.153 44.7294 161.031 44.5777C160.659 44.1224 160.332 43.6822 160.044 43.2573C159.634 42.6502 159.299 42.0735 159.064 41.5196C158.988 41.3223 158.912 41.1402 158.851 40.9581L159.573 40.7228C159.596 40.7911 159.618 40.867 159.656 40.9353C159.861 41.4817 160.173 42.0659 160.575 42.6806C160.613 42.7413 160.651 42.7944 160.689 42.8551C160.879 43.1359 161.092 43.4318 161.327 43.7278C161.639 44.1375 161.988 44.5473 162.368 44.9722C162.55 45.1771 162.732 45.3744 162.93 45.5793C163.127 45.7918 163.34 46.0118 163.56 46.2243C164.107 46.7783 164.692 47.3398 165.322 47.9089C165.444 48.0303 165.573 48.1365 165.694 48.2504C165.93 48.4552 166.173 48.6677 166.423 48.8878C166.439 48.903 166.454 48.9181 166.469 48.9333C166.712 49.1382 166.963 49.3582 167.221 49.5707C167.494 49.7984 167.768 50.026 168.049 50.2612C168.611 50.7317 169.188 51.187 169.773 51.6423C170.365 52.1128 170.973 52.5832 171.588 53.0385C171.611 53.0689 171.641 53.0841 171.671 53.1068C172.256 53.5545 172.856 53.9947 173.464 54.4348C173.509 54.4651 173.555 54.5031 173.601 54.5334C173.874 54.7383 174.147 54.928 174.421 55.1253C174.573 55.2315 174.717 55.3378 174.869 55.4364C175.363 55.8007 175.864 56.1497 176.365 56.4988C176.692 56.734 177.018 56.9617 177.345 57.1817C177.671 57.4094 178.006 57.637 178.332 57.8571C180.299 59.2002 182.266 60.4978 184.158 61.7119C184.211 61.7498 184.256 61.7802 184.309 61.8105C191.525 66.4394 197.54 69.8389 197.684 69.9224L198.102 70.15L198.125 70.1652Z" fill="#AC2433"/>
<path d="M684.367 272.073C684.39 275.564 683.965 278.629 683.372 281.194C682.119 286.642 680.129 289.799 680.129 289.799L636.997 333.492C639.944 329.842 641.775 325.282 642.542 320.129H642.549C642.944 317.435 643.051 314.59 642.876 311.63C642.792 310.098 642.625 308.527 642.375 306.933C642.162 305.484 641.873 304.004 641.524 302.509C641.342 301.72 641.144 300.923 640.916 300.119C640.711 299.338 640.476 298.556 640.225 297.774C639.876 296.651 639.496 295.521 639.071 294.39C638.805 293.662 638.524 292.933 638.228 292.205C635.076 284.472 630.39 276.611 624.253 269.258C613.894 256.851 601.385 248.246 589.582 244.391C588.473 244.034 587.365 243.708 586.263 243.435C585.314 243.192 584.365 242.987 583.43 242.813C582.162 242.57 580.901 242.395 579.663 242.282H579.656C578.57 242.183 577.499 242.13 576.443 242.122C574.848 242.122 573.291 242.221 571.787 242.441H571.78C567.192 243.109 563.061 244.831 559.628 247.692L602.987 207.998C602.987 207.998 605.403 206.556 610.051 205.957C611.395 205.782 612.929 205.676 614.638 205.706C615.641 205.714 616.704 205.775 617.835 205.888C619.02 206.002 620.266 206.177 621.587 206.427C622.499 206.594 623.448 206.807 624.42 207.049C625.491 207.323 626.592 207.641 627.739 208.006C636.595 210.866 647.706 216.869 660.846 228.608C670.316 237.068 676.202 245.211 679.719 252.64C680.053 253.345 680.372 254.043 680.661 254.741C681.132 255.857 681.549 256.95 681.914 258.027C682.18 258.809 682.423 259.575 682.643 260.334C682.871 261.138 683.076 261.935 683.251 262.717C683.615 264.265 683.873 265.76 684.048 267.201C684.261 268.901 684.359 270.533 684.367 272.073Z" fill="#2D2D2A"/>
<path d="M633.883 336.656C618.693 349.306 589.764 339.646 569.258 315.083C548.752 290.512 544.445 260.342 559.628 247.692L633.883 336.656Z" fill="#42423D"/>
<path d="M636.944 333.553C636.033 334.676 635.007 335.716 633.883 336.656L636.944 333.553Z" fill="#42423D"/>
<path d="M196.028 92.4972H196.021L196.028 92.4898V92.4972Z" fill="#282825"/>
<path d="M258.17 137.921L257.646 138.034L257.866 138.604L258.17 137.921Z" fill="#696964"/>
<path d="M173.595 213.363L114.888 223.526L117.521 238.712L176.229 228.549L173.595 213.363Z" fill="#696964"/>
<path d="M47.464 228.099C46.3248 227.682 45.1931 227.302 44.0691 226.961C45.1931 227.287 46.3248 227.674 47.464 228.099Z" fill="#42423D"/>
<path d="M56.9349 232.599C56.2742 232.212 55.6058 231.848 54.9451 231.499C55.6058 231.84 56.2742 232.212 56.9349 232.599Z" fill="#42423D"/>
<path d="M606.823 213.477L575.592 242.191C574.286 242.191 573.018 242.266 571.787 242.441L603.071 213.674C604.172 213.537 605.425 213.454 606.823 213.477Z" fill="#1D1D1B"/>
<path d="M607.582 218.386L582.17 242.813C581.327 242.653 580.484 242.532 579.663 242.456L605.084 218.022C605.873 218.098 606.701 218.219 607.582 218.386Z" fill="#1D1D1B"/>
<path d="M608.342 223.872L588.033 244.391C587.44 244.186 586.856 244.004 586.263 243.852L606.572 223.334C607.142 223.486 607.726 223.668 608.342 223.872Z" fill="#1D1D1B"/>
<path d="M684.367 272.073C684.39 275.564 683.964 278.629 683.372 281.194L642.549 320.122C642.944 317.435 643.051 314.59 642.876 311.63L684.367 272.073Z" fill="#1D1D1B"/>
<path d="M684.048 267.201L642.375 306.933C642.162 305.484 641.873 304.004 641.524 302.509L683.251 262.717C683.615 264.265 683.873 265.76 684.048 267.201Z" fill="#1D1D1B"/>
<path d="M682.643 259.993L646.909 293.904C646.734 293.237 646.529 292.569 646.316 291.909L682.02 258.027C682.248 258.695 682.453 259.348 682.643 259.993Z" fill="#1D1D1B"/>
<path d="M669.861 266.215L646.043 287.834C645.891 287.439 645.732 287.037 645.557 286.642L669.321 265.069C669.511 265.456 669.694 265.835 669.861 266.215Z" fill="#1D1D1B"/>
<path d="M642.549 320.122H642.542C641.775 325.282 639.944 329.842 636.997 333.492C636.975 333.515 636.959 333.538 636.944 333.553L633.884 336.656L559.628 247.692C563.061 244.831 567.192 243.109 571.78 242.448H571.787C573.291 242.221 574.848 242.122 576.443 242.122C577.499 242.122 578.57 242.183 579.656 242.282H579.663C580.901 242.395 582.162 242.57 583.43 242.813C584.365 242.987 585.314 243.192 586.263 243.435C587.365 243.708 588.473 244.034 589.582 244.391C601.385 248.246 613.894 256.851 624.253 269.258C630.39 276.611 635.076 284.472 638.228 292.205C638.524 292.933 638.805 293.661 639.071 294.39C639.496 295.521 639.876 296.651 640.225 297.774C640.476 298.556 640.711 299.337 640.916 300.119C641.144 300.923 641.342 301.72 641.524 302.509C641.873 304.004 642.162 305.484 642.375 306.933C642.625 308.527 642.792 310.098 642.876 311.63C643.051 314.59 642.944 317.435 642.549 320.122Z" fill="#42423D"/>
<path d="M618.474 321.047C627.88 313.209 624.792 294.021 611.576 278.19C598.36 262.358 580.022 255.879 570.616 263.717C561.21 271.555 564.299 290.743 577.514 306.574C590.73 322.405 609.069 328.885 618.474 321.047Z" fill="#282825"/>
<path d="M543.534 278.075L546.603 287.469L552.739 285.83L598.514 273.606L607.051 271.618L604.415 269.766L603.413 268.4L601.787 267.915L597.397 264.819L595.764 264.333L595.165 264.28L569.289 271.193L568.658 271.367L555.906 274.767L555.17 274.964L543.534 278.075Z" fill="#696964"/>
<path d="M558.435 279.563L560.729 283.668L566.873 282.143L612.701 270.707L621.223 268.719L618.785 268.157L617.896 267.626L616.339 267.588L612.268 266.655L610.711 266.617L610.119 266.67L584.22 273.128L583.59 273.287L570.823 276.467L570.086 276.656L558.435 279.563Z" fill="#464645"/>
<path d="M562.772 283.281L556.385 274.486L552.23 275.624L523.537 283.319L517.749 284.609L519.58 286.665L520.294 288.099L521.41 288.714L524.456 292.136L525.572 292.751L525.982 292.85L543.489 288.069L543.914 287.948L553.309 285.595L553.802 285.459L562.772 283.281Z" fill="#464645"/>
<path d="M566.562 310.09L575.63 318.498L613.666 277.893L604.286 269.023L566.562 310.09Z" fill="#696964"/>
<path d="M574.157 313.77L577.559 316.927L615.481 276.224L612.018 272.832L574.157 313.77Z" fill="#464645"/>
<path d="M596.919 313.08L603.77 319.424L623.539 298.032L621.154 290.74L596.919 313.08Z" fill="#696964"/>
<path d="M599.615 317.2L603.139 320.471L622.932 299.102L622.939 294.018L599.615 317.2Z" fill="#464645"/>
<path d="M593.532 262.413C596.349 263.825 615.557 272.278 623.911 298.837" stroke="#42423D" stroke-width="3" stroke-miterlimit="10"/>
<path d="M578.129 515.154L578.167 515.185L578.182 515.147C578.182 515.147 578.144 515.154 578.129 515.154ZM704.623 396.77V396.755H704.615C704.615 396.755 704.607 396.725 704.6 396.71L704.554 396.733L703.924 397.066C706.772 402.515 707.896 407.318 707.296 411.401L698.721 414.026L549.678 459.631L552.473 468.76L555.663 470.323L556.423 470.695C556.461 470.634 556.506 470.581 556.552 470.528L556.59 470.558C556.871 470.179 557.167 469.8 557.478 469.428C557.554 469.329 557.646 469.238 557.729 469.139C557.759 469.094 557.805 469.048 557.851 468.995C560.046 466.552 562.772 464.207 565.924 461.953L565.894 461.931C565.894 461.931 565.916 461.915 565.924 461.908C596.41 440.494 669.602 428.671 670.438 428.542C670.43 428.55 677.357 428.785 685.157 427.495C689.41 426.782 694.445 425.522 698.721 423.269C701.721 421.69 704.342 419.626 706.058 416.917C707.159 415.172 707.843 413.245 708.093 411.158C708.61 407.007 707.448 402.196 704.623 396.77ZM668.22 418.602C668.22 418.602 668.19 418.571 668.167 418.549C668.129 418.518 668.091 418.488 668.053 418.458C668.03 418.45 668.007 418.427 667.985 418.404C667.916 418.351 667.84 418.291 667.757 418.23C667.704 418.184 667.643 418.139 667.582 418.093C667.392 417.942 667.164 417.767 666.914 417.577C666.807 417.494 666.693 417.403 666.572 417.312C666.511 417.266 666.45 417.221 666.39 417.175C666.321 417.115 666.253 417.061 666.185 417.016C665.919 416.811 665.63 416.591 665.319 416.348C665.159 416.227 665 416.105 664.833 415.976C664.666 415.847 664.491 415.711 664.309 415.574C663.815 415.195 663.276 414.792 662.691 414.352C662.638 414.314 662.585 414.277 662.531 414.239C662.425 414.148 662.319 414.072 662.212 413.996C662.045 413.874 661.878 413.745 661.711 413.616C661.544 413.495 661.369 413.358 661.195 413.229C660.359 412.599 659.471 411.939 658.506 411.226C658.377 411.127 658.24 411.029 658.104 410.93C657.838 410.733 657.564 410.528 657.283 410.323C656.516 409.754 655.719 409.17 654.883 408.563C654.701 408.434 654.519 408.297 654.337 408.16C653.737 407.728 653.121 407.28 652.491 406.817C652.339 406.703 652.187 406.597 652.035 406.491C651.64 406.203 651.238 405.914 650.828 405.618C648.899 404.222 646.825 402.735 644.623 401.179C644.478 401.073 644.334 400.967 644.182 400.868C643.992 400.732 643.802 400.595 643.612 400.466C643.202 400.178 642.785 399.882 642.359 399.586C642.283 399.525 642.2 399.464 642.116 399.411C641.357 398.88 640.575 398.334 639.785 397.78C639.344 397.469 638.904 397.157 638.456 396.854C638.288 396.74 638.121 396.619 637.954 396.505C637.787 396.383 637.62 396.27 637.445 396.148C637.104 395.913 636.754 395.678 636.413 395.435C636.063 395.2 635.721 394.957 635.372 394.714C634.43 394.061 633.473 393.409 632.509 392.749C631.931 392.347 631.339 391.944 630.747 391.542C630.344 391.269 629.934 390.996 629.532 390.715C629.023 390.374 628.514 390.024 628.005 389.683C627.64 389.44 627.276 389.197 626.904 388.947C625.362 387.9 623.782 386.845 622.172 385.775C621.094 385.062 620 384.333 618.899 383.605C617.258 382.52 615.58 381.419 613.871 380.312L613.21 379.879C613.21 379.879 613.195 379.871 613.187 379.871C613.126 379.833 613.058 379.788 612.997 379.742C611.539 378.794 610.058 377.838 608.547 376.882C607.954 376.495 607.354 376.115 606.747 375.728C606.185 375.364 605.615 375 605.045 374.643C604.476 374.279 603.906 373.915 603.329 373.55C601.134 372.162 598.886 370.75 596.607 369.339C596.486 369.263 596.372 369.195 596.258 369.119C596 368.967 595.749 368.808 595.491 368.648C594.42 367.988 593.342 367.32 592.248 366.653C591.762 366.357 591.268 366.053 590.775 365.757C590.752 365.742 590.737 365.727 590.714 365.712C590.228 365.416 589.742 365.12 589.248 364.824C587.729 363.898 586.202 362.972 584.653 362.047C583.97 361.637 583.286 361.227 582.595 360.817C581.904 360.408 581.213 359.99 580.521 359.588C579.83 359.171 579.132 358.761 578.433 358.351C578.106 358.154 577.772 357.964 577.446 357.767C576.367 357.137 575.289 356.507 574.195 355.87C572.114 354.656 570.002 353.442 567.868 352.227C566.79 351.613 565.711 350.998 564.618 350.384C563.896 349.974 563.159 349.564 562.43 349.154C560.965 348.327 559.483 347.508 558.002 346.688C557.266 346.278 556.522 345.869 555.77 345.459C554.646 344.837 553.521 344.222 552.39 343.615C551.532 343.144 550.666 342.674 549.8 342.211C549.587 342.097 549.367 341.983 549.154 341.862C548.608 341.574 548.053 341.278 547.499 340.982C546.853 340.633 546.2 340.284 545.547 339.942C545.425 339.874 545.304 339.813 545.182 339.745C544.149 339.206 543.116 338.66 542.084 338.121C541.316 337.711 540.542 337.309 539.759 336.907C538.203 336.095 536.646 335.291 535.073 334.494C534.291 334.092 533.501 333.689 532.719 333.295C531.359 332.612 529.992 331.921 528.625 331.238C528.405 331.125 528.185 331.018 527.965 330.912C527.167 330.518 526.37 330.123 525.572 329.728C524.471 329.182 523.362 328.643 522.261 328.112C521.592 327.786 520.924 327.459 520.248 327.133C519.603 326.822 518.957 326.511 518.311 326.207C517.696 325.912 517.081 325.616 516.466 325.327C515.646 324.94 514.825 324.553 514.005 324.166C513.185 323.779 512.365 323.392 511.537 323.013C510.641 322.595 509.752 322.186 508.856 321.776C508.089 321.419 507.329 321.078 506.57 320.729C506.205 320.562 505.833 320.395 505.461 320.228C504.329 319.72 503.19 319.211 502.058 318.703C501.056 318.255 500.061 317.815 499.058 317.375C498.914 317.314 498.777 317.253 498.633 317.193C496.97 316.464 495.299 315.743 493.628 315.03C492.155 314.4 490.689 313.778 489.208 313.163C488.463 312.852 487.719 312.541 486.975 312.238C486.504 312.04 486.025 311.843 485.547 311.653C484.977 311.418 484.408 311.183 483.838 310.955C482.668 310.477 481.499 310.007 480.322 309.544C478.932 308.99 477.542 308.443 476.152 307.905C476.053 307.867 475.955 307.829 475.856 307.791C475.028 307.472 474.2 307.153 473.365 306.835C473.175 306.759 472.993 306.691 472.81 306.622C472.21 306.395 471.603 306.167 470.995 305.939C470.38 305.704 469.757 305.476 469.142 305.249C468.899 305.158 468.656 305.067 468.413 304.976C468.041 304.839 467.661 304.702 467.289 304.566C466.431 304.255 465.58 303.944 464.722 303.632C463.757 303.283 462.793 302.942 461.828 302.6C461.084 302.335 460.347 302.077 459.603 301.819C457.529 301.098 455.448 300.392 453.367 299.702C452.319 299.353 451.279 299.011 450.231 298.67L452.372 311.023C452.965 311.175 453.565 311.334 454.165 311.494C454.613 311.615 455.069 311.737 455.517 311.858C455.782 311.926 456.048 311.995 456.306 312.071C456.572 312.146 456.838 312.222 457.104 312.291C457.628 312.435 458.16 312.587 458.691 312.731C459.306 312.905 459.922 313.08 460.544 313.254C460.772 313.323 461 313.391 461.236 313.459C461.805 313.626 462.382 313.793 462.96 313.968H462.967C463.681 314.188 464.403 314.4 465.117 314.62C465.838 314.848 466.56 315.068 467.281 315.296C467.646 315.409 468.003 315.523 468.367 315.637C469.187 315.903 470.015 316.161 470.836 316.434C471.557 316.669 472.279 316.904 473.008 317.147C473.623 317.352 474.246 317.564 474.861 317.777C475.78 318.08 476.699 318.399 477.618 318.725C478.56 319.052 479.509 319.386 480.458 319.719C481.195 319.977 481.939 320.243 482.684 320.516C484.172 321.055 485.661 321.601 487.149 322.163C487.894 322.444 488.646 322.724 489.39 323.005C490.142 323.294 490.894 323.582 491.638 323.87C492.018 324.014 492.398 324.166 492.77 324.31C493.901 324.751 495.025 325.191 496.149 325.638C498.747 326.67 501.344 327.733 503.957 328.818C504.382 328.992 504.8 329.167 505.218 329.341C506 329.668 506.775 329.994 507.557 330.32C509.053 330.958 510.549 331.595 512.046 332.248C512.805 332.574 513.565 332.908 514.324 333.242C514.772 333.439 515.213 333.629 515.653 333.826C519.587 335.564 523.529 337.347 527.456 339.161C528.8 339.783 530.137 340.413 531.473 341.042C531.823 341.202 532.172 341.369 532.522 341.536C533.509 341.999 534.496 342.469 535.484 342.939C538.271 344.267 541.043 345.618 543.808 346.976C544.795 347.462 545.775 347.948 546.762 348.433C549.215 349.655 551.668 350.884 554.099 352.114C554.699 352.425 555.291 352.728 555.891 353.032C556.195 353.184 556.499 353.335 556.803 353.495C557.752 353.98 558.694 354.466 559.643 354.952C560.562 355.422 561.473 355.893 562.377 356.371C562.833 356.606 563.289 356.841 563.737 357.076C564.124 357.281 564.504 357.479 564.891 357.683C567.405 358.996 569.896 360.309 572.365 361.629C575.038 363.056 577.681 364.482 580.286 365.902C583.81 367.821 587.273 369.726 590.676 371.623C590.805 371.699 590.934 371.775 591.071 371.843C592.066 372.405 593.068 372.966 594.056 373.52C594.716 373.884 595.37 374.256 596.023 374.628C596.919 375.136 597.815 375.637 598.704 376.146C600.747 377.307 602.775 378.46 604.764 379.606C605.357 379.947 605.942 380.289 606.534 380.63C606.975 380.888 607.423 381.139 607.863 381.397C608.273 381.632 608.676 381.867 609.078 382.102C611.6 383.567 614.076 385.009 616.483 386.428C617.425 386.989 618.359 387.536 619.286 388.082C621.929 389.653 624.488 391.185 626.972 392.673C627.2 392.809 627.428 392.946 627.648 393.083C629.577 394.251 631.461 395.389 633.283 396.497C633.291 396.497 633.306 396.497 633.314 396.512C633.511 396.634 633.709 396.755 633.906 396.869C633.99 396.922 634.073 396.975 634.149 397.028C634.575 397.279 634.992 397.537 635.402 397.787C639.329 400.193 642.974 402.454 646.301 404.533C646.878 404.897 647.448 405.246 648.002 405.596C649.088 406.278 650.144 406.946 651.154 407.584C651.906 408.062 652.643 408.525 653.349 408.972C653.448 409.033 653.554 409.101 653.653 409.17C653.904 409.329 654.154 409.481 654.397 409.64C654.739 409.86 655.073 410.073 655.407 410.285C655.742 410.498 656.068 410.702 656.387 410.907C656.683 411.097 656.972 411.279 657.261 411.469C657.549 411.651 657.83 411.833 658.111 412.015C658.795 412.455 659.448 412.873 660.071 413.275C660.58 413.609 661.066 413.92 661.529 414.216C662.547 414.876 663.458 415.468 664.263 415.999C664.597 416.219 664.916 416.424 665.212 416.621C666.428 417.418 667.316 418.002 667.855 418.359C667.871 418.374 667.886 418.382 667.893 418.389C667.893 418.389 667.909 418.397 667.916 418.397C667.931 418.412 667.939 418.42 667.954 418.427C668.015 418.465 668.068 418.503 668.114 418.533C668.121 418.541 668.129 418.541 668.129 418.549C668.152 418.564 668.174 418.571 668.19 418.587C668.212 418.594 668.228 418.609 668.243 418.617C668.243 418.617 668.24 418.612 668.235 418.602H668.22Z" fill="#D2273D"/>
<path d="M749.668 338.667L749.547 339.327L732.147 435.25C731.98 436.153 731.395 436.95 730.574 437.368L719.167 443.188L698.721 453.621L613.058 497.345L578.911 514.775L578.835 514.813L578.76 514.851L578.592 514.934C578.623 514.881 578.646 514.813 578.653 514.737C578.668 514.684 578.676 514.623 578.668 514.555L567.846 478.663C567.306 476.879 566.046 475.4 564.375 474.58L556.423 470.695C556.461 470.634 556.506 470.581 556.552 470.528L556.59 470.558C556.871 470.179 557.167 469.8 557.479 469.428C557.555 469.329 557.646 469.238 557.729 469.139C557.76 469.094 557.805 469.048 557.851 468.995C560.046 466.552 562.772 464.207 565.924 461.953L565.894 461.931C565.894 461.931 565.917 461.915 565.924 461.908C596.41 440.494 669.602 428.671 670.438 428.542C670.43 428.55 677.357 428.785 685.157 427.495C689.41 426.782 694.445 425.522 698.721 423.269C701.721 421.69 704.342 419.626 706.058 416.917C707.159 415.172 707.843 413.245 708.093 411.158C708.61 407.007 707.448 402.196 704.623 396.77V396.755H704.615C704.121 394.843 692.911 350.998 707.061 312.533C706.521 312.139 705.982 311.752 705.443 311.357C696.519 304.869 688.142 298.017 682.453 291.689C682.597 291.56 682.742 291.453 682.886 291.355L682.81 290.915C688.635 297.478 697.43 304.626 706.757 311.357C725.243 324.69 745.825 336.36 749.638 338.485L749.668 338.667Z" fill="#BD2236"/>
<path d="M702.276 385.115C703.369 391.884 704.471 396.179 704.615 396.748C704.615 396.732 704.607 396.725 704.6 396.71L704.554 396.732L702.162 394.524L698.721 391.352L671.007 365.75L670.453 365.234C670.537 363.382 670.742 358.875 671.129 352.933C672.405 333.158 675.617 297.547 682.453 291.688C688.142 298.017 696.519 304.869 705.443 311.357C705.982 311.752 706.521 312.139 707.061 312.533C697.126 339.532 699.693 369.18 702.276 385.115Z" fill="#D2273D"/>
<path d="M578.129 515.155C578.061 515.155 577.985 515.147 577.924 515.139L577.764 514.995L573.428 511.095L574.263 511.816L577.878 514.935L578.129 515.155Z" fill="#D2273D"/>
<path d="M317.274 166.968C317.274 166.968 306.876 138.733 291.838 149.804C276.8 160.875 287.35 190.628 287.35 190.628C287.578 187.51 317.274 166.968 317.274 166.968Z" fill="#D2273D"/>
<path d="M286.811 141.745L286.271 141.221C286.051 141.441 264.671 164.062 277.089 204.773L277.818 204.553C271.393 183.511 274.188 167.553 277.651 157.878C281.411 147.391 286.757 141.798 286.811 141.745Z" fill="#D2273D"/>
<path d="M277.082 204.773L277.811 204.553C271.385 183.511 274.18 167.553 277.644 157.878C281.403 147.391 286.75 141.798 286.803 141.745L286.264 141.221C286.044 141.441 264.664 164.062 277.082 204.773Z" fill="#AC2433"/>
<path d="M498.952 462.409H498.944L498.808 461.361H498.815L498.929 462.242L498.952 462.409Z" fill="#AC2433"/>
<path d="M578.592 514.934C578.509 515.086 578.349 515.147 578.182 515.147L578.304 514.896L578.357 515.056L578.592 514.934Z" fill="#AC2433"/>
<path d="M201.254 67.0161L201.185 67.0844L197.95 48.4022L197.897 48.0987L197.927 48.0683L201.254 67.0161Z" fill="#8C202E"/>
<path d="M63.7779 183.427L63.064 183.556L63.0336 183.564L62.6691 181.53L62.6463 181.409L59.2666 162.499L53.7906 159.714L52.2792 158.948L45.5501 155.533L41.9501 153.704L35.1603 150.251L33.6489 149.485L1.43879 133.125L1.22614 133.019L1.31727 132.844L1.5755 132.336L34.2109 148.924L35.7223 149.69L42.5273 153.143L46.1197 154.971L52.8412 158.386L54.3526 159.152L59.9501 161.998L63.2995 180.764L63.7779 183.427Z" fill="#AC2433"/>
<path d="M198.102 70.15L193.796 74.445L193.697 74.5436L147.831 120.225L147.785 120.263L142.75 125.263L122.768 145.054L122.13 145.691L85.8033 181.697L77.7223 189.71L77.5628 189.87L66.5805 200.751L66.5045 200.364L66.4666 200.19L62.7982 182.001L74.2742 170.633L110.783 134.445L140.722 104.768L154.112 91.4957L183.58 62.281L183.725 62.1444L184.158 61.7119C184.211 61.7499 184.256 61.7802 184.309 61.8106C191.525 66.4394 197.54 69.8389 197.684 69.9224L198.102 70.15Z" fill="#AC2433"/>
<path d="M201.254 67.0161L201.185 67.0844L197.95 48.4022L197.897 48.0987L197.927 48.0683L201.254 67.0161Z" fill="#8C202E"/>
<path d="M159.656 40.9354C159.861 41.4817 160.173 42.066 160.575 42.6807L160.347 42.9083L160.021 43.227L46.1198 154.971L45.8311 155.252L45.5501 155.533L41.9501 153.704L41.0084 152.384L161.001 34.3867C161.449 34.7282 162.975 36.4052 163.34 36.557L163.849 36.7694L163.864 36.7846L159.656 40.9354Z" fill="#AC2433"/>
<path d="M135.421 78.1556L72.7855 140.736L69.5957 143.923L53.7906 159.714L52.2792 158.948L52.8413 158.386L69.2615 141.98L70.0286 141.214L134.282 77.0174L135.421 78.1556Z" fill="#AC2433"/>
<path d="M117.953 67.5321L35.1603 150.251L32.8894 148.726L116.054 65.635L117.953 67.5321Z" fill="#AC2433"/>
<path d="M146.433 21.6215L74.0392 93.951L75.1778 95.0886L147.571 22.759L146.433 21.6215Z" fill="#AC2433"/>
<path d="M175.628 56.1953L103.416 128.344L101.57 126.5L173.039 55.095L173.601 54.5334C173.874 54.7383 174.147 54.928 174.421 55.1253C174.573 55.2316 175.476 56.0966 175.628 56.1953Z" fill="#AC2433"/>
<path d="M110.377 34.7042L12.7163 129.393C12.2648 129.831 12.254 130.551 12.6922 131.002L13.6707 132.01C14.1088 132.461 14.8301 132.472 15.2816 132.034L112.942 37.3453C113.394 36.9075 113.405 36.1869 112.966 35.7358L111.988 34.7283C111.55 34.2772 110.829 34.2664 110.377 34.7042Z" fill="#FFFCF3"/>
<path d="M125.393 20.8904L118.547 27.5278C118.096 27.9656 118.085 28.6862 118.523 29.1373L119.502 30.1448C119.94 30.5959 120.661 30.6067 121.113 30.1689L127.958 23.5315C128.41 23.0938 128.421 22.3731 127.983 21.922L127.004 20.9146C126.566 20.4634 125.845 20.4526 125.393 20.8904Z" fill="#FFFCF3"/>
<path d="M243.064 92.7857L242.669 93.1727L231.026 104.722L228.983 106.741L220.416 115.186L214.279 121.242L211.112 124.368L210.542 124.937L186.861 148.301L181.34 153.757H181.332C180.269 154.038 179.221 154.319 178.158 154.6C177.231 154.842 176.297 155.1 175.385 155.358C174.725 155.533 174.071 155.715 173.418 155.897C171.808 156.345 170.206 156.8 168.595 157.271L168.36 157.346L168.33 157.597C168.33 157.718 167.958 161.148 167.798 167.113L160.416 174.405L116.973 217.278L111.497 222.689L100.651 211.724L105.375 207.057L115.91 196.669L116.487 196.1L171.056 142.246L178.917 134.483L181.917 131.531V131.516L189.725 123.822L190.287 123.268L193.811 119.792L202.37 111.339L202.94 110.785L205.385 108.418L221.251 93.0058L231.451 83.1107L232.142 82.4354L232.393 82.1926L235.287 85.0002C235.287 85.0002 235.309 85.023 235.317 85.0306L236.532 86.2143C236.988 86.571 241.378 91.0101 241.773 91.4274L243.064 92.7857Z" fill="#696964"/>
<path d="M181.332 153.757L180.254 154.82L174.261 160.746L168.588 166.339L167.859 167.059L167.806 167.113H167.798C167.958 161.148 168.322 157.718 168.33 157.597L168.36 157.346L168.596 157.271C170.206 156.8 171.808 156.345 173.418 155.897C174.071 155.715 174.725 155.533 175.385 155.358C176.297 155.1 177.231 154.842 178.158 154.6C179.221 154.319 180.269 154.038 181.332 153.757Z" fill="#696964"/>
<path d="M221.395 337.036L221.099 337.279C220.864 336.99 220.636 336.71 220.401 336.421C220.735 336.626 221.061 336.831 221.395 337.036Z" fill="#158F97"/>
<path d="M174.295 212.966L112.585 223.771L113.732 230.311L175.442 219.506L174.295 212.966Z" fill="#464645"/>
<path d="M247.013 110.588L240.831 94.6221L239.228 95.8514L226.438 100.184L228.983 106.741L231.504 113.266L239.122 132.912L239.441 133.755L242.289 141.1L242.585 141.859V141.388L257.646 138.034L257.562 137.814" fill="#696964"/>
<path d="M249.359 141.262L232.679 98.3387L226.484 100.742L243.164 143.665L249.359 141.262Z" fill="#464645"/>
<path d="M238.472 88.2599L111.498 213.625L116.17 218.347L243.143 92.9827L238.472 88.2599Z" fill="#464645"/>
<path d="M474.496 353.275L491.714 358.382L490.104 364.832L489.944 364.786L486.777 363.845L472.947 359.74L474.496 353.275Z" fill="#464645"/>
<path d="M524.235 368.034L519.154 373.452L502.392 368.474L507.405 363.041L524.235 368.034Z" fill="#464645"/>
<path d="M92.2437 314.066C91.1197 315.622 89.8057 317.041 88.3095 318.285C73.1577 330.92 44.4944 321.548 24.3071 297.357C4.1122 273.166 0.0337296 243.314 15.1932 230.687L30.3223 248.823L73.9703 301.136L88.2564 318.263C88.2564 318.263 89.7754 316.661 92.2437 314.066Z" fill="#42423D"/>
<path d="M134.768 261.237C134.373 267.262 132.793 271.565 131.297 273.082C128.198 276.216 109.742 295.627 98.0311 307.965C95.8133 310.302 93.8311 312.389 92.2513 314.059C94.6969 310.652 96.2766 306.561 96.9982 301.993C97.2184 300.635 97.3627 299.224 97.4235 297.782C97.5146 295.9 97.4766 293.942 97.3096 291.947C97.1956 290.596 97.0285 289.23 96.8007 287.849C96.6792 287.12 96.5425 286.377 96.3906 285.633C96.1475 284.434 95.8589 283.212 95.5247 281.991C95.3425 281.315 95.145 280.632 94.9323 279.942C94.0741 277.104 92.988 274.228 91.6817 271.352C88.6665 264.659 84.4817 257.944 79.2032 251.615C78.7703 251.099 78.3374 250.591 77.8969 250.09C77.8741 250.052 77.8438 250.022 77.8058 249.984C77.4336 249.559 77.0539 249.134 76.6817 248.716C76.5906 248.618 76.4995 248.519 76.4159 248.428C75.5349 247.464 74.6463 246.531 73.7349 245.628C73.2109 245.104 72.6868 244.588 72.1552 244.088C71.7602 243.701 71.3653 243.329 70.9627 242.964C69.4969 241.614 68.0083 240.339 66.4969 239.14C66.0261 238.761 65.5476 238.389 65.0691 238.025C65.0463 238.009 65.0311 237.994 65.0083 237.979C64.5147 237.6 64.0134 237.228 63.5121 236.871C63.5045 236.864 63.4969 236.856 63.4893 236.856C63.1324 236.59 62.7678 236.332 62.4033 236.082C62.1526 235.907 61.9096 235.733 61.659 235.566C60.8463 235.004 60.0261 234.473 59.2134 233.965C58.8488 233.737 58.4767 233.51 58.1045 233.289C57.7172 233.054 57.3223 232.819 56.9349 232.599C56.2742 232.212 55.6058 231.848 54.9451 231.499C53.9729 230.968 53.0008 230.482 52.0286 230.034C51.4742 229.769 50.9197 229.511 50.3653 229.275C49.8109 229.032 49.264 228.797 48.7096 228.585C48.3678 228.448 48.0261 228.319 47.6843 228.183C47.6084 228.152 47.5324 228.122 47.464 228.099C46.3248 227.682 45.1932 227.302 44.0691 226.961C44.0615 226.946 44.0539 226.946 44.0463 226.953C43.659 226.839 43.2792 226.733 42.8995 226.627C42.5805 226.536 42.2615 226.452 41.9425 226.369C41.6919 226.301 41.4413 226.24 41.1906 226.187C40.9096 226.119 40.621 226.058 40.34 225.997C39.9299 225.906 39.5198 225.823 39.1096 225.747C38.6995 225.663 38.2894 225.595 37.8868 225.534C37.4463 225.466 37.0134 225.405 36.5881 225.352C36.5425 225.345 36.497 225.345 36.4514 225.337C36.3071 225.322 36.1704 225.307 36.0261 225.291C35.6919 225.254 35.3653 225.223 35.0463 225.2C34.8641 225.178 34.6818 225.17 34.4919 225.155C34.1957 225.132 33.9071 225.117 33.6261 225.109C33.3755 225.094 33.1172 225.087 32.8666 225.079C32.5476 225.064 32.2362 225.064 31.9324 225.064C31.5603 225.064 31.1881 225.071 30.816 225.087C30.6337 225.094 30.4514 225.102 30.2691 225.109C30.1248 225.117 29.9881 225.125 29.8514 225.14C29.821 225.14 29.7983 225.14 29.7679 225.147C29.6388 225.147 29.5096 225.147 29.3881 225.17C29.2134 225.185 29.0312 225.2 28.8565 225.216C28.5679 225.246 28.2793 225.276 27.9983 225.322H27.9679C27.8843 225.329 27.8084 225.337 27.7248 225.352C27.4818 225.383 27.2464 225.42 27.0109 225.458C26.8438 225.481 26.6843 225.504 26.5248 225.542C26.0919 225.61 25.659 225.701 25.2337 225.8C25.059 225.845 24.8843 225.883 24.7172 225.929C24.4514 225.99 24.1856 226.058 23.9274 226.134C23.6084 226.225 23.2894 226.324 22.978 226.422C22.9324 226.437 22.8869 226.452 22.8413 226.468C22.5527 226.566 22.2641 226.665 21.9831 226.771C20.9881 227.135 20.0236 227.568 19.097 228.069C18.9451 228.145 18.7932 228.228 18.6413 228.319C18.3907 228.456 18.14 228.6 17.897 228.752C17.578 228.941 17.2742 229.139 16.9704 229.351C16.659 229.556 16.3628 229.769 16.0666 229.996C15.7704 230.216 15.4818 230.451 15.1932 230.687L31.3476 216.17L31.9096 215.654L56.9577 193.148C56.9577 193.148 58.3552 192.647 60.9223 192.29C61.0438 192.275 61.1653 192.26 61.2868 192.245H61.2944C62.0767 192.146 62.9501 192.055 63.9147 192.002C64.1805 191.987 64.4539 191.979 64.7349 191.972C64.7805 191.964 64.8336 191.964 64.8792 191.964C65.8134 191.934 66.8311 191.926 67.9172 191.979C68.1222 191.979 68.3273 191.987 68.5324 192.002L69.6868 192.078C70.1121 192.108 70.5374 192.146 70.9855 192.192C71.8817 192.283 72.8235 192.404 73.8033 192.563C73.9476 192.586 74.0995 192.609 74.2438 192.639C75.4969 192.852 76.8109 193.125 78.1855 193.466C85.7729 195.333 95.0463 199.271 105.375 207.057C105.816 207.383 106.256 207.717 106.697 208.066C106.894 208.226 107.099 208.385 107.297 208.544C108.368 209.387 109.454 210.274 110.548 211.215C112.894 213.211 115.029 215.245 116.965 217.278C118.37 218.758 119.677 220.253 120.884 221.748C124.735 226.483 127.621 231.248 129.732 235.854C130.872 238.343 131.791 240.787 132.512 243.162C132.725 243.852 132.922 244.543 133.097 245.218C133.431 246.463 133.704 247.684 133.932 248.883C134.084 249.65 134.206 250.401 134.312 251.137C134.532 252.571 134.677 253.96 134.76 255.295C134.897 257.412 134.889 259.408 134.768 261.237Z" fill="#2D2D2A"/>
<path d="M134.768 261.237L97.4235 297.782C97.5146 295.9 97.4767 293.942 97.3096 291.947L134.76 255.295C134.897 257.413 134.889 259.408 134.768 261.237Z" fill="#1D1D1B"/>
<path d="M130.621 254.795L96.6261 287.849C96.5197 287.196 96.3906 286.521 96.2539 285.853L130.279 252.769C130.416 253.459 130.53 254.134 130.621 254.795Z" fill="#1D1D1B"/>
<path d="M129.52 249.468L95.4716 282.575C95.3045 281.968 95.1298 281.353 94.9324 280.731L128.988 247.616C129.178 248.238 129.36 248.861 129.52 249.468Z" fill="#1D1D1B"/>
<path d="M64.7349 191.972L29.7679 225.147L29.7072 225.2C29.5628 225.208 29.4185 225.216 29.2742 225.231C29.1223 225.238 28.9552 225.238 28.7958 225.254C28.6135 225.269 28.4236 225.284 28.2413 225.299C28.1502 225.307 28.0666 225.314 27.9755 225.322C27.6717 225.352 27.3679 225.39 27.0641 225.428C26.8135 225.451 26.5704 225.489 26.3274 225.527C26.1527 225.55 25.9856 225.572 25.8185 225.61L60.9299 192.29C61.0514 192.275 61.1729 192.26 61.2944 192.245H61.302C62.0843 192.146 62.9577 192.055 63.9223 192.002C64.1881 191.987 64.4615 191.979 64.7425 191.972H64.7349Z" fill="#1D1D1B"/>
<path d="M70.9855 192.192L36.6489 225.352C36.6033 225.345 36.5577 225.345 36.5122 225.337C36.3603 225.322 36.2236 225.307 36.0717 225.291C35.7375 225.246 35.4033 225.216 35.0767 225.193C34.8869 225.17 34.7046 225.162 34.5071 225.147C34.2109 225.125 33.9147 225.109 33.6261 225.102L67.9172 191.979C68.1223 191.979 68.3273 191.987 68.5324 192.002L69.6868 192.078C70.1121 192.108 70.5374 192.146 70.9855 192.192Z" fill="#1D1D1B"/>
<path d="M62.2742 208.248L42.8995 226.627C42.5805 226.536 42.2615 226.453 41.9426 226.369C41.6919 226.301 41.4413 226.24 41.1907 226.187C40.9096 226.119 40.621 226.058 40.34 225.997L60.7476 206.64L62.2742 208.248Z" fill="#1D1D1B"/>
<path d="M97.4235 297.782C97.3627 299.224 97.2184 300.635 96.9981 301.993C96.2766 306.561 94.6969 310.652 92.2513 314.059H92.2437C89.7754 316.661 88.2564 318.263 88.2564 318.263L73.9703 301.136L30.3223 248.823L15.1932 230.687C15.4818 230.451 15.7704 230.216 16.0666 229.996C16.3628 229.769 16.659 229.556 16.9704 229.351C17.2742 229.139 17.578 228.941 17.897 228.752C18.14 228.6 18.3907 228.456 18.6413 228.319C18.7932 228.228 18.9451 228.145 19.097 228.069C20.0236 227.568 20.9881 227.135 21.9831 226.771C22.2641 226.665 22.5527 226.566 22.8413 226.468C22.8869 226.452 22.9324 226.437 22.978 226.422C23.2894 226.323 23.6084 226.225 23.9274 226.134C24.1856 226.058 24.4514 225.99 24.7172 225.929C24.8843 225.883 25.059 225.845 25.2337 225.8C25.659 225.701 26.0919 225.61 26.5248 225.542C26.6843 225.504 26.8438 225.481 27.0109 225.458C27.2464 225.42 27.4818 225.383 27.7248 225.352C28.097 225.299 28.4767 225.254 28.8565 225.216C29.0312 225.2 29.2134 225.185 29.3881 225.17C29.54 225.155 29.6995 225.147 29.8514 225.14C29.9881 225.125 30.1248 225.117 30.2691 225.117C30.4514 225.102 30.6337 225.094 30.816 225.087C31.1881 225.071 31.5603 225.064 31.9324 225.064C32.2362 225.064 32.5476 225.064 32.8666 225.079C33.1172 225.087 33.3755 225.094 33.6261 225.109C33.9071 225.117 34.1957 225.132 34.4919 225.155C34.6818 225.17 34.8641 225.178 35.0463 225.2C35.3653 225.223 35.6919 225.254 36.0261 225.291C36.1704 225.307 36.3071 225.322 36.4514 225.337C36.497 225.337 36.5425 225.337 36.5881 225.352C37.0134 225.405 37.4463 225.466 37.8868 225.534C38.297 225.603 38.6995 225.671 39.1096 225.747C39.5197 225.823 39.9299 225.906 40.34 225.997C40.621 226.058 40.9096 226.119 41.1906 226.187C41.4413 226.24 41.6919 226.301 41.9425 226.369C42.2615 226.452 42.5805 226.536 42.8995 226.627C43.2792 226.733 43.659 226.839 44.0463 226.953C44.0539 226.953 44.0615 226.953 44.0691 226.961C45.1932 227.302 46.3248 227.682 47.464 228.099C47.5324 228.122 47.6083 228.152 47.6843 228.183C48.0261 228.319 48.3678 228.448 48.7096 228.585C49.264 228.805 49.8109 229.04 50.3653 229.275C50.9197 229.511 51.4742 229.769 52.0286 230.034C53.0007 230.482 53.9729 230.967 54.945 231.499C55.6058 231.848 56.2742 232.212 56.9349 232.599C57.3223 232.819 57.7172 233.054 58.1045 233.289C58.4767 233.51 58.8488 233.737 59.2134 233.965C60.026 234.473 60.8463 235.004 61.659 235.566C61.9096 235.733 62.1526 235.907 62.4033 236.082C62.7678 236.332 63.1324 236.59 63.4893 236.856C63.4969 236.856 63.5045 236.856 63.5121 236.871C64.0134 237.228 64.5147 237.6 65.0083 237.979C65.0311 237.994 65.0463 238.009 65.0691 238.025C65.5476 238.389 66.026 238.761 66.4969 239.14C68.0083 240.339 69.4969 241.614 70.9627 242.964C71.3653 243.329 71.7602 243.701 72.1552 244.088C72.6868 244.588 73.2108 245.104 73.7349 245.628C74.6463 246.531 75.5349 247.464 76.4159 248.428C76.4994 248.519 76.5906 248.618 76.6817 248.716C77.0539 249.134 77.4336 249.559 77.8058 249.984C77.8438 250.022 77.8741 250.052 77.8969 250.09C78.3374 250.591 78.7703 251.099 79.2032 251.615C84.4817 257.944 88.6665 264.659 91.6817 271.352C92.988 274.228 94.0741 277.104 94.9323 279.942C95.145 280.632 95.3425 281.315 95.5247 281.991C95.8589 283.212 96.1475 284.434 96.3905 285.633C96.5424 286.377 96.6792 287.12 96.8007 287.849C97.0285 289.23 97.1956 290.596 97.3095 291.939C97.4766 293.942 97.5146 295.9 97.4235 297.782Z" fill="#42423D"/>
<path d="M71.6 303.823C80.0524 296.78 76.9707 279.17 64.7168 264.491C52.463 249.812 35.6772 243.622 27.2247 250.666C18.7723 257.71 21.854 275.319 34.1078 289.998C46.3617 304.677 63.1475 310.867 71.6 303.823Z" fill="#FEFCF3"/>
<path d="M71.503 295.808C77.8134 290.55 74.7833 276.529 64.7352 264.493C54.687 252.456 41.4259 246.961 35.1155 252.22C28.8052 257.478 31.8353 271.499 41.8834 283.535C51.9315 295.572 65.1927 301.067 71.503 295.808Z" fill="#E2DFD4"/>
<path d="M425.737 157.453C424.924 157.202 424.104 156.952 423.276 156.701C420.808 155.95 418.302 155.207 415.757 154.486C387.542 146.51 358.416 141.449 328.886 139.393L326.259 139.317C324.535 139.18 322.484 139.021 321.292 138.937C321.208 138.93 321.132 138.93 321.064 138.922C320.866 138.907 320.699 138.899 320.57 138.892C318.086 138.77 315.603 138.672 313.127 138.596C311.274 138.52 309.436 138.475 307.59 138.437C306.557 138.414 305.502 138.391 304.461 138.383C304.378 138.383 304.302 138.376 304.218 138.376C300.307 136.927 295.788 136.077 290.547 136.092C290.449 136.084 283.195 135.621 272.942 136.221H272.935C272.547 136.244 272.168 136.266 271.78 136.289C267.436 136.57 262.598 137.048 257.563 137.814C256.833 137.928 256.097 138.042 255.352 138.171C251.221 138.869 246.785 139.818 242.289 141.1C241.765 141.252 241.233 141.404 240.709 141.563C239.98 141.783 239.244 142.018 238.507 142.261C238.249 142.345 237.99 142.436 237.732 142.519C234.793 142.921 231.846 143.354 228.907 143.817C227.601 144.022 226.302 144.226 224.995 144.439C210.436 146.837 195.877 149.94 181.34 153.757H181.332C180.269 154.038 179.221 154.319 178.158 154.6C177.231 154.842 176.297 155.1 175.385 155.358C174.725 155.533 174.072 155.715 173.418 155.897C171.808 156.345 170.206 156.8 168.596 157.271L168.36 157.346L168.33 157.597C168.33 157.718 167.958 161.148 167.798 167.113C167.532 176.841 167.79 193.284 170.866 213.097C171.626 217.961 172.56 223.023 173.692 228.251C175.461 236.454 177.755 245.036 180.679 253.801C190.271 282.613 204.869 308.003 224.076 329.326C224.859 330.199 225.649 331.056 226.446 331.914C233.775 339.768 241.75 347.052 250.363 353.753L255.595 357.721H255.603C264.436 364.164 273.892 370.007 283.947 375.281L458.266 345.117L425.737 157.453ZM287.35 190.628C287.35 190.628 276.8 160.883 291.838 149.811C306.876 138.733 317.274 166.968 317.274 166.968C317.274 166.968 287.578 187.51 287.35 190.628Z" fill="#D2273D"/>
<path d="M247.651 99.4786C240.421 89.0372 230.654 82.6023 226.492 79.8478L230.122 78.3909C234.33 81.1682 240.968 88.4832 248.281 99.046L247.659 99.4786H247.651Z" fill="#42423D"/>
<path d="M240.747 141.707C216.535 149.242 207.018 169.313 206.935 169.518L203.335 167.742C203.654 167.044 209.821 153.947 224.995 144.439C226.302 144.226 227.601 144.022 228.907 143.817C231.846 143.354 234.793 142.921 237.732 142.519C237.99 142.436 238.249 142.345 238.507 142.261C239.244 142.018 239.98 141.783 240.709 141.563L240.747 141.707Z" fill="#AC2433"/>
<path d="M296.479 230.3C287.046 230.3 279.603 229.336 279.14 229.275L278.973 229.253C261.846 226.21 243.884 214.881 225.595 195.576C212.152 181.386 203.722 168.251 203.373 167.697L207.337 167.173C207.421 167.302 211.833 173.988 224.806 187.662C236.555 200.046 260.988 214.509 280.218 217.961C281.464 218.121 297.102 219.995 310.94 217.961L312.048 229.26C306.793 230.034 301.37 230.292 296.494 230.292L296.479 230.3Z" fill="#AC2433"/>
<path d="M280.241 196.942L280.947 208.673C280.75 209 280.643 209.273 280.621 209.5H280.613C270.755 207.899 248.919 195.705 244.704 193.011L277.119 196.6L280.241 196.942Z" fill="#AC2433"/>
<path d="M310.621 221.816H284.798C285.079 220.655 296.623 196.221 324.421 191.516L325.689 198.998C302.912 202.853 310.864 220.852 310.628 221.816H310.621Z" fill="#AC2433"/>
<path d="M320.464 175.551L320.57 196.084" stroke="#AC2433" stroke-width="2" stroke-miterlimit="10"/>
<path d="M330.367 170.178C330.367 170.178 285.231 201.396 280.947 208.673C280.75 209 280.643 209.273 280.621 209.5V209.516C280.621 209.516 280.621 209.508 280.613 209.5C280.514 209.22 278.722 204.075 277.119 196.6C275.281 187.995 273.709 176.309 275.289 165.42C276.641 156.11 280.302 147.383 288.079 141.654C312.489 123.662 329.547 168.008 330.329 170.102C330.352 170.155 330.367 170.178 330.367 170.178Z" fill="#8C202E"/>
<path d="M317.274 166.968C317.274 166.968 287.578 187.51 287.35 190.628C287.35 190.628 282.345 176.514 284.145 164.108C284.957 158.507 287.16 153.256 291.838 149.811C306.519 138.991 316.78 165.663 317.251 166.923C317.266 166.953 317.274 166.968 317.274 166.968Z" fill="#1D1D1B"/>
<path d="M317.274 166.968C317.274 166.968 287.578 187.51 287.35 190.628C287.35 190.628 282.345 176.514 284.145 164.108C299.699 165.413 310.271 166.316 317.251 166.923C317.266 166.953 317.274 166.968 317.274 166.968Z" fill="#10100F"/>
<path d="M204.246 84.7119L204.071 84.856C203.646 85.1975 203.221 85.5466 202.811 85.8956C202.499 86.1688 202.188 86.4268 201.884 86.7076C200.699 87.7244 199.606 88.7564 198.565 89.796C198.299 90.054 198.049 90.312 197.798 90.5776C197.494 90.8963 197.183 91.2074 196.894 91.5337C196.765 91.6627 196.644 91.7917 196.53 91.9283C196.446 92.0193 196.363 92.1104 196.279 92.209C196.195 92.3001 196.119 92.3912 196.028 92.4898H196.021C195.869 92.6568 195.732 92.8237 195.588 92.983C195.444 93.1576 195.307 93.3169 195.163 93.4839C194.942 93.7495 194.722 94.0226 194.502 94.2958C194.312 94.5462 194.114 94.7966 193.917 95.047C193.765 95.2443 193.621 95.4341 193.476 95.6313C193.233 95.9576 192.998 96.2839 192.77 96.6178C191.023 99.1371 189.687 101.664 188.775 104.191C188.669 104.464 188.578 104.737 188.494 105.003C188.395 105.291 188.304 105.572 188.221 105.868C188.107 106.278 187.993 106.703 187.902 107.105C187.811 107.454 187.735 107.803 187.682 108.144C187.628 108.395 187.583 108.653 187.545 108.896C187.522 109.055 187.492 109.214 187.476 109.366C187.431 109.67 187.401 109.966 187.37 110.261C187.142 112.591 187.302 114.678 187.666 116.507C187.689 116.666 187.727 116.818 187.757 116.969C187.902 117.592 188.054 118.176 188.236 118.73C188.312 118.996 188.395 119.254 188.479 119.489C188.57 119.747 188.669 119.99 188.768 120.225C188.821 120.361 188.874 120.498 188.927 120.627C189.406 121.75 189.899 122.638 190.287 123.26C190.712 123.935 191.001 124.3 191.016 124.315L191.259 124.603L179.358 134.68L178.917 134.476L168.914 129.907L159.679 125.688L147.785 120.255L147.831 120.217L193.697 74.536L193.795 74.4374L198.125 70.1576L198.102 70.1425L197.684 69.9148C197.54 69.8313 191.525 66.4318 184.309 61.803C184.256 61.7726 184.211 61.7423 184.157 61.7043C182.266 60.4902 180.299 59.1926 178.332 57.8495C178.006 57.6295 177.671 57.4018 177.345 57.1742C177.018 56.9541 176.692 56.7265 176.365 56.4912C175.864 56.1422 175.363 55.7931 174.869 55.4289C174.717 55.3302 174.573 55.224 174.421 55.1178C174.147 54.9205 173.874 54.7307 173.601 54.5259C173.555 54.4955 173.509 54.4576 173.464 54.4272C172.856 53.9795 172.256 53.5394 171.671 53.0993C171.641 53.0765 171.611 53.0613 171.588 53.031C170.973 52.5681 170.365 52.1052 169.773 51.6348C169.188 51.1795 168.611 50.7242 168.049 50.2537C167.768 50.0185 167.494 49.7908 167.221 49.5632C166.963 49.3507 166.712 49.1306 166.469 48.9258C166.454 48.9106 166.439 48.8954 166.423 48.8802C166.173 48.6602 165.93 48.4477 165.694 48.2428C165.573 48.129 165.444 48.0228 165.322 47.9013C164.692 47.3322 164.107 46.7707 163.56 46.2168C163.34 46.0043 163.127 45.7842 162.93 45.5718C162.74 45.3669 162.55 45.1696 162.368 44.9647C161.988 44.5398 161.639 44.13 161.327 43.7202C161.092 43.4243 160.879 43.1283 160.689 42.8476C160.651 42.7869 160.613 42.7338 160.575 42.673C160.173 42.0584 159.861 41.4741 159.656 40.9277L163.864 36.777H163.871L163.849 36.7618L163.34 36.5493C162.975 36.3976 162.565 36.1548 162.117 35.8133C154.742 30.2587 137.388 0.763228 137.198 0.45211L137.152 0.482464L136.583 0.808758L136.431 0.543171L136.796 0.186523L137.046 0.307932L180.011 20.5154L194.099 27.1399L194.282 27.231L197.897 48.091L197.95 48.3946L201.185 67.0768L201.261 67.4942L204.246 84.7043V84.7119Z" fill="#7C202C"/>
<path d="M578.668 514.555L561.884 499.462L533.296 473.753C532.689 473.207 531.99 472.789 531.223 472.531L498.815 461.362L496.453 443.324C496.415 443.021 496.544 442.71 496.795 442.528C497.046 442.345 497.38 442.315 497.653 442.452L521.57 453.652L552.474 468.76L555.663 470.323L556.423 470.695L564.375 474.58C566.046 475.4 567.306 476.88 567.846 478.663L578.668 514.555Z" fill="#AE1F32"/>
<path d="M578.668 514.555C578.676 514.623 578.668 514.684 578.653 514.737C578.646 514.813 578.623 514.881 578.592 514.935L578.357 515.056L578.304 514.897L578.182 515.147C578.182 515.147 578.144 515.155 578.129 515.155C578.061 515.155 577.985 515.147 577.924 515.139C577.787 515.117 577.673 515.079 577.635 515.071C577.628 515.071 577.62 515.071 577.62 515.071L564.808 509.008L502.385 479.452C501.572 479.065 501.025 478.306 500.911 477.418L499.506 466.643L498.967 462.545L498.952 462.416L498.929 462.249L498.815 461.369L531.223 472.539C531.99 472.797 532.689 473.214 533.296 473.761L561.884 499.47L578.668 514.563V514.555Z" fill="#D2273D"/>
<path d="M498.929 462.242L498.808 461.361H498.815L498.929 462.242Z" fill="#AE1F32"/>
<path d="M578.668 514.555C578.676 514.623 578.668 514.684 578.653 514.737C578.615 515.063 578.372 515.154 578.129 515.154C578.061 515.154 577.985 515.147 577.924 515.139L577.765 514.995L577.879 514.934L578.312 514.729L578.668 514.555Z" fill="#AE1F32"/>
<path d="M578.129 515.155C578.129 515.155 578.169 515.155 578.185 515.147L578.169 515.187L578.129 515.155Z" fill="#BD2236"/>
<path d="M578.357 515.056L578.592 514.934C578.509 515.086 578.349 515.147 578.182 515.147L578.304 514.896L578.357 515.056Z" fill="#BD2236"/>
<path d="M749.638 338.485C745.825 336.361 725.243 324.69 706.757 311.357C697.43 304.627 688.635 297.478 682.81 290.915L678.056 263.468C677.98 263.035 678.147 262.61 678.496 262.337C678.853 262.072 679.316 262.019 679.704 262.208L740.334 290.763C741.04 291.097 741.534 291.749 741.671 292.516L744.937 311.357L749.638 338.485Z" fill="#AE1F32"/>
<path d="M568.278 468.646L566.98 466.628C566.638 466.097 566.79 465.383 567.329 465.049C572.38 461.908 596.448 447.9 637.742 438.885C638.334 438.756 638.934 439.113 639.094 439.697L639.17 439.97C639.344 440.6 638.949 441.238 638.311 441.382C600.671 449.668 578.03 464.571 571.544 469.261C570.481 470.035 568.992 469.754 568.278 468.654V468.646Z" fill="#FFFCF3"/>
<path d="M704.889 377.883C701.091 357.881 704.843 332.802 705.504 328.719C705.557 328.4 705.823 328.173 706.142 328.158L707.729 328.089C708.17 328.074 708.504 328.461 708.42 328.894C707.418 333.773 702.595 358.882 706.218 377.633C706.278 377.929 706.126 378.225 705.853 378.361C705.451 378.551 704.972 378.316 704.896 377.883H704.889Z" fill="#FFFCF3"/>
<path d="M707.296 411.401L698.721 414.026L549.678 459.631L552.473 468.76L521.57 453.652C527.554 450.169 533.289 447.012 538.78 444.151C569.995 427.882 593.258 421.174 608.046 418.45C621.321 416.014 629.995 416.325 634.028 416.735C537.003 372.185 494.927 360.066 458.714 355.035C419.82 349.625 357.322 391.497 356.707 391.922L356.593 391.975C341.213 396.156 325.727 392.597 325.552 392.551C310.727 387.794 296.851 382.027 283.947 375.281L458.266 345.117L452.357 311.023C465.755 314.461 479.965 319.272 494.441 324.963C495.01 325.191 495.572 325.411 496.134 325.638C499.924 327.148 503.729 328.712 507.542 330.32C509.038 330.958 510.534 331.603 512.03 332.248C513.633 332.946 515.236 333.644 516.838 334.357C517.514 334.653 518.19 334.957 518.866 335.26C519.671 335.624 520.484 335.981 521.289 336.345C522.003 336.664 522.709 336.99 523.423 337.317C528.785 339.76 534.147 342.287 539.463 344.859C541.415 345.808 543.36 346.756 545.304 347.713C553.02 351.529 560.63 355.43 568.058 359.353C569.501 360.112 570.929 360.871 572.349 361.629C575.911 363.534 579.42 365.431 582.876 367.321C583.567 367.7 584.258 368.079 584.942 368.459C585.625 368.838 586.309 369.21 586.992 369.589C587.676 369.961 588.352 370.341 589.035 370.72C590.714 371.653 592.385 372.587 594.04 373.52C594.701 373.884 595.354 374.256 596.008 374.628C603.192 378.68 610.043 382.649 616.468 386.428C617.41 386.989 618.344 387.536 619.271 388.082C623.494 390.594 627.526 393.007 631.324 395.314C633.23 396.467 635.076 397.598 636.861 398.69C639.891 400.557 642.747 402.325 645.413 403.987C646.59 404.723 647.721 405.429 648.815 406.119C648.906 406.172 648.997 406.225 649.081 406.286C649.787 406.726 650.471 407.159 651.139 407.584C654.58 409.762 657.572 411.674 660.056 413.275C660.564 413.609 661.051 413.92 661.514 414.216C661.757 414.375 662 414.535 662.235 414.686C662.471 414.838 662.706 414.99 662.926 415.134C663.397 415.445 663.838 415.726 664.248 415.999C664.582 416.219 664.901 416.424 665.197 416.621C665.273 416.667 665.342 416.712 665.41 416.758C665.714 416.955 665.995 417.145 666.253 417.312C666.868 417.714 667.354 418.04 667.719 418.283C667.833 418.359 667.931 418.427 668.023 418.48C668.182 418.587 668.296 418.663 668.372 418.716C668.266 418.632 668.068 418.48 667.78 418.245C667.772 418.238 667.764 418.23 667.757 418.23C667.537 418.063 667.263 417.851 666.937 417.593C666.937 417.585 666.921 417.585 666.914 417.577C666.473 417.236 665.942 416.826 665.319 416.348C664.84 415.984 664.316 415.582 663.739 415.149C662.972 414.572 662.121 413.935 661.187 413.229C660.944 413.04 660.694 412.858 660.443 412.668C659.471 411.947 658.415 411.165 657.276 410.323C656.676 409.875 656.061 409.42 655.415 408.957C653.987 407.91 652.461 406.802 650.82 405.618C650.319 405.247 649.802 404.882 649.286 404.51C648.618 404.032 647.934 403.547 647.235 403.038C646.066 402.204 644.858 401.346 643.605 400.466C643.195 400.178 642.777 399.882 642.352 399.586C642.276 399.525 642.192 399.464 642.109 399.411C641.349 398.88 640.567 398.334 639.777 397.78C639.337 397.469 638.896 397.157 638.448 396.854C637.104 395.921 635.721 394.964 634.301 393.986C632.752 392.916 631.157 391.823 629.524 390.715C628.658 390.138 627.785 389.539 626.896 388.947C625.354 387.9 623.775 386.845 622.164 385.775C621.086 385.062 619.992 384.333 618.891 383.605C616.415 381.973 613.871 380.312 611.251 378.619C610.719 378.278 610.18 377.929 609.64 377.587C609.276 377.345 608.911 377.109 608.539 376.882C607.947 376.495 607.347 376.115 606.739 375.728C597.694 369.954 587.873 363.898 577.43 357.767C576.352 357.137 575.273 356.5 574.18 355.87C573.473 355.46 572.759 355.043 572.038 354.633C571.324 354.216 570.603 353.798 569.881 353.389C568.142 352.387 566.38 351.385 564.603 350.384C563.881 349.974 563.144 349.564 562.415 349.154C560.949 348.327 559.468 347.508 557.987 346.688C557.251 346.278 556.506 345.869 555.754 345.459C551.273 342.993 546.709 340.542 542.068 338.121C541.301 337.711 540.527 337.309 539.744 336.907C538.187 336.095 536.63 335.291 535.058 334.494C534.276 334.092 533.486 333.689 532.704 333.295C531.124 332.498 529.537 331.701 527.949 330.912C527.152 330.518 526.354 330.123 525.557 329.728C516.762 325.396 507.762 321.192 498.618 317.193C496.955 316.464 495.284 315.743 493.613 315.03C487.734 312.518 481.803 310.098 475.841 307.791C475.013 307.472 474.185 307.153 473.35 306.835C465.686 303.913 457.962 301.181 450.215 298.67L425.737 157.453C426.405 157.658 427.066 157.87 427.727 158.075C429.709 158.697 431.661 159.335 433.59 159.98C435.481 160.609 437.35 161.239 439.188 161.884C439.856 162.119 440.532 162.362 441.2 162.59C442.408 163.022 443.608 163.455 444.793 163.888C447.238 164.783 449.631 165.686 451.977 166.597C452.57 166.817 453.147 167.044 453.717 167.272C454.294 167.492 454.863 167.72 455.441 167.955C456.01 168.175 456.572 168.403 457.134 168.63C458.137 169.032 459.132 169.442 460.112 169.837C460.263 169.897 460.408 169.958 460.552 170.019C461.076 170.231 461.593 170.451 462.109 170.664C462.648 170.891 463.188 171.119 463.719 171.347C464.79 171.802 465.846 172.25 466.894 172.705C471.99 174.906 476.752 177.106 481.142 179.231C481.628 179.459 482.106 179.694 482.577 179.929C482.646 179.959 482.706 179.99 482.775 180.02C483.656 180.453 484.522 180.878 485.365 181.303C486.284 181.758 487.18 182.213 488.061 182.668C488.494 182.896 488.927 183.109 489.352 183.336C490.643 184.004 491.881 184.649 493.074 185.302C493.476 185.514 493.879 185.719 494.266 185.939C496.241 187.009 498.094 188.033 499.803 189.02C500.327 189.316 500.843 189.612 501.337 189.908C505.339 192.245 508.552 194.294 510.876 195.925C516.982 199.12 520.028 211.397 519.929 232.417C519.853 247.024 518.213 260.979 517.992 262.785C537.762 274.994 566.494 289.913 608.137 307.859L608.197 307.889L670.453 365.234L698.721 391.352L704.554 396.733L703.924 397.066C706.772 402.515 707.896 407.318 707.296 411.401Z" fill="#D2273D"/>
<path d="M476.114 218.811C475.871 218.667 517.833 262.61 517.598 262.459C487.172 243.572 478.15 231.893 476.038 224.95C474.838 220.989 476.008 219.1 476.023 219.084" fill="#AC2433"/>
<path d="M668.44 418.761C666.451 417.433 541.438 333.887 452.357 311.023C450.588 310.568 448.833 310.136 447.094 309.733C423.246 304.179 414.117 313.383 414.033 313.444L411.496 300.886C411.846 300.612 421.324 289.685 444.929 296.993C446.691 297.539 448.453 298.101 450.215 298.67C561.458 334.676 666.777 417.448 668.44 418.761Z" fill="#AC2433"/>
<path d="M324.785 354.603L322.848 333.431C322.803 332.953 321.664 320.425 321.185 320.372C276.633 315.03 242.487 298.996 226.598 282.363C220.233 275.7 202.006 256.73 198.36 252.351C197.669 251.516 196.408 251.759 196.431 252.844C196.431 252.989 196.461 253.125 196.522 253.254C197.563 255.515 207.785 277.058 227.555 299.474C246.565 321.04 279.041 349.997 323.631 355.726C324.284 355.809 324.846 355.263 324.785 354.61V354.603Z" fill="#AC2433"/>
<path d="M344.821 386.306L347.061 385.919L342.307 354.011L337.818 354.792L344.821 386.306Z" fill="#AC2433"/>
<path d="M459.542 254.248C459.413 255.06 459.223 255.865 458.98 256.654C452.813 276.899 414.656 283.228 373.75 270.791C348.686 263.172 328.408 250.28 317.881 236.773C311.221 228.236 308.456 219.456 310.848 211.61C317.016 191.365 355.18 185.028 396.086 197.465C435.382 209.425 462.922 234.352 459.542 254.248Z" fill="#1D1D1B"/>
<path d="M459.542 254.248C459.413 255.06 459.223 255.865 458.98 256.654C452.813 276.899 414.656 283.228 373.75 270.791C348.686 263.172 328.408 250.28 317.881 236.773C318.018 235.961 318.2 235.164 318.443 234.375C324.61 214.129 362.775 207.793 403.681 220.23C428.737 227.849 449.008 240.749 459.542 254.248Z" fill="#10100F"/>
<path d="M461.061 251.972C460.932 252.784 460.742 253.588 460.499 254.377C454.332 274.623 416.175 280.951 375.269 268.514C350.205 260.896 329.927 248.003 319.4 234.496C312.74 225.959 309.975 217.18 312.367 209.333C318.534 189.088 356.699 182.752 397.605 195.189C436.901 207.148 464.441 232.075 461.061 251.972Z" stroke="#AC2433" stroke-width="2" stroke-miterlimit="10"/>
<path d="M282.208 329.372C292.894 337.81 305.76 343.281 319.264 345.117C323.084 345.633 326.927 345.869 330.785 345.8C332.251 345.77 332.251 343.493 330.785 343.524C317.684 343.759 304.605 340.443 293.183 334.023C289.909 332.179 286.773 330.093 283.818 327.771C282.679 326.875 281.054 328.469 282.208 329.379V329.372Z" fill="#D2273D"/>
<path d="M296.456 328.719C306.929 332.544 318.603 332.779 329.228 329.402C330.618 328.962 330.026 326.761 328.621 327.209C318.345 330.472 307.188 330.229 297.064 326.526C295.681 326.025 295.089 328.218 296.456 328.719Z" fill="#D2273D"/>
<path d="M346.066 311.327C345.99 311.759 345.588 312.063 345.155 312.017C246.367 301.826 214.879 252.935 196.051 223.69C193.15 219.191 190.621 215.252 188.183 211.982C187.879 211.572 188.008 210.995 188.449 210.752C188.813 210.555 189.269 210.646 189.519 210.98C192.17 214.516 195.17 218.599 198.216 223.334C207.732 238.108 223.795 252.753 245.486 269.159C271.173 288.585 303.618 305.347 345.428 309.749C345.907 309.802 346.241 310.242 346.165 310.712L346.058 311.327H346.066Z" fill="#FFFCF3"/>
<path d="M462.291 185.021C428.031 166.581 360.626 154.637 351.162 153.021C350.547 152.915 350.137 152.338 350.236 151.716L350.479 150.214C350.578 149.591 351.162 149.166 351.785 149.273C361.362 150.904 429.314 162.962 464.106 181.682C464.661 181.978 464.858 182.676 464.555 183.23L463.818 184.558C463.514 185.104 462.838 185.302 462.291 185.006V185.021Z" fill="#FFFCF3"/>
<path d="M477.975 194.643C475.385 192.882 472.127 191.167 470.517 190.348C469.97 190.067 469.742 189.399 470.015 188.845L470.684 187.464C470.957 186.895 471.648 186.66 472.21 186.948C473.896 187.806 477.337 189.612 480.147 191.532C480.679 191.896 480.808 192.624 480.42 193.14L479.517 194.37C479.16 194.863 478.476 194.984 477.975 194.643Z" fill="#FFFCF3"/>
<path d="M348.595 375.857L347.426 351.628L347.957 351.051C349.013 349.905 374.092 322.869 403.864 313.717L404.98 317.344C378.519 325.479 356.95 349.898 353.152 353.851L350.114 375.857H348.595Z" fill="#AC2433"/>
<path d="M710.364 409.724C709.574 420.233 699.823 424.801 699.405 424.991C690.519 428.884 681.754 430.333 673.635 430.333C650.372 430.333 633.648 416.993 633.405 416.834L638.775 411.522C639.086 411.727 665.486 435.698 697.825 421.531C698.129 421.394 705.944 417.676 706.544 409.397C706.795 405.861 705.982 400.845 702.162 394.524C697.476 386.777 688.278 377.071 671.008 365.75L670.453 365.234C670.537 363.382 670.742 358.875 671.129 352.933C685.21 362.289 695.699 374.135 702.276 385.115C708.056 394.744 710.82 403.706 710.364 409.724Z" fill="#9D1E2F"/>
<path d="M677.456 422.282V421.979C677.456 421.652 677.714 421.387 678.04 421.371C680.402 421.28 689.493 420.673 697.066 416.469C697.354 416.31 697.719 416.401 697.886 416.69L698.038 416.948C698.212 417.243 698.106 417.623 697.81 417.79C689.851 422.214 680.569 422.806 678.086 422.881C677.744 422.889 677.463 422.616 677.463 422.274L677.456 422.282Z" fill="#FFFCF3"/>
<path d="M701.759 412.281C701.759 412.281 702.519 410.763 702.519 408.487" stroke="#FFFCF3" stroke-width="2" stroke-miterlimit="10" stroke-linecap="round"/>
<path d="M601.575 319.006L582.504 342.059C582.504 342.059 679.719 422.441 692 407.849C701.524 396.535 601.575 319.006 601.575 319.006Z" fill="#AC2433"/>
<path d="M451.742 288.835C451.742 288.835 475.309 282.416 482.965 258.027C482.965 258.027 528.777 303.678 593.623 316.297L575.296 338.675C575.296 338.675 534.375 310.69 451.742 288.835Z" fill="#AC2433"/>
<path d="M480.565 301.212C487.188 296.295 495.694 296.454 503.555 296.659V294.382C496.947 294.633 489.823 295.027 484.279 299.064C483.102 299.922 484.241 301.895 485.426 301.03C490.658 297.22 497.319 296.894 503.555 296.659C505.02 296.606 505.028 294.42 503.555 294.382C495.322 294.162 486.345 294.102 479.418 299.246C478.256 300.112 479.388 302.084 480.565 301.212Z" fill="#D2273D"/>
<path d="M520.719 283.653C523.962 288.82 527.691 294.959 525.36 301.235C524.904 302.464 526.803 303.2 527.441 302.115C529.666 298.298 529.696 293.525 527.547 289.67C526.962 288.623 525.504 289.177 525.42 290.247C525.268 292.182 526.233 293.828 526.696 295.65C527.16 297.471 526.727 299.171 525.709 300.643C524.873 301.849 526.848 302.987 527.676 301.789C528.792 300.18 529.324 298.176 529.104 296.219C528.884 294.261 527.539 292.318 527.699 290.239L525.572 290.816C527.327 293.965 527.281 297.85 525.466 300.961L527.547 301.842C530.099 294.974 526.241 288.183 522.679 282.507C521.904 281.27 519.929 282.408 520.711 283.653H520.719Z" fill="#D2273D"/>
<path d="M539.433 324.652C542.934 325.198 546.382 323.218 549.496 321.875C552.792 320.456 556.028 318.885 559.013 316.882L557.342 315.599C557.129 316.753 555.975 317.686 555.154 318.46C554.243 319.325 553.263 320.107 552.223 320.805C550.172 322.178 547.939 323.195 545.57 323.87L546.678 325.775C549.496 323.172 552.648 320.994 556.066 319.257C557.372 318.589 556.218 316.624 554.919 317.291C551.334 319.12 548.023 321.435 545.068 324.166C544.225 324.948 545.106 326.374 546.177 326.071C548.919 325.297 551.539 324.083 553.871 322.436C555.01 321.632 556.096 320.744 557.091 319.758C558.086 318.771 559.271 317.648 559.537 316.206C559.704 315.311 558.754 314.317 557.866 314.924C555.162 316.737 552.253 318.202 549.276 319.515C547.825 320.152 546.36 320.767 544.894 321.366C543.428 321.966 541.711 322.725 540.041 322.467C538.605 322.239 537.99 324.432 539.433 324.66V324.652Z" fill="#D2273D"/>
<path d="M616.491 357.395L584.327 335.533L587.175 331.845L616.491 357.395Z" fill="#D2273D"/>
<path d="M624.086 348.289L591.921 326.427L594.769 322.74L624.086 348.289Z" fill="#D2273D"/>
</svg>
