<svg width="264" height="700" viewBox="0 0 264 700" fill="none" xmlns="http://www.w3.org/2000/svg">
<g clip-path="url(#clip0_141_2)">
<path d="M38.7391 563.074L47.6393 564.126C47.7361 564.139 57.7142 565.713 55.1455 599.12L55.423 599.14L42.9343 606.901L42.9343 630.128H229.781L229.781 613.953H227.464L228.981 611.514L209.07 599.146L153.623 585.656C152.571 571.913 147.472 564.281 149.105 559.203C151.435 551.938 169.7 562.435 169.758 562.429L143.296 532.751L168.467 537.267L176.857 532.105L151.041 537.267L207.837 493.395L209.128 492.749C209.186 492.504 209.709 492.349 209.774 492.104C210.722 488.143 169.519 516.666 170.403 512.75C170.623 511.782 181.156 499.524 181.375 498.556C181.388 498.498 221.378 395.385 221.391 395.327L41.9661 395.972" fill="#00AEB9"/>
<path d="M53.5836 572.107C51.2537 564.842 47.5297 564.132 47.4716 564.126L38.0937 563.435L38.1582 563.1L41.9662 394.682L49.0657 414.682L47.1295 410.811L44.5478 390.165L46.4841 428.876L53.5836 572.107Z" fill="#176D73"/>
<path d="M202.029 652.432V629.528H173.953V652.432H202.029Z" fill="#7C202C"/>
<path d="M225.909 563.074L217.009 564.126C216.912 564.139 206.934 565.713 209.503 599.12L209.225 599.14L221.714 606.901V630.128H34.8666L34.8666 613.953H37.1837L35.6669 611.514L55.578 599.146L111.025 585.656C112.077 571.913 117.176 564.281 115.543 559.203C113.213 551.938 94.9482 562.435 94.8901 562.429L121.352 532.751L96.1809 537.267L87.7905 532.105L113.607 537.267L56.8107 493.395L55.5199 492.749C55.4618 492.504 54.939 492.349 54.8745 492.104C53.9257 488.143 95.1289 516.666 94.2446 512.75C94.0252 511.782 83.4921 499.524 83.2726 498.556C83.2597 498.498 43.2699 395.385 43.257 395.327L222.682 395.972" fill="#00AEB9"/>
<path d="M148.459 614.043C161.084 605.463 173.669 582.01 187.068 545.164C197.317 516.976 203.733 491.091 203.797 490.833L203.965 490.814C203.9 491.078 200.944 521.215 191.057 554.687C179.923 592.385 174.921 597.914 163.304 614.043H148.459Z" fill="#158F97"/>
<path d="M117.479 614.689C104.855 606.108 92.2697 582.655 78.8709 545.809C68.6217 517.621 62.2063 491.736 62.1418 491.478L61.974 491.459C62.0385 491.724 64.9945 521.86 74.8822 555.332C86.0156 593.03 91.0176 598.559 102.635 614.689H117.479Z" fill="#158F97"/>
<path d="M220.597 625.257L202.403 613.953L166.963 591.933L166.415 591.598L158.67 586.785L167.215 573.042L174.056 577.294L174.605 577.629L208.838 598.901L209.225 599.14L221.714 606.901L229.136 611.514L227.619 613.953L221.714 623.457L220.597 625.257Z" fill="#696964"/>
<path d="M44.2122 625.257L37.1837 613.953L35.667 611.514L55.578 599.146L55.9136 598.94L89.9527 577.791L90.5077 577.449L97.5944 573.042L106.133 586.785L98.1559 591.74L97.6073 592.082L62.4064 613.953L44.2122 625.257Z" fill="#696964"/>
<path d="M233.654 630.128V613.953H34.8667V630.128H233.654Z" fill="#696964"/>
<path d="M86.177 651.787V629.85H58.4242V651.787H86.177Z" fill="#7C202C"/>
<path d="M218.756 150.229L219.497 139.021L146.75 134.216L146.009 145.425L218.756 150.229Z" fill="#696964"/>
<path d="M220.052 134.747L220.793 123.539L148.046 118.735L147.305 129.943L220.052 134.747Z" fill="#696964"/>
<path d="M220.668 128.046L220.968 123.508L148.221 118.703L147.921 123.242L220.668 128.046Z" fill="#464645"/>
<path d="M220.67 143.484L220.967 138.99L148.219 134.186L147.922 138.679L220.67 143.484Z" fill="#464645"/>
<path d="M212.102 620.114L215.059 615.35L155.644 578.496L152.687 583.26L212.102 620.114Z" fill="#464645"/>
<path d="M224.115 621.786V614.043H41.3208V621.786H224.115Z" fill="#464645"/>
<path d="M109.688 585.208L106.827 580.598L48.8812 616.54L51.7431 621.151L109.688 585.208Z" fill="#464645"/>
<path d="M111.748 144.827L111.007 133.619L38.2597 138.424L39.0005 149.632L111.748 144.827Z" fill="#696964"/>
<path d="M110.458 129.345L109.718 118.137L36.9703 122.942L37.711 134.15L110.458 129.345Z" fill="#696964"/>
<path d="M224.892 160.639L215.972 147.136L146.366 193.086L155.286 206.589L224.892 160.639Z" fill="#696964"/>
<path d="M223.6 147.737L221.068 143.903L151.463 189.853L153.995 193.686L223.6 147.737Z" fill="#464645"/>
<path d="M119.077 122.249L118.762 117.479L46.0148 122.284L46.3301 127.054L119.077 122.249Z" fill="#464645"/>
<path d="M119.723 137.728L119.41 132.997L46.6628 137.801L46.9755 142.533L119.723 137.728Z" fill="#464645"/>
<path d="M109.133 206.625L118.053 193.123L48.4479 147.173L39.5278 160.676L109.133 206.625Z" fill="#696964"/>
<path d="M109.244 45.0381C109.457 44.8962 109.664 44.7478 109.87 44.6058L109.993 44.7736L109.244 45.0381Z" fill="#D2273D"/>
<path d="M256.347 80.4199C257.192 80.5361 257.708 80.607 257.857 80.6199L256.347 80.4199Z" fill="#D2273D"/>
<path d="M154.92 45.264L154.604 44.8446C154.339 44.864 154.12 44.8898 154.268 44.993C154.487 45.1414 154.7 45.2898 154.92 45.4317V45.264ZM121.649 27.1666C120.707 28.1731 119.764 29.3409 118.816 30.6764C116.511 33.5604 114.601 36.6637 113.2 39.1864C111.529 42.2123 110.593 44.4124 110.593 44.4124L110.257 44.8575L111.025 44.5027V44.1156H111.671V44.2769C112.413 42.4833 113.162 40.8252 113.91 39.2896C113.93 39.2574 113.943 39.2186 113.962 39.1864C115.853 35.2895 117.744 32.1668 119.616 29.7151C120.332 28.7667 121.055 27.9215 121.765 27.1666C121.972 26.9473 122.172 26.7408 122.378 26.5408C124.928 24.0182 127.432 22.6633 129.846 22.1729C129.981 22.1471 130.117 22.1213 130.252 22.102C130.375 22.0762 130.497 22.0568 130.627 22.0439C132.556 21.7923 134.415 22.0891 136.196 22.773C137.313 23.1988 138.391 23.7794 139.43 24.4762C140.346 25.0892 141.231 25.786 142.076 26.5473C142.309 26.7537 142.534 26.9602 142.754 27.1731C144.2 28.5538 145.542 30.1087 146.755 31.7023C148.724 34.2701 150.363 36.9412 151.609 39.1735C151.628 39.2057 151.648 39.2445 151.667 39.2767C153.339 42.2897 154.275 44.4898 154.275 44.4898H154.345L154.275 44.3995C154.275 44.3995 153.339 42.1994 151.667 39.1735C150.266 36.6508 148.356 33.5475 146.052 30.6635C145.103 29.328 144.161 28.1602 143.225 27.1537C143.025 26.9408 142.825 26.7279 142.618 26.5279C139.101 22.9859 135.667 21.6697 132.434 21.8052C129.207 21.6697 125.773 22.9859 122.256 26.5215C77.7156 25.2376 34.9893 44.7479 21.9584 51.3029V52.0255C34.5246 45.6705 77.1218 26.0505 121.649 27.1537V27.1666Z" fill="#D2273D"/>
<path d="M242.69 51.8771C229.723 45.3543 187.41 26.044 143.225 27.1666C144.161 28.1731 145.103 29.3409 146.052 30.6764C148.356 33.5604 150.267 36.6637 151.667 39.1863C153.339 42.2122 154.275 44.4123 154.275 44.4123L154.346 44.5026H154.92V44.8188C154.862 44.8252 154.804 44.8317 154.739 44.8381C154.688 44.8381 154.649 44.8446 154.604 44.8446L154.92 45.264V45.4317C156.004 46.1608 157.101 46.8769 158.212 47.5737C161.458 49.6254 164.827 51.5609 168.28 53.3803C194.297 67.1356 224.831 74.5939 242.69 78.0779V51.8771ZM155.107 44.6897C155.204 44.7543 155.146 44.7865 155.023 44.8059L155.107 44.6897Z" fill="#D2273D"/>
<path d="M132.647 619.85H132.105C131.911 619.85 131.717 619.844 131.53 619.831C131.356 619.831 131.175 619.811 131.001 619.799C130.711 619.779 130.414 619.753 130.117 619.721C130.11 619.721 130.097 619.721 130.085 619.721C129.82 619.695 129.555 619.657 129.291 619.618C129.271 619.618 129.258 619.611 129.239 619.611C129.22 619.611 129.2 619.611 129.181 619.611C129.078 619.599 128.981 619.579 128.878 619.566C128.716 619.547 128.555 619.515 128.387 619.482C128.264 619.463 128.135 619.444 128.006 619.411C127.755 619.36 127.496 619.308 127.238 619.244C127.012 619.192 126.786 619.134 126.554 619.07C126.477 619.057 126.393 619.031 126.315 619.011C126.296 619.011 126.277 619.011 126.264 618.999C126.115 618.96 125.973 618.921 125.831 618.876C125.231 618.702 124.631 618.502 124.031 618.276C123.779 618.186 123.521 618.082 123.269 617.979C123.004 617.876 122.74 617.766 122.475 617.644C122.288 617.566 122.101 617.482 121.914 617.392C121.559 617.231 121.21 617.057 120.862 616.876C120.616 616.753 120.365 616.618 120.119 616.482C120.068 616.456 120.01 616.424 119.952 616.392C119.674 616.237 119.396 616.082 119.119 615.915C118.461 615.527 117.809 615.108 117.157 614.663C116.828 614.443 116.505 614.211 116.182 613.979C116.182 613.979 116.182 613.977 116.182 613.973C115.782 613.689 115.388 613.392 114.995 613.076C114.795 612.921 114.595 612.766 114.401 612.605C114.324 612.547 114.24 612.482 114.162 612.411C114.007 612.282 113.846 612.153 113.691 612.018C113.53 611.889 113.375 611.753 113.22 611.618C113.02 611.443 112.826 611.276 112.626 611.095C107.514 606.534 102.506 600.198 97.6138 592.101C95.9099 589.281 94.2189 586.243 92.5408 582.997C92.1084 582.159 91.676 581.307 91.25 580.442C91.0822 580.113 90.9209 579.784 90.7595 579.449C90.4949 578.907 90.2302 578.359 89.9592 577.81C89.4687 576.778 88.9781 575.726 88.4876 574.662C88.2617 574.178 88.0423 573.687 87.8164 573.191C87.5905 572.694 87.3711 572.203 87.1516 571.7C86.7708 570.849 86.39 569.984 86.0157 569.107C85.5446 568.016 85.0798 566.913 84.6151 565.79C84.4473 565.39 84.2795 564.984 84.1117 564.571C83.8277 563.887 83.5502 563.19 83.2662 562.487C83.2146 562.358 83.1565 562.222 83.1049 562.087C83.0274 561.887 82.9435 561.687 82.8661 561.487C82.3949 560.293 81.9238 559.087 81.4526 557.861C81.1493 557.074 80.8524 556.28 80.5491 555.48C77.4769 547.28 74.4628 538.325 71.5262 528.641C71.3067 527.925 71.0937 527.202 70.8743 526.473C70.7 525.899 70.5258 525.312 70.3515 524.725C70.1708 524.092 69.9836 523.46 69.7965 522.821C69.4157 521.512 69.0349 520.182 68.6541 518.847C68.2733 517.511 67.8925 516.163 67.5182 514.802C67.3181 514.073 67.1115 513.344 66.9179 512.608C66.905 512.589 66.905 512.563 66.8986 512.543C65.9756 509.176 65.0656 505.724 64.1556 502.201C63.6909 500.388 63.2262 498.569 62.7744 496.756C62.7421 496.607 62.7034 496.459 62.6647 496.311C62.3161 494.898 61.9676 493.485 61.6256 492.072C61.561 491.82 61.4964 491.575 61.4384 491.323C60.4251 487.11 59.444 482.917 58.5017 478.755C58.2823 477.788 58.0693 476.826 57.8499 475.858C57.837 475.8 57.8241 475.736 57.8111 475.678C57.7724 475.504 57.7337 475.336 57.695 475.162C57.3206 473.471 56.9527 471.787 56.5913 470.116C55.5586 465.361 54.5776 460.677 53.6547 456.103V456.096C53.5837 455.735 53.5063 455.374 53.4353 455.019C52.6156 450.948 51.8411 446.961 51.1053 443.096C50.7374 441.148 50.376 439.225 50.0275 437.335C49.9242 436.773 49.8209 436.218 49.7177 435.664C49.6144 435.109 49.5176 434.547 49.4143 433.999C49.0787 432.154 48.756 430.347 48.4398 428.573C48.3365 427.979 48.2332 427.392 48.1299 426.812C48.0912 426.586 48.0525 426.36 48.0138 426.134C47.7814 424.812 47.5555 423.515 47.3361 422.237C47.0521 420.599 46.781 419.005 46.5229 417.444C46.4971 417.257 46.4648 417.076 46.4325 416.895C46.3228 416.237 46.2195 415.598 46.1098 414.96C46.0065 414.327 45.9033 413.695 45.8 413.076C45.6516 412.14 45.5031 411.231 45.3547 410.334C45.3547 410.269 45.3353 410.211 45.3224 410.147C45.2385 409.618 45.1546 409.089 45.0707 408.572C44.9739 407.966 44.8771 407.372 44.7867 406.779C44.6705 406.056 44.5608 405.346 44.4511 404.65C44.3091 403.759 44.1736 402.888 44.0509 402.05C43.9735 401.572 43.9025 401.114 43.8315 400.656C43.5282 398.669 43.2571 396.837 43.0118 395.185C42.9537 394.778 42.8956 394.378 42.8376 393.998C42.8311 393.953 42.8247 393.907 42.8182 393.869C42.7859 393.617 42.7472 393.378 42.7149 393.14C42.6762 392.862 42.6375 392.598 42.5988 392.34C42.5536 392.017 42.5084 391.707 42.4632 391.404C42.4116 391.043 42.3664 390.694 42.3148 390.359C42.276 390.088 42.2438 389.836 42.2051 389.585C42.0631 388.546 41.9404 387.669 41.8436 386.952C41.8307 386.849 41.8114 386.746 41.7984 386.649C41.7339 386.172 41.6823 385.778 41.6436 385.481C41.6306 385.378 41.6177 385.288 41.6048 385.204C41.6048 385.159 41.6048 385.12 41.5919 385.081C41.579 384.997 41.5726 384.933 41.5661 384.881C41.5532 384.804 41.5467 384.759 41.5467 384.746C40.6109 378.681 40.1397 372.939 40.1397 367.545C40.1397 351.764 44.1542 338.912 52.138 329.221C65.4012 313.118 85.4929 311.324 87.7906 311.169C100.389 278.13 106.036 207.385 108.56 153.803C108.663 151.538 108.767 149.287 108.863 147.048C108.896 146.306 108.928 145.558 108.96 144.816C108.973 144.538 108.986 144.254 108.999 143.977C109.044 142.848 109.089 141.725 109.141 140.603C109.173 139.738 109.205 138.873 109.238 138.015C109.289 136.686 109.341 135.364 109.393 134.054C109.399 133.783 109.412 133.512 109.418 133.247C109.483 131.512 109.547 129.789 109.606 128.08C109.967 117.602 110.238 107.621 110.438 98.4334C110.464 97.3947 110.49 96.3689 110.509 95.3495C110.516 95.0398 110.522 94.7301 110.529 94.4204C110.548 93.5881 110.561 92.7623 110.574 91.9493C110.587 91.6268 110.593 91.3171 110.593 91.0009C110.619 89.8525 110.638 88.717 110.658 87.6008C110.709 84.7491 110.754 82.0006 110.793 79.3683C110.806 78.4521 110.819 77.5489 110.832 76.6585C110.89 72.3745 110.935 68.4196 110.961 64.8582C110.967 64.1743 110.974 63.5097 110.98 62.8581C111.006 59.2322 111.019 56.0643 111.032 53.4062C111.045 48.7351 111.038 45.664 111.032 44.5285V44.4381L111.529 44.1414L111.677 44.051V44.2123C112.42 42.4187 113.168 40.7542 113.917 39.2122C115.556 35.8185 117.196 33.0055 118.822 30.7022C119.771 29.3667 120.713 28.1989 121.655 27.1924C121.855 26.9731 122.056 26.7666 122.262 26.5602C125.78 23.0246 129.213 21.7084 132.44 21.8439C133.725 21.8955 134.983 22.1858 136.203 22.6568C138.346 23.4826 140.372 24.8827 142.231 26.5731C142.451 26.7795 142.67 26.986 142.89 27.2053C144.013 28.2828 145.071 29.4764 146.058 30.7022C148.363 33.5862 150.273 36.6895 151.674 39.2122C153.345 42.2381 154.281 44.4381 154.281 44.4381L154.352 44.5285L154.604 44.8704L154.926 45.2898V45.4575C154.92 46.8318 154.92 49.5544 154.933 53.4062C154.965 60.9613 155.062 72.8907 155.333 87.6008C155.682 106.298 156.327 129.512 157.502 153.997C160.07 207.489 165.782 278.13 178.381 311.169C180.678 311.324 200.764 313.118 214.027 329.221C224.747 342.222 228.31 360.913 224.618 384.759C224.567 385.133 221.068 409.914 214.421 443.096C213.769 446.374 213.078 449.735 212.362 453.161C212.065 454.574 211.762 456 211.452 457.439C210.187 463.368 208.831 469.471 207.392 475.678C206.198 480.82 204.946 486.026 203.636 491.265C203.513 491.749 203.391 492.233 203.261 492.724C202.448 495.962 201.609 499.208 200.744 502.453C199.828 505.885 198.911 509.253 197.982 512.55C197.976 512.576 197.976 512.595 197.963 512.614C192.967 530.383 187.784 546.074 182.46 559.571C182.382 559.771 182.298 559.971 182.227 560.171C181.092 563.029 179.949 565.784 178.8 568.442C177.413 571.661 176.019 574.733 174.612 577.655C173.682 579.597 172.746 581.475 171.81 583.281C170.21 586.365 168.59 589.262 166.97 591.959C160.929 601.998 154.752 609.353 148.479 613.979C145.116 616.456 141.728 618.16 138.32 619.076C138.146 619.128 137.978 619.173 137.804 619.211C137.746 619.224 137.694 619.237 137.636 619.25C137.378 619.315 137.12 619.366 136.868 619.418C136.739 619.444 136.616 619.469 136.487 619.489C136.319 619.521 136.158 619.553 135.996 619.573C135.893 619.586 135.796 619.605 135.693 619.618C135.654 619.618 135.616 619.631 135.577 619.631C135.312 619.676 135.054 619.708 134.79 619.734C134.777 619.734 134.77 619.734 134.757 619.734C134.467 619.76 134.164 619.792 133.873 619.811C133.699 619.824 133.518 619.837 133.344 619.844C133.15 619.844 132.963 619.857 132.769 619.863C132.731 619.863 132.692 619.863 132.653 619.863L132.647 619.85Z" fill="#D2273D"/>
<path d="M208.806 698.885H56.6881L57.3013 680.949L57.3787 678.671L57.5207 674.529L57.5659 673.239L57.6304 671.394L57.7724 667.123L57.8241 665.761L58.2242 654.045L58.4243 648.161L58.4437 647.593H201.383L201.706 649.825L202.319 654.045L203.029 658.98L203.165 659.903L204.83 671.394L205.282 674.529L208.806 698.885Z" fill="#D2273D"/>
<path d="M254.378 191.436H225.838C222.14 191.436 218.932 189.346 217.325 186.288C217.209 186.075 217.112 185.862 217.015 185.643C216.834 185.23 216.679 184.797 216.563 184.352C216.344 183.546 216.228 182.701 216.228 181.83V115.931C216.228 110.627 220.526 106.324 225.838 106.324H254.378C259.038 106.324 262.917 109.634 263.801 114.027C263.924 114.64 263.988 115.279 263.988 115.931V181.83C263.988 187.133 259.69 191.436 254.378 191.436Z" fill="#2D2D2A"/>
<path d="M21.9584 52.0384V51.3158C34.9893 44.7608 77.7156 25.2505 122.256 26.5344C122.294 26.5344 122.333 26.5344 122.378 26.5344C122.469 26.5344 122.559 26.5344 122.649 26.5408C124.482 26.5924 126.315 26.6892 128.155 26.8182C128.329 26.8311 128.464 26.9989 128.452 27.1666C128.439 27.3408 128.284 27.4763 128.103 27.4634C126.064 27.3215 124.018 27.2183 121.985 27.1666C121.907 27.1666 121.836 27.1666 121.765 27.1666C121.726 27.1602 121.688 27.1602 121.649 27.1666C77.1218 26.0634 34.5246 45.6834 21.9584 52.0384Z" fill="#AC2433"/>
<path d="M142.754 27.1795C140.798 27.2311 138.83 27.3279 136.868 27.4698C136.687 27.4828 136.532 27.3473 136.519 27.1731V27.1473C136.519 26.9795 136.648 26.8376 136.816 26.8247C138.572 26.7021 140.327 26.6118 142.076 26.5537C142.128 26.5537 142.18 26.5537 142.225 26.5537C142.36 26.5472 142.489 26.5472 142.618 26.5472C142.825 26.7472 143.025 26.9602 143.225 27.1731C143.115 27.1731 142.999 27.1731 142.883 27.186C142.844 27.1795 142.799 27.1795 142.754 27.186V27.1795Z" fill="#AC2433"/>
<path d="M254.378 657.903H225.838C221.636 657.903 218.074 655.219 216.763 651.464C216.525 650.786 216.363 650.077 216.286 649.341C216.247 648.999 216.228 648.651 216.228 648.296V582.397C216.228 577.094 220.526 572.797 225.838 572.797H254.378C258.567 572.797 262.129 575.474 263.446 579.204C263.795 580.204 263.988 581.281 263.988 582.397V648.296C263.988 653.606 259.69 657.903 254.378 657.903Z" fill="#2D2D2A"/>
<path d="M38.1647 655.967H9.62454C4.31279 655.967 0.014328 651.671 0.014328 646.367L0.014328 580.462C0.014328 580.036 0.0401497 579.617 0.0982361 579.204C0.156322 578.765 0.240242 578.333 0.356415 577.913C0.543587 577.236 0.801712 576.584 1.12442 575.978C2.73795 572.933 5.93923 570.862 9.62454 570.862H38.1647C43.4764 570.862 47.7749 575.158 47.7749 580.462L47.7749 646.406C47.7684 647.264 47.6587 648.096 47.4393 648.883C46.3356 652.967 42.6051 655.967 38.1647 655.967Z" fill="#2D2D2A"/>
<path d="M109.137 193.074L111.929 188.847L42.324 142.898L39.532 147.124L109.137 193.074Z" fill="#464645"/>
<path d="M38.1647 189.501H9.62454C4.31279 189.501 0.014328 185.197 0.014328 179.894L0.014328 113.995C0.014328 113.789 0.0208015 113.589 0.0337105 113.382C0.117615 111.989 0.504822 110.679 1.12442 109.511C2.73795 106.466 5.93923 104.395 9.62454 104.395H38.1647C43.4764 104.395 47.7749 108.692 47.7749 113.995L47.7749 179.894C47.7749 180.313 47.7491 180.72 47.691 181.126C47.6716 181.346 47.6329 181.559 47.5942 181.772C46.7164 186.178 42.831 189.501 38.1647 189.501Z" fill="#2D2D2A"/>
<path d="M205.281 674.529H57.5206L57.5658 673.239L57.6303 671.394H204.83L205.281 674.529Z" fill="#AC2433"/>
<path d="M202.319 654.045H58.2242L58.4242 648.161V647.593H201.706V649.825L202.319 654.045Z" fill="#AC2433"/>
<path d="M155.133 667.729L77.9157 667.252L76.9928 667.245L57.7724 667.123L57.824 665.761L76.0376 665.871L79.8713 665.897L155.139 666.361L155.133 667.729Z" fill="#AC2433"/>
<path d="M155.707 681.852L57.3012 680.949L57.3787 678.671L155.733 679.575L155.707 681.852Z" fill="#AC2433"/>
<path d="M200.525 687.736H113.523V689.104H200.525V687.736Z" fill="#AC2433"/>
<path d="M203.165 659.903L121.759 660.374L121.746 659.451L203.029 658.98L203.165 659.903Z" fill="#AC2433"/>
<path d="M181.815 693.059L66.171 692.635C65.6363 692.633 65.2013 693.065 65.1993 693.599L65.1974 694.115C65.1955 694.65 65.6273 695.085 66.162 695.087L181.806 695.51C182.341 695.512 182.776 695.081 182.778 694.546L182.78 694.03C182.782 693.495 182.35 693.061 181.815 693.059Z" fill="#FFFCF3"/>
<path d="M199.167 692.765L191.061 692.735C190.526 692.734 190.091 693.165 190.089 693.7L190.087 694.216C190.085 694.75 190.517 695.185 191.052 695.187L199.158 695.217C199.693 695.219 200.128 694.787 200.13 694.253L200.132 693.736C200.133 693.202 199.702 692.767 199.167 692.765Z" fill="#FFFCF3"/>
<path d="M257.399 80.5619H257.386C257.386 80.5619 257.341 80.5619 257.321 80.5619C257.224 80.549 257.128 80.5361 257.018 80.5232C256.902 80.5039 256.786 80.4845 256.65 80.4651C256.553 80.4651 256.456 80.4393 256.347 80.4264C256.108 80.3942 255.843 80.3555 255.546 80.3103C255.301 80.278 255.049 80.2393 254.772 80.1942C254.714 80.1942 254.649 80.1748 254.591 80.1684C254.449 80.149 254.301 80.1232 254.152 80.0974C253.623 80.02 253.036 79.9296 252.403 79.8264C252.158 79.7877 251.906 79.7425 251.648 79.7038C251.48 79.6716 251.306 79.6458 251.138 79.6135C250.893 79.5748 250.648 79.5361 250.389 79.4909C249.363 79.3167 248.24 79.1232 247.033 78.9038C246.717 78.8457 246.388 78.7877 246.059 78.7231C246.001 78.7102 245.936 78.7038 245.878 78.6909C245.549 78.6264 245.22 78.5683 244.884 78.5038C244.284 78.3941 243.664 78.2715 243.032 78.1489C242.922 78.1296 242.806 78.1102 242.69 78.0844V23.5278L257.483 26.7279C257.702 26.7731 257.857 26.9667 257.857 27.1925V80.0845C257.857 80.2845 257.741 80.4522 257.573 80.5297C257.515 80.5555 257.457 80.5684 257.399 80.5684V80.5619Z" fill="#AE1F32"/>
<path d="M257.857 80.62C257.786 80.62 257.631 80.5942 257.398 80.5619C257.456 80.5619 257.514 80.549 257.566 80.5232L257.857 80.62Z" fill="#AE1F32"/>
<path d="M7.08161 80.6265L6.79117 26.1473L20.6675 23.3988L21.9584 23.1407L21.9584 78.149C15.0718 79.4845 10.1151 80.22 8.08845 80.4974H8.06907C7.46238 80.5813 7.12679 80.62 7.08161 80.6265Z" fill="#AE1F32"/>
<path d="M155.024 44.8052L155.107 44.6897C155.204 44.7538 155.146 44.7859 155.024 44.8052Z" fill="#BD2236"/>
<path d="M21.9584 78.1489V52.0384C34.5246 45.6834 77.1219 26.0634 121.649 27.1667C120.707 28.1731 119.764 29.3409 118.816 30.6765C116.511 33.5604 114.601 36.6637 113.2 39.1864C111.529 42.2123 110.593 44.4124 110.593 44.4124L110.257 44.8576L108.295 45.7608C107.385 46.3737 106.462 46.9802 105.527 47.5738C102.319 49.6255 99.0014 51.561 95.613 53.3804C69.6544 67.3357 39.533 74.723 21.9584 78.1489Z" fill="#D2273D"/>
<path d="M263.988 117.899H225.263V114.027H263.782C263.917 114.64 263.988 115.279 263.988 115.931V117.899Z" fill="#1D1D1B"/>
<path d="M263.988 123.705V121.125H229.781V123.705H263.988Z" fill="#1D1D1B"/>
<path d="M263.988 127.576V125.641H235.59V127.576H263.988Z" fill="#1D1D1B"/>
<path d="M255.598 147.254V146.286H231.718V147.254H255.598Z" fill="#565652"/>
<path d="M246.562 151.771V150.803H222.682V151.771H246.562Z" fill="#565652"/>
<path d="M258.18 149.512V148.545H224.618V149.512H258.18Z" fill="#565652"/>
<path d="M256.243 186.288H217.37C217.235 186.075 217.125 185.862 217.015 185.643H256.243V186.288Z" fill="#1D1D1B"/>
<path d="M253.016 182.417H216.563C216.344 181.61 216.228 180.765 216.228 179.894V179.836H253.016V182.417Z" fill="#1D1D1B"/>
<path d="M249.144 177.255V175.32H216.228V177.255H249.144Z" fill="#1D1D1B"/>
<path d="M263.988 583.075H225.263V579.204H263.446C263.795 580.204 263.988 581.281 263.988 582.397V583.075Z" fill="#1D1D1B"/>
<path d="M263.988 587.591V586.301H230.233V587.591H263.988Z" fill="#1D1D1B"/>
<path d="M263.988 590.817V589.526H236.623V590.817H263.988Z" fill="#1D1D1B"/>
<path d="M244.626 614.366V613.398H231.718V614.366H244.626Z" fill="#565652"/>
<path d="M256.889 618.882V617.915H233.009V618.882H256.889Z" fill="#565652"/>
<path d="M258.18 616.624V615.656H224.618V616.624H258.18Z" fill="#565652"/>
<path d="M256.243 651.464H216.763C216.525 650.787 216.363 650.077 216.286 649.341H256.243V651.464Z" fill="#1D1D1B"/>
<path d="M252.861 646.303V645.012H216.228V646.303H252.861Z" fill="#1D1D1B"/>
<path d="M248.802 643.077V640.496H216.228V643.077H248.802Z" fill="#1D1D1B"/>
<path d="M37.4482 113.382H0.0336609C0.117565 111.989 0.504772 110.679 1.12437 109.511H37.4482V113.382Z" fill="#1D1D1B"/>
<path d="M32.9304 119.189V116.608H0.0143471V119.189H32.9304Z" fill="#1D1D1B"/>
<path d="M27.1217 123.06V121.125H0.0143547V123.06H27.1217Z" fill="#1D1D1B"/>
<path d="M32.285 142.093V141.125H8.40475V142.093H32.285Z" fill="#565652"/>
<path d="M41.3208 146.609V145.641H17.4405V146.609H41.3208Z" fill="#565652"/>
<path d="M39.3845 144.351V143.383H5.82304V144.351H39.3845Z" fill="#565652"/>
<path d="M47.5942 181.772H9.69557V181.126H47.691C47.6717 181.346 47.6329 181.559 47.5942 181.772Z" fill="#1D1D1B"/>
<path d="M47.7749 177.9V175.32H12.9226V177.9H47.7749Z" fill="#1D1D1B"/>
<path d="M47.7749 172.739V170.803H16.7951V172.739H47.7749Z" fill="#1D1D1B"/>
<path d="M37.4482 577.913H0.356369C0.543541 577.236 0.801666 576.584 1.12437 575.978H37.4482V577.913Z" fill="#1D1D1B"/>
<path d="M32.285 581.784H0.0143814V580.462C0.0143814 580.036 0.0402031 579.617 0.0982895 579.204H32.285V581.784Z" fill="#1D1D1B"/>
<path d="M25.8309 585.656V583.72H0.0144081V585.656H25.8309Z" fill="#1D1D1B"/>
<path d="M23.2493 589.526V587.591H0.0143967V589.526H23.2493Z" fill="#1D1D1B"/>
<path d="M32.9304 613.076V612.108H13.568V613.076H32.9304Z" fill="#565652"/>
<path d="M29.7034 617.592V616.624H18.0859V617.592H29.7034Z" fill="#565652"/>
<path d="M40.03 615.334V614.366H6.46854V615.334H40.03Z" fill="#565652"/>
<path d="M47.4393 648.883H10.3409V646.406H47.7749C47.7684 647.264 47.6587 648.096 47.4393 648.883Z" fill="#1D1D1B"/>
<path d="M47.7749 644.367V641.786H14.2134V644.367H47.7749Z" fill="#1D1D1B"/>
<path d="M47.7749 639.206V637.27H16.7951V639.206H47.7749Z" fill="#1D1D1B"/>
<path d="M121.139 239.102C121.075 239.586 120.945 240.051 120.758 240.502L120.855 240.27C120.668 240.715 120.423 241.135 120.126 241.522L120.274 241.328C120.203 241.419 120.132 241.503 120.061 241.593C119.893 241.786 119.777 242.012 119.777 242.277C119.777 242.515 119.881 242.799 120.061 242.961C120.423 243.296 121.075 243.367 121.43 242.961C122.249 242.019 122.83 240.864 122.998 239.619C123.037 239.348 123.043 239.115 122.901 238.87C122.785 238.67 122.553 238.477 122.32 238.425C122.075 238.367 121.797 238.38 121.572 238.522C121.378 238.651 121.158 238.857 121.126 239.102H121.139Z" fill="#D2273D"/>
<path d="M21.9584 51.3158V23.1407L136.197 0.475464L136.268 0.488365L242.69 23.5214V51.8771C228.491 52.7352 197.511 52.09 143.225 27.1666C143.025 26.9537 142.825 26.7408 142.618 26.5408C139.101 22.9988 135.667 21.6826 132.434 21.8181C129.207 21.6826 125.773 22.9988 122.256 26.5344C77.7156 25.2504 58.7469 42.4123 21.9584 51.3158Z" fill="#BD2236"/>
<path d="M136.197 0.475464L136.126 0.488365L21.9584 23.5214V51.8771C36.1575 52.7352 74.8823 52.09 129.168 27.1666C129.368 26.9537 129.568 26.7408 129.775 26.5408C133.292 22.9988 136.726 21.6826 139.959 21.8181C143.186 21.6826 146.62 22.9988 150.137 26.5344" fill="#BD2236"/>
<path d="M178.245 37.5283C193.813 45.1092 215.227 47.6383 218.726 48.0125C218.997 48.0383 219.242 47.877 219.326 47.6189L219.739 46.3286C219.855 45.9737 219.61 45.606 219.235 45.5866C215.008 45.3156 193.322 43.6575 178.742 36.5025C178.51 36.3863 178.232 36.4444 178.065 36.6379C177.819 36.9218 177.903 37.367 178.239 37.5348L178.245 37.5283Z" fill="#FFFCF3"/>
<path d="M33.4275 44.2188L33.3823 46.264C33.3694 46.8059 33.7953 47.2511 34.3375 47.2511C39.3975 47.2963 63.0583 46.8188 97.0071 35.0959C97.4911 34.9281 97.7687 34.4055 97.6267 33.9088L97.5621 33.6765C97.4072 33.1474 96.8393 32.8571 96.3165 33.0313C65.3367 43.6704 42.3083 42.8703 35.5315 42.3284C34.4214 42.238 33.4597 43.1026 33.4339 44.2188H33.4275Z" fill="#FFFCF3"/>
<path d="M211.064 572.107C213.394 564.842 217.118 564.132 217.176 564.126L226.554 563.435L226.49 563.1L222.682 394.682L215.582 414.682L217.519 410.811L220.1 390.165L218.164 428.876L211.064 572.107Z" fill="#176D73"/>
<path d="M132.763 619.85H132.221C132.182 619.85 132.143 619.85 132.105 619.85C131.911 619.85 131.717 619.844 131.53 619.831C131.356 619.831 131.175 619.812 131.001 619.799C130.71 619.779 130.414 619.753 130.117 619.721C130.11 619.721 130.097 619.721 130.084 619.721C129.82 619.695 129.555 619.657 129.291 619.618C129.271 619.618 129.258 619.611 129.239 619.611C129.22 619.611 129.2 619.611 129.181 619.611C129.078 619.599 128.981 619.579 128.878 619.566C128.716 619.547 128.555 619.515 128.387 619.482C128.264 619.463 128.135 619.444 128.006 619.411C127.754 619.36 127.496 619.308 127.238 619.244C127.012 619.192 126.786 619.134 126.554 619.07C123.146 618.153 119.758 616.45 116.395 613.973C110.122 609.347 103.945 601.992 97.9041 591.953C96.2841 589.256 94.6642 586.359 93.0635 583.275C92.1277 581.468 91.1918 579.591 90.2624 577.649C88.8554 574.726 87.4613 571.655 86.0737 568.436C84.9249 565.777 83.7825 563.023 82.6466 560.164C82.5756 559.964 82.4917 559.764 82.4142 559.564C77.0896 546.067 71.9069 530.376 66.9114 512.608C66.8985 512.589 66.8985 512.563 66.892 512.544C65.9626 509.247 65.0462 505.879 64.1297 502.446C63.2648 499.201 62.4258 495.956 61.6125 492.717C61.4835 492.227 61.3608 491.743 61.2382 491.259C59.928 486.02 58.6759 480.813 57.4819 475.671C56.0426 469.465 54.6873 463.361 53.4223 457.432C53.1125 455.993 52.8091 454.567 52.5122 453.155C51.7958 449.729 51.1052 446.367 50.4534 443.09C43.8056 409.908 40.3074 385.126 40.2558 384.752C36.5641 360.906 40.1268 342.215 50.8471 329.215C64.1103 313.111 84.1955 311.318 86.4932 311.163C99.0917 278.123 104.804 207.482 107.372 153.99C108.547 129.505 109.192 106.292 109.541 87.5944C109.812 72.8842 109.909 60.9548 109.941 53.3997C109.954 49.3802 109.954 46.593 109.948 45.2833L110.257 44.8769L110.593 44.4317C110.593 44.4317 111.529 42.2316 113.2 39.2057C114.601 36.683 116.511 33.5797 118.816 30.6958C119.08 30.3732 119.345 30.057 119.616 29.7344C120.365 28.8505 121.158 27.9924 121.984 27.1924C122.204 26.9795 122.423 26.7731 122.649 26.5666C124.508 24.8698 126.528 23.4762 128.671 22.6503C129.31 22.3987 129.962 22.2052 130.627 22.0632C131.227 21.9406 131.827 21.8568 132.434 21.8374C135.667 21.7019 139.101 23.0181 142.618 26.5601C142.825 26.7601 143.025 26.9731 143.225 27.186C144.161 28.1924 145.103 29.3602 146.052 30.6958C146.284 31.0313 146.523 31.3732 146.755 31.7281C148.156 33.8249 149.557 36.2959 150.957 39.1993C151.706 40.7412 152.454 42.4058 153.197 44.1994V44.0381L153.842 44.4252C153.836 45.4769 153.829 48.5931 153.842 53.3933C153.855 56.0514 153.868 59.2193 153.894 62.8452C153.894 63.4968 153.907 64.1614 153.913 64.8452C153.939 68.4067 153.984 72.3616 154.042 76.6456C154.055 77.536 154.068 78.4392 154.081 79.3554C154.12 81.9877 154.165 84.7362 154.216 87.5879C154.236 88.7041 154.255 89.8396 154.281 90.988C154.281 91.3042 154.287 91.6138 154.3 91.9364C154.313 92.7494 154.326 93.5752 154.346 94.4075C154.352 94.7172 154.358 95.0269 154.365 95.3365C154.384 96.3559 154.41 97.3818 154.436 98.4205C154.636 107.608 154.907 117.589 155.268 128.067C155.327 129.776 155.391 131.499 155.456 133.235C155.462 133.499 155.475 133.77 155.481 134.041C155.533 135.351 155.585 136.673 155.636 138.002C155.669 138.861 155.701 139.725 155.733 140.59C155.785 141.712 155.83 142.835 155.875 143.964C155.888 144.241 155.901 144.525 155.914 144.803C155.946 145.545 155.978 146.293 156.011 147.035C156.107 149.274 156.211 151.525 156.314 153.79C158.838 207.372 164.485 278.117 177.083 311.156C179.381 311.311 199.473 313.105 212.736 329.209C220.72 338.899 224.734 351.751 224.734 367.532C224.734 372.926 224.263 378.668 223.327 384.733C223.327 384.746 223.321 384.791 223.308 384.868C223.301 384.92 223.295 384.985 223.282 385.068C223.282 385.107 223.282 385.146 223.269 385.191C223.256 385.275 223.243 385.365 223.23 385.468C223.192 385.765 223.14 386.159 223.076 386.636C223.063 386.733 223.043 386.836 223.03 386.939C222.934 387.656 222.811 388.533 222.669 389.572C222.63 389.823 222.598 390.075 222.559 390.346C222.508 390.682 222.462 391.03 222.411 391.391C222.366 391.694 222.32 392.004 222.275 392.327C222.237 392.585 222.198 392.849 222.159 393.127C222.127 393.366 222.088 393.604 222.056 393.856C222.049 393.895 222.043 393.94 222.036 393.985C221.978 394.366 221.92 394.766 221.862 395.172C221.617 396.824 221.346 398.656 221.042 400.643C220.971 401.101 220.901 401.559 220.823 402.037C220.7 402.875 220.565 403.746 220.423 404.637C220.313 405.334 220.203 406.043 220.087 406.766C219.997 407.359 219.9 407.953 219.803 408.56C219.719 409.076 219.635 409.605 219.552 410.134C219.539 410.198 219.526 410.256 219.519 410.321C219.371 411.218 219.222 412.127 219.074 413.063C218.971 413.682 218.867 414.315 218.764 414.947C218.654 415.586 218.551 416.224 218.441 416.882C218.409 417.063 218.377 417.244 218.351 417.431C218.093 418.992 217.822 420.586 217.538 422.224C217.318 423.502 217.093 424.799 216.86 426.121C216.822 426.347 216.783 426.573 216.744 426.799C216.641 427.379 216.538 427.967 216.434 428.56C216.118 430.334 215.795 432.141 215.46 433.986C215.356 434.535 215.26 435.096 215.156 435.651C215.053 436.206 214.95 436.76 214.847 437.322C214.498 439.212 214.137 441.135 213.769 443.083C213.033 446.948 212.258 450.935 211.439 455.006C211.368 455.361 211.29 455.722 211.219 456.084V456.09C210.296 460.664 209.315 465.348 208.283 470.103C207.921 471.774 207.553 473.458 207.179 475.149C207.14 475.323 207.102 475.491 207.063 475.665C207.05 475.723 207.037 475.787 207.024 475.846C206.805 476.813 206.592 477.775 206.372 478.742C205.43 482.904 204.449 487.098 203.436 491.311C203.378 491.562 203.313 491.807 203.248 492.059C202.906 493.472 202.558 494.885 202.209 496.298C202.171 496.446 202.132 496.595 202.1 496.743C201.648 498.556 201.183 500.375 200.718 502.188C199.808 505.711 198.898 509.163 197.975 512.531C197.969 512.556 197.969 512.576 197.956 512.595C197.762 513.331 197.556 514.06 197.356 514.789C196.982 516.15 196.601 517.499 196.22 518.834C195.839 520.17 195.458 521.499 195.078 522.808C194.89 523.447 194.703 524.079 194.522 524.712C194.348 525.299 194.174 525.886 194 526.46C193.78 527.189 193.567 527.912 193.348 528.628C190.411 538.312 187.397 547.267 184.325 555.467C184.022 556.268 183.725 557.061 183.421 557.848C182.95 559.074 182.479 560.281 182.008 561.474C181.93 561.674 181.847 561.874 181.769 562.074C181.717 562.21 181.659 562.345 181.608 562.474C181.324 563.177 181.046 563.874 180.762 564.558C180.594 564.971 180.427 565.377 180.259 565.777C179.794 566.9 179.329 568.003 178.858 569.094C178.484 569.971 178.103 570.836 177.722 571.687C177.503 572.191 177.283 572.681 177.058 573.178C176.832 573.674 176.612 574.165 176.386 574.649C175.896 575.713 175.405 576.765 174.915 577.797C174.644 578.346 174.379 578.894 174.115 579.436C173.953 579.771 173.792 580.101 173.624 580.43C173.198 581.294 172.766 582.146 172.333 582.984C170.655 586.23 168.964 589.269 167.26 592.088C162.368 600.185 157.36 606.521 152.248 611.082C152.048 611.263 151.854 611.431 151.654 611.605C151.499 611.74 151.344 611.876 151.183 612.005C151.028 612.14 150.867 612.269 150.712 612.398C150.634 612.469 150.55 612.534 150.473 612.592C150.279 612.753 150.079 612.908 149.879 613.063C149.486 613.379 149.092 613.676 148.692 613.96C148.692 613.96 148.692 613.962 148.692 613.966C148.369 614.198 148.046 614.431 147.717 614.65C147.065 615.095 146.413 615.515 145.755 615.902C145.478 616.069 145.2 616.224 144.922 616.379C144.864 616.411 144.806 616.444 144.755 616.469C144.509 616.605 144.258 616.74 144.012 616.863C143.664 617.044 143.315 617.218 142.96 617.379C142.773 617.469 142.586 617.553 142.399 617.631C142.134 617.753 141.87 617.863 141.605 617.966C141.353 618.069 141.095 618.173 140.843 618.263C140.243 618.489 139.643 618.689 139.043 618.863C138.901 618.908 138.759 618.947 138.61 618.986C138.597 618.992 138.578 618.992 138.559 618.999C138.481 619.018 138.397 619.044 138.32 619.057C138.146 619.108 137.978 619.153 137.804 619.192C137.745 619.205 137.694 619.218 137.636 619.231C137.378 619.295 137.119 619.347 136.868 619.399C136.739 619.424 136.616 619.45 136.487 619.47C136.319 619.502 136.158 619.534 135.996 619.553C135.893 619.566 135.796 619.586 135.693 619.599C135.654 619.599 135.616 619.611 135.577 619.611C135.312 619.657 135.054 619.689 134.789 619.715C134.777 619.715 134.77 619.715 134.757 619.715C134.467 619.741 134.163 619.773 133.873 619.792C133.699 619.805 133.518 619.818 133.344 619.824C133.15 619.824 132.963 619.837 132.769 619.844L132.763 619.85Z" fill="#D2273D"/>
<path d="M98.1172 409.521C98.1172 444.084 113.464 472.104 132.395 472.104C151.326 472.104 166.673 444.084 166.673 409.521C166.673 374.957 151.326 346.938 132.395 346.938C113.464 346.938 98.1172 374.957 98.1172 409.521Z" fill="black"/>
<path d="M98.7626 411.456C98.7626 446.02 114.109 474.039 133.04 474.039C151.972 474.039 167.318 446.02 167.318 411.456C167.318 376.893 151.972 348.874 133.04 348.874C114.109 348.874 98.7626 376.893 98.7626 411.456Z" stroke="#AC2433" stroke-width="10" stroke-miterlimit="10"/>
<path d="M189.224 541.138C191.805 534.693 225.909 423.683 225.909 365.9V365.668C225.864 339.609 214.272 325.873 202.132 318.557C189.327 310.84 178.897 310.814 177.606 310.814L182.124 328.234C183.86 328.467 214.221 326.234 214.292 365.694V365.907C214.292 389.004 201.867 492.414 189.224 541.144" fill="#AC2433"/>
<path d="M157.495 154.029L158.141 162.416C161.368 236.102 171.694 301.775 184.603 328.228H172.985C157.101 293.136 157.702 159.029 157.495 154.029Z" fill="#AC2433"/>
<path d="M76.0698 540.493C73.4882 534.047 39.3845 423.037 39.3845 365.255V365.023C39.4297 338.964 51.0214 325.228 63.1616 317.911C75.9666 310.195 86.3964 310.169 87.6873 310.169L83.1694 327.589C81.4332 327.821 51.073 325.589 51.002 365.048V365.261C51.002 388.359 63.4262 491.769 76.0698 540.499" fill="#AC2433"/>
<path d="M107.798 153.384L107.153 161.771C103.926 235.457 93.5993 301.13 80.691 327.583H92.3084C108.192 292.491 107.592 158.384 107.798 153.384Z" fill="#AC2433"/>
<path d="M94.3027 484.394C94.0252 484.549 93.6638 484.452 93.483 484.181C52.8543 422.321 65.6141 381.784 73.2429 357.538C74.4175 353.803 75.4438 350.545 76.1473 347.641C76.2376 347.28 76.6184 347.093 76.9669 347.235C77.2509 347.357 77.4123 347.661 77.3413 347.957C76.5926 351.106 75.7019 354.7 74.4692 358.629C70.616 370.881 69.9061 386.862 70.8484 406.908C71.965 430.644 77.7543 457.084 94.8965 483.304C95.0901 483.6 95.0062 484.001 94.6964 484.168L94.3027 484.388V484.394Z" fill="#FFFCF3"/>
<path d="M194.839 374.229C198.982 407.03 187.836 464.103 186.216 472.097C186.113 472.62 186.448 473.123 186.965 473.233L188.23 473.497C188.753 473.607 189.269 473.271 189.372 472.749C191.005 464.658 202.242 407.114 198.034 373.81C197.969 373.275 197.472 372.907 196.943 372.978L195.658 373.152C195.136 373.223 194.768 373.7 194.832 374.229H194.839Z" fill="#FFFCF3"/>
<path d="M191.999 358.848C192.606 361.442 192.967 364.552 193.122 366.074C193.174 366.597 193.638 366.978 194.161 366.932L195.458 366.829C195.994 366.784 196.394 366.313 196.336 365.777C196.175 364.177 195.794 360.9 195.129 358.087C195.007 357.551 194.464 357.229 193.935 357.377L192.677 357.719C192.18 357.855 191.87 358.358 191.993 358.861L191.999 358.848Z" fill="#FFFCF3"/>
<path d="M156.204 316.615C156.204 316.615 138.133 303.066 107.798 316.615C107.798 316.615 132.324 230.805 118.77 129.512H147.169C147.169 129.512 131.679 285.001 156.204 316.615Z" fill="#AC2433"/>
<path d="M118.977 122.415L146.839 122.208C146.839 122.208 149.331 32.2636 131.575 32.2443C117.809 32.2314 118.977 122.408 118.977 122.408V122.415Z" fill="#AC2433"/>
<path d="M138.746 92.9171L140.469 125.925L136.513 125.892L138.746 92.9171Z" fill="#D2273D"/>
<path d="M128.671 92.4655L130.401 125.467L126.438 125.434L128.671 92.4655Z" fill="#D2273D"/>
<path d="M147.304 175.907C140.966 174.462 134.125 176.404 129.516 180.997L130.885 182.365C131.659 181.449 132.802 181.191 133.912 180.888C135.241 180.526 136.577 180.172 137.926 179.875C140.669 179.268 143.509 178.901 146.31 179.313C147.53 179.494 148.053 177.63 146.826 177.449C143.664 176.978 140.521 177.32 137.416 178.01C135.893 178.346 134.376 178.746 132.873 179.171C131.627 179.52 130.375 179.984 129.516 181.004C128.723 181.946 129.988 183.268 130.885 182.372C134.996 178.275 141.121 176.494 146.788 177.778C148.001 178.055 148.517 176.191 147.304 175.913V175.907Z" fill="#D2273D"/>
<path d="M116.208 251.064C115.427 248.935 116.557 246.858 117.731 245.116C119.009 243.219 120.442 241.386 121.946 239.664C124.805 236.393 128.29 233.547 132.64 232.631L131.892 230.864C130.343 232.025 128.607 232.896 127.083 234.089C125.663 235.199 124.424 236.502 123.321 237.928C121.075 240.819 119.422 244.09 117.815 247.354L119.622 247.845C119.584 247.393 119.545 246.935 119.513 246.483C119.409 245.251 117.473 245.238 117.576 246.483C117.615 246.935 117.654 247.393 117.686 247.845C117.757 248.716 119.029 249.271 119.493 248.335C121.029 245.225 122.591 242.083 124.695 239.309C125.702 237.98 126.864 236.748 128.161 235.702C129.639 234.509 131.362 233.67 132.879 232.535C133.738 231.889 133.26 230.528 132.13 230.767C127.283 231.786 123.333 235.051 120.203 238.741C118.596 240.632 117.002 242.625 115.685 244.735C114.369 246.845 113.484 249.219 114.356 251.587C114.782 252.748 116.653 252.245 116.221 251.071L116.208 251.064Z" fill="#D2273D"/>
<path d="M150.196 287.478C148.421 287.549 147.014 286.355 145.794 285.201C144.432 283.917 143.141 282.549 141.915 281.13C139.462 278.278 137.32 275.168 135.493 271.878C134.964 270.923 133.415 271.568 133.725 272.626C136.074 280.704 141.347 288.252 149.382 291.407C150.544 291.865 151.047 289.994 149.899 289.543C142.528 286.646 137.733 279.471 135.59 272.11L133.821 272.858C135.816 276.458 138.197 279.833 140.914 282.93C142.25 284.446 143.651 285.955 145.187 287.272C146.607 288.485 148.259 289.498 150.196 289.42C151.435 289.368 151.441 287.433 150.196 287.485V287.478Z" fill="#D2273D"/>
<path d="M100.053 50.7996C107.075 34.6378 123.443 20.3341 131.892 20.3793C146.045 20.4567 165.466 51.1028 165.885 52.0899L154.913 45.6381C154.888 45.5801 150.989 40.1412 147.02 34.541C143.503 29.5731 138.468 25.6697 132.324 25.6375C125.289 25.6052 116.834 30.128 110.38 44.9929L100.053 50.7996Z" fill="#AC2433"/>
<path d="M97.4718 504.362L102.635 497.911C114.84 548.641 125.844 559.1 132.692 558.99C146.781 558.758 159.18 514.821 162.658 497.911L164.595 506.943C164.562 507.098 162.258 514.363 156.785 529.841C149.24 551.183 141.153 562.074 132.744 562.216C120.9 562.416 107.818 547.364 97.4718 504.369V504.362Z" fill="#8C202E"/>
<path d="M167.822 504.362L162.658 497.911C150.454 548.641 139.449 559.1 132.602 558.99C118.512 558.758 105.468 519.982 101.99 503.072L99.408 506.298C99.4403 506.453 103.035 514.363 108.508 529.841C116.053 551.183 124.14 562.074 132.55 562.216C144.393 562.416 157.476 547.364 167.822 504.369V504.362Z" fill="#8C202E"/>
<path d="M162.658 499.524V497.911H102.635V499.524H162.658Z" fill="#8C202E"/>
<path d="M112.962 512.75C112.962 512.75 112.316 521.783 118.77 532.751" stroke="#FFFCF3" stroke-width="2" stroke-miterlimit="10" stroke-linecap="round"/>
<path d="M119.99 535.183C119.99 535.183 120.707 536.622 122.643 539.848" stroke="#FFFCF3" stroke-width="2" stroke-miterlimit="10" stroke-linecap="round"/>
</g>
<defs>
<clipPath id="clip0_141_2">
<rect width="699" height="264" fill="white" transform="matrix(0 1 -1 0 264 0.199951)"/>
</clipPath>
</defs>
</svg>
