<?xml version="1.0" encoding="UTF-8"?>
<svg id="Layer_2" data-name="Layer 2" xmlns="http://www.w3.org/2000/svg" viewBox="0 0 1043 558">
  <defs>
    <style>
      .cls-1 {
        fill: #d1283e;
      }

      .cls-2 {
        fill: #fefdf3;
      }

      .cls-3 {
        fill: #d6d6d7;
      }

      .cls-4 {
        fill: #000015;
      }

      .cls-5 {
        fill: #1c1b20;
      }
    </style>
  </defs>
  <g id="Layer_1-2" data-name="Layer 1">
    <g>
      <path class="cls-4" d="M1043,40v478c0,18.74-13.07,34.47-30.7,38.81V1.19c17.64,4.34,30.7,20.07,30.7,38.81Z"/>
      <path class="cls-5" d="M1012.3,1.19v555.62c-3.15.78-6.45,1.19-9.84,1.19H40.54c-22.39,0-40.54-17.91-40.54-40V40C0,17.91,18.15,0,40.54,0h961.91c3.4,0,6.69.41,9.84,1.19Z"/>
      <g>
        <path class="cls-1" d="M318.85,43.34H60.82c-11.18,0-20.27,8.97-20.27,20v74.66c0,11.03,9.09,20,20.27,20h258.03c11.18,0,20.27-8.97,20.27-20V63.34c0-11.03-9.09-20-20.27-20ZM328.99,138c0,5.52-4.54,10-10.14,10h-15.78V53.34h15.78c5.6,0,10.14,4.48,10.14,10v74.66Z"/>
        <path class="cls-3" d="M328.99,63.34v74.66c0,5.52-4.54,10-10.14,10h-15.78V53.34h15.78c5.6,0,10.14,4.48,10.14,10Z"/>
        <path class="cls-2" d="M303.07,53.34v94.66H60.82c-5.6,0-10.14-4.48-10.14-10V63.34c0-5.52,4.54-10,10.14-10h242.25Z"/>
        <path class="cls-1" d="M637.34,43.34h-258.02c-11.18,0-20.27,8.97-20.27,20v74.66c0,11.03,9.09,20,20.27,20h258.02c11.18,0,20.27-8.97,20.27-20V63.34c0-11.03-9.09-20-20.27-20ZM647.47,138c0,5.52-4.53,10-10.14,10h-19.04V53.34h19.04c5.61,0,10.14,4.48,10.14,10v74.66Z"/>
        <path class="cls-3" d="M647.47,63.34v74.66c0,5.52-4.53,10-10.14,10h-19.04V53.34h19.04c5.61,0,10.14,4.48,10.14,10Z"/>
        <path class="cls-2" d="M618.3,53.34v94.66h-238.99c-5.61,0-10.14-4.48-10.14-10V63.34c0-5.52,4.53-10,10.14-10h238.99Z"/>
        <path class="cls-1" d="M955.83,43.34h-258.03c-11.18,0-20.27,8.97-20.27,20v74.66c0,11.03,9.09,20,20.27,20h258.03c11.18,0,20.27-8.97,20.27-20V63.34c0-11.03-9.09-20-20.27-20ZM965.97,138c0,5.52-4.54,10-10.14,10h-17.23V53.34h17.23c5.6,0,10.14,4.48,10.14,10v74.66Z"/>
        <path class="cls-3" d="M965.97,63.34v74.66c0,5.52-4.54,10-10.14,10h-17.23V53.34h17.23c5.6,0,10.14,4.48,10.14,10Z"/>
        <path class="cls-2" d="M938.6,53.34v94.66h-240.8c-5.6,0-10.14-4.48-10.14-10V63.34c0-5.52,4.54-10,10.14-10h240.8Z"/>
      </g>
      <g>
        <path class="cls-1" d="M318.85,174.34H60.82c-11.18,0-20.27,8.97-20.27,20v299.66c0,11.03,9.09,20,20.27,20h258.03c11.18,0,20.27-8.97,20.27-20V194.34c0-11.03-9.09-20-20.27-20ZM328.99,494c0,5.52-4.54,10-10.14,10h-15.78V184.34h15.78c5.6,0,10.14,4.48,10.14,10v299.66Z"/>
        <path class="cls-3" d="M328.99,194.34v299.66c0,5.52-4.54,10-10.14,10h-15.78V184.34h15.78c5.6,0,10.14,4.48,10.14,10Z"/>
        <path class="cls-2" d="M303.07,184.34v319.66H60.82c-5.6,0-10.14-4.48-10.14-10V194.34c0-5.52,4.54-10,10.14-10h242.25Z"/>
        <path class="cls-1" d="M637.34,174.34h-258.02c-11.18,0-20.27,8.97-20.27,20v299.66c0,11.03,9.09,20,20.27,20h258.02c11.18,0,20.27-8.97,20.27-20V194.34c0-11.03-9.09-20-20.27-20ZM647.47,494c0,5.52-4.53,10-10.14,10h-19.04V184.34h19.04c5.61,0,10.14,4.48,10.14,10v299.66Z"/>
        <path class="cls-3" d="M647.47,194.34v299.66c0,5.52-4.53,10-10.14,10h-19.04V184.34h19.04c5.61,0,10.14,4.48,10.14,10Z"/>
        <path class="cls-2" d="M618.3,184.34v319.66h-238.99c-5.61,0-10.14-4.48-10.14-10V194.34c0-5.52,4.53-10,10.14-10h238.99Z"/>
        <path class="cls-1" d="M955.83,174.34h-258.03c-11.18,0-20.27,8.97-20.27,20v299.66c0,11.03,9.09,20,20.27,20h258.03c11.18,0,20.27-8.97,20.27-20V194.34c0-11.03-9.09-20-20.27-20ZM965.97,494c0,5.52-4.54,10-10.14,10h-17.23V184.34h17.23c5.6,0,10.14,4.48,10.14,10v299.66Z"/>
        <path class="cls-3" d="M965.97,194.34v299.66c0,5.52-4.54,10-10.14,10h-17.23V184.34h17.23c5.6,0,10.14,4.48,10.14,10Z"/>
        <path class="cls-2" d="M938.6,184.34v319.66h-240.8c-5.6,0-10.14-4.48-10.14-10V194.34c0-5.52,4.54-10,10.14-10h240.8Z"/>
      </g>
    </g>
  </g>
</svg>