<svg width="419" height="438" viewBox="0 0 419 438" fill="none" xmlns="http://www.w3.org/2000/svg">
<g filter="url(#filter0_d_1027_541)">
<path d="M206.311 18L228.337 148.209L322.692 55.8146L263.977 174.103L394.62 154.815L277.591 216L394.62 277.185L263.977 257.897L322.692 376.185L228.337 283.791L206.311 414L184.284 283.791L89.9291 376.185L148.644 257.897L18.0014 277.185L135.031 216L18.0014 154.815L148.644 174.103L89.9291 55.8146L184.284 148.209L206.311 18Z" fill="url(#paint0_radial_1027_541)"/>
<path d="M206.311 13C208.75 13 210.833 14.7606 211.24 17.166L231.672 137.944L319.193 52.2422C320.936 50.5354 323.657 50.3356 325.631 51.7695C327.605 53.2035 328.256 55.8529 327.171 58.0381L272.708 167.759L393.89 149.868C396.303 149.512 398.621 150.949 399.375 153.27C400.129 155.59 399.098 158.115 396.937 159.245L288.381 216L396.937 272.755C399.098 273.885 400.129 276.41 399.375 278.73C398.621 281.051 396.303 282.488 393.89 282.132L272.708 264.24L327.171 373.962C328.256 376.147 327.605 378.797 325.631 380.23C323.657 381.664 320.936 381.465 319.193 379.758L231.672 294.055L211.24 414.834C210.833 417.239 208.75 419 206.311 419C203.871 419 201.788 417.239 201.381 414.834L180.948 294.055L93.4277 379.758C91.6847 381.465 88.9639 381.664 86.9902 380.23C85.0166 378.797 84.3655 376.147 85.4502 373.962L139.912 264.24L18.7314 282.132C16.3181 282.488 14 281.051 13.2461 278.73C12.4923 276.41 13.5228 273.885 15.6846 272.755L124.239 216L15.6846 159.245C13.5228 158.115 12.4923 155.59 13.2461 153.27C14 150.949 16.3181 149.512 18.7314 149.868L139.912 167.759L85.4502 58.0381C84.3655 55.8529 85.0166 53.2035 86.9902 51.7695C88.9639 50.3356 91.6847 50.5354 93.4277 52.2422L180.948 137.944L201.381 17.166L201.424 16.9424C201.918 14.6523 203.947 13 206.311 13Z" stroke="white" stroke-width="10" stroke-linejoin="round"/>
</g>
<defs>
<filter id="filter0_d_1027_541" x="0" y="0" width="418.621" height="438" filterUnits="userSpaceOnUse" color-interpolation-filters="sRGB">
<feFlood flood-opacity="0" result="BackgroundImageFix"/>
<feColorMatrix in="SourceAlpha" type="matrix" values="0 0 0 0 0 0 0 0 0 0 0 0 0 0 0 0 0 0 127 0" result="hardAlpha"/>
<feOffset dx="3" dy="3"/>
<feGaussianBlur stdDeviation="5.5"/>
<feComposite in2="hardAlpha" operator="out"/>
<feColorMatrix type="matrix" values="0 0 0 0 0 0 0 0 0 0 0 0 0 0 0 0 0 0 0.25 0"/>
<feBlend mode="normal" in2="BackgroundImageFix" result="effect1_dropShadow_1027_541"/>
<feBlend mode="normal" in="SourceGraphic" in2="effect1_dropShadow_1027_541" result="shape"/>
</filter>
<radialGradient id="paint0_radial_1027_541" cx="0" cy="0" r="1" gradientUnits="userSpaceOnUse" gradientTransform="translate(206.311 216) rotate(90) scale(198)">
<stop stop-color="#D2273D"/>
<stop offset="1" stop-color="#A41023"/>
</radialGradient>
</defs>
</svg>
