<svg width="457" height="447" viewBox="0 0 457 447" fill="none" xmlns="http://www.w3.org/2000/svg">
<g filter="url(#filter0_d_1027_542)">
<path d="M403.164 112.076L298.38 203.143L432.959 237.22L294.66 249.304L383.506 355.977L264.517 284.463L273.694 422.986L219.465 295.189L145.468 412.651L176.712 277.386L47.805 328.921L152.589 237.854L18.0098 203.776L156.31 191.692L67.463 85.0194L186.453 156.534L177.275 18.0108L231.505 145.807L305.501 28.3456L274.257 163.611L403.164 112.076Z" fill="url(#paint0_radial_1027_542)"/>
<path d="M407.435 109.471C408.706 111.554 408.288 114.251 406.446 115.852L308.885 200.641L434.188 232.371C436.554 232.97 438.142 235.189 437.946 237.622C437.75 240.055 435.826 241.992 433.395 242.204L304.627 253.454L387.351 352.776C388.913 354.651 388.893 357.38 387.304 359.233C385.716 361.086 383.021 361.523 380.929 360.265L270.141 293.679L278.686 422.655C278.848 425.091 277.227 427.287 274.853 427.853C272.478 428.418 270.042 427.187 269.089 424.941L218.597 305.952L149.701 415.318C148.4 417.383 145.798 418.208 143.545 417.269C141.291 416.331 140.045 413.904 140.594 411.526L169.684 285.583L49.6622 333.566C47.3959 334.472 44.8065 333.61 43.535 331.527C42.2635 329.443 42.681 326.746 44.5234 325.144L142.085 240.354L16.7822 208.626C14.416 208.027 12.8274 205.808 13.0235 203.375C13.2196 200.942 15.143 199.005 17.5747 198.792L146.341 187.541L63.6186 88.2209C62.0567 86.3454 62.0763 83.6163 63.6648 81.7633C65.2536 79.9103 67.948 79.4738 70.0401 80.7312L180.828 147.316L172.283 18.3414C172.122 15.9059 173.742 13.7093 176.117 13.1439C178.491 12.5788 180.927 13.8095 181.88 16.0562L232.372 135.045L301.268 25.6791C302.569 23.6138 305.171 22.7891 307.425 23.7274C309.678 24.6658 310.925 27.0936 310.376 29.4718L281.285 155.412L401.307 107.431L401.52 107.351C403.734 106.58 406.203 107.452 407.435 109.471Z" stroke="white" stroke-width="10" stroke-linejoin="round"/>
</g>
<defs>
<filter id="filter0_d_1027_542" x="0" y="0" width="456.972" height="447" filterUnits="userSpaceOnUse" color-interpolation-filters="sRGB">
<feFlood flood-opacity="0" result="BackgroundImageFix"/>
<feColorMatrix in="SourceAlpha" type="matrix" values="0 0 0 0 0 0 0 0 0 0 0 0 0 0 0 0 0 0 127 0" result="hardAlpha"/>
<feOffset dx="3" dy="3"/>
<feGaussianBlur stdDeviation="5.5"/>
<feComposite in2="hardAlpha" operator="out"/>
<feColorMatrix type="matrix" values="0 0 0 0 0 0 0 0 0 0 0 0 0 0 0 0 0 0 0.25 0"/>
<feBlend mode="normal" in2="BackgroundImageFix" result="effect1_dropShadow_1027_542"/>
<feBlend mode="normal" in="SourceGraphic" in2="effect1_dropShadow_1027_542" result="shape"/>
</filter>
<radialGradient id="paint0_radial_1027_542" cx="0" cy="0" r="1" gradientUnits="userSpaceOnUse" gradientTransform="translate(225.485 220.498) rotate(142.838) scale(343.126)">
<stop stop-color="#00AEB9"/>
<stop offset="1" stop-color="#007A82"/>
</radialGradient>
</defs>
</svg>
