<?xml version="1.0" encoding="UTF-8"?>
<svg xmlns="http://www.w3.org/2000/svg" xmlns:xlink="http://www.w3.org/1999/xlink" viewBox="0 0 3339.01 1264.6">
  <defs>
    <style>
      .cls-1 {
        clip-path: url(#clippath-6);
      }

      .cls-2 {
        fill: #6161c8;
      }

      .cls-3 {
        fill: #838383;
      }

      .cls-4 {
        clip-path: url(#clippath-4);
      }

      .cls-5 {
        fill: #fff;
        stroke: #fff;
      }

      .cls-5, .cls-6 {
        stroke-miterlimit: 10;
      }

      .cls-7 {
        fill: #535353;
      }

      .cls-8 {
        fill: none;
      }

      .cls-6 {
        stroke: #000;
      }

      .cls-9 {
        fill: #ffc602;
      }

      .cls-10 {
        clip-path: url(#clippath-1);
      }

      .cls-11 {
        fill: #b88f02;
      }

      .cls-12 {
        fill: #414186;
      }

      .cls-13 {
        clip-path: url(#clippath-5);
      }

      .cls-14 {
        fill: #3a3a3a;
      }

      .cls-15 {
        clip-path: url(#clippath-3);
      }

      .cls-16 {
        fill: #ffe17b;
      }

      .cls-17 {
        clip-path: url(#clippath-2);
      }

      .cls-18 {
        fill: #2a2a57;
      }

      .cls-19 {
        fill: #efdadd;
      }

      .cls-20 {
        clip-path: url(#clippath);
      }
    </style>
    <clipPath id="clippath">
      <circle class="cls-8" cx="879.22" cy="883.39" r="47.65"/>
    </clipPath>
    <clipPath id="clippath-1">
      <circle class="cls-8" cx="879.22" cy="883.39" r="47.65"/>
    </clipPath>
    <clipPath id="clippath-2">
      <path class="cls-8" d="M550.75,915.04s-103.63,16.13-134.72,35.88c-31.09,19.76-11,34.81-8.81,37.81,4.86,6.33,50.34,37.06,151.09,52.5,100.75,15.44,146.2,40.19,146.2,40.19,0,0,442.53,16.58,463.31,17.92,20.78,1.34,43.97-.54,47.82-1.69s115.82-44.12,136.96-39.94c0,0,18.82,1.72,37.24-5.07,18.42-6.78,12.18-34.12,11-40.64-1.12-6.21-2.92-29.3,29.17-37.42,3.35-.85,5.75-3.8,5.95-7.25.51-8.62.77-29.31-1.05-79-.04-1.14-.21-2.27-.52-3.37-1.17-4.1-4.67-13.57-12.19-13.98-9.28-.51-64.36,4.28-87.47-25.36-1.63-2.09-4.13-3.3-6.78-3.36-14.04-.31-56.89-.15-69.71,12.48,0,0-6.71,5.09-4.21,50.28.05.98.28,1.94.68,2.83,1.1,2.42,4.04,7.11,11.73,12.65,11.3,8.15-45.83,8.49-45.83,8.49,0,0-23.97-2.39-101.39-61.51-77.42-59.12-125.87-46.52-125.87-46.52,0,0,.39-15.74-9.32-15.65,0,0-42.6,1.46-45.05,1.87-2.45.41-9.35,2.53-8.96,20.75.38,18.21,3.07,74.7,2.13,74.91-.94.21-84.4,11.65-134.47,10.31-50.06-1.34-147.04-9.29-246.97,1.88Z"/>
    </clipPath>
    <clipPath id="clippath-3">
      <path class="cls-8" d="M550.75,915.04s-103.63,16.13-134.72,35.88c-31.09,19.76-11,34.81-8.81,37.81,4.86,6.33,50.34,37.06,151.09,52.5,100.75,15.44,146.2,40.19,146.2,40.19,0,0,442.53,16.58,463.31,17.92,20.78,1.34,43.97-.54,47.82-1.69s115.82-44.12,136.96-39.94c0,0,18.82,1.72,37.24-5.07,18.42-6.78,12.18-34.12,11-40.64-1.12-6.21-2.92-29.3,29.17-37.42,3.35-.85,5.75-3.8,5.95-7.25.51-8.62.77-29.31-1.05-79-.04-1.14-.21-2.27-.52-3.37-1.17-4.1-4.67-13.57-12.19-13.98-9.28-.51-64.36,4.28-87.47-25.36-1.63-2.09-4.13-3.3-6.78-3.36-14.04-.31-56.89-.15-69.71,12.48,0,0-6.71,5.09-4.21,50.28.05.98.28,1.94.68,2.83,1.1,2.42,4.04,7.11,11.73,12.65,11.3,8.15-45.83,8.49-45.83,8.49,0,0-23.97-2.39-101.39-61.51-77.42-59.12-125.87-46.52-125.87-46.52,0,0,.39-15.74-9.32-15.65,0,0-42.6,1.46-45.05,1.87-2.45.41-9.35,2.53-8.96,20.75.38,18.21,3.07,74.7,2.13,74.91-.94.21-84.4,11.65-134.47,10.31-50.06-1.34-147.04-9.29-246.97,1.88Z"/>
    </clipPath>
    <clipPath id="clippath-4">
      <path class="cls-8" d="M438.2,978.46s-36.99,2.05-26.42,48.93c0,0,4.08,14.44,52.69,21.45,0,0,64.45,12.82,73.77-4.66,9.32-17.48,7.27-47.22,3.38-51.39-7.27-7.78-45.11-19.9-103.42-14.33Z"/>
    </clipPath>
    <clipPath id="clippath-5">
      <circle class="cls-8" cx="652.21" cy="1007.96" r="47.32"/>
    </clipPath>
    <clipPath id="clippath-6">
      <circle class="cls-8" cx="1267.72" cy="1007.96" r="45.03"/>
    </clipPath>
  </defs>
  <g id="helmet">
    <circle class="cls-9" cx="879.22" cy="883.39" r="47.65"/>
  </g>
  <g id="Layer_18" data-name="Layer 18">
    <g class="cls-20">
      <path class="cls-11" d="M829.58,895.58s13.32,12.88,76.64,12.63l-78.99,18.78,2.35-31.4Z"/>
    </g>
  </g>
  <g id="helmet_visor" data-name="helmet visor">
    <g class="cls-10">
      <path class="cls-19" d="M825.48,865.97s29.62-.42,36.43.78c6.39,1.12,6.91,3.97,6.91,3.97,0,0,1.73,8.12-3.97,16.92s-11.57,12.95-30.73,17.18-26.42-21.24-26.42-21.24l17.78-17.61Z"/>
    </g>
  </g>
  <g id="helmet_shine" data-name="helmet shine">
    <path class="cls-16" d="M894.36,848.74l2.96-3.55c.64-.76,1.73-.95,2.58-.43,3.77,2.32,13.59,9.16,16.93,19.32.35,1.06-.27,2.2-1.34,2.52l-4.42,1.33c-.98.3-2.02-.2-2.42-1.14-1.29-3.05-4.94-9.66-13.78-15.06-1.05-.64-1.29-2.05-.51-2.99Z"/>
  </g>
  <g id="body">
    <path class="cls-2" d="M1434.41,884.97c-1.17-4.1-4.67-13.57-12.19-13.98-9.28-.51-64.36,4.28-87.47-25.36-1.63-2.09-4.13-3.3-6.78-3.36-14.04-.31-56.89-.15-69.71,12.48,0,0-6.71,5.09-4.21,50.28.05.98.28,1.94.68,2.83,1.1,2.42,4.04,7.11,11.73,12.65,11.3,8.15-45.83,8.49-45.83,8.49,0,0-23.97-2.39-101.39-61.51-77.42-59.12-125.87-46.52-125.87-46.52,0,0,.39-15.74-9.32-15.65,0,0-42.6,1.46-45.05,1.87-2.45.41-9.35,2.53-8.96,20.75s3.07,74.7,2.13,74.91c-.94.21-84.4,11.65-134.47,10.31-50.06-1.34-147.04-9.29-246.97,1.88,0,0-103.63,16.13-134.72,35.88s-11,34.81-8.81,37.81c4.86,6.33,50.34,37.06,151.09,52.5,100.75,15.44,146.2,40.19,146.2,40.19,0,0,442.53,16.58,463.31,17.92,20.78,1.34,43.97-.54,47.82-1.69,3.85-1.15,115.82-44.12,136.96-39.94,0,0,18.82,1.72,37.24-5.07,18.42-6.78,12.18-34.12,11-40.64-1.12-6.21-2.92-29.3,29.17-37.42,3.35-.85,5.75-3.8,5.95-7.25.51-8.62.77-29.31-1.05-79-.04-1.14-.21-2.27-.52-3.37Z"/>
  </g>
  <g id="shadows">
    <g class="cls-17">
      <g>
        <path class="cls-12" d="M734.25,961.54l432.28,16.58-421.75-1.19,3.24,14.5,291.95,18.79-279.47-5.18s126.92,51,331.79,69.52c159.48,14.42,154.87,11.66,154.87,11.66l-127.8,64.96s-432.65-37.47-433.68-37.47,48.58-152.17,48.58-152.17Z"/>
        <path class="cls-12" d="M918.15,884.96s66.69,9.67,90.78,20.03c6.89,2.96-21.5-1.21-40.49,3.02s-72.52,8.81-95.05,10.01-41.35,4.58-56.29-8.12,101.05-24.95,101.05-24.95Z"/>
        <path class="cls-12" d="M1357.36,971.12s29.14,25.12,6.17,104.76l-20.94-6.47,14.76-98.28Z"/>
      </g>
    </g>
  </g>
  <g id="dark_shadows" data-name="dark shadows">
    <g class="cls-15">
      <path class="cls-18" d="M724.04,1046.19s79.42,29.35,155.4,36.26,245.18,16.92,273.5,15.54-21.06,98.42-21.06,98.42l-544.23-66.65,87.71-100.49,48.69,16.92Z"/>
    </g>
  </g>
  <g id="Layer_9" data-name="Layer 9">
    <path class="cls-18" d="M509.06,1021.38l-9.71-4.73c-5.93-2.89-14.92-12.05-12.03-17.98l21.13-30.71c3.95-5.96,7.71-8.65,15.3-6.93l14.07,4.51c5.93,2.89,7.2,9.47,4.31,15.4l-25.67,30.89c-2.89,5.93-1.47,12.44-7.4,9.55Z"/>
  </g>
  <g id="Layer_8" data-name="Layer 8">
    <path class="cls-12" d="M438.2,978.46s-36.99,2.05-26.42,48.93c0,0,4.08,14.44,52.69,21.45,0,0,64.45,12.82,73.77-4.66,9.32-17.48,7.27-47.22,3.38-51.39-7.27-7.78-45.11-19.9-103.42-14.33Z"/>
  </g>
  <g id="Layer_10" data-name="Layer 10">
    <g class="cls-4">
      <path class="cls-18" d="M406.77,1004.53c.69.69,21.24,19.17,63.71,24.35s54.73,9.84,78.39,1.73c23.65-8.12-9.5,45.58-9.5,45.58l-146.24-18.65,13.64-53.01Z"/>
    </g>
  </g>
  <g id="tire_base" data-name="tire base">
    <circle class="cls-14" cx="1267.72" cy="1007.96" r="99.19"/>
    <circle class="cls-14" cx="652.21" cy="1007.96" r="99.19"/>
  </g>
  <g id="tire_center" data-name="tire center">
    <circle class="cls-3" cx="652.21" cy="1007.96" r="47.32"/>
    <circle class="cls-3" cx="1267.72" cy="1007.96" r="45.03"/>
  </g>
  <g id="tire_shadow" data-name="tire shadow">
    <g class="cls-13">
      <path class="cls-7" d="M606.71,994.65s14.24,57.15,78.73,47.41l-33.15,40.82-90.13-50.83,44.55-37.4Z"/>
    </g>
    <g class="cls-1">
      <path class="cls-7" d="M1220.83,990.76s17.57,64.44,81.45,51.41l-35.44,41.75-92.68-45.08,46.67-48.08Z"/>
    </g>
  </g>
  <g id="cutting_flag" data-name="cutting flag">
    <path d="M2422.82,415.01c-94.87-16.3-190.4-24.3-287.4-13.05-74.06,8.59-146.97,28.64-214.48,59.68v284.3c14.8-5.3,29.02-13.35,43.72-18.94,156.36-59.44,307.66-54.12,458.16-27.98v-284.01Z"/>
  </g>
  <g id="flag_pole" data-name="flag pole">
    <path d="M716.43,910.93l25.69.67-406.03-380.54s-7.3-3.01-11.34.87-1.06,11.26-1.06,11.26l392.75,367.74Z"/>
  </g>
  <g id="new_flag" data-name="new flag">
    <path class="cls-6" d="M1921.3,745.33c-122.8,56.52-254.39,73.29-388.33,61.51-111.27-9.79-220.26-35.98-328.69-61.74-105.53-25.07-214.01-55.08-322.91-59.34-110.08-4.31-198.86,35.52-271.03,118.69-73.2-86.75-175.97-145.01-240.52-239.12,90.98-113.23,242.35-151.44,381.34-161.63,104.72-7.68,206.58,3.84,308.93,25.2,170.82,35.64,339.64,89.18,515,97.5,119.73,5.68,237.12-13.89,346.22-64.37,0,94.43,0,188.87,0,283.3Z"/>
  </g>
  <g id="new_text" data-name="new text">
    <g>
      <path class="cls-8" d="M3339.01,674.22c-126.55,58.53-266.95,73.56-405.22,59.79-333.35-33.19-646.8-205.4-984.47-77.03-14.7,5.59-27.78,19.11-42.58,24.42l-.25.1c-122.8,56.52-256.16,65.11-390.1,53.33-106.22-9.35-206.31-32.66-328.69-61.74-105.53-25.07-214.01-55.08-322.91-59.34-110.08-4.31-210.88,29.15-285.98,111.25"/>
      <path class="cls-5" d="M673.79,560.81c7.91,12.98,3.71,30.3-9.45,38.31l-6.66,4.06,52.74,17.75,3.54,5.81-24.59,14.99-61.23-20.54-39.79,24.25-.51.31,25.7,42.19-22.54,13.74-74.82-122.8,99.06-60.36c13.15-8.01,30.47-3.81,38.38,9.17l20.19,33.13ZM650.61,576.58c.68-.42.88-1.24.47-1.92l-20.19-33.13c-.42-.68-1.24-.88-1.92-.47l-75.32,45.89c-.68.42-.88,1.24-.47,1.92l20.19,33.13c.42.68,1.24.88,1.92.47l75.32-45.89Z"/>
      <path class="cls-5" d="M843.61,491.55l-104.95,13.41,4.11,32.14,84.52-10.8,3.35,26.19-84.52,10.8,4.11,32.14,104.95-13.41,3.35,26.19-131.34,16.78-18.25-142.84,131.34-16.78,3.35,26.19Z"/>
      <path class="cls-5" d="M1031.59,527.12l-26.35-3.66,1.54-11.09c.11-.79-.4-1.47-1.19-1.58l-87.36-12.13c-.79-.11-1.47.4-1.58,1.19l-12.16,87.56c-.11.79.4,1.47,1.19,1.58l87.36,12.13c.79.11,1.47-.4,1.58-1.19l3.74-26.94-32.29-4.48,3.63-26.15,58.64,8.14-7.37,53.09c-2.12,15.25-16.3,25.8-31.56,23.69l-87.36-12.13c-15.25-2.12-25.83-16.11-23.71-31.36l12.16-87.56c2.12-15.25,16.11-25.83,31.36-23.71l87.36,12.13c15.25,2.12,26.03,16.13,23.91,31.39l-1.54,11.09Z"/>
      <path class="cls-5" d="M1070.61,497.52l25.79,5.65-30.82,140.67-25.79-5.65,30.82-140.67Z"/>
      <path class="cls-5" d="M1249.4,579.84l-25.85-6.26,2.59-10.69c.19-.78-.25-1.5-.84-1.64l-85.92-20.8c-.78-.19-1.5.25-1.69,1.03l-6.96,28.77c-.19.78.25,1.5,1.03,1.69l85.92,20.8c14.77,3.58,24.1,18.59,20.48,33.56l-6.96,28.77c-3.62,14.97-18.79,24.05-33.56,20.48l-85.92-20.8c-14.97-3.62-24.1-18.59-20.48-33.56l2.59-10.69,25.66,6.21-2.59,10.69c-.19.78.25,1.5,1.03,1.69l85.92,20.8c.58.14,1.31-.3,1.5-1.08l6.96-28.77c.19-.78-.25-1.5-.84-1.64l-85.92-20.8c-14.97-3.62-24.1-18.59-20.48-33.56l6.96-28.77c3.62-14.97,18.59-24.1,33.56-20.48l85.92,20.8c14.77,3.58,24.1,18.59,20.48,33.56l-2.59,10.69Z"/>
      <path class="cls-5" d="M1413.26,576.36l-5.59,25.8-57.27-12.41-24.91,114.93-26-5.63,24.91-114.93-57.47-12.45,5.59-25.8,140.74,30.5Z"/>
      <path class="cls-5" d="M1561.46,662.93c-1.78,15.1-15.76,26.14-31.06,24.34l-7.75-.91,30.57,46.49-.79,6.75-28.6-3.37-35.54-53.92-46.28-5.45-.6-.07-5.78,49.06-26.22-3.09,16.81-142.81,115.2,13.56c15.29,1.8,26.34,15.79,24.56,30.88l-4.54,38.53ZM1533.49,661.05c.79.09,1.46-.43,1.55-1.23l4.54-38.53c.09-.79-.43-1.46-1.23-1.55l-87.59-10.31c-.79-.09-1.46.43-1.55,1.23l-4.54,38.53c-.09.79.43,1.46,1.23,1.55l87.59,10.31Z"/>
      <path class="cls-5" d="M1701.26,591.91c15.38-.84,28.64,10.85,29.48,26.22l6.38,116.02-26.56,1.46-2.65-48.33-90.86,4.99,2.65,48.33-26.36,1.45-6.37-116.02c-.85-15.38,10.86-28.44,26.23-29.28l88.06-4.84ZM1706.46,660.93l-2.27-41.34c-.04-.8-.68-1.37-1.47-1.32l-88.06,4.84c-.8.04-1.37.68-1.32,1.47l2.27,41.34,90.86-4.99Z"/>
      <path class="cls-5" d="M1870.7,542.6l8.37,25.04-55.58,18.57,37.26,111.54-25.23,8.43-37.26-111.54-55.77,18.63-8.37-25.04,136.58-45.63Z"/>
      <path class="cls-5" d="M1887.81,528.86l24.68-9.37,51.09,134.63-24.68,9.37-51.09-134.63Z"/>
      <path class="cls-5" d="M2063.64,476.75c14.86-3.22,29.79,6.24,33.05,21.29l18.71,86.4c3.26,15.05-6.43,29.84-21.29,33.05l-86.4,18.71c-15.05,3.26-29.79-6.23-33.05-21.29l-18.71-86.4c-3.26-15.05,6.24-29.79,21.29-33.05l86.39-18.71ZM2088.53,591.68c.59-.13,1.05-.84.88-1.62l-18.71-86.4c-.17-.78-.88-1.24-1.47-1.11l-86.4,18.71c-.78.17-1.24.88-1.07,1.66l18.71,86.4c.17.78.88,1.24,1.67,1.07l86.39-18.71Z"/>
      <path class="cls-5" d="M2257.7,466.03l26.6-.03.14,144-28.8.03-88.9-105.51.1,105.6-26.4.03-.14-144,28.8-.03,88.7,105.51-.11-105.6Z"/>
    </g>
    <rect class="cls-8" x="1786" y="1020.8" width="31.08" height="0"/>
  </g>
</svg>