<?xml version="1.0" encoding="UTF-8"?><svg id="Layer_1" xmlns="http://www.w3.org/2000/svg" xmlns:xlink="http://www.w3.org/1999/xlink" viewBox="0 0 2436 1125"><defs><clipPath id="clippath"><circle cx="975.26" cy="901.24" r="47.65" fill="none"/></clipPath><clipPath id="clippath-1"><circle cx="975.26" cy="901.24" r="47.65" fill="none"/></clipPath><clipPath id="clippath-2"><path d="M646.78,932.89s-103.63,16.13-134.72,35.88c-31.09,19.76-11,34.81-8.81,37.81,4.86,6.33,50.34,37.06,151.09,52.5s146.2,40.19,146.2,40.19c0,0,442.53,16.58,463.31,17.92,20.78,1.34,43.97-.54,47.82-1.69s115.82-44.12,136.96-39.94c0,0,18.82,1.72,37.24-5.07,18.42-6.78,12.18-34.12,11-40.64-1.12-6.21-2.92-29.3,29.17-37.42,3.35-.85,5.75-3.8,5.95-7.25.51-8.62.77-29.31-1.05-79-.04-1.14-.21-2.27-.52-3.37-1.17-4.1-4.67-13.57-12.19-13.98-9.28-.51-64.36,4.28-87.47-25.36-1.63-2.09-4.13-3.3-6.78-3.36-14.04-.31-56.89-.15-69.71,12.48,0,0-6.71,5.09-4.21,50.28.05.98.28,1.94.68,2.83,1.1,2.42,4.04,7.11,11.73,12.65,11.3,8.15-45.83,8.49-45.83,8.49,0,0-23.97-2.39-101.39-61.51s-125.87-46.52-125.87-46.52c0,0,.39-15.74-9.32-15.65,0,0-42.6,1.46-45.05,1.87s-9.35,2.53-8.96,20.75c.38,18.21,3.07,74.7,2.13,74.91s-84.4,11.65-134.47,10.31c-50.06-1.34-147.04-9.29-246.97,1.88h.04,0Z" fill="none"/></clipPath><clipPath id="clippath-3"><path d="M646.78,932.89s-103.63,16.13-134.72,35.88c-31.09,19.76-11,34.81-8.81,37.81,4.86,6.33,50.34,37.06,151.09,52.5s146.2,40.19,146.2,40.19c0,0,442.53,16.58,463.31,17.92,20.78,1.34,43.97-.54,47.82-1.69s115.82-44.12,136.96-39.94c0,0,18.82,1.72,37.24-5.07,18.42-6.78,12.18-34.12,11-40.64-1.12-6.21-2.92-29.3,29.17-37.42,3.35-.85,5.75-3.8,5.95-7.25.51-8.62.77-29.31-1.05-79-.04-1.14-.21-2.27-.52-3.37-1.17-4.1-4.67-13.57-12.19-13.98-9.28-.51-64.36,4.28-87.47-25.36-1.63-2.09-4.13-3.3-6.78-3.36-14.04-.31-56.89-.15-69.71,12.48,0,0-6.71,5.09-4.21,50.28.05.98.28,1.94.68,2.83,1.1,2.42,4.04,7.11,11.73,12.65,11.3,8.15-45.83,8.49-45.83,8.49,0,0-23.97-2.39-101.39-61.51s-125.87-46.52-125.87-46.52c0,0,.39-15.74-9.32-15.65,0,0-42.6,1.46-45.05,1.87s-9.35,2.53-8.96,20.75c.38,18.21,3.07,74.7,2.13,74.91s-84.4,11.65-134.47,10.31c-50.06-1.34-147.04-9.29-246.97,1.88h.04,0Z" fill="none"/></clipPath><clipPath id="clippath-4"><path d="M534.23,996.31s-36.99,2.05-26.42,48.93c0,0,4.08,14.44,52.69,21.45,0,0,64.45,12.82,73.77-4.66s7.27-47.22,3.38-51.39c-7.27-7.78-45.11-19.9-103.42-14.33Z" fill="none"/></clipPath><clipPath id="clippath-5"><circle cx="748.24" cy="1025.81" r="47.32" fill="none"/></clipPath><clipPath id="clippath-6"><circle cx="1363.75" cy="1025.81" r="45.03" fill="none"/></clipPath></defs><g id="helmet"><circle cx="975.26" cy="901.24" r="47.65" fill="#ffc602"/></g><g id="Layer_18"><g clip-path="url(#clippath)"><path d="M925.61,913.42s13.32,12.88,76.64,12.63l-78.99,18.78,2.35-31.4h0Z" fill="#b88f02"/></g></g><g id="helmet_visor"><g clip-path="url(#clippath-1)"><path d="M921.51,883.81s29.62-.42,36.43.78c6.39,1.12,6.91,3.97,6.91,3.97,0,0,1.73,8.12-3.97,16.92s-11.57,12.95-30.73,17.18-26.42-21.24-26.42-21.24l17.78-17.61h0Z" fill="#efdadd"/></g></g><g id="helmet_shine"><path d="M990.39,866.59l2.96-3.55c.64-.76,1.73-.95,2.58-.43,3.77,2.32,13.59,9.16,16.93,19.32.35,1.06-.27,2.2-1.34,2.52l-4.42,1.33c-.98.3-2.02-.2-2.42-1.14-1.29-3.05-4.94-9.66-13.78-15.06-1.05-.64-1.29-2.05-.51-2.99h0Z" fill="#ffe17b"/></g><g id="body"><path d="M1530.44,902.82c-1.17-4.1-4.67-13.57-12.19-13.98-9.28-.51-64.36,4.28-87.47-25.36-1.63-2.09-4.13-3.3-6.78-3.36-14.04-.31-56.89-.15-69.71,12.48,0,0-6.71,5.09-4.21,50.28.05.98.28,1.94.68,2.83,1.1,2.42,4.04,7.11,11.73,12.65,11.3,8.15-45.83,8.49-45.83,8.49,0,0-23.97-2.39-101.39-61.51s-125.87-46.52-125.87-46.52c0,0,.39-15.74-9.32-15.65,0,0-42.6,1.46-45.05,1.87s-9.35,2.53-8.96,20.75,3.07,74.7,2.13,74.91-84.4,11.65-134.47,10.31c-50.06-1.34-147.04-9.29-246.97,1.88,0,0-103.63,16.13-134.72,35.88s-11,34.81-8.81,37.81c4.86,6.33,50.34,37.06,151.09,52.5s146.2,40.19,146.2,40.19c0,0,442.53,16.58,463.31,17.92,20.78,1.34,43.97-.54,47.82-1.69s115.82-44.12,136.96-39.94c0,0,18.82,1.72,37.24-5.07,18.42-6.78,12.18-34.12,11-40.64-1.12-6.21-2.92-29.3,29.17-37.42,3.35-.85,5.75-3.8,5.95-7.25.51-8.62.77-29.31-1.05-79-.04-1.14-.21-2.27-.52-3.37h.04,0Z" fill="#6161c8"/></g><g id="shadows"><g clip-path="url(#clippath-2)"><path d="M830.28,979.39l432.28,16.58-421.75-1.19,3.24,14.5,291.95,18.79-279.47-5.18s126.92,51,331.79,69.52c159.48,14.42,154.87,11.66,154.87,11.66l-127.8,64.96s-432.65-37.47-433.68-37.47,48.58-152.17,48.58-152.17h-.01Z" fill="#414186"/><path d="M1014.18,902.81s66.69,9.67,90.78,20.03c6.89,2.96-21.5-1.21-40.49,3.02s-72.52,8.81-95.05,10.01-41.35,4.58-56.29-8.12,101.05-24.95,101.05-24.95h0Z" fill="#414186"/><path d="M1453.39,988.97s29.14,25.12,6.17,104.76l-20.94-6.47,14.76-98.28h.01,0Z" fill="#414186"/></g></g><g id="dark_shadows"><g clip-path="url(#clippath-3)"><path d="M820.07,1064.04s79.42,29.35,155.4,36.26,245.18,16.92,273.5,15.54-21.06,98.42-21.06,98.42l-544.23-66.65,87.71-100.49,48.69,16.92h-.01,0Z" fill="#2a2a57"/></g></g><g id="Layer_9"><path d="M605.09,1039.23l-9.71-4.73c-5.93-2.89-14.92-12.05-12.03-17.98l21.13-30.71c3.95-5.96,7.71-8.65,15.3-6.93l14.07,4.51c5.93,2.89,7.2,9.47,4.31,15.4l-25.67,30.89c-2.89,5.93-1.47,12.44-7.4,9.55h0Z" fill="#2a2a57"/></g><g id="Layer_8"><path d="M534.23,996.31s-36.99,2.05-26.42,48.93c0,0,4.08,14.44,52.69,21.45,0,0,64.45,12.82,73.77-4.66s7.27-47.22,3.38-51.39c-7.27-7.78-45.11-19.9-103.42-14.33Z" fill="#414186"/></g><g id="Layer_10"><g clip-path="url(#clippath-4)"><path d="M502.8,1022.38c.69.69,21.24,19.17,63.71,24.35s54.73,9.84,78.39,1.73c23.65-8.12-9.5,45.58-9.5,45.58l-146.24-18.65,13.64-53.01h0Z" fill="#2a2a57"/></g></g><g id="tire_base"><circle cx="1363.75" cy="1025.81" r="99.19" transform="translate(-325.92 1264.77) rotate(-45)" fill="#3a3a3a"/><circle cx="748.24" cy="1025.81" r="99.19" fill="#3a3a3a"/></g><g id="tire_center"><circle cx="748.24" cy="1025.81" r="47.32" fill="#838383"/><circle cx="1363.75" cy="1025.81" r="45.03" fill="#838383"/></g><g id="tire_shadow"><g clip-path="url(#clippath-5)"><path d="M702.74,1012.5s14.24,57.15,78.73,47.41l-33.15,40.82-90.13-50.83,44.55-37.4h0Z" fill="#535353"/></g><g clip-path="url(#clippath-6)"><path d="M1316.86,1008.61s17.57,64.44,81.45,51.41l-35.44,41.75-92.68-45.08,46.67-48.08h0Z" fill="#535353"/></g></g><g id="flag_pole"><path d="M812.45,928.78l25.69.67-406.03-380.54s-7.3-3.01-11.34.87-1.06,11.26-1.06,11.26l392.75,367.74h-.01Z"/></g><g id="new_flag"><path d="M2017.33,763.18c-122.8,56.52-254.39,73.29-388.33,61.51-111.27-9.79-220.26-35.98-328.69-61.74-105.53-25.07-214.01-55.08-322.91-59.34-110.08-4.31-198.86,35.52-271.03,118.69-73.2-86.75-175.97-145.01-240.52-239.12,90.98-113.23,242.35-151.44,381.34-161.63,104.72-7.68,206.58,3.84,308.93,25.2,170.82,35.64,339.64,89.18,515,97.5,119.73,5.68,237.12-13.89,346.22-64.37v283.3h0Z" stroke="#000" stroke-miterlimit="10"/></g><g id="new_text"><path d="M2008.77,699.26l-.25.1c-122.8,56.52-256.16,65.11-390.1,53.33-106.22-9.35-206.31-32.66-328.69-61.74-105.53-25.07-214.01-55.08-322.91-59.34-110.08-4.31-210.88,29.15-285.98,111.25" fill="none"/><path d="M852.54,528.9l-25.14,8.7-3.6-10.39c-.26-.76-1.02-1.13-1.59-.93l-83.54,28.92c-.76.26-1.13,1.02-.87,1.78l9.68,27.97c.26.76,1.03,1.13,1.78.86l83.54-28.92c14.36-4.97,30.33,2.62,35.37,17.18l9.68,27.97c5.04,14.55-2.81,30.39-17.18,35.37l-83.54,28.92c-14.55,5.04-30.33-2.62-35.37-17.18l-3.6-10.39,24.95-8.64,3.6,10.39c.26.76,1.03,1.13,1.78.87l83.54-28.92c.57-.2.94-.96.68-1.72l-9.68-27.97c-.26-.76-1.02-1.13-1.59-.93l-83.54,28.92c-14.55,5.04-30.33-2.62-35.37-17.18l-9.68-27.97c-5.04-14.55,2.62-30.33,17.18-35.37l83.54-28.92c14.36-4.97,30.33,2.62,35.37,17.18l3.6,10.39h0Z" fill="#fff" stroke="#fff" stroke-miterlimit="10"/><path d="M894.83,489.55l26.33-1.93,10.55,143.61-26.33,1.93-10.55-143.61h0Z" fill="#fff" stroke="#fff" stroke-miterlimit="10"/><path d="M1101.52,538.69l-26.45-2.82,1.19-11.14c.08-.8-.45-1.46-1.24-1.54l-87.7-9.34c-.8-.08-1.46.45-1.54,1.24l-9.36,87.9c-.08.8.45,1.46,1.24,1.54l87.7,9.34c.79.08,1.46-.45,1.54-1.24l2.88-27.05-32.42-3.45,2.8-26.25,58.86,6.27-5.68,53.3c-1.63,15.31-15.47,26.31-30.79,24.68l-87.7-9.34c-15.31-1.63-26.33-15.27-24.7-30.59l9.36-87.9c1.63-15.31,15.27-26.33,30.59-24.7l87.7,9.34c15.31,1.63,26.53,15.29,24.9,30.61l-1.19,11.14h.01Z" fill="#fff" stroke="#fff" stroke-miterlimit="10"/><path d="M1258.6,534.99l25.91,6-32.51,140.28-28.06-6.5-62.67-122.92-23.84,102.88-25.72-5.96,32.51-140.28,28.06,6.5,62.47,122.88,23.84-102.88h.01Z" fill="#fff" stroke="#fff" stroke-miterlimit="10"/><path d="M1367.72,662.12l-79.61-18.8,6.02-25.5,79.61,18.8-6.02,25.5Z" fill="#fff" stroke="#fff" stroke-miterlimit="10"/><path d="M1525.64,595.53l26.08,5.25-22.95,113.91c-3.04,15.1-17.84,24.76-32.74,21.76l-86.66-17.46c-15.1-3.04-24.8-17.65-21.76-32.74l22.95-113.91,25.88,5.21-22.95,113.91c-.16.78.31,1.49,1.1,1.65l86.66,17.46c.59.12,1.29-.35,1.45-1.14l22.95-113.91h0Z" fill="#fff" stroke="#fff" stroke-miterlimit="10"/><path d="M1686.39,613.95c15.35,1.24,26.89,14.82,25.66,29.97l-3.13,38.67c-1.23,15.15-14.8,26.69-30.15,25.45l-88.72-6.98-.58-.25-3.99,49.24-26.31-2.13,11.61-143.33,115.62,9.36h-.01ZM1685.54,641.78c.06-.8-.49-1.44-1.28-1.51l-87.91-7.12c-.8-.06-1.44.49-1.51,1.28l-3.13,38.67c-.07.8.48,1.44,1.28,1.51l87.91,7.12c.8.06,1.44-.48,1.51-1.28l3.13-38.67h0Z" fill="#fff" stroke="#fff" stroke-miterlimit="10"/></g></svg>