<?xml version="1.0" encoding="UTF-8"?>
<svg xmlns="http://www.w3.org/2000/svg" xmlns:xlink="http://www.w3.org/1999/xlink" viewBox="0 0 2162.87 1264.6">
  <defs>
    <style>
      .cls-1 {
        clip-path: url(#clippath-6);
      }

      .cls-2 {
        fill: #6161c8;
      }

      .cls-3 {
        fill: #838383;
      }

      .cls-4 {
        clip-path: url(#clippath-4);
      }

      .cls-5 {
        fill: #fff;
      }

      .cls-6 {
        fill: #535353;
      }

      .cls-7 {
        fill: none;
      }

      .cls-8 {
        stroke: #000;
        stroke-miterlimit: 10;
      }

      .cls-9 {
        fill: #ffc602;
      }

      .cls-10 {
        clip-path: url(#clippath-1);
      }

      .cls-11 {
        fill: #a2a2e4;
      }

      .cls-12 {
        fill: #b88f02;
      }

      .cls-13 {
        fill: #414186;
      }

      .cls-14 {
        clip-path: url(#clippath-5);
      }

      .cls-15 {
        fill: #3a3a3a;
      }

      .cls-16 {
        fill: #675001;
      }

      .cls-17 {
        clip-path: url(#clippath-3);
      }

      .cls-18 {
        clip-path: url(#clippath-2);
      }

      .cls-19 {
        fill: #efdadd;
      }

      .cls-20 {
        clip-path: url(#clippath);
      }
    </style>
    <clipPath id="clippath">
      <circle class="cls-7" cx="879.22" cy="883.39" r="47.65"/>
    </clipPath>
    <clipPath id="clippath-1">
      <circle class="cls-7" cx="879.22" cy="883.39" r="47.65"/>
    </clipPath>
    <clipPath id="clippath-2">
      <path class="cls-7" d="M550.75,915.04s-103.63,16.13-134.72,35.88c-31.09,19.76-11,34.81-8.81,37.81,4.86,6.33,50.34,37.06,151.09,52.5,100.75,15.44,146.2,40.19,146.2,40.19,0,0,442.53,16.58,463.31,17.92,20.78,1.34,43.97-.54,47.82-1.69s115.82-44.12,136.96-39.94c0,0,18.82,1.72,37.24-5.07,18.42-6.78,12.18-34.12,11-40.64-1.12-6.21-2.92-29.3,29.17-37.42,3.35-.85,5.75-3.8,5.95-7.25.51-8.62.77-29.31-1.05-79-.04-1.14-.21-2.27-.52-3.37-1.17-4.1-4.67-13.57-12.19-13.98-9.28-.51-64.36,4.28-87.47-25.36-1.63-2.09-4.13-3.3-6.78-3.36-14.04-.31-56.89-.15-69.71,12.48,0,0-6.71,5.09-4.21,50.28.05.98.28,1.94.68,2.83,1.1,2.42,4.04,7.11,11.73,12.65,11.3,8.15-45.83,8.49-45.83,8.49,0,0-23.97-2.39-101.39-61.51-77.42-59.12-125.87-46.52-125.87-46.52,0,0,.39-15.74-9.32-15.65,0,0-42.6,1.46-45.05,1.87-2.45.41-9.35,2.53-8.96,20.75.38,18.21,3.07,74.7,2.13,74.91-.94.21-84.4,11.65-134.47,10.31-50.06-1.34-147.04-9.29-246.97,1.88Z"/>
    </clipPath>
    <clipPath id="clippath-3">
      <path class="cls-7" d="M550.75,915.04s-103.63,16.13-134.72,35.88c-31.09,19.76-11,34.81-8.81,37.81,4.86,6.33,50.34,37.06,151.09,52.5,100.75,15.44,146.2,40.19,146.2,40.19,0,0,442.53,16.58,463.31,17.92,20.78,1.34,43.97-.54,47.82-1.69s115.82-44.12,136.96-39.94c0,0,18.82,1.72,37.24-5.07,18.42-6.78,12.18-34.12,11-40.64-1.12-6.21-2.92-29.3,29.17-37.42,3.35-.85,5.75-3.8,5.95-7.25.51-8.62.77-29.31-1.05-79-.04-1.14-.21-2.27-.52-3.37-1.17-4.1-4.67-13.57-12.19-13.98-9.28-.51-64.36,4.28-87.47-25.36-1.63-2.09-4.13-3.3-6.78-3.36-14.04-.31-56.89-.15-69.71,12.48,0,0-6.71,5.09-4.21,50.28.05.98.28,1.94.68,2.83,1.1,2.42,4.04,7.11,11.73,12.65,11.3,8.15-45.83,8.49-45.83,8.49,0,0-23.97-2.39-101.39-61.51-77.42-59.12-125.87-46.52-125.87-46.52,0,0,.39-15.74-9.32-15.65,0,0-42.6,1.46-45.05,1.87-2.45.41-9.35,2.53-8.96,20.75.38,18.21,3.07,74.7,2.13,74.91-.94.21-84.4,11.65-134.47,10.31-50.06-1.34-147.04-9.29-246.97,1.88Z"/>
    </clipPath>
    <clipPath id="clippath-4">
      <path class="cls-7" d="M438.2,978.46s-36.99,2.05-26.42,48.93c0,0,4.08,14.44,52.69,21.45,0,0,64.45,12.82,73.77-4.66,9.32-17.48,7.27-47.22,3.38-51.39-7.27-7.78-45.11-19.9-103.42-14.33Z"/>
    </clipPath>
    <clipPath id="clippath-5">
      <circle class="cls-7" cx="652.21" cy="1007.96" r="47.32"/>
    </clipPath>
    <clipPath id="clippath-6">
      <circle class="cls-7" cx="1267.72" cy="1007.96" r="45.03"/>
    </clipPath>
  </defs>
  <g id="helmet">
    <circle class="cls-2" cx="879.22" cy="883.39" r="47.65"/>
  </g>
  <g id="Layer_18" data-name="Layer 18">
    <g class="cls-20">
      <path class="cls-13" d="M829.58,895.58s13.32,12.88,76.64,12.63l-78.99,18.78,2.35-31.4Z"/>
    </g>
  </g>
  <g id="helmet_visor" data-name="helmet visor">
    <g class="cls-10">
      <path class="cls-19" d="M825.48,865.97s29.62-.42,36.43.78c6.39,1.12,6.91,3.97,6.91,3.97,0,0,1.73,8.12-3.97,16.92s-11.57,12.95-30.73,17.18-26.42-21.24-26.42-21.24l17.78-17.61Z"/>
    </g>
  </g>
  <g id="helmet_shine" data-name="helmet shine">
    <path class="cls-11" d="M894.36,848.74l2.96-3.55c.64-.76,1.73-.95,2.58-.43,3.77,2.32,13.59,9.16,16.93,19.32.35,1.06-.27,2.2-1.34,2.52l-4.42,1.33c-.98.3-2.02-.2-2.42-1.14-1.29-3.05-4.94-9.66-13.78-15.06-1.05-.64-1.29-2.05-.51-2.99Z"/>
  </g>
  <g id="body">
    <path class="cls-9" d="M1434.41,884.97c-1.17-4.1-4.67-13.57-12.19-13.98-9.28-.51-64.36,4.28-87.47-25.36-1.63-2.09-4.13-3.3-6.78-3.36-14.04-.31-56.89-.15-69.71,12.48,0,0-6.71,5.09-4.21,50.28.05.98.28,1.94.68,2.83,1.1,2.42,4.04,7.11,11.73,12.65,11.3,8.15-45.83,8.49-45.83,8.49,0,0-23.97-2.39-101.39-61.51-77.42-59.12-125.87-46.52-125.87-46.52,0,0,.39-15.74-9.32-15.65,0,0-42.6,1.46-45.05,1.87-2.45.41-9.35,2.53-8.96,20.75s3.07,74.7,2.13,74.91c-.94.21-84.4,11.65-134.47,10.31-50.06-1.34-147.04-9.29-246.97,1.88,0,0-103.63,16.13-134.72,35.88s-11,34.81-8.81,37.81c4.86,6.33,50.34,37.06,151.09,52.5,100.75,15.44,146.2,40.19,146.2,40.19,0,0,442.53,16.58,463.31,17.92,20.78,1.34,43.97-.54,47.82-1.69,3.85-1.15,115.82-44.12,136.96-39.94,0,0,18.82,1.72,37.24-5.07,18.42-6.78,12.18-34.12,11-40.64-1.12-6.21-2.92-29.3,29.17-37.42,3.35-.85,5.75-3.8,5.95-7.25.51-8.62.77-29.31-1.05-79-.04-1.14-.21-2.27-.52-3.37Z"/>
  </g>
  <g id="shadows">
    <g class="cls-18">
      <g>
        <path class="cls-12" d="M734.25,961.54l432.28,16.58-421.75-1.19,3.24,14.5,291.95,18.79-279.47-5.18s126.92,51,331.79,69.52c159.48,14.42,154.87,11.66,154.87,11.66l-127.8,64.96s-432.65-37.47-433.68-37.47,48.58-152.17,48.58-152.17Z"/>
        <path class="cls-12" d="M918.15,884.96s66.69,9.67,90.78,20.03c6.89,2.96-21.5-1.21-40.49,3.02s-72.52,8.81-95.05,10.01-41.35,4.58-56.29-8.12,101.05-24.95,101.05-24.95Z"/>
        <path class="cls-12" d="M1357.36,971.12s29.14,25.12,6.17,104.76l-20.94-6.47,14.76-98.28Z"/>
      </g>
    </g>
  </g>
  <g id="dark_shadows" data-name="dark shadows">
    <g class="cls-17">
      <path class="cls-16" d="M724.04,1046.19s79.42,29.35,155.4,36.26,245.18,16.92,273.5,15.54-21.06,98.42-21.06,98.42l-544.23-66.65,87.71-100.49,48.69,16.92Z"/>
    </g>
  </g>
  <g id="Layer_9" data-name="Layer 9">
    <path class="cls-16" d="M509.06,1021.38l-9.71-4.73c-5.93-2.89-14.92-12.05-12.03-17.98l21.13-30.71c3.95-5.96,7.71-8.65,15.3-6.93l14.07,4.51c5.93,2.89,7.2,9.47,4.31,15.4l-25.67,30.89c-2.89,5.93-1.47,12.44-7.4,9.55Z"/>
  </g>
  <g id="Layer_8" data-name="Layer 8">
    <path class="cls-12" d="M438.2,978.46s-36.99,2.05-26.42,48.93c0,0,4.08,14.44,52.69,21.45,0,0,64.45,12.82,73.77-4.66,9.32-17.48,7.27-47.22,3.38-51.39-7.27-7.78-45.11-19.9-103.42-14.33Z"/>
  </g>
  <g id="Layer_10" data-name="Layer 10">
    <g class="cls-4">
      <path class="cls-16" d="M406.77,1004.53c.69.69,21.24,19.17,63.71,24.35s54.73,9.84,78.39,1.73c23.65-8.12-9.5,45.58-9.5,45.58l-146.24-18.65,13.64-53.01Z"/>
    </g>
  </g>
  <g id="tire_base" data-name="tire base">
    <circle class="cls-15" cx="1267.72" cy="1007.96" r="99.19"/>
    <circle class="cls-15" cx="652.21" cy="1007.96" r="99.19"/>
  </g>
  <g id="tire_center" data-name="tire center">
    <circle class="cls-3" cx="652.21" cy="1007.96" r="47.32"/>
    <circle class="cls-3" cx="1267.72" cy="1007.96" r="45.03"/>
  </g>
  <g id="tire_shadow" data-name="tire shadow">
    <g class="cls-14">
      <path class="cls-6" d="M606.71,994.65s14.24,57.15,78.73,47.41l-33.15,40.82-90.13-50.83,44.55-37.4Z"/>
    </g>
    <g class="cls-1">
      <path class="cls-6" d="M1220.83,990.76s17.57,64.44,81.45,51.41l-35.44,41.75-92.68-45.08,46.67-48.08Z"/>
    </g>
  </g>
  <g id="flag_pole" data-name="flag pole">
    <path d="M716.43,910.93l25.69.67-406.03-380.54s-7.3-3.01-11.34.87-1.06,11.26-1.06,11.26l392.75,367.74Z"/>
  </g>
  <g id="new_flag" data-name="new flag">
    <path class="cls-8" d="M1921.3,745.33c-122.8,56.52-254.39,73.29-388.33,61.51-111.27-9.79-220.26-35.98-328.69-61.74-105.53-25.07-214.01-55.08-322.91-59.34-110.08-4.31-198.86,35.52-271.03,118.69-73.2-86.75-175.97-145.01-240.52-239.12,90.98-113.23,242.35-151.44,381.34-161.63,104.72-7.68,206.58,3.84,308.93,25.2,170.82,35.64,339.64,89.18,515,97.5,119.73,5.68,237.12-13.89,346.22-64.37,0,94.43,0,188.87,0,283.3Z"/>
  </g>
  <g id="new_text" data-name="new text">
    <g>
      <path class="cls-7" d="M1886.7,673.71c-122.8,56.52-254.39,73.29-388.33,61.51-111.27-9.79-220.26-35.98-328.69-61.74-105.53-25.07-214.01-55.08-322.91-59.34-110.08-4.31-198.86,35.52-271.03,118.69"/>
      <path class="cls-5" d="M526.55,573.08l22.45-13.88,61.95,100.19,100.02-61.85,13.88,22.45-122.48,75.73-75.83-122.65Z"/>
      <path class="cls-5" d="M830.6,467.88c15.14-1.3,28.76,9.97,30.08,25.31l7.58,88.07c1.32,15.34-10.17,28.78-25.31,30.08l-88.08,7.58c-15.34,1.32-28.76-9.97-30.08-25.31l-7.58-88.07c-1.32-15.34,9.97-28.76,25.31-30.08l88.08-7.58ZM840.69,585.05c.6-.05,1.14-.7,1.08-1.5l-7.58-88.08c-.07-.8-.72-1.34-1.32-1.29l-88.07,7.58c-.8.07-1.34.72-1.27,1.51l7.58,88.08c.07.8.72,1.34,1.52,1.27l88.07-7.58Z"/>
      <path class="cls-5" d="M1047.88,534.96l-26.23-4.43,1.87-11.04c.13-.79-.36-1.48-1.15-1.61l-86.97-14.69c-.79-.13-1.48.36-1.61,1.15l-14.72,87.16c-.13.79.36,1.48,1.15,1.61l86.97,14.69c.79.13,1.48-.36,1.61-1.15l4.53-26.82-32.14-5.43,4.4-26.03,58.37,9.86-8.93,52.85c-2.57,15.18-17.05,25.31-32.24,22.75l-86.97-14.69c-15.19-2.56-25.35-16.86-22.78-32.04l14.72-87.16c2.56-15.18,16.86-25.35,32.04-22.78l86.97,14.69c15.18,2.56,25.54,16.89,22.98,32.07l-1.87,11.04Z"/>
      <path class="cls-5" d="M1086.13,505.37l25.71,5.97-32.57,140.26-25.71-5.97,32.57-140.26Z"/>
      <path class="cls-5" d="M1263.12,587.65l-25.87-6.18,2.56-10.7c.19-.78-.26-1.5-.84-1.64l-85.98-20.55c-.78-.19-1.5.26-1.69,1.04l-6.88,28.79c-.19.78.26,1.5,1.04,1.69l85.98,20.55c14.78,3.53,24.16,18.52,20.58,33.5l-6.88,28.79c-3.58,14.98-18.72,24.11-33.5,20.58l-85.98-20.55c-14.98-3.58-24.16-18.52-20.58-33.5l2.56-10.7,25.68,6.14-2.56,10.7c-.19.78.26,1.5,1.04,1.69l85.98,20.55c.58.14,1.31-.3,1.49-1.08l6.88-28.79c.19-.78-.26-1.5-.84-1.64l-85.98-20.55c-14.98-3.58-24.16-18.52-20.58-33.5l6.88-28.79c3.58-14.98,18.52-24.16,33.5-20.58l85.98,20.55c14.78,3.53,24.16,18.52,20.58,33.5l-2.56,10.7Z"/>
      <path class="cls-5" d="M1427.05,582.5l-5.25,25.87-57.43-11.66-23.39,115.25-26.07-5.29,23.39-115.25-57.62-11.69,5.25-25.87,141.12,28.64Z"/>
      <path class="cls-5" d="M1442.85,583.63l26.14,3.68-20.05,142.6-26.14-3.68,20.05-142.6Z"/>
      <path class="cls-5" d="M1510.92,619.45c-.8-.02-1.42.56-1.44,1.36l-2.76,88.36c-.02.8.56,1.42,1.36,1.44l115.75,3.61-.82,26.39-115.75-3.61c-15.39-.48-27.4-13.26-26.92-28.65l2.76-88.36c.48-15.39,13.26-27.4,28.65-26.92l115.75,3.61-.82,26.39-115.75-3.61Z"/>
      <path class="cls-5" d="M1787.43,604.75l-26.03,5.48-2.27-10.76c-.17-.78-.88-1.25-1.46-1.12l-86.5,18.21c-.78.17-1.25.88-1.08,1.66l6.1,28.97c.17.78.88,1.25,1.66,1.08l86.5-18.21c14.87-3.13,29.76,6.41,32.93,21.48l6.1,28.96c3.17,15.07-6.6,29.8-21.48,32.93l-86.5,18.21c-15.07,3.17-29.76-6.41-32.93-21.48l-2.27-10.76,25.83-5.44,2.27,10.76c.17.78.88,1.25,1.66,1.08l86.5-18.21c.59-.12,1.05-.83.89-1.62l-6.1-28.96c-.16-.78-.88-1.25-1.46-1.12l-86.5,18.21c-15.07,3.17-29.76-6.41-32.93-21.48l-6.1-28.96c-3.17-15.07,6.41-29.76,21.48-32.93l86.5-18.21c14.87-3.13,29.76,6.41,32.93,21.48l2.27,10.76Z"/>
    </g>
    <rect class="cls-7" x="2159.76" y="915.42" width="3.11" height="0"/>
  </g>
</svg>