<?xml version="1.0" encoding="UTF-8"?>
<svg xmlns="http://www.w3.org/2000/svg" xmlns:xlink="http://www.w3.org/1999/xlink" viewBox="0 0 2162.87 1264.6">
  <defs>
    <style>
      .cls-1 {
        fill: #4f4f4f;
      }

      .cls-2 {
        clip-path: url(#clippath-6);
      }

      .cls-3 {
        fill: #838383;
      }

      .cls-4 {
        clip-path: url(#clippath-4);
      }

      .cls-5 {
        fill: #004347;
      }

      .cls-6 {
        fill: #2b2929;
      }

      .cls-7 {
        fill: #fff;
      }

      .cls-8 {
        fill: #02635a;
      }

      .cls-9 {
        fill: #ffd561;
      }

      .cls-10 {
        fill: #535353;
      }

      .cls-11 {
        fill: none;
      }

      .cls-12 {
        stroke: #000;
        stroke-miterlimit: 10;
      }

      .cls-13 {
        clip-path: url(#clippath-1);
      }

      .cls-14 {
        fill: #006c73;
      }

      .cls-15 {
        clip-path: url(#clippath-5);
      }

      .cls-16 {
        fill: #1e1e1c;
      }

      .cls-17 {
        clip-path: url(#clippath-3);
      }

      .cls-18 {
        fill: #049188;
      }

      .cls-19 {
        fill: #ffe8a9;
      }

      .cls-20 {
        clip-path: url(#clippath-2);
      }

      .cls-21 {
        fill: #efdadd;
      }

      .cls-22 {
        clip-path: url(#clippath);
      }

      .cls-23 {
        fill: #b79e58;
      }
    </style>
    <clipPath id="clippath">
      <circle class="cls-11" cx="879.22" cy="883.39" r="47.65"/>
    </clipPath>
    <clipPath id="clippath-1">
      <circle class="cls-11" cx="879.22" cy="883.39" r="47.65"/>
    </clipPath>
    <clipPath id="clippath-2">
      <path class="cls-11" d="M550.75,915.04s-103.63,16.13-134.72,35.88c-31.09,19.76-11,34.81-8.81,37.81,4.86,6.33,50.34,37.06,151.09,52.5,100.75,15.44,146.2,40.19,146.2,40.19,0,0,442.53,16.58,463.31,17.92,20.78,1.34,43.97-.54,47.82-1.69s115.82-44.12,136.96-39.94c0,0,18.82,1.72,37.24-5.07,18.42-6.78,12.18-34.12,11-40.64-1.12-6.21-2.92-29.3,29.17-37.42,3.35-.85,5.75-3.8,5.95-7.25.51-8.62.77-29.31-1.05-79-.04-1.14-.21-2.27-.52-3.37-1.17-4.1-4.67-13.57-12.19-13.98-9.28-.51-64.36,4.28-87.47-25.36-1.63-2.09-4.13-3.3-6.78-3.36-14.04-.31-56.89-.15-69.71,12.48,0,0-6.71,5.09-4.21,50.28.05.98.28,1.94.68,2.83,1.1,2.42,4.04,7.11,11.73,12.65,11.3,8.15-45.83,8.49-45.83,8.49,0,0-23.97-2.39-101.39-61.51-77.42-59.12-125.87-46.52-125.87-46.52,0,0,.39-15.74-9.32-15.65,0,0-42.6,1.46-45.05,1.87-2.45.41-9.35,2.53-8.96,20.75.38,18.21,3.07,74.7,2.13,74.91-.94.21-84.4,11.65-134.47,10.31-50.06-1.34-147.04-9.29-246.97,1.88Z"/>
    </clipPath>
    <clipPath id="clippath-3">
      <path class="cls-11" d="M550.75,915.04s-103.63,16.13-134.72,35.88c-31.09,19.76-11,34.81-8.81,37.81,4.86,6.33,50.34,37.06,151.09,52.5,100.75,15.44,146.2,40.19,146.2,40.19,0,0,442.53,16.58,463.31,17.92,20.78,1.34,43.97-.54,47.82-1.69s115.82-44.12,136.96-39.94c0,0,18.82,1.72,37.24-5.07,18.42-6.78,12.18-34.12,11-40.64-1.12-6.21-2.92-29.3,29.17-37.42,3.35-.85,5.75-3.8,5.95-7.25.51-8.62.77-29.31-1.05-79-.04-1.14-.21-2.27-.52-3.37-1.17-4.1-4.67-13.57-12.19-13.98-9.28-.51-64.36,4.28-87.47-25.36-1.63-2.09-4.13-3.3-6.78-3.36-14.04-.31-56.89-.15-69.71,12.48,0,0-6.71,5.09-4.21,50.28.05.98.28,1.94.68,2.83,1.1,2.42,4.04,7.11,11.73,12.65,11.3,8.15-45.83,8.49-45.83,8.49,0,0-23.97-2.39-101.39-61.51-77.42-59.12-125.87-46.52-125.87-46.52,0,0,.39-15.74-9.32-15.65,0,0-42.6,1.46-45.05,1.87-2.45.41-9.35,2.53-8.96,20.75.38,18.21,3.07,74.7,2.13,74.91-.94.21-84.4,11.65-134.47,10.31-50.06-1.34-147.04-9.29-246.97,1.88Z"/>
    </clipPath>
    <clipPath id="clippath-4">
      <path class="cls-11" d="M438.2,978.46s-36.99,2.05-26.42,48.93c0,0,4.08,14.44,52.69,21.45,0,0,64.45,12.82,73.77-4.66,9.32-17.48,7.27-47.22,3.38-51.39-7.27-7.78-45.11-19.9-103.42-14.33Z"/>
    </clipPath>
    <clipPath id="clippath-5">
      <circle class="cls-11" cx="652.21" cy="1007.96" r="47.32"/>
    </clipPath>
    <clipPath id="clippath-6">
      <circle class="cls-11" cx="1267.72" cy="1007.96" r="45.03"/>
    </clipPath>
  </defs>
  <g id="helmet">
    <circle class="cls-9" cx="879.22" cy="883.39" r="47.65"/>
  </g>
  <g id="Layer_18" data-name="Layer 18">
    <g class="cls-22">
      <path class="cls-23" d="M829.58,895.58s13.32,12.88,76.64,12.63l-78.99,18.78,2.35-31.4Z"/>
    </g>
  </g>
  <g id="helmet_visor" data-name="helmet visor">
    <g class="cls-13">
      <path class="cls-21" d="M825.48,865.97s29.62-.42,36.43.78c6.39,1.12,6.91,3.97,6.91,3.97,0,0,1.73,8.12-3.97,16.92s-11.57,12.95-30.73,17.18-26.42-21.24-26.42-21.24l17.78-17.61Z"/>
    </g>
  </g>
  <g id="helmet_shine" data-name="helmet shine">
    <path class="cls-19" d="M894.36,848.74l2.96-3.55c.64-.76,1.73-.95,2.58-.43,3.77,2.32,13.59,9.16,16.93,19.32.35,1.06-.27,2.2-1.34,2.52l-4.42,1.33c-.98.3-2.02-.2-2.42-1.14-1.29-3.05-4.94-9.66-13.78-15.06-1.05-.64-1.29-2.05-.51-2.99Z"/>
  </g>
  <g id="body">
    <path class="cls-18" d="M1434.41,884.97c-1.17-4.1-4.67-13.57-12.19-13.98-9.28-.51-64.36,4.28-87.47-25.36-1.63-2.09-4.13-3.3-6.78-3.36-14.04-.31-56.89-.15-69.71,12.48,0,0-6.71,5.09-4.21,50.28.05.98.28,1.94.68,2.83,1.1,2.42,4.04,7.11,11.73,12.65,11.3,8.15-45.83,8.49-45.83,8.49,0,0-23.97-2.39-101.39-61.51-77.42-59.12-125.87-46.52-125.87-46.52,0,0,.39-15.74-9.32-15.65,0,0-42.6,1.46-45.05,1.87-2.45.41-9.35,2.53-8.96,20.75s3.07,74.7,2.13,74.91c-.94.21-84.4,11.65-134.47,10.31-50.06-1.34-147.04-9.29-246.97,1.88,0,0-103.63,16.13-134.72,35.88s-11,34.81-8.81,37.81c4.86,6.33,50.34,37.06,151.09,52.5,100.75,15.44,146.2,40.19,146.2,40.19,0,0,442.53,16.58,463.31,17.92,20.78,1.34,43.97-.54,47.82-1.69,3.85-1.15,115.82-44.12,136.96-39.94,0,0,18.82,1.72,37.24-5.07,18.42-6.78,12.18-34.12,11-40.64-1.12-6.21-2.92-29.3,29.17-37.42,3.35-.85,5.75-3.8,5.95-7.25.51-8.62.77-29.31-1.05-79-.04-1.14-.21-2.27-.52-3.37Z"/>
  </g>
  <g id="shadows">
    <g class="cls-20">
      <g>
        <path class="cls-1" d="M734.25,961.54l432.28,16.58-421.75-1.19,3.24,14.5,291.95,18.79-279.47-5.18s126.92,51,331.79,69.52c159.48,14.42,154.87,11.66,154.87,11.66l-127.8,64.96s-432.65-37.47-433.68-37.47,48.58-152.17,48.58-152.17Z"/>
        <path class="cls-8" d="M918.15,884.96s66.69,9.67,90.78,20.03c6.89,2.96-21.5-1.21-40.49,3.02s-72.52,8.81-95.05,10.01-41.35,4.58-56.29-8.12,101.05-24.95,101.05-24.95Z"/>
        <path class="cls-8" d="M1357.36,971.12s29.14,25.12,6.17,104.76l-20.94-6.47,14.76-98.28Z"/>
      </g>
    </g>
  </g>
  <g id="dark_shadows" data-name="dark shadows">
    <g class="cls-17">
      <path class="cls-6" d="M724.04,1046.19s79.42,29.35,155.4,36.26,245.18,16.92,273.5,15.54-21.06,98.42-21.06,98.42l-544.23-66.65,87.71-100.49,48.69,16.92Z"/>
    </g>
  </g>
  <g id="Layer_9" data-name="Layer 9">
    <path class="cls-5" d="M509.06,1021.38l-9.71-4.73c-5.93-2.89-14.92-12.05-12.03-17.98l21.13-30.71c3.95-5.96,7.71-8.65,15.3-6.93l14.07,4.51c5.93,2.89,7.2,9.47,4.31,15.4l-25.67,30.89c-2.89,5.93-1.47,12.44-7.4,9.55Z"/>
  </g>
  <g id="Layer_8" data-name="Layer 8">
    <path class="cls-14" d="M438.2,978.46s-36.99,2.05-26.42,48.93c0,0,4.08,14.44,52.69,21.45,0,0,64.45,12.82,73.77-4.66,9.32-17.48,7.27-47.22,3.38-51.39-7.27-7.78-45.11-19.9-103.42-14.33Z"/>
  </g>
  <g id="Layer_10" data-name="Layer 10">
    <g class="cls-4">
      <path class="cls-5" d="M406.77,1004.53c.69.69,21.24,19.17,63.71,24.35s54.73,9.84,78.39,1.73c23.65-8.12-9.5,45.58-9.5,45.58l-146.24-18.65,13.64-53.01Z"/>
    </g>
  </g>
  <g id="tire_base" data-name="tire base">
    <circle class="cls-16" cx="1267.72" cy="1007.96" r="99.19"/>
    <circle class="cls-16" cx="652.21" cy="1007.96" r="99.19"/>
  </g>
  <g id="tire_center" data-name="tire center">
    <circle class="cls-3" cx="652.21" cy="1007.96" r="47.32"/>
    <circle class="cls-3" cx="1267.72" cy="1007.96" r="45.03"/>
  </g>
  <g id="tire_shadow" data-name="tire shadow">
    <g class="cls-15">
      <path class="cls-10" d="M606.71,994.65s14.24,57.15,78.73,47.41l-33.15,40.82-90.13-50.83,44.55-37.4Z"/>
    </g>
    <g class="cls-2">
      <path class="cls-10" d="M1220.83,990.76s17.57,64.44,81.45,51.41l-35.44,41.75-92.68-45.08,46.67-48.08Z"/>
    </g>
  </g>
  <g id="flag_pole" data-name="flag pole">
    <path d="M716.43,910.93l25.69.67-406.03-380.54s-7.3-3.01-11.34.87-1.06,11.26-1.06,11.26l392.75,367.74Z"/>
    <path d="M409.58,623.76l25.69.67L29.23,243.89s-7.3-3.01-11.34.87c-4.04,3.88-1.06,11.26-1.06,11.26l392.75,367.74Z"/>
  </g>
  <g id="new_flag" data-name="new flag">
    <path class="cls-12" d="M1921.3,745.33c-122.8,56.52-254.39,73.29-388.33,61.51-111.27-9.79-220.26-35.98-328.69-61.74-105.53-25.07-214.01-55.08-322.91-59.34-110.08-4.31-198.86,35.52-271.03,118.69-73.2-86.75-175.97-145.01-240.52-239.12,90.98-113.23,242.35-151.44,381.34-161.63,104.72-7.68,206.58,3.84,308.93,25.2,170.82,35.64,339.64,89.18,515,97.5,119.73,5.68,237.12-13.89,346.22-64.37,0,94.43,0,188.87,0,283.3Z"/>
  </g>
  <g id="chop_layer" data-name="chop layer">
    <path d="M1523.82,192.86c-300.51-28-595.13-176.54-902.97-105.81-46.19,10.61-362.62,82.39-481.76,267.82l200.58,180.22c104.49-116.95,259.99-161.87,319.79-172.34,274.81-48.09,537.49,69.59,806.46,107.18l57.9-277.08Z"/>
  </g>
  <g id="new_text" data-name="new text">
    <g>
      <path class="cls-11" d="M1886.7,673.71c-122.8,56.52-254.39,73.29-388.33,61.51-111.27-9.79-220.26-35.98-328.69-61.74-105.53-25.07-214.01-55.08-322.91-59.34-110.08-4.31-198.86,35.52-271.03,118.69"/>
      <path class="cls-7" d="M593.42,560.43c-.72.36-.99,1.16-.63,1.88l39.26,79.21c.36.72,1.16.99,1.88.63l103.76-51.43,11.72,23.65-103.76,51.43c-13.8,6.84-30.42,1.24-37.25-12.56l-39.26-79.21c-6.84-13.8-1.24-30.42,12.56-37.25l103.76-51.43,11.72,23.65-103.76,51.43Z"/>
      <path class="cls-7" d="M876.93,469.91c15.2.03,27.78,12.45,27.75,27.85l-.17,88.4c-.03,15.4-12.65,27.78-27.85,27.75l-88.4-.17c-15.4-.03-27.78-12.45-27.75-27.85l.17-88.4c.03-15.4,12.45-27.78,27.85-27.75l88.4.17ZM876.71,587.5c.6,0,1.2-.6,1.2-1.4l.17-88.4c0-.8-.6-1.4-1.2-1.4l-88.4-.17c-.8,0-1.4.6-1.4,1.4l-.17,88.4c0,.8.6,1.4,1.4,1.4l88.4.17Z"/>
      <path class="cls-7" d="M1066.84,500.43l26.1,5.13-27.77,141.3-28.26-5.55-66.76-120.74-20.37,103.62-25.9-5.09,27.77-141.3,28.26,5.55,66.57,120.71,20.37-103.62Z"/>
      <path class="cls-7" d="M1235.75,541.26c14.97,3.59,24.33,18.59,20.74,33.57l-20.63,85.96c-3.59,14.97-18.74,24.09-33.71,20.5l-112.79-27.07,33.61-140.02,112.79,27.07ZM1230.62,568.62c.19-.78-.26-1.5-1.04-1.69l-85.76-20.58c-.78-.19-1.5.26-1.69,1.03l-20.63,85.96c-.19.78.26,1.5,1.04,1.69l85.76,20.58c.78.19,1.5-.26,1.69-1.03l20.63-85.96Z"/>
      <path class="cls-7" d="M1399.27,576.9l26.06,5.31-23.19,113.86c-3.07,15.09-17.89,24.72-32.79,21.69l-86.62-17.64c-15.09-3.07-24.76-17.7-21.69-32.79l23.19-113.86,25.87,5.27-23.19,113.86c-.16.78.31,1.49,1.09,1.65l86.62,17.64c.59.12,1.3-.35,1.46-1.13l23.19-113.86Z"/>
      <path class="cls-7" d="M1469.89,614.87c-.8-.07-1.45.48-1.51,1.28l-7.28,88.1c-.07.8.48,1.44,1.28,1.51l115.41,9.54-2.17,26.31-115.41-9.54c-15.35-1.27-26.68-14.65-25.42-30l7.28-88.1c1.27-15.35,14.65-26.68,30-25.42l115.41,9.54-2.18,26.31-115.41-9.54Z"/>
      <path class="cls-7" d="M1736.27,579.66l3.48,26.17-58.09,7.73,15.5,116.58-26.37,3.51-15.5-116.58-58.29,7.75-3.48-26.17,142.75-18.98Z"/>
    </g>
    <rect class="cls-11" x="2159.76" y="915.42" width="3.11" height="0"/>
  </g>
  <g id="text">
    <g>
      <path class="cls-11" d="M1921.8,342.66c-53,24.33-109.16,42.06-166.7,52.51-373.47,67.83-723.43-171.16-1095.64-106.02-59.8,10.47-215.3,55.39-319.79,172.34"/>
      <path class="cls-7" d="M350.63,293.77c-.68.42-.88,1.25-.46,1.93l46.42,75.23c.42.68,1.25.88,1.93.46l98.54-60.81,13.86,22.47-98.54,60.81c-13.11,8.09-30.17,4.05-38.26-9.06l-46.42-75.23c-8.09-13.1-4.05-30.17,9.06-38.26l98.54-60.81,13.86,22.47-98.54,60.81Z"/>
      <path class="cls-7" d="M589.79,155.81c14.49-4.61,30.25,3.39,34.92,18.07l26.8,84.24c4.67,14.68-3.58,30.31-18.07,34.92l-84.24,26.8c-14.68,4.67-30.25-3.39-34.92-18.07l-26.8-84.24c-4.67-14.68,3.39-30.25,18.07-34.92l84.24-26.8ZM625.43,267.88c.57-.18.96-.94.72-1.7l-26.8-84.24c-.24-.76-1-1.15-1.57-.97l-84.24,26.8c-.76.24-1.15,1-.91,1.76l26.8,84.24c.24.76,1,1.15,1.76.91l84.24-26.8Z"/>
      <path class="cls-7" d="M781.84,132.85c15.37-.89,28.67,10.75,29.57,26.13l5.13,88.25c.89,15.37-10.96,28.48-26.34,29.38l-115.8,6.73-8.36-143.76,115.8-6.73ZM784.85,160.53c-.05-.8-.68-1.36-1.48-1.32l-88.05,5.12c-.8.05-1.36.68-1.32,1.48l5.13,88.25c.05.8.68,1.36,1.48,1.32l88.05-5.12c.8-.05,1.36-.68,1.32-1.48l-5.13-88.25Z"/>
      <path class="cls-7" d="M979.6,173.7l-105.22-11.09-3.4,32.22,84.73,8.93-2.77,26.25-84.73-8.93-3.4,32.22,105.22,11.09-2.77,26.25-131.67-13.88,15.1-143.21,131.67,13.88-2.77,26.25Z"/>
      <path class="cls-7" d="M1188.7,190.66c14.82,3.36,24.37,18.24,20.97,33.26l-19.55,86.21c-3.4,15.02-18.43,24.33-33.26,20.97l-86.21-19.54c-15.02-3.41-24.37-18.24-20.97-33.26l19.54-86.21c3.41-15.02,18.24-24.37,33.26-20.97l86.21,19.55ZM1162.7,305.35c.59.13,1.3-.32,1.48-1.1l19.54-86.21c.18-.78-.28-1.5-.86-1.63l-86.21-19.55c-.78-.18-1.5.28-1.67,1.06l-19.54,86.21c-.18.78.28,1.5,1.06,1.68l86.21,19.54Z"/>
      <path class="cls-7" d="M1366.71,232.82l-6,25.71-103.03-24.05-7.36,31.55,82.97,19.36-6,25.71-82.97-19.36-13.36,57.26-25.9-6.05,32.73-140.23,128.93,30.09Z"/>
    </g>
  </g>
</svg>