<?xml version="1.0" encoding="UTF-8"?>
<svg xmlns="http://www.w3.org/2000/svg" xmlns:xlink="http://www.w3.org/1999/xlink" viewBox="0 0 2162.87 1264.6">
  <defs>
    <style>
      .cls-1 {
        clip-path: url(#clippath-6);
      }

      .cls-2 {
        fill: #838383;
      }

      .cls-3 {
        clip-path: url(#clippath-4);
      }

      .cls-4 {
        fill: #d2273d;
      }

      .cls-5 {
        fill: #fff;
      }

      .cls-6 {
        fill: #00848d;
      }

      .cls-7 {
        fill: #535353;
      }

      .cls-8 {
        fill: none;
      }

      .cls-9 {
        stroke: #000;
        stroke-miterlimit: 10;
      }

      .cls-10 {
        clip-path: url(#clippath-1);
      }

      .cls-11 {
        clip-path: url(#clippath-5);
      }

      .cls-12 {
        fill: #3a3a3a;
      }

      .cls-13 {
        clip-path: url(#clippath-3);
      }

      .cls-14 {
        fill: #00aeb9;
      }

      .cls-15 {
        fill: #5ee1f0;
      }

      .cls-16 {
        clip-path: url(#clippath-2);
      }

      .cls-17 {
        fill: #520f18;
      }

      .cls-18 {
        fill: #efdadd;
      }

      .cls-19 {
        fill: #7c1724;
      }

      .cls-20 {
        clip-path: url(#clippath);
      }
    </style>
    <clipPath id="clippath">
      <circle class="cls-8" cx="879.22" cy="883.39" r="47.65"/>
    </clipPath>
    <clipPath id="clippath-1">
      <circle class="cls-8" cx="879.22" cy="883.39" r="47.65"/>
    </clipPath>
    <clipPath id="clippath-2">
      <path class="cls-8" d="M550.75,915.04s-103.63,16.13-134.72,35.88c-31.09,19.76-11,34.81-8.81,37.81,4.86,6.33,50.34,37.06,151.09,52.5,100.75,15.44,146.2,40.19,146.2,40.19,0,0,442.53,16.58,463.31,17.92,20.78,1.34,43.97-.54,47.82-1.69s115.82-44.12,136.96-39.94c0,0,18.82,1.72,37.24-5.07,18.42-6.78,12.18-34.12,11-40.64-1.12-6.21-2.92-29.3,29.17-37.42,3.35-.85,5.75-3.8,5.95-7.25.51-8.62.77-29.31-1.05-79-.04-1.14-.21-2.27-.52-3.37-1.17-4.1-4.67-13.57-12.19-13.98-9.28-.51-64.36,4.28-87.47-25.36-1.63-2.09-4.13-3.3-6.78-3.36-14.04-.31-56.89-.15-69.71,12.48,0,0-6.71,5.09-4.21,50.28.05.98.28,1.94.68,2.83,1.1,2.42,4.04,7.11,11.73,12.65,11.3,8.15-45.83,8.49-45.83,8.49,0,0-23.97-2.39-101.39-61.51-77.42-59.12-125.87-46.52-125.87-46.52,0,0,.39-15.74-9.32-15.65,0,0-42.6,1.46-45.05,1.87-2.45.41-9.35,2.53-8.96,20.75.38,18.21,3.07,74.7,2.13,74.91-.94.21-84.4,11.65-134.47,10.31-50.06-1.34-147.04-9.29-246.97,1.88Z"/>
    </clipPath>
    <clipPath id="clippath-3">
      <path class="cls-8" d="M550.75,915.04s-103.63,16.13-134.72,35.88c-31.09,19.76-11,34.81-8.81,37.81,4.86,6.33,50.34,37.06,151.09,52.5,100.75,15.44,146.2,40.19,146.2,40.19,0,0,442.53,16.58,463.31,17.92,20.78,1.34,43.97-.54,47.82-1.69s115.82-44.12,136.96-39.94c0,0,18.82,1.72,37.24-5.07,18.42-6.78,12.18-34.12,11-40.64-1.12-6.21-2.92-29.3,29.17-37.42,3.35-.85,5.75-3.8,5.95-7.25.51-8.62.77-29.31-1.05-79-.04-1.14-.21-2.27-.52-3.37-1.17-4.1-4.67-13.57-12.19-13.98-9.28-.51-64.36,4.28-87.47-25.36-1.63-2.09-4.13-3.3-6.78-3.36-14.04-.31-56.89-.15-69.71,12.48,0,0-6.71,5.09-4.21,50.28.05.98.28,1.94.68,2.83,1.1,2.42,4.04,7.11,11.73,12.65,11.3,8.15-45.83,8.49-45.83,8.49,0,0-23.97-2.39-101.39-61.51-77.42-59.12-125.87-46.52-125.87-46.52,0,0,.39-15.74-9.32-15.65,0,0-42.6,1.46-45.05,1.87-2.45.41-9.35,2.53-8.96,20.75.38,18.21,3.07,74.7,2.13,74.91-.94.21-84.4,11.65-134.47,10.31-50.06-1.34-147.04-9.29-246.97,1.88Z"/>
    </clipPath>
    <clipPath id="clippath-4">
      <path class="cls-8" d="M438.2,978.46s-36.99,2.05-26.42,48.93c0,0,4.08,14.44,52.69,21.45,0,0,64.45,12.82,73.77-4.66,9.32-17.48,7.27-47.22,3.38-51.39-7.27-7.78-45.11-19.9-103.42-14.33Z"/>
    </clipPath>
    <clipPath id="clippath-5">
      <circle class="cls-8" cx="652.21" cy="1007.96" r="47.32"/>
    </clipPath>
    <clipPath id="clippath-6">
      <circle class="cls-8" cx="1267.72" cy="1007.96" r="45.03"/>
    </clipPath>
  </defs>
  <g id="helmet">
    <circle class="cls-14" cx="879.22" cy="883.39" r="47.65"/>
  </g>
  <g id="Layer_18" data-name="Layer 18">
    <g class="cls-20">
      <path class="cls-6" d="M829.58,895.58s13.32,12.88,76.64,12.63l-78.99,18.78,2.35-31.4Z"/>
    </g>
  </g>
  <g id="helmet_visor" data-name="helmet visor">
    <g class="cls-10">
      <path class="cls-18" d="M825.48,865.97s29.62-.42,36.43.78c6.39,1.12,6.91,3.97,6.91,3.97,0,0,1.73,8.12-3.97,16.92s-11.57,12.95-30.73,17.18-26.42-21.24-26.42-21.24l17.78-17.61Z"/>
    </g>
  </g>
  <g id="helmet_shine" data-name="helmet shine">
    <path class="cls-15" d="M894.36,848.74l2.96-3.55c.64-.76,1.73-.95,2.58-.43,3.77,2.32,13.59,9.16,16.93,19.32.35,1.06-.27,2.2-1.34,2.52l-4.42,1.33c-.98.3-2.02-.2-2.42-1.14-1.29-3.05-4.94-9.66-13.78-15.06-1.05-.64-1.29-2.05-.51-2.99Z"/>
  </g>
  <g id="body">
    <path class="cls-4" d="M1434.41,884.97c-1.17-4.1-4.67-13.57-12.19-13.98-9.28-.51-64.36,4.28-87.47-25.36-1.63-2.09-4.13-3.3-6.78-3.36-14.04-.31-56.89-.15-69.71,12.48,0,0-6.71,5.09-4.21,50.28.05.98.28,1.94.68,2.83,1.1,2.42,4.04,7.11,11.73,12.65,11.3,8.15-45.83,8.49-45.83,8.49,0,0-23.97-2.39-101.39-61.51-77.42-59.12-125.87-46.52-125.87-46.52,0,0,.39-15.74-9.32-15.65,0,0-42.6,1.46-45.05,1.87-2.45.41-9.35,2.53-8.96,20.75s3.07,74.7,2.13,74.91c-.94.21-84.4,11.65-134.47,10.31-50.06-1.34-147.04-9.29-246.97,1.88,0,0-103.63,16.13-134.72,35.88s-11,34.81-8.81,37.81c4.86,6.33,50.34,37.06,151.09,52.5,100.75,15.44,146.2,40.19,146.2,40.19,0,0,442.53,16.58,463.31,17.92,20.78,1.34,43.97-.54,47.82-1.69,3.85-1.15,115.82-44.12,136.96-39.94,0,0,18.82,1.72,37.24-5.07,18.42-6.78,12.18-34.12,11-40.64-1.12-6.21-2.92-29.3,29.17-37.42,3.35-.85,5.75-3.8,5.95-7.25.51-8.62.77-29.31-1.05-79-.04-1.14-.21-2.27-.52-3.37Z"/>
  </g>
  <g id="shadows">
    <g class="cls-16">
      <g>
        <path class="cls-19" d="M734.25,961.54l432.28,16.58-421.75-1.19,3.24,14.5,291.95,18.79-279.47-5.18s126.92,51,331.79,69.52c159.48,14.42,154.87,11.66,154.87,11.66l-127.8,64.96s-432.65-37.47-433.68-37.47,48.58-152.17,48.58-152.17Z"/>
        <path class="cls-19" d="M918.15,884.96s66.69,9.67,90.78,20.03c6.89,2.96-21.5-1.21-40.49,3.02s-72.52,8.81-95.05,10.01-41.35,4.58-56.29-8.12,101.05-24.95,101.05-24.95Z"/>
        <path class="cls-19" d="M1357.36,971.12s29.14,25.12,6.17,104.76l-20.94-6.47,14.76-98.28Z"/>
      </g>
    </g>
  </g>
  <g id="dark_shadows" data-name="dark shadows">
    <g class="cls-13">
      <path class="cls-17" d="M724.04,1046.19s79.42,29.35,155.4,36.26,245.18,16.92,273.5,15.54-21.06,98.42-21.06,98.42l-544.23-66.65,87.71-100.49,48.69,16.92Z"/>
    </g>
  </g>
  <g id="Layer_9" data-name="Layer 9">
    <path class="cls-17" d="M509.06,1021.38l-9.71-4.73c-5.93-2.89-14.92-12.05-12.03-17.98l21.13-30.71c3.95-5.96,7.71-8.65,15.3-6.93l14.07,4.51c5.93,2.89,7.2,9.47,4.31,15.4l-25.67,30.89c-2.89,5.93-1.47,12.44-7.4,9.55Z"/>
  </g>
  <g id="Layer_8" data-name="Layer 8">
    <path class="cls-19" d="M438.2,978.46s-36.99,2.05-26.42,48.93c0,0,4.08,14.44,52.69,21.45,0,0,64.45,12.82,73.77-4.66,9.32-17.48,7.27-47.22,3.38-51.39-7.27-7.78-45.11-19.9-103.42-14.33Z"/>
  </g>
  <g id="Layer_10" data-name="Layer 10">
    <g class="cls-3">
      <path class="cls-17" d="M406.77,1004.53c.69.69,21.24,19.17,63.71,24.35s54.73,9.84,78.39,1.73c23.65-8.12-9.5,45.58-9.5,45.58l-146.24-18.65,13.64-53.01Z"/>
    </g>
  </g>
  <g id="tire_base" data-name="tire base">
    <circle class="cls-12" cx="1267.72" cy="1007.96" r="99.19"/>
    <circle class="cls-12" cx="652.21" cy="1007.96" r="99.19"/>
  </g>
  <g id="tire_center" data-name="tire center">
    <circle class="cls-2" cx="652.21" cy="1007.96" r="47.32"/>
    <circle class="cls-2" cx="1267.72" cy="1007.96" r="45.03"/>
  </g>
  <g id="tire_shadow" data-name="tire shadow">
    <g class="cls-11">
      <path class="cls-7" d="M606.71,994.65s14.24,57.15,78.73,47.41l-33.15,40.82-90.13-50.83,44.55-37.4Z"/>
    </g>
    <g class="cls-1">
      <path class="cls-7" d="M1220.83,990.76s17.57,64.44,81.45,51.41l-35.44,41.75-92.68-45.08,46.67-48.08Z"/>
    </g>
  </g>
  <g id="flag_pole" data-name="flag pole">
    <path d="M716.43,910.93l25.69.67-406.03-380.54s-7.3-3.01-11.34.87-1.06,11.26-1.06,11.26l392.75,367.74Z"/>
  </g>
  <g id="new_flag" data-name="new flag">
    <path class="cls-9" d="M1921.3,745.33c-122.8,56.52-254.39,73.29-388.33,61.51-111.27-9.79-220.26-35.98-328.69-61.74-105.53-25.07-214.01-55.08-322.91-59.34-110.08-4.31-198.86,35.52-271.03,118.69-73.2-86.75-175.97-145.01-240.52-239.12,90.98-113.23,242.35-151.44,381.34-161.63,104.72-7.68,206.58,3.84,308.93,25.2,170.82,35.64,339.64,89.18,515,97.5,119.73,5.68,237.12-13.89,346.22-64.37,0,94.43,0,188.87,0,283.3Z"/>
  </g>
  <g id="new_text" data-name="new text">
    <g>
      <path class="cls-8" d="M1886.7,673.71c-122.8,56.52-254.39,73.29-388.33,61.51-111.27-9.79-220.26-35.98-328.69-61.74-105.53-25.07-214.01-55.08-322.91-59.34-110.08-4.31-198.86,35.52-271.03,118.69"/>
      <path class="cls-5" d="M742.72,510.71l-24.88,9.4-3.96-10.48c-.28-.75-1.06-1.1-1.8-.81l-82.51,31.16c-.75.28-1.1,1.06-.81,1.8l31.23,82.7c.28.75,1.06,1.1,1.8.81l82.51-31.16c.75-.28,1.1-1.06.82-1.8l-9.61-25.45-30.5,11.52-9.33-24.7,55.38-20.92,18.94,50.14c5.44,14.41-1.97,30.46-16.37,35.9l-82.51,31.16c-14.41,5.44-30.39-1.78-35.83-16.19l-31.23-82.7c-5.44-14.41,1.78-30.39,16.19-35.83l82.51-31.16c14.41-5.44,30.58,1.71,36.02,16.11l3.96,10.48Z"/>
      <path class="cls-5" d="M923.78,499.63l-105.71-4.39-1.34,32.37,85.13,3.54-1.1,26.38-85.13-3.54-1.34,32.37,105.71,4.39-1.1,26.38-132.29-5.5,5.98-143.88,132.29,5.5-1.1,26.38Z"/>
      <path class="cls-5" d="M1077.53,502.88l26.07,5.3-28.68,141.11-28.22-5.74-65.98-121.17-21.04,103.48-25.87-5.26,28.69-141.11,28.22,5.74,65.79,121.13,21.04-103.48Z"/>
      <path class="cls-5" d="M1251.62,572.21l-102.88-24.69-7.56,31.5,82.85,19.88-6.16,25.67-82.85-19.88-7.56,31.5,102.88,24.69-6.16,25.67-128.74-30.9,33.61-140.02,128.74,30.9-6.16,25.67Z"/>
      <path class="cls-5" d="M1401,645.73c-3.1,14.88-18.01,24.64-33.09,21.5l-7.64-1.59,26.35,49.01-1.39,6.66-28.19-5.88-30.63-56.86-45.62-9.52-.59-.12-10.09,48.36-25.84-5.39,29.37-140.77,113.56,23.69c15.08,3.15,24.84,18.05,21.73,32.93l-7.92,37.98ZM1373.3,641.38c.78.16,1.49-.3,1.66-1.08l7.92-37.98c.16-.78-.3-1.49-1.08-1.66l-86.34-18.01c-.78-.16-1.49.3-1.66,1.08l-7.92,37.98c-.16.78.3,1.49,1.08,1.66l86.34,18.01Z"/>
      <path class="cls-5" d="M1545.29,595.17c15.33,1.5,26.66,15.06,25.17,30.39l-11.29,115.65-26.47-2.59,4.7-48.17-90.57-8.84-4.71,48.17-26.27-2.57,11.29-115.65c1.5-15.33,15.04-26.46,30.37-24.97l87.78,8.57ZM1539.95,664.17l4.02-41.2c.08-.8-.46-1.45-1.26-1.53l-87.78-8.57c-.8-.08-1.45.46-1.53,1.26l-4.02,41.2,90.57,8.85Z"/>
      <path class="cls-5" d="M1584.88,597.94l26.24-2.9,12.92,117.09,116.89-12.9,2.9,26.24-143.13,15.8-15.82-143.33Z"/>
    </g>
    <rect class="cls-8" x="2159.76" y="915.42" width="3.11" height="0"/>
  </g>
</svg>