<?xml version="1.0" encoding="UTF-8"?>
<svg xmlns="http://www.w3.org/2000/svg" viewBox="0 0 1393.09 1817.45">
  <defs>
    <style>
      .cls-1 {
        fill: #d2273d;
      }

      .cls-2 {
        fill: none;
        stroke: #d2273d;
        stroke-miterlimit: 10;
        stroke-width: 10px;
      }
    </style>
  </defs>
  <g id="flag_outline" data-name="flag outline">
    <path class="cls-1" d="M916.61,686.8c-30.77-29.36-60.15-71.99-78.61-114.01-34.32-78.15-44.1-91.41-63.33-109.39-41.33-38.64-99.22-66.99-102.56-68.5h-6.24l-234.45,309.26,3.88,3.11c.81.36,55.92,24.75,96.04,62.25,18.1,16.93,27.43,29.67,60.99,106.1,17.28,39.34,43.74,79.06,72.57,108.97,10.5,10.89,24.98,17,40.07,17,.91,0,1.82-.02,2.73-.07,16.18-.78,31.22-8.52,41.27-21.22l172.8-218.33c8.17-10.33,12.19-22.61,12.19-34.82,0-14.75-5.86-29.38-17.35-40.35ZM870.94,649.48l-81.03,97.26c-13.25-18.86-25.83-40.4-36.08-63.74-.43-.97-.84-1.91-1.26-2.86l79.6-96c10.61,22.76,23.89,45.06,38.77,65.34ZM614.03,667.59c-1.13-1.06-2.3-2.11-3.49-3.17l70.59-85.82c.87.77,1.72,1.55,2.54,2.32,17.41,16.27,26.71,28.69,57.25,97.61l-69.85,84.25c-29.33-65.68-39.06-78.38-57.04-95.19ZM669.28,404.1c15.07,7.08,55.93,30.06,92.27,61l-81.67,99.29c-36.52-29.73-73.1-47.88-90.99-56.39l80.39-103.9ZM525.87,751.62c-36.14-28.92-68.4-46.12-85.78-54.32l64.21-89.28c14.53,6.84,55.58,28.03,92.25,57.67l-70.68,85.93ZM601.49,871.6c-.91-2.06-1.79-4.06-2.66-6.03l69.63-83.98c10.37,23.49,23.46,45.93,37.52,65.89l-70.59,84.72c-13.19-19.28-24.84-39.98-33.9-60.6ZM787.8,915.12c-17.2-8.71-43.98-33.02-69.18-67.19l70.74-84.91c23.04,30.75,47.85,54.5,67.13,65.32l-68.69,86.78Z"/>
  </g>
  <g id="stick">
    <path class="cls-2" d="M203.19,937.81l461.01-600.86s6.83-11.14,23.88.4c17.23,11.66,11.91,18.25,11.91,18.25-3.55,5.17-462.04,607.81-462.04,607.81,0,0-9.02,9.81-25.21-2.42-17.29-13.06-9.54-23.18-9.54-23.18Z"/>
  </g>
</svg>