<?xml version="1.0" encoding="UTF-8"?><svg id="Layer_1" xmlns="http://www.w3.org/2000/svg" xmlns:xlink="http://www.w3.org/1999/xlink" viewBox="0 0 2436 1125"><defs><clipPath id="clippath"><circle cx="1128.43" cy="901.24" r="47.65" fill="none"/></clipPath><clipPath id="clippath-1"><circle cx="1128.43" cy="901.24" r="47.65" fill="none"/></clipPath><clipPath id="clippath-2"><path d="M799.96,932.89s-103.63,16.13-134.72,35.88c-31.09,19.76-11,34.81-8.81,37.81,4.86,6.33,50.34,37.06,151.09,52.5s146.2,40.19,146.2,40.19c0,0,442.53,16.58,463.31,17.92,20.78,1.34,43.97-.54,47.82-1.69s115.82-44.12,136.96-39.94c0,0,18.82,1.72,37.24-5.07,18.42-6.78,12.18-34.12,11-40.64-1.12-6.21-2.92-29.3,29.17-37.42,3.35-.85,5.75-3.8,5.95-7.25.51-8.62.77-29.31-1.05-79-.04-1.14-.21-2.27-.52-3.37-1.17-4.1-4.67-13.57-12.19-13.98-9.28-.51-64.36,4.28-87.47-25.36-1.63-2.09-4.13-3.3-6.78-3.36-14.04-.31-56.89-.15-69.71,12.48,0,0-6.71,5.09-4.21,50.28.05.98.28,1.94.68,2.83,1.1,2.42,4.04,7.11,11.73,12.65,11.3,8.15-45.83,8.49-45.83,8.49,0,0-23.97-2.39-101.39-61.51s-125.87-46.52-125.87-46.52c0,0,.39-15.74-9.32-15.65,0,0-42.6,1.46-45.05,1.87s-9.35,2.53-8.96,20.75c.38,18.21,3.07,74.7,2.13,74.91-.94.21-84.4,11.65-134.47,10.31-50.06-1.34-147.04-9.29-246.97,1.88h.04,0Z" fill="none"/></clipPath><clipPath id="clippath-3"><path d="M799.96,932.89s-103.63,16.13-134.72,35.88c-31.09,19.76-11,34.81-8.81,37.81,4.86,6.33,50.34,37.06,151.09,52.5s146.2,40.19,146.2,40.19c0,0,442.53,16.58,463.31,17.92,20.78,1.34,43.97-.54,47.82-1.69s115.82-44.12,136.96-39.94c0,0,18.82,1.72,37.24-5.07,18.42-6.78,12.18-34.12,11-40.64-1.12-6.21-2.92-29.3,29.17-37.42,3.35-.85,5.75-3.8,5.95-7.25.51-8.62.77-29.31-1.05-79-.04-1.14-.21-2.27-.52-3.37-1.17-4.1-4.67-13.57-12.19-13.98-9.28-.51-64.36,4.28-87.47-25.36-1.63-2.09-4.13-3.3-6.78-3.36-14.04-.31-56.89-.15-69.71,12.48,0,0-6.71,5.09-4.21,50.28.05.98.28,1.94.68,2.83,1.1,2.42,4.04,7.11,11.73,12.65,11.3,8.15-45.83,8.49-45.83,8.49,0,0-23.97-2.39-101.39-61.51s-125.87-46.52-125.87-46.52c0,0,.39-15.74-9.32-15.65,0,0-42.6,1.46-45.05,1.87s-9.35,2.53-8.96,20.75c.38,18.21,3.07,74.7,2.13,74.91-.94.21-84.4,11.65-134.47,10.31-50.06-1.34-147.04-9.29-246.97,1.88h.04,0Z" fill="none"/></clipPath><clipPath id="clippath-4"><path d="M687.41,996.31s-36.99,2.05-26.42,48.93c0,0,4.08,14.44,52.69,21.45,0,0,64.45,12.82,73.77-4.66s7.27-47.22,3.38-51.39c-7.27-7.78-45.11-19.9-103.42-14.33h0Z" fill="none"/></clipPath><clipPath id="clippath-5"><circle cx="901.42" cy="1025.81" r="47.32" fill="none"/></clipPath><clipPath id="clippath-6"><circle cx="1516.93" cy="1025.81" r="45.03" fill="none"/></clipPath></defs><g id="helmet"><circle cx="1128.43" cy="901.24" r="47.65" fill="#d2273d"/></g><g id="Layer_18"><g clip-path="url(#clippath)"><path d="M1078.79,913.43s13.32,12.88,76.64,12.63l-78.99,18.78,2.35-31.4h0Z" fill="#7c1724"/></g></g><g id="helmet_visor"><g clip-path="url(#clippath-1)"><path d="M1074.69,883.82s29.62-.42,36.43.78c6.39,1.12,6.91,3.97,6.91,3.97,0,0,1.73,8.12-3.97,16.92s-11.57,12.95-30.73,17.18-26.42-21.24-26.42-21.24l17.78-17.61h0Z" fill="#efdadd"/></g></g><g id="helmet_shine"><path d="M1143.57,866.59l2.96-3.55c.64-.76,1.73-.95,2.58-.43,3.77,2.32,13.59,9.16,16.93,19.32.35,1.06-.27,2.2-1.34,2.52l-4.42,1.33c-.98.3-2.02-.2-2.42-1.14-1.29-3.05-4.94-9.66-13.78-15.06-1.05-.64-1.29-2.05-.51-2.99h0Z" fill="#ff7385"/></g><g id="body"><path d="M1683.62,902.82c-1.17-4.1-4.67-13.57-12.19-13.98-9.28-.51-64.36,4.28-87.47-25.36-1.63-2.09-4.13-3.3-6.78-3.36-14.04-.31-56.89-.15-69.71,12.48,0,0-6.71,5.09-4.21,50.28.05.98.28,1.94.68,2.83,1.1,2.42,4.04,7.11,11.73,12.65,11.3,8.15-45.83,8.49-45.83,8.49,0,0-23.97-2.39-101.39-61.51s-125.87-46.52-125.87-46.52c0,0,.39-15.74-9.32-15.65,0,0-42.6,1.46-45.05,1.87s-9.35,2.53-8.96,20.75,3.07,74.7,2.13,74.91c-.94.21-84.4,11.65-134.47,10.31-50.06-1.34-147.04-9.29-246.97,1.88,0,0-103.63,16.13-134.72,35.88s-11,34.81-8.81,37.81c4.86,6.33,50.34,37.06,151.09,52.5,100.75,15.44,146.2,40.19,146.2,40.19,0,0,442.53,16.58,463.31,17.92s43.97-.54,47.82-1.69c3.85-1.15,115.82-44.12,136.96-39.94,0,0,18.82,1.72,37.24-5.07,18.42-6.78,12.18-34.12,11-40.64-1.12-6.21-2.92-29.3,29.17-37.42,3.35-.85,5.75-3.8,5.95-7.25.51-8.62.77-29.31-1.05-79-.04-1.14-.21-2.27-.52-3.37h.04,0Z" fill="#00aeb9"/></g><g id="shadows"><g clip-path="url(#clippath-2)"><path d="M983.46,979.39l432.28,16.58-421.75-1.19,3.24,14.5,291.95,18.79-279.47-5.18s126.92,51,331.79,69.52c159.48,14.42,154.87,11.66,154.87,11.66l-127.8,64.96s-432.65-37.47-433.68-37.47,48.58-152.17,48.58-152.17h-.01,0Z" fill="#006c73"/><path d="M1167.36,902.81s66.69,9.67,90.78,20.03c6.89,2.96-21.5-1.21-40.49,3.02s-72.52,8.81-95.05,10.01-41.35,4.58-56.29-8.12,101.05-24.95,101.05-24.95h0Z" fill="#006c73"/><path d="M1606.57,988.97s29.14,25.12,6.17,104.76l-20.94-6.47,14.76-98.28h0Z" fill="#006c73"/></g></g><g id="dark_shadows"><g clip-path="url(#clippath-3)"><path d="M973.25,1064.04s79.42,29.35,155.4,36.26,245.18,16.92,273.5,15.54-21.06,98.42-21.06,98.42l-544.23-66.65,87.71-100.49,48.69,16.92h-.01Z" fill="#004347"/></g></g><g id="Layer_9"><path d="M758.27,1039.23l-9.71-4.73c-5.93-2.89-14.92-12.05-12.03-17.98l21.13-30.71c3.95-5.96,7.71-8.65,15.3-6.93l14.07,4.51c5.93,2.89,7.2,9.47,4.31,15.4l-25.67,30.89c-2.89,5.93-1.47,12.44-7.4,9.55h0Z" fill="#004347"/></g><g id="Layer_8"><path d="M687.41,996.31s-36.99,2.05-26.42,48.93c0,0,4.08,14.44,52.69,21.45,0,0,64.45,12.82,73.77-4.66s7.27-47.22,3.38-51.39c-7.27-7.78-45.11-19.9-103.42-14.33h0Z" fill="#006c73"/></g><g id="Layer_10"><g clip-path="url(#clippath-4)"><path d="M655.98,1022.38c.69.69,21.24,19.17,63.71,24.35s54.73,9.84,78.39,1.73c23.65-8.12-9.5,45.58-9.5,45.58l-146.24-18.65,13.64-53.01h0Z" fill="#004347"/></g></g><g id="tire_base"><circle cx="1516.93" cy="1025.81" r="99.19" fill="#3a3a3a"/><circle cx="901.42" cy="1025.81" r="99.19" fill="#3a3a3a"/></g><g id="tire_center"><circle cx="901.42" cy="1025.81" r="47.32" fill="#838383"/><circle cx="1516.93" cy="1025.81" r="45.03" fill="#838383"/></g><g id="tire_shadow"><g clip-path="url(#clippath-5)"><path d="M855.92,1012.5s14.24,57.15,78.73,47.41l-33.15,40.82-90.13-50.83,44.55-37.4h0Z" fill="#535353"/></g><g clip-path="url(#clippath-6)"><path d="M1470.04,1008.61s17.57,64.44,81.45,51.41l-35.44,41.75-92.68-45.08,46.67-48.08h0Z" fill="#535353"/></g></g><g id="flag_pole"><path d="M965.64,928.78l25.69.67-406.03-380.54s-7.3-3.01-11.34.87-1.06,11.26-1.06,11.26l392.75,367.74h-.01Z"/><path d="M658.79,641.61l25.69.67-406.04-380.54s-7.3-3.01-11.34.87c-4.04,3.88-1.06,11.26-1.06,11.26l392.75,367.74h0Z"/></g><g id="new_flag"><path d="M2170.51,763.18c-122.8,56.52-254.39,73.29-388.33,61.51-111.27-9.79-220.26-35.98-328.69-61.74-105.53-25.07-214.01-55.08-322.91-59.34-110.08-4.31-198.86,35.52-271.03,118.69-73.2-86.75-175.97-145.01-240.52-239.12,90.98-113.23,242.35-151.44,381.34-161.63,104.72-7.68,206.58,3.84,308.93,25.2,170.82,35.64,339.64,89.18,515,97.5,119.73,5.68,237.12-13.89,346.22-64.37v283.3h0Z" stroke="#000" stroke-miterlimit="10"/></g><g id="chop_layer"><path d="M1773.03,210.71c-300.51-28-595.13-176.54-902.97-105.81-46.19,10.61-362.62,82.39-481.76,267.82l200.58,180.22c104.49-116.95,259.99-161.87,319.79-172.34,274.81-48.09,537.49,69.59,806.46,107.18l57.9-277.08h0Z"/></g><g id="new_text"><path d="M2135.91,691.56c-122.8,56.52-254.39,73.29-388.33,61.51-111.27-9.79-220.26-35.98-328.69-61.74-105.53-25.07-214.01-55.08-322.91-59.34-110.08-4.31-198.86,35.52-271.03,118.69" fill="none"/><path d="M842.63,578.28c-.72.36-.99,1.16-.63,1.88l39.26,79.21c.36.72,1.16.99,1.88.63l103.76-51.43,11.72,23.65-103.76,51.43c-13.8,6.84-30.42,1.24-37.25-12.56l-39.26-79.21c-6.84-13.8-1.24-30.42,12.56-37.25l103.76-51.43,11.72,23.65-103.76,51.43h0Z" fill="#fff"/><path d="M1126.14,487.76c15.2.03,27.78,12.45,27.75,27.85l-.17,88.4c-.03,15.4-12.65,27.78-27.85,27.75l-88.4-.17c-15.4-.03-27.78-12.45-27.75-27.85l.17-88.4c.03-15.4,12.45-27.78,27.85-27.75l88.4.17h0ZM1125.92,605.35c.6,0,1.2-.6,1.2-1.4l.17-88.4c0-.8-.6-1.4-1.2-1.4l-88.4-.17c-.8,0-1.4.6-1.4,1.4l-.17,88.4c0,.8.6,1.4,1.4,1.4l88.4.17Z" fill="#fff"/><path d="M1316.05,518.28l26.1,5.13-27.77,141.3-28.26-5.55-66.76-120.74-20.37,103.62-25.9-5.09,27.77-141.3,28.26,5.55,66.57,120.71,20.37-103.62h0Z" fill="#fff"/><path d="M1484.96,559.11c14.97,3.59,24.33,18.59,20.74,33.57l-20.63,85.96c-3.59,14.97-18.74,24.09-33.71,20.5l-112.79-27.07,33.61-140.02,112.79,27.07h-.01ZM1479.83,586.47c.19-.78-.26-1.5-1.04-1.69l-85.76-20.58c-.78-.19-1.5.26-1.69,1.03l-20.63,85.96c-.19.78.26,1.5,1.04,1.69l85.76,20.58c.78.19,1.5-.26,1.69-1.03l20.63-85.96Z" fill="#fff"/><path d="M1648.48,594.75l26.06,5.31-23.19,113.86c-3.07,15.09-17.89,24.72-32.79,21.69l-86.62-17.64c-15.09-3.07-24.76-17.7-21.69-32.79l23.19-113.86,25.87,5.27-23.19,113.86c-.16.78.31,1.49,1.09,1.65l86.62,17.64c.59.12,1.3-.35,1.46-1.13l23.19-113.86h0Z" fill="#fff"/><path d="M1719.1,632.72c-.8-.07-1.45.48-1.51,1.28l-7.28,88.1c-.07.8.48,1.44,1.28,1.51l115.41,9.54-2.17,26.31-115.41-9.54c-15.35-1.27-26.68-14.65-25.42-30l7.28-88.1c1.27-15.35,14.65-26.68,30-25.42l115.41,9.54-2.18,26.31-115.41-9.54h0Z" fill="#fff"/><path d="M1985.48,597.51l3.48,26.17-58.09,7.73,15.5,116.58-26.37,3.51-15.5-116.58-58.29,7.75-3.48-26.17,142.75-18.98h0Z" fill="#fff"/></g><g id="text"><path d="M2171.01,360.51c-53,24.33-109.16,42.06-166.7,52.51-373.47,67.83-723.43-171.16-1095.64-106.02-59.8,10.47-215.3,55.39-319.79,172.34" fill="none"/><path d="M599.84,311.62c-.68.42-.88,1.25-.46,1.93l46.42,75.23c.42.68,1.25.88,1.93.46l98.54-60.81,13.86,22.47-98.54,60.81c-13.11,8.09-30.17,4.05-38.26-9.06l-46.42-75.23c-8.09-13.1-4.05-30.17,9.06-38.26l98.54-60.81,13.86,22.47-98.54,60.81h.01Z" fill="#fff"/><path d="M838.99,173.67c14.48-4.61,30.25,3.39,34.92,18.06l26.8,84.24c4.67,14.67-3.58,30.31-18.06,34.92l-84.24,26.8c-14.67,4.67-30.25-3.39-34.92-18.06l-26.8-84.24c-4.67-14.67,3.39-30.25,18.06-34.92l84.24-26.8h0ZM874.63,285.73c.57-.18.96-.94.72-1.7l-26.8-84.24c-.24-.76-1-1.15-1.57-.97l-84.24,26.8c-.76.24-1.15,1-.91,1.76l26.8,84.24c.24.76,1,1.15,1.76.91l84.24-26.8Z" fill="#fff"/><path d="M1031.05,150.7c15.37-.89,28.67,10.75,29.57,26.13l5.13,88.25c.89,15.37-10.96,28.48-26.34,29.38l-115.8,6.73-8.36-143.76,115.8-6.73h0ZM1034.06,178.38c-.05-.8-.68-1.36-1.48-1.32l-88.05,5.12c-.8.05-1.36.68-1.32,1.48l5.13,88.25c.05.8.68,1.36,1.48,1.32l88.05-5.12c.8-.05,1.36-.68,1.32-1.48l-5.13-88.25h0Z" fill="#fff"/><path d="M1228.81,191.55l-105.22-11.09-3.4,32.22,84.73,8.93-2.77,26.25-84.73-8.93-3.4,32.22,105.22,11.09-2.77,26.25-131.67-13.88,15.1-143.21,131.67,13.88-2.77,26.25v.02h.01Z" fill="#fff"/><path d="M1437.91,208.51c14.82,3.36,24.37,18.24,20.97,33.26l-19.55,86.21c-3.4,15.02-18.43,24.33-33.26,20.97l-86.21-19.54c-15.02-3.41-24.37-18.24-20.97-33.26l19.54-86.21c3.41-15.02,18.24-24.37,33.26-20.97l86.21,19.55h.01ZM1411.91,323.2c.59.13,1.3-.32,1.48-1.1l19.54-86.21c.18-.78-.28-1.5-.86-1.63l-86.21-19.55c-.78-.18-1.5.28-1.67,1.06l-19.54,86.21c-.18.78.28,1.5,1.06,1.68l86.21,19.54h-.01Z" fill="#fff"/><path d="M1615.92,250.67l-6,25.71-103.03-24.05-7.36,31.55,82.97,19.36-6,25.71-82.97-19.36-13.36,57.26-25.9-6.05,32.73-140.23,128.93,30.09h-.01,0Z" fill="#fff"/></g></svg>