<?xml version="1.0" encoding="UTF-8"?><svg id="Layer_1" xmlns="http://www.w3.org/2000/svg" xmlns:xlink="http://www.w3.org/1999/xlink" viewBox="0 0 2436 1125"><defs><clipPath id="clippath"><circle cx="975.25" cy="901.24" r="47.65" fill="none"/></clipPath><clipPath id="clippath-1"><circle cx="975.25" cy="901.24" r="47.65" fill="none"/></clipPath><clipPath id="clippath-2"><path d="M646.78,932.89s-103.63,16.13-134.72,35.88c-31.09,19.76-11,34.81-8.81,37.81,4.86,6.33,50.34,37.06,151.09,52.5s146.2,40.19,146.2,40.19c0,0,442.53,16.58,463.31,17.92,20.78,1.34,43.97-.54,47.82-1.69s115.82-44.12,136.96-39.94c0,0,18.82,1.72,37.24-5.07,18.42-6.78,12.18-34.12,11-40.64-1.12-6.21-2.92-29.3,29.17-37.42,3.35-.85,5.75-3.8,5.95-7.25.51-8.62.77-29.31-1.05-79-.04-1.14-.21-2.27-.52-3.37-1.17-4.1-4.67-13.57-12.19-13.98-9.28-.51-64.36,4.28-87.47-25.36-1.63-2.09-4.13-3.3-6.78-3.36-14.04-.31-56.89-.15-69.71,12.48,0,0-6.71,5.09-4.21,50.28.05.98.28,1.94.68,2.83,1.1,2.42,4.04,7.11,11.73,12.65,11.3,8.15-45.83,8.49-45.83,8.49,0,0-23.97-2.39-101.39-61.51s-125.87-46.52-125.87-46.52c0,0,.39-15.74-9.32-15.65,0,0-42.6,1.46-45.05,1.87s-9.35,2.53-8.96,20.75c.38,18.21,3.07,74.7,2.13,74.91s-84.4,11.65-134.47,10.31c-50.06-1.34-147.04-9.29-246.97,1.88h.04,0Z" fill="none"/></clipPath><clipPath id="clippath-3"><path d="M646.78,932.89s-103.63,16.13-134.72,35.88c-31.09,19.76-11,34.81-8.81,37.81,4.86,6.33,50.34,37.06,151.09,52.5s146.2,40.19,146.2,40.19c0,0,442.53,16.58,463.31,17.92,20.78,1.34,43.97-.54,47.82-1.69s115.82-44.12,136.96-39.94c0,0,18.82,1.72,37.24-5.07,18.42-6.78,12.18-34.12,11-40.64-1.12-6.21-2.92-29.3,29.17-37.42,3.35-.85,5.75-3.8,5.95-7.25.51-8.62.77-29.31-1.05-79-.04-1.14-.21-2.27-.52-3.37-1.17-4.1-4.67-13.57-12.19-13.98-9.28-.51-64.36,4.28-87.47-25.36-1.63-2.09-4.13-3.3-6.78-3.36-14.04-.31-56.89-.15-69.71,12.48,0,0-6.71,5.09-4.21,50.28.05.98.28,1.94.68,2.83,1.1,2.42,4.04,7.11,11.73,12.65,11.3,8.15-45.83,8.49-45.83,8.49,0,0-23.97-2.39-101.39-61.51s-125.87-46.52-125.87-46.52c0,0,.39-15.74-9.32-15.65,0,0-42.6,1.46-45.05,1.87s-9.35,2.53-8.96,20.75c.38,18.21,3.07,74.7,2.13,74.91s-84.4,11.65-134.47,10.31c-50.06-1.34-147.04-9.29-246.97,1.88h.04,0Z" fill="none"/></clipPath><clipPath id="clippath-4"><path d="M534.23,996.31s-36.99,2.05-26.42,48.93c0,0,4.08,14.44,52.69,21.45,0,0,64.45,12.82,73.77-4.66s7.27-47.22,3.38-51.39c-7.27-7.78-45.11-19.9-103.42-14.33Z" fill="none"/></clipPath><clipPath id="clippath-5"><circle cx="748.24" cy="1025.81" r="47.32" fill="none"/></clipPath><clipPath id="clippath-6"><circle cx="1363.75" cy="1025.81" r="45.03" fill="none"/></clipPath></defs><g id="helmet"><circle cx="975.25" cy="901.24" r="47.65" fill="#6161c8"/></g><g id="Layer_18"><g clip-path="url(#clippath)"><path d="M925.61,913.43s13.32,12.88,76.64,12.63l-78.99,18.78,2.35-31.4h0Z" fill="#414186"/></g></g><g id="helmet_visor"><g clip-path="url(#clippath-1)"><path d="M921.51,883.82s29.62-.42,36.43.78c6.39,1.12,6.91,3.97,6.91,3.97,0,0,1.73,8.12-3.97,16.92s-11.57,12.95-30.73,17.18-26.42-21.24-26.42-21.24l17.78-17.61h0Z" fill="#efdadd"/></g></g><g id="helmet_shine"><path d="M990.39,866.59l2.96-3.55c.64-.76,1.73-.95,2.58-.43,3.77,2.32,13.59,9.16,16.93,19.32.35,1.06-.27,2.2-1.34,2.52l-4.42,1.33c-.98.3-2.02-.2-2.42-1.14-1.29-3.05-4.94-9.66-13.78-15.06-1.05-.64-1.29-2.05-.51-2.99h0Z" fill="#a2a2e4"/></g><g id="body"><path d="M1530.44,902.82c-1.17-4.1-4.67-13.57-12.19-13.98-9.28-.51-64.36,4.28-87.47-25.36-1.63-2.09-4.13-3.3-6.78-3.36-14.04-.31-56.89-.15-69.71,12.48,0,0-6.71,5.09-4.21,50.28.05.98.28,1.94.68,2.83,1.1,2.42,4.04,7.11,11.73,12.65,11.3,8.15-45.83,8.49-45.83,8.49,0,0-23.97-2.39-101.39-61.51s-125.87-46.52-125.87-46.52c0,0,.39-15.74-9.32-15.65,0,0-42.6,1.46-45.05,1.87s-9.35,2.53-8.96,20.75,3.07,74.7,2.13,74.91-84.4,11.65-134.47,10.31c-50.06-1.34-147.04-9.29-246.97,1.88,0,0-103.63,16.13-134.72,35.88s-11,34.81-8.81,37.81c4.86,6.33,50.34,37.06,151.09,52.5s146.2,40.19,146.2,40.19c0,0,442.53,16.58,463.31,17.92,20.78,1.34,43.97-.54,47.82-1.69s115.82-44.12,136.96-39.94c0,0,18.82,1.72,37.24-5.07,18.42-6.78,12.18-34.12,11-40.64-1.12-6.21-2.92-29.3,29.17-37.42,3.35-.85,5.75-3.8,5.95-7.25.51-8.62.77-29.31-1.05-79-.04-1.14-.21-2.27-.52-3.37h.04,0Z" fill="#ffc602"/></g><g id="shadows"><g clip-path="url(#clippath-2)"><path d="M830.28,979.39l432.28,16.58-421.75-1.19,3.24,14.5,291.95,18.79-279.47-5.18s126.92,51,331.79,69.52c159.48,14.42,154.87,11.66,154.87,11.66l-127.8,64.96s-432.65-37.47-433.68-37.47,48.58-152.17,48.58-152.17h-.01Z" fill="#b88f02"/><path d="M1014.18,902.81s66.69,9.67,90.78,20.03c6.89,2.96-21.5-1.21-40.49,3.02s-72.52,8.81-95.05,10.01-41.35,4.58-56.29-8.12,101.05-24.95,101.05-24.95h0Z" fill="#b88f02"/><path d="M1453.39,988.97s29.14,25.12,6.17,104.76l-20.94-6.47,14.76-98.28h.01,0Z" fill="#b88f02"/></g></g><g id="dark_shadows"><g clip-path="url(#clippath-3)"><path d="M820.07,1064.04s79.42,29.35,155.4,36.26,245.18,16.92,273.5,15.54-21.06,98.42-21.06,98.42l-544.23-66.65,87.71-100.49,48.69,16.92h-.01,0Z" fill="#675001"/></g></g><g id="Layer_9"><path d="M605.09,1039.23l-9.71-4.73c-5.93-2.89-14.92-12.05-12.03-17.98l21.13-30.71c3.95-5.96,7.71-8.65,15.3-6.93l14.07,4.51c5.93,2.89,7.2,9.47,4.31,15.4l-25.67,30.89c-2.89,5.93-1.47,12.44-7.4,9.55h0Z" fill="#675001"/></g><g id="Layer_8"><path d="M534.23,996.31s-36.99,2.05-26.42,48.93c0,0,4.08,14.44,52.69,21.45,0,0,64.45,12.82,73.77-4.66s7.27-47.22,3.38-51.39c-7.27-7.78-45.11-19.9-103.42-14.33h0Z" fill="#b88f02"/></g><g id="Layer_10"><g clip-path="url(#clippath-4)"><path d="M502.8,1022.38c.69.69,21.24,19.17,63.71,24.35,42.47,5.18,54.73,9.84,78.39,1.73,23.65-8.12-9.5,45.58-9.5,45.58l-146.24-18.65,13.64-53.01h0Z" fill="#675001"/></g></g><g id="tire_base"><circle cx="1363.75" cy="1025.81" r="99.19" fill="#3a3a3a"/><circle cx="748.24" cy="1025.81" r="99.19" fill="#3a3a3a"/></g><g id="tire_center"><circle cx="748.24" cy="1025.81" r="47.32" fill="#838383"/><circle cx="1363.75" cy="1025.81" r="45.03" fill="#838383"/></g><g id="tire_shadow"><g clip-path="url(#clippath-5)"><path d="M702.74,1012.5s14.24,57.15,78.73,47.41l-33.15,40.82-90.13-50.83,44.55-37.4h0Z" fill="#535353"/></g><g clip-path="url(#clippath-6)"><path d="M1316.86,1008.61s17.57,64.44,81.45,51.41l-35.44,41.75-92.68-45.08,46.67-48.08h0Z" fill="#535353"/></g></g><g id="flag_pole"><path d="M812.46,928.78l25.69.67-406.03-380.54s-7.3-3.01-11.34.87-1.06,11.26-1.06,11.26l392.75,367.74h-.01Z"/></g><g id="new_flag"><path d="M2017.33,763.18c-122.8,56.52-254.39,73.29-388.33,61.51-111.27-9.79-220.26-35.98-328.69-61.74-105.53-25.07-214.01-55.08-322.91-59.34-110.08-4.31-198.86,35.52-271.03,118.69-73.2-86.75-175.97-145.01-240.52-239.12,90.98-113.23,242.35-151.44,381.34-161.63,104.72-7.68,206.58,3.84,308.93,25.2,170.82,35.64,339.64,89.18,515,97.5,119.73,5.68,237.12-13.89,346.22-64.37v283.3h0Z" stroke="#000" stroke-miterlimit="10"/></g><g id="new_text"><path d="M1982.73,691.56c-122.8,56.52-254.39,73.29-388.33,61.51-111.27-9.79-220.26-35.98-328.69-61.74-105.53-25.07-214.01-55.08-322.91-59.34-110.08-4.31-198.86,35.52-271.03,118.69" fill="none"/><path d="M622.58,590.93l22.45-13.88,61.95,100.19,100.02-61.85,13.88,22.45-122.48,75.73-75.83-122.65h.01,0Z" fill="#fff"/><path d="M926.63,485.73c15.14-1.3,28.76,9.97,30.08,25.31l7.58,88.07c1.32,15.34-10.17,28.78-25.31,30.08l-88.08,7.58c-15.34,1.32-28.76-9.97-30.08-25.31l-7.58-88.07c-1.32-15.34,9.97-28.76,25.31-30.08l88.08-7.58h0ZM936.72,602.9c.6-.05,1.14-.7,1.08-1.5l-7.58-88.08c-.07-.8-.72-1.34-1.32-1.29l-88.07,7.58c-.8.07-1.34.72-1.27,1.51l7.58,88.08c.07.8.72,1.34,1.52,1.27l88.07-7.58h-.01Z" fill="#fff"/><path d="M1143.91,552.81l-26.23-4.43,1.87-11.04c.13-.79-.36-1.48-1.15-1.61l-86.97-14.69c-.79-.13-1.48.36-1.61,1.15l-14.72,87.16c-.13.79.36,1.48,1.15,1.61l86.97,14.69c.79.13,1.48-.36,1.61-1.15l4.53-26.82-32.14-5.43,4.4-26.03,58.37,9.86-8.93,52.85c-2.57,15.18-17.05,25.31-32.24,22.75l-86.97-14.69c-15.19-2.56-25.35-16.86-22.78-32.04l14.72-87.16c2.56-15.18,16.86-25.35,32.04-22.78l86.97,14.69c15.18,2.56,25.54,16.89,22.98,32.07l-1.87,11.04h0Z" fill="#fff"/><path d="M1182.16,523.22l25.71,5.97-32.57,140.26-25.71-5.97,32.57-140.26Z" fill="#fff"/><path d="M1359.15,605.5l-25.87-6.18,2.56-10.7c.19-.78-.26-1.5-.84-1.64l-85.98-20.55c-.78-.19-1.5.26-1.69,1.04l-6.88,28.79c-.19.78.26,1.5,1.04,1.69l85.98,20.55c14.78,3.53,24.16,18.52,20.58,33.5l-6.88,28.79c-3.58,14.98-18.72,24.11-33.5,20.58l-85.98-20.55c-14.98-3.58-24.16-18.52-20.58-33.5l2.56-10.7,25.68,6.14-2.56,10.7c-.19.78.26,1.5,1.04,1.69l85.98,20.55c.58.14,1.31-.3,1.49-1.08l6.88-28.79c.19-.78-.26-1.5-.84-1.64l-85.98-20.55c-14.98-3.58-24.16-18.52-20.58-33.5l6.88-28.79c3.58-14.98,18.52-24.16,33.5-20.58l85.98,20.55c14.78,3.53,24.16,18.52,20.58,33.5l-2.56,10.7v-.02h-.01Z" fill="#fff"/><path d="M1523.08,600.35l-5.25,25.87-57.43-11.66-23.39,115.25-26.07-5.29,23.39-115.25-57.62-11.69,5.25-25.87,141.12,28.64h0Z" fill="#fff"/><path d="M1538.88,601.48l26.14,3.68-20.05,142.6-26.14-3.68,20.05-142.6Z" fill="#fff"/><path d="M1606.95,637.3c-.8-.02-1.42.56-1.44,1.36l-2.76,88.36c-.02.8.56,1.42,1.36,1.44l115.75,3.61-.82,26.39-115.75-3.61c-15.39-.48-27.4-13.26-26.92-28.65l2.76-88.36c.48-15.39,13.26-27.4,28.65-26.92l115.75,3.61-.82,26.39-115.75-3.61h-.01Z" fill="#fff"/><path d="M1883.46,622.6l-26.03,5.48-2.27-10.76c-.17-.78-.88-1.25-1.46-1.12l-86.5,18.21c-.78.17-1.25.88-1.08,1.66l6.1,28.97c.17.78.88,1.25,1.66,1.08l86.5-18.21c14.87-3.13,29.76,6.41,32.93,21.48l6.1,28.96c3.17,15.07-6.6,29.8-21.48,32.93l-86.5,18.21c-15.07,3.17-29.76-6.41-32.93-21.48l-2.27-10.76,25.83-5.44,2.27,10.76c.17.78.88,1.25,1.66,1.08l86.5-18.21c.59-.12,1.05-.83.89-1.62l-6.1-28.96c-.16-.78-.88-1.25-1.46-1.12l-86.5,18.21c-15.07,3.17-29.76-6.41-32.93-21.48l-6.1-28.96c-3.17-15.07,6.41-29.76,21.48-32.93l86.5-18.21c14.87-3.13,29.76,6.41,32.93,21.48l2.27,10.76h-.01Z" fill="#fff"/></g></svg>