<?xml version="1.0" encoding="UTF-8"?><svg id="Layer_1" xmlns="http://www.w3.org/2000/svg" xmlns:xlink="http://www.w3.org/1999/xlink" viewBox="0 0 2436 1125"><defs><clipPath id="clippath"><circle cx="975.25" cy="901.24" r="47.65" fill="none"/></clipPath><clipPath id="clippath-1"><circle cx="975.25" cy="901.24" r="47.65" fill="none"/></clipPath><clipPath id="clippath-2"><path d="M646.78,932.89s-103.63,16.13-134.72,35.88c-31.09,19.76-11,34.81-8.81,37.81,4.86,6.33,50.34,37.06,151.09,52.5s146.2,40.19,146.2,40.19c0,0,442.53,16.58,463.31,17.92,20.78,1.34,43.97-.54,47.82-1.69s115.82-44.12,136.96-39.94c0,0,18.82,1.72,37.24-5.07,18.42-6.78,12.18-34.12,11-40.64-1.12-6.21-2.92-29.3,29.17-37.42,3.35-.85,5.75-3.8,5.95-7.25.51-8.62.77-29.31-1.05-79-.04-1.14-.21-2.27-.52-3.37-1.17-4.1-4.67-13.57-12.19-13.98-9.28-.51-64.36,4.28-87.47-25.36-1.63-2.09-4.13-3.3-6.78-3.36-14.04-.31-56.89-.15-69.71,12.48,0,0-6.71,5.09-4.21,50.28.05.98.28,1.94.68,2.83,1.1,2.42,4.04,7.11,11.73,12.65,11.3,8.15-45.83,8.49-45.83,8.49,0,0-23.97-2.39-101.39-61.51s-125.87-46.52-125.87-46.52c0,0,.39-15.74-9.32-15.65,0,0-42.6,1.46-45.05,1.87s-9.35,2.53-8.96,20.75c.38,18.21,3.07,74.7,2.13,74.91s-84.4,11.65-134.47,10.31c-50.06-1.34-147.04-9.29-246.97,1.88h.04,0Z" fill="none"/></clipPath><clipPath id="clippath-3"><path d="M646.78,932.89s-103.63,16.13-134.72,35.88c-31.09,19.76-11,34.81-8.81,37.81,4.86,6.33,50.34,37.06,151.09,52.5s146.2,40.19,146.2,40.19c0,0,442.53,16.58,463.31,17.92,20.78,1.34,43.97-.54,47.82-1.69s115.82-44.12,136.96-39.94c0,0,18.82,1.72,37.24-5.07,18.42-6.78,12.18-34.12,11-40.64-1.12-6.21-2.92-29.3,29.17-37.42,3.35-.85,5.75-3.8,5.95-7.25.51-8.62.77-29.31-1.05-79-.04-1.14-.21-2.27-.52-3.37-1.17-4.1-4.67-13.57-12.19-13.98-9.28-.51-64.36,4.28-87.47-25.36-1.63-2.09-4.13-3.3-6.78-3.36-14.04-.31-56.89-.15-69.71,12.48,0,0-6.71,5.09-4.21,50.28.05.98.28,1.94.68,2.83,1.1,2.42,4.04,7.11,11.73,12.65,11.3,8.15-45.83,8.49-45.83,8.49,0,0-23.97-2.39-101.39-61.51s-125.87-46.52-125.87-46.52c0,0,.39-15.74-9.32-15.65,0,0-42.6,1.46-45.05,1.87s-9.35,2.53-8.96,20.75c.38,18.21,3.07,74.7,2.13,74.91s-84.4,11.65-134.47,10.31c-50.06-1.34-147.04-9.29-246.97,1.88h.04,0Z" fill="none"/></clipPath><clipPath id="clippath-4"><path d="M534.23,996.31s-36.99,2.05-26.42,48.93c0,0,4.08,14.44,52.69,21.45,0,0,64.45,12.82,73.77-4.66s7.27-47.22,3.38-51.39c-7.27-7.78-45.11-19.9-103.42-14.33Z" fill="none"/></clipPath><clipPath id="clippath-5"><circle cx="748.24" cy="1025.81" r="47.32" fill="none"/></clipPath><clipPath id="clippath-6"><circle cx="1363.75" cy="1025.81" r="45.03" fill="none"/></clipPath></defs><g id="helmet"><circle cx="975.25" cy="901.24" r="47.65" fill="#00aeb9"/></g><g id="Layer_18"><g clip-path="url(#clippath)"><path d="M925.61,913.43s13.32,12.88,76.64,12.63l-78.99,18.78,2.35-31.4h0Z" fill="#00848d"/></g></g><g id="helmet_visor"><g clip-path="url(#clippath-1)"><path d="M921.51,883.82s29.62-.42,36.43.78c6.39,1.12,6.91,3.97,6.91,3.97,0,0,1.73,8.12-3.97,16.92s-11.57,12.95-30.73,17.18-26.42-21.24-26.42-21.24l17.78-17.61h0Z" fill="#efdadd"/></g></g><g id="helmet_shine"><path d="M990.39,866.59l2.96-3.55c.64-.76,1.73-.95,2.58-.43,3.77,2.32,13.59,9.16,16.93,19.32.35,1.06-.27,2.2-1.34,2.52l-4.42,1.33c-.98.3-2.02-.2-2.42-1.14-1.29-3.05-4.94-9.66-13.78-15.06-1.05-.64-1.29-2.05-.51-2.99h0Z" fill="#5ee1f0"/></g><g id="body"><path d="M1530.44,902.82c-1.17-4.1-4.67-13.57-12.19-13.98-9.28-.51-64.36,4.28-87.47-25.36-1.63-2.09-4.13-3.3-6.78-3.36-14.04-.31-56.89-.15-69.71,12.48,0,0-6.71,5.09-4.21,50.28.05.98.28,1.94.68,2.83,1.1,2.42,4.04,7.11,11.73,12.65,11.3,8.15-45.83,8.49-45.83,8.49,0,0-23.97-2.39-101.39-61.51s-125.87-46.52-125.87-46.52c0,0,.39-15.74-9.32-15.65,0,0-42.6,1.46-45.05,1.87s-9.35,2.53-8.96,20.75,3.07,74.7,2.13,74.91-84.4,11.65-134.47,10.31c-50.06-1.34-147.04-9.29-246.97,1.88,0,0-103.63,16.13-134.72,35.88s-11,34.81-8.81,37.81c4.86,6.33,50.34,37.06,151.09,52.5s146.2,40.19,146.2,40.19c0,0,442.53,16.58,463.31,17.92,20.78,1.34,43.97-.54,47.82-1.69s115.82-44.12,136.96-39.94c0,0,18.82,1.72,37.24-5.07,18.42-6.78,12.18-34.12,11-40.64-1.12-6.21-2.92-29.3,29.17-37.42,3.35-.85,5.75-3.8,5.95-7.25.51-8.62.77-29.31-1.05-79-.04-1.14-.21-2.27-.52-3.37h.04,0Z" fill="#d2273d"/></g><g id="shadows"><g clip-path="url(#clippath-2)"><path d="M830.28,979.39l432.28,16.58-421.75-1.19,3.24,14.5,291.95,18.79-279.47-5.18s126.92,51,331.79,69.52c159.48,14.42,154.87,11.66,154.87,11.66l-127.8,64.96s-432.65-37.47-433.68-37.47,48.58-152.17,48.58-152.17h-.01Z" fill="#7c1724"/><path d="M1014.18,902.81s66.69,9.67,90.78,20.03c6.89,2.96-21.5-1.21-40.49,3.02s-72.52,8.81-95.05,10.01-41.35,4.58-56.29-8.12,101.05-24.95,101.05-24.95h0Z" fill="#7c1724"/><path d="M1453.39,988.97s29.14,25.12,6.17,104.76l-20.94-6.47,14.76-98.28h.01,0Z" fill="#7c1724"/></g></g><g id="dark_shadows"><g clip-path="url(#clippath-3)"><path d="M820.07,1064.04s79.42,29.35,155.4,36.26,245.18,16.92,273.5,15.54-21.06,98.42-21.06,98.42l-544.23-66.65,87.71-100.49,48.69,16.92h-.01,0Z" fill="#520f18"/></g></g><g id="Layer_9"><path d="M605.09,1039.23l-9.71-4.73c-5.93-2.89-14.92-12.05-12.03-17.98l21.13-30.71c3.95-5.96,7.71-8.65,15.3-6.93l14.07,4.51c5.93,2.89,7.2,9.47,4.31,15.4l-25.67,30.89c-2.89,5.93-1.47,12.44-7.4,9.55h0Z" fill="#520f18"/></g><g id="Layer_8"><path d="M534.23,996.31s-36.99,2.05-26.42,48.93c0,0,4.08,14.44,52.69,21.45,0,0,64.45,12.82,73.77-4.66s7.27-47.22,3.38-51.39c-7.27-7.78-45.11-19.9-103.42-14.33h0Z" fill="#7c1724"/></g><g id="Layer_10"><g clip-path="url(#clippath-4)"><path d="M502.8,1022.38c.69.69,21.24,19.17,63.71,24.35,42.47,5.18,54.73,9.84,78.39,1.73,23.65-8.12-9.5,45.58-9.5,45.58l-146.24-18.65,13.64-53.01h0Z" fill="#520f18"/></g></g><g id="tire_base"><circle cx="1363.75" cy="1025.81" r="99.19" fill="#3a3a3a"/><circle cx="748.24" cy="1025.81" r="99.19" fill="#3a3a3a"/></g><g id="tire_center"><circle cx="748.24" cy="1025.81" r="47.32" fill="#838383"/><circle cx="1363.75" cy="1025.81" r="45.03" fill="#838383"/></g><g id="tire_shadow"><g clip-path="url(#clippath-5)"><path d="M702.74,1012.5s14.24,57.15,78.73,47.41l-33.15,40.82-90.13-50.83,44.55-37.4h0Z" fill="#535353"/></g><g clip-path="url(#clippath-6)"><path d="M1316.86,1008.61s17.57,64.44,81.45,51.41l-35.44,41.75-92.68-45.08,46.67-48.08h0Z" fill="#535353"/></g></g><g id="flag_pole"><path d="M812.46,928.78l25.69.67-406.03-380.54s-7.3-3.01-11.34.87-1.06,11.26-1.06,11.26l392.75,367.74h-.01Z"/></g><g id="new_flag"><path d="M2017.33,763.18c-122.8,56.52-254.39,73.29-388.33,61.51-111.27-9.79-220.26-35.98-328.69-61.74-105.53-25.07-214.01-55.08-322.91-59.34-110.08-4.31-198.86,35.52-271.03,118.69-73.2-86.75-175.97-145.01-240.52-239.12,90.98-113.23,242.35-151.44,381.34-161.63,104.72-7.68,206.58,3.84,308.93,25.2,170.82,35.64,339.64,89.18,515,97.5,119.73,5.68,237.12-13.89,346.22-64.37v283.3h0Z" stroke="#000" stroke-miterlimit="10"/></g><g id="new_text"><path d="M1989.81,691.56c-123.46,56.52-255.76,73.29-390.43,61.51-111.87-9.79-221.45-35.98-330.46-61.74-106.1-25.07-215.17-55.08-324.65-59.34-110.67-4.31-199.93,35.52-272.49,118.69" fill="none"/><path d="M839.65,528.56l-25.01,9.4-3.98-10.48c-.28-.75-1.07-1.1-1.81-.81l-82.96,31.16c-.75.28-1.11,1.06-.81,1.8l31.4,82.7c.28.75,1.07,1.1,1.81.81l82.96-31.16c.75-.28,1.11-1.06.82-1.8l-9.66-25.45-30.66,11.52-9.38-24.7,55.68-20.92,19.04,50.14c5.47,14.41-1.98,30.46-16.46,35.9l-82.96,31.16c-14.49,5.44-30.55-1.78-36.02-16.19l-31.4-82.7c-5.47-14.41,1.79-30.39,16.28-35.83l82.96-31.16c14.49-5.44,30.75,1.71,36.21,16.11l3.98,10.48-.02.02h-.01Z" fill="#fff"/><path d="M1021.69,517.48l-106.28-4.39-1.35,32.37,85.59,3.54-1.11,26.38-85.59-3.54-1.35,32.37,106.28,4.39-1.11,26.38-133-5.5,6.01-143.88,133,5.5-1.11,26.38h.02,0Z" fill="#fff"/><path d="M1176.27,520.73l26.21,5.3-28.83,141.11-28.37-5.74-66.34-121.17-21.15,103.48-26.01-5.26,28.84-141.11,28.37,5.74,66.15,121.13,21.15-103.48h-.02Z" fill="#fff"/><path d="M1351.3,590.06l-103.44-24.69-7.6,31.5,83.3,19.88-6.19,25.67-83.3-19.88-7.6,31.5,103.44,24.69-6.19,25.67-129.44-30.9,33.79-140.02,129.44,30.9-6.19,25.67h-.02Z" fill="#fff"/><path d="M1501.48,663.58c-3.12,14.88-18.11,24.64-33.27,21.5l-7.68-1.59,26.49,49.01-1.4,6.66-28.34-5.88-30.8-56.86-45.87-9.52-.59-.12-10.14,48.36-25.98-5.39,29.53-140.77,114.17,23.69c15.16,3.15,24.97,18.05,21.85,32.93l-7.96,37.98h-.01ZM1473.63,659.23c.78.16,1.5-.3,1.67-1.08l7.96-37.98c.16-.78-.3-1.49-1.09-1.66l-86.81-18.01c-.78-.16-1.5.3-1.67,1.08l-7.96,37.98c-.16.78.3,1.49,1.09,1.66l86.81,18.01h0Z" fill="#fff"/><path d="M1646.55,613.02c15.41,1.5,26.8,15.06,25.31,30.39l-11.35,115.65-26.61-2.59,4.73-48.17-91.06-8.84-4.74,48.17-26.41-2.57,11.35-115.65c1.51-15.33,15.12-26.46,30.53-24.97l88.25,8.57h0ZM1641.18,682.02l4.04-41.2c.08-.8-.46-1.45-1.27-1.53l-88.25-8.57c-.8-.08-1.46.46-1.54,1.26l-4.04,41.2,91.06,8.85h0Z" fill="#fff"/><path d="M1686.36,615.79l26.38-2.9,12.99,117.09,117.52-12.9,2.92,26.24-143.9,15.8-15.91-143.33h0Z" fill="#fff"/></g></svg>