<svg width="175" height="183" viewBox="0 0 175 183" fill="none" xmlns="http://www.w3.org/2000/svg">
<g filter="url(#filter0_d_1030_5495)">
<path d="M83.3647 3L92.765 58.5689L133.033 19.1381L107.975 69.6196L163.729 61.3881L113.785 87.5L163.729 113.612L107.975 105.38L133.033 155.862L92.765 116.431L83.3647 172L73.9644 116.431L33.6969 155.862L58.7544 105.38L3.00047 113.612L52.9447 87.5L3.00047 61.3881L58.7544 69.6196L33.6969 19.1381L73.9644 58.5689L83.3647 3Z" fill="url(#paint0_radial_1030_5495)"/>
<path d="M83.3647 1.5C84.0966 1.5 84.7212 2.02837 84.8433 2.75L93.7651 55.4893L131.983 18.0664C132.506 17.5543 133.322 17.4946 133.915 17.9248C134.506 18.355 134.702 19.1493 134.376 19.8047L110.593 67.7158L163.51 59.9043C164.234 59.7976 164.93 60.2288 165.156 60.9248C165.382 61.6208 165.073 62.3787 164.424 62.7178L117.022 87.5L164.424 112.282C165.073 112.621 165.382 113.379 165.156 114.075C164.93 114.771 164.234 115.202 163.51 115.096L110.593 107.283L134.376 155.195C134.702 155.851 134.506 156.645 133.915 157.075C133.322 157.505 132.506 157.446 131.983 156.934L93.7651 119.51L84.8433 172.25C84.7212 172.972 84.0966 173.5 83.3647 173.5C82.6329 173.5 82.0083 172.972 81.8862 172.25L72.9634 119.51L34.7466 156.934C34.2237 157.446 33.407 157.505 32.8149 157.075C32.2232 156.645 32.0279 155.851 32.353 155.195L56.1353 107.283L3.21924 115.096C2.49531 115.202 1.79986 114.771 1.57373 114.075C1.34776 113.379 1.65673 112.621 2.30518 112.282L49.7065 87.5L2.30518 62.7178C1.65673 62.3787 1.34776 61.6208 1.57373 60.9248C1.79986 60.2288 2.49531 59.7976 3.21924 59.9043L56.1353 67.7158L32.353 19.8047C32.0279 19.1493 32.2232 18.355 32.8149 17.9248C33.407 17.4946 34.2237 17.5543 34.7466 18.0664L72.9634 55.4893L81.8862 2.75L81.9146 2.61719C82.0864 1.9644 82.6785 1.5 83.3647 1.5Z" stroke="white" stroke-width="3" stroke-linejoin="round"/>
</g>
<defs>
<filter id="filter0_d_1030_5495" x="0" y="0" width="174.729" height="183" filterUnits="userSpaceOnUse" color-interpolation-filters="sRGB">
<feFlood flood-opacity="0" result="BackgroundImageFix"/>
<feColorMatrix in="SourceAlpha" type="matrix" values="0 0 0 0 0 0 0 0 0 0 0 0 0 0 0 0 0 0 127 0" result="hardAlpha"/>
<feOffset dx="4" dy="4"/>
<feGaussianBlur stdDeviation="2"/>
<feComposite in2="hardAlpha" operator="out"/>
<feColorMatrix type="matrix" values="0 0 0 0 0 0 0 0 0 0 0 0 0 0 0 0 0 0 0.25 0"/>
<feBlend mode="normal" in2="BackgroundImageFix" result="effect1_dropShadow_1030_5495"/>
<feBlend mode="normal" in="SourceGraphic" in2="effect1_dropShadow_1030_5495" result="shape"/>
</filter>
<radialGradient id="paint0_radial_1030_5495" cx="0" cy="0" r="1" gradientUnits="userSpaceOnUse" gradientTransform="translate(83.3647 87.5) rotate(90) scale(84.5)">
<stop stop-color="#D2273D"/>
<stop offset="1" stop-color="#A41023"/>
</radialGradient>
</defs>
</svg>
