<svg width="157" height="154" viewBox="0 0 157 154" fill="none" xmlns="http://www.w3.org/2000/svg">
<g filter="url(#filter0_d_1030_630)">
<path d="M135.711 35.4168L99.6079 66.7939L145.977 78.5353L98.326 82.6988L128.938 119.453L87.9402 94.8127L91.1023 142.541L72.4175 98.5085L46.9219 138.98L57.6872 92.3744L13.2722 110.131L49.3756 78.7535L3.0063 67.0121L50.6575 62.8486L20.0454 26.0944L61.0432 50.7347L57.8811 3.00661L76.5659 47.039L102.062 6.56746L91.2963 53.173L135.711 35.4168Z" fill="url(#paint0_radial_1030_630)"/>
<path d="M136.994 34.6342C137.376 35.2602 137.25 36.0704 136.697 36.5514L102.764 66.0413L146.346 77.0784C147.057 77.2584 147.534 77.925 147.475 78.6559C147.416 79.3869 146.839 79.9683 146.108 80.0323L101.322 83.9452L130.093 118.491C130.563 119.054 130.556 119.874 130.079 120.431C129.602 120.988 128.792 121.119 128.164 120.741L89.6306 97.5818L92.6024 142.441C92.6508 143.173 92.1639 143.833 91.4505 144.003C90.737 144.173 90.0051 143.803 89.7186 143.128L72.1568 101.742L48.1934 139.781C47.8025 140.402 47.0213 140.649 46.3443 140.367C45.6673 140.085 45.2926 139.356 45.4577 138.642L55.576 94.8372L13.8305 111.526C13.1496 111.798 12.3716 111.54 11.9895 110.914C11.6075 110.288 11.733 109.477 12.2865 108.996L46.2193 79.5036L2.63724 68.4688C1.9264 68.2887 1.44945 67.6222 1.50837 66.8912C1.56737 66.1603 2.14483 65.5787 2.8753 65.5148L47.6619 61.6006L18.8902 27.0562C18.421 26.4927 18.427 25.6727 18.9043 25.116C19.3816 24.5593 20.1912 24.4281 20.8197 24.8058L59.3532 47.964L56.3811 3.10578C56.3328 2.37407 56.8196 1.71408 57.533 1.54423C58.2464 1.37445 58.9783 1.74418 59.2649 2.41911L76.8271 43.8036L100.79 5.76607C101.181 5.14579 101.962 4.8981 102.639 5.17995C103.316 5.46184 103.691 6.19086 103.526 6.90533L93.4083 50.7094L135.153 34.0211C135.834 33.7489 136.612 34.0082 136.994 34.6342Z" stroke="white" stroke-width="3" stroke-linejoin="round"/>
</g>
<defs>
<filter id="filter0_d_1030_630" x="0" y="0" width="157" height="153.564" filterUnits="userSpaceOnUse" color-interpolation-filters="sRGB">
<feFlood flood-opacity="0" result="BackgroundImageFix"/>
<feColorMatrix in="SourceAlpha" type="matrix" values="0 0 0 0 0 0 0 0 0 0 0 0 0 0 0 0 0 0 127 0" result="hardAlpha"/>
<feOffset dx="4" dy="4"/>
<feGaussianBlur stdDeviation="2"/>
<feComposite in2="hardAlpha" operator="out"/>
<feColorMatrix type="matrix" values="0 0 0 0 0 0 0 0 0 0 0 0 0 0 0 0 0 0 0.25 0"/>
<feBlend mode="normal" in2="BackgroundImageFix" result="effect1_dropShadow_1030_630"/>
<feBlend mode="normal" in="SourceGraphic" in2="effect1_dropShadow_1030_630" result="shape"/>
</filter>
<radialGradient id="paint0_radial_1030_630" cx="0" cy="0" r="1" gradientUnits="userSpaceOnUse" gradientTransform="translate(74.4917 72.7737) rotate(142.838) scale(118.224)">
<stop stop-color="#00AEB9"/>
<stop offset="1" stop-color="#007A82"/>
</radialGradient>
</defs>
</svg>
