<svg width="24" height="24" viewBox="0 0 24 24" fill="none" xmlns="http://www.w3.org/2000/svg">
<path d="M19.6047 1.9273H4.32912C2.96748 1.9273 1.86365 3.02287 1.86365 4.37432V19.5357C1.86365 20.8871 2.96748 21.9827 4.32912 21.9827H19.6047C20.9664 21.9827 22.0702 20.8871 22.0702 19.5357V4.37432C22.0702 3.02287 20.9664 1.9273 19.6047 1.9273Z" stroke="black" stroke-width="2" stroke-miterlimit="10"/>
<path d="M12.1152 16.0841C14.3309 16.0841 16.1271 14.3013 16.1271 12.1022C16.1271 9.90302 14.3309 8.12027 12.1152 8.12027C9.89946 8.12027 8.10327 9.90302 8.10327 12.1022C8.10327 14.3013 9.89946 16.0841 12.1152 16.0841Z" stroke="black" stroke-width="2" stroke-miterlimit="10"/>
<path d="M18.3377 6.8627C18.9387 6.8627 19.4259 6.37917 19.4259 5.7827C19.4259 5.18623 18.9387 4.7027 18.3377 4.7027C17.7368 4.7027 17.2496 5.18623 17.2496 5.7827C17.2496 6.37917 17.7368 6.8627 18.3377 6.8627Z" fill="black"/>
</svg>
