<svg width="22" height="22" viewBox="0 0 22 22" fill="none" xmlns="http://www.w3.org/2000/svg">
<g clip-path="url(#clip0_1027_1660)">
<path d="M19.2682 0.780334H3.30445C1.92758 0.780334 0.81012 1.89912 0.81012 3.27763V19.2603C0.81012 20.6388 1.92758 21.7576 3.30445 21.7576H19.2682C20.645 21.7576 21.7625 20.6388 21.7625 19.2603V3.27763C21.7625 1.89912 20.645 0.780334 19.2682 0.780334ZM7.29538 8.77169V18.2614H4.30218V8.77169H7.29538ZM4.30218 6.00968C4.30218 5.31043 4.90082 4.77601 5.79878 4.77601C6.69674 4.77601 7.26046 5.31043 7.29538 6.00968C7.29538 6.70892 6.73665 7.27331 5.79878 7.27331C4.90082 7.27331 4.30218 6.70892 4.30218 6.00968ZM18.2704 18.2614H15.2772C15.2772 18.2614 15.2772 13.6364 15.2772 13.2668C15.2772 12.2679 14.7784 11.269 13.5312 11.249H13.4913C12.284 11.249 11.7852 12.2779 11.7852 13.2668C11.7852 13.7213 11.7852 18.2614 11.7852 18.2614H8.79198V8.77169H11.7852V10.0503C11.7852 10.0503 12.748 8.77169 14.6836 8.77169C16.6641 8.77169 18.2704 10.1352 18.2704 12.8972V18.2614Z" fill="#1D1D1B"/>
</g>
<defs>
<clipPath id="clip0_1027_1660">
<rect width="22" height="22" fill="white"/>
</clipPath>
</defs>
</svg>
