<svg width="216" height="183" viewBox="0 0 216 183" fill="none" xmlns="http://www.w3.org/2000/svg">
<g clip-path="url(#clip0_1027_1478)">
<path d="M33.0874 122.697C31.5041 122.697 29.8556 122.488 28.194 122.075L22.6523 120.7L23.2909 115.028C23.6948 111.44 24.0695 107.695 24.4344 104.071C25.2163 96.2852 26.0243 88.2359 27.2069 80.5479C28.6371 71.2514 32.2567 63.5699 37.9613 57.725C43.402 52.1503 50.8007 48.2005 59.9555 45.9896L60.1216 45.9505L150.933 28.9497L150.418 37.2889C149.434 53.277 139.774 67.4123 125.215 74.1852L116.943 78.0341L115.988 68.9655C115.223 61.7074 109.225 60.1867 104.328 60.1867C103.83 60.1867 103.315 60.203 102.8 60.2388C90.5343 61.0691 72.0619 66.6177 64.1158 73.56C54.2509 82.1793 53.2995 88.0795 51.41 99.8313C51.0614 101.99 50.703 104.221 50.2567 106.679C48.455 116.559 41.8805 122.697 33.0939 122.697H33.0874Z" fill="#D2273D"/>
<path d="M29.7644 115.755C31.0252 104.527 31.9341 92.6451 33.6446 81.5381C36.1401 65.3318 45.8161 56.1069 61.4867 52.3199L143.915 36.8887C143.072 50.6104 134.813 62.538 122.465 68.282C121.331 57.5299 112.437 53.0591 102.361 53.7397C89.7492 54.5928 69.4035 60.2879 59.8252 68.6564C46.1875 80.571 46.8131 89.2032 43.8418 105.514C42.5061 112.843 37.5932 117.698 29.7676 115.758L29.7644 115.755Z" fill="#D2273D"/>
<path d="M32.2762 174.467C30.1683 174.467 28.1615 174.203 26.3077 173.689C17.6742 171.279 18.0652 164.526 18.2509 161.279L18.2802 160.775C18.8308 150.628 20.2317 139.596 21.587 128.926C22.2027 124.077 22.7826 119.499 23.2876 115.028L24.1184 107.646L31.3347 109.437C31.97 109.593 32.5597 109.675 33.0874 109.675C35.873 109.675 36.9872 106.777 37.4302 104.347C37.8538 102.023 38.2024 99.8572 38.5412 97.7634C40.5448 85.3083 42.1314 75.468 55.5378 63.7521C66.9828 53.7522 89.5504 48.0766 101.921 47.243C102.725 47.1877 103.537 47.1616 104.325 47.1616C117.973 47.1616 127.635 55.185 128.945 67.6042L129.434 72.2281L125.215 74.1883C123.208 75.1228 121.094 75.9337 118.898 76.6533C120.624 77.2394 121.683 78.3172 122.237 79.0466C123.553 80.7822 123.964 83.0062 123.364 85.1488L123.114 86.0377L122.628 86.8225C121.296 88.9716 120.022 91.1695 118.673 93.501C113.522 102.404 108.195 111.609 99.272 118.232C89.9186 125.174 79.5975 126.998 69.6152 128.763C68.0742 129.036 66.5072 129.313 64.9434 129.609C64.8065 131.215 64.6795 132.823 64.5557 134.402C64.2429 138.388 63.9204 142.507 63.4219 146.594C63.3828 146.923 63.3437 147.255 63.3046 147.584C62.9104 150.938 62.4641 154.741 60.4963 158.479C55.7756 167.44 43.3825 174.464 32.2795 174.464L32.2762 174.467Z" fill="#D2273D"/>
<path d="M122.462 68.2784C108.068 74.9732 86.0905 75.1099 70.3646 79.571C64.598 81.2056 60.7635 85.8946 61.995 91.9609C62.8974 92.1042 63.852 92.0553 64.7674 91.9674C81.0179 90.4012 98.6205 84.8363 115.037 82.8728C115.604 82.8044 117.354 82.4364 117.086 83.3873C110.668 93.729 105.384 105.578 95.3854 113.003C84.5528 121.046 71.6351 121.277 58.9097 124.211C58.1409 131.374 57.8281 138.652 56.955 145.803C56.5542 149.088 56.2969 152.471 54.7298 155.448C50.4782 163.52 36.9123 169.886 28.0605 167.414C24.2846 166.359 24.5941 164.607 24.783 161.126C25.5649 146.744 28.1256 130.287 29.7579 115.754C37.5834 117.695 42.4963 112.843 43.8321 105.51C46.8033 89.1996 46.1778 80.5674 59.8154 68.6528C69.3937 60.2876 89.7394 54.5892 102.351 53.7361C112.428 53.0555 121.325 57.5263 122.455 68.2784H122.462Z" fill="#D2273D"/>
<path d="M132.796 142.657C133.233 141.342 133.633 138.011 133.79 136.702C133.852 136.171 133.91 135.699 133.962 135.314C135.285 125.503 136.292 115.409 137.266 105.647C138.1 97.2687 138.963 88.6169 140.029 80.0823C139.81 79.1901 139.423 79.1901 138.804 79.1901C138.494 79.1901 138.149 79.2292 137.777 79.3041C137.676 79.3301 137.325 79.4897 137.067 79.6036C136.093 80.0367 134.62 80.688 132.692 80.8833L118.067 82.3552L126.798 70.535C127.365 69.7666 127.938 68.9981 128.509 68.2329C134.115 60.698 139.41 53.5831 141.742 45.1821C142.319 43.1111 142.677 40.9001 143.055 38.5622C143.264 37.2759 143.479 35.9474 143.739 34.5961L144.554 30.3597L207.764 16.8203L207.103 25.5079C206.422 34.4398 201.105 42.4273 197.163 47.6568C190.087 57.0478 182.307 63.6905 174.038 67.3928C173.139 67.7966 172.096 68.158 170.888 68.5748C170.031 68.8711 168.545 69.3856 167.451 69.8512L164.874 88.402L164.847 88.4997C164.401 91.2479 160.576 116.435 159.094 129.219L159.019 129.85L158.824 130.456C158.625 131.075 158.439 131.687 158.253 132.289C157.227 135.64 156.064 139.437 153.389 143.113C150.477 147.115 144.964 152.058 139.009 152.833L122.674 154.953L132.796 142.651V142.657Z" fill="#D2273D"/>
<path d="M132.037 74.4033C138.377 65.8232 145.101 57.4253 148.017 46.9208C149.034 43.2608 149.421 39.5356 150.135 35.8268L200.603 25.0161C200.088 31.7923 195.977 38.4025 191.953 43.7427C186.565 50.8933 179.632 57.751 171.367 61.4533C168.952 62.5344 162.349 64.1429 161.352 66.3735L158.462 87.1612C158.384 87.4706 154.191 114.911 152.617 128.473C151.376 132.345 150.558 135.933 148.118 139.29C145.974 142.234 141.866 145.9 138.168 146.382C139.576 144.673 140.094 138.593 140.42 136.19C142.938 117.532 144.238 98.659 146.61 79.978C145.958 74.4359 141.86 71.8472 136.491 72.925C134.813 73.2636 133.685 74.2405 132.04 74.4066L132.037 74.4033Z" fill="#D2273D"/>
<path d="M133.014 154.797C127.655 154.797 121.217 152.237 118.911 146.519C117.552 143.149 117.917 138.737 118.491 133.735C118.556 133.159 118.618 132.625 118.663 132.163C119.237 126.282 120.168 120.033 121.071 113.993C122.39 105.142 123.755 95.9892 124.006 87.93C122.778 87.3764 121.393 86.4256 120.501 84.6705C119.637 82.9773 119.53 80.9812 120.204 79.1935C120.553 78.272 121.041 77.5719 121.494 76.9988C121.664 76.2955 121.973 75.4521 122.563 74.6055C123.1 73.8338 123.632 73.3844 124.433 72.7071C124.918 72.2968 126.394 71.0497 126.808 70.5222L128.525 68.2005L131.222 67.94C131.363 67.8847 131.6 67.7805 131.786 67.699C132.61 67.3343 133.738 66.8361 135.207 66.5398C136.422 66.2956 137.634 66.1719 138.807 66.1719C146.427 66.1719 152.164 71.4144 153.083 79.2163L153.178 80.0076L153.077 80.7989C151.979 89.4572 151.093 98.3467 150.236 106.946C149.252 116.819 148.235 127.028 146.88 137.063C146.834 137.395 146.786 137.799 146.733 138.255C146.098 143.546 145.437 147.809 143.205 150.521C140.934 153.279 137.318 154.797 133.021 154.797H133.014Z" fill="#D2273D"/>
<path d="M138.168 146.382C135.445 149.691 126.749 148.531 124.954 144.083C123.935 141.557 124.856 135.787 125.146 132.794C126.544 118.46 130.098 102.101 130.519 88.0144C130.568 86.3798 130.665 84.8461 129.685 83.4557C129.434 82.2639 125.977 82.3356 126.293 81.4955C126.417 81.1698 127.28 80.2907 127.603 79.7241C127.837 79.3105 127.704 78.6104 127.906 78.3239C128.072 78.0862 130.91 75.9273 132.034 74.4067C133.679 74.2406 134.809 73.2637 136.484 72.9251C141.853 71.844 145.948 74.436 146.603 79.9781C144.231 98.659 142.931 117.532 140.413 136.19C140.087 138.593 139.573 144.673 138.162 146.382H138.168Z" fill="#D2273D"/>
<path d="M68.7584 160.778C67.1262 159.554 66.1651 157.672 66.1227 155.614C66.0902 153.94 66.5039 152.432 69.1624 147.421C72.0359 142.009 72.7722 141.41 73.5508 140.775C74.5282 139.981 75.701 139.271 81.057 137.978C84.4094 137.171 86.7812 136.76 88.1104 136.76C90.4952 136.76 92.0558 137.805 92.9452 138.685C94.1604 139.883 95.9294 142.517 94.1506 146.718C93.8932 147.327 93.5414 148.053 93.0462 149.007C92.2512 150.541 91.2446 152.345 90.3584 153.934C89.8111 154.917 89.1302 156.135 88.9445 156.513L87.5566 159.681L70.9901 162.445L68.7584 160.775V160.778Z" fill="#D2273D"/>
<path d="M88.3678 143.321C88.7978 143.745 83.5624 152.559 83.002 153.842L72.6646 155.568C72.2248 155.239 77.04 146.34 77.6655 145.832C78.5224 145.135 87.9768 142.937 88.3678 143.325V143.321Z" fill="#D2273D"/>
<path d="M91.0947 136.412L106.632 133.634L109.033 136.005C110.483 137.438 111.19 139.453 110.965 141.537C110.877 142.377 110.707 143.94 107.736 149.368C104.824 154.689 103.608 155.744 102.429 156.493C100.285 157.857 97.731 158.079 94.7729 158.333C93.9095 158.408 92.6226 158.518 92.1111 158.629L75.8802 164.962L91.0914 136.409L91.0947 136.412Z" fill="#D2273D"/>
<path d="M104.455 140.642C104.973 141.153 99.9921 150.332 98.9332 151.006C97.4509 151.95 91.9092 151.726 89.9055 152.507L95.3593 142.266L104.459 140.642H104.455Z" fill="#D2273D"/>
<path d="M29.0737 182.846C17.6058 182.846 11.9012 177.242 9.13196 172.543C7.69522 170.104 7.10227 167.268 7.41503 164.34L14.501 97.9656L16.0192 85.8589C17.2344 65.654 26.3957 50.1251 41.8317 42.1408C48.53 38.6827 55.7332 37.2858 62.7019 35.9344C63.9139 35.7 65.116 35.4655 66.3052 35.2246C83.0997 31.786 100.22 28.6633 116.777 25.6447C129.952 23.2416 143.573 20.7604 156.908 18.1359C167.639 16.0258 188.129 12.1379 200.075 10.106C200.838 9.97577 201.613 9.91064 202.382 9.91064C206.324 9.91064 210.077 11.6299 212.674 14.6224C215.26 17.6051 216.42 21.5582 215.857 25.4656C215.459 28.2334 215.234 29.168 214.957 29.9202C210.084 43.2121 197.697 62.2936 184.34 71.4924C181.714 73.2996 179.039 74.7096 176.452 76.0739L175.895 76.3703C175.732 76.4582 175.615 76.6242 175.589 76.8164L171.112 108.421L167.31 139.694C167.213 140.495 167.063 141.228 166.848 141.941C164.466 149.844 158.609 155.972 149.916 159.668C142.088 162.996 133.731 163.693 128.098 163.693C122.889 163.693 118.002 163.087 114.682 162.029C114.555 161.99 114.464 161.98 114.412 161.98C114.392 161.98 114.372 161.98 114.356 161.983L65.8719 168.404C65.7513 168.421 65.5917 168.512 65.4451 168.652C60.1184 173.744 43.4085 182.846 29.0802 182.846H29.0737ZM31.2956 161.4C31.6083 161.426 31.9374 161.442 32.2762 161.442C38.4076 161.442 46.5198 157.056 48.9665 152.416C49.8038 150.824 50.0742 148.518 50.3609 146.08C50.4033 145.725 50.4456 145.37 50.488 145.015C50.9473 141.247 51.2536 137.304 51.5533 133.491C51.8074 130.228 52.0713 126.855 52.433 123.511L52.9314 118.906L57.4469 117.864C60.7993 117.089 64.1289 116.503 67.3444 115.933C76.2255 114.364 84.6114 112.882 91.4921 107.773C97.1055 103.609 101.116 97.6204 105.003 91.0656C100.846 91.8536 96.6429 92.7621 92.5151 93.6543C83.5656 95.5885 74.3099 97.5878 65.3864 98.4475C64.8815 98.4963 64.0996 98.5647 63.2427 98.5647C62.3859 98.5647 61.6757 98.5061 60.9426 98.3889L56.5021 97.666L55.6062 93.2603C53.7622 84.195 59.0987 75.9925 68.5825 73.3094C75.372 71.385 83.1779 70.229 90.7265 69.1089C101.194 67.5589 112.02 65.9536 119.712 62.3782C127.222 58.8843 132.874 52.5998 135.621 45.0681L62.8518 58.6954C49.3086 62.0103 42.0728 69.5875 40.0789 82.531C38.9549 89.851 38.1665 97.692 37.4042 105.276C37.0328 108.972 36.6483 112.791 36.2313 116.49C35.7166 121.068 35.1008 125.927 34.5046 130.626C33.1852 141.019 31.8201 151.765 31.2923 161.41L31.2956 161.4ZM131.011 141.348C131.434 141.55 132.174 141.772 133.018 141.772C133.242 141.772 133.422 141.755 133.558 141.736L134.777 140.257L137.334 139.925C138.331 139.795 141.042 137.949 142.856 135.461C144.244 133.553 144.925 131.322 145.792 128.496C145.932 128.034 146.075 127.571 146.222 127.102C147.577 115.709 151.18 91.1633 152.028 86.2757H152.018L155.028 64.5664L155.406 63.7198C157.292 59.5062 162.254 57.787 166.63 56.2728C167.428 55.996 168.337 55.6834 168.715 55.5109C174.94 52.7203 181.013 47.4452 186.754 39.8289C188.376 37.6765 189.725 35.6642 190.807 33.7788L155.82 41.2714C155.429 43.6614 155.005 46.1264 154.298 48.6663C151.317 59.4086 145.036 67.852 138.96 76.0121C138.4 76.7643 137.839 77.5164 137.282 78.2719C136.901 78.7896 136.315 79.519 135.526 80.4829C135.533 80.4959 135.539 80.5057 135.542 80.5187C137.178 83.3516 137.096 86.191 137.044 87.9461L137.038 88.1936C136.774 97.0538 135.347 106.621 133.966 115.875C133.047 122.039 132.177 127.861 131.636 133.423C131.584 133.95 131.516 134.553 131.441 135.204C131.275 136.646 130.913 139.789 131.011 141.345V141.348Z" fill="#D2273D"/>
<path d="M158.165 24.5247C128.033 30.4511 97.6985 35.4396 67.6116 41.6036C59.9816 43.1634 51.7977 44.3259 44.829 47.924C29.9435 55.625 23.431 70.3431 22.5122 86.4777C22.4862 86.9075 22.4666 87.3341 22.4471 87.7672C22.4145 87.7737 22.3754 87.7867 22.3461 87.7932L20.9778 98.7146L13.8983 165.031C13.7419 166.486 14.0091 167.975 14.7519 169.238C24.0239 184.982 54.0326 170.55 60.9426 163.943C62.0634 162.869 63.4773 162.149 65.015 161.947L113.499 155.526C114.565 155.386 115.64 155.497 116.663 155.822C125.117 158.518 154.917 158.939 160.609 140.059C160.723 139.684 160.795 139.297 160.84 138.909L164.652 107.575L169.138 75.9047C169.457 73.6482 170.835 71.6782 172.852 70.6134C175.504 69.2132 178.163 67.8391 180.648 66.1328C192.064 58.2723 204.086 40.6626 208.842 27.6898C208.986 27.3023 209.191 26.078 209.413 24.541C210.1 19.7739 205.923 15.7199 201.173 16.5274C189.145 18.5723 168.617 22.4733 158.172 24.528L158.165 24.5247ZM61.9982 91.9579C62.9006 92.1045 63.852 92.0524 64.7674 91.9645C81.0212 90.3982 98.6205 84.8366 115.04 82.8763C115.604 82.8047 117.357 82.4367 117.086 83.3876C110.672 93.7293 105.384 105.579 95.3821 113C84.5495 121.046 71.6319 121.277 58.9129 124.211C58.1408 131.375 57.8248 138.656 56.9549 145.806C56.551 149.092 56.2968 152.472 54.7298 155.451C50.4782 163.517 36.9155 169.889 28.0572 167.415C24.2845 166.359 24.5973 164.608 24.783 161.127C25.5616 146.741 28.1289 130.29 29.7578 115.754C31.0252 104.524 31.9309 92.645 33.638 81.5348C36.1303 65.3318 45.8063 56.1036 61.4802 52.3199L143.906 36.8854C143.062 50.6071 134.806 62.5347 122.459 68.2787C108.065 74.9702 86.0873 75.1102 70.3548 79.5713C64.5948 81.2026 60.7569 85.8916 61.9917 91.9579H61.9982ZM191.957 43.743C186.565 50.8937 179.635 57.7513 171.373 61.4536C168.956 62.5347 162.349 64.1432 161.352 66.3738L158.468 87.1648C158.384 87.4709 154.197 114.908 152.617 128.473C151.376 132.345 150.565 135.94 148.121 139.294C145.978 142.234 141.866 145.904 138.172 146.383C135.448 149.694 126.749 148.528 124.954 144.08C123.938 141.557 124.86 135.784 125.153 132.794C126.547 118.457 130.102 102.104 130.525 88.0179C130.571 86.3833 130.672 84.8464 129.694 83.4559C129.437 82.2674 125.987 82.3391 126.3 81.4989C126.427 81.1733 130.923 75.9243 132.043 74.4036C138.38 65.8267 145.108 57.4289 148.024 46.9211C149.04 43.2643 149.431 39.5392 150.141 35.8271L200.606 25.0197C200.095 31.7959 195.983 38.4093 191.96 43.7462L191.957 43.743Z" fill="#D2273D"/>
<path d="M71.8762 124.484L94.623 121.222L86.7616 144.849L64.0116 148.112L71.8762 124.484Z" fill="#D2273D"/>
<path d="M81.8487 138.975L73.5215 140.17L76.7891 130.359L85.1131 129.164L81.8487 138.975Z" fill="#D2273D"/>
<path d="M85.7549 122.43L108.502 119.167L100.637 142.794L77.8903 146.057L85.7549 122.43Z" fill="#D2273D"/>
<path d="M95.7274 136.92L87.4002 138.115L90.6646 128.304L98.9919 127.109L95.7274 136.92Z" fill="#D2273D"/>
<path d="M99.1189 120.375L121.866 117.112L114.001 140.739L91.2543 144.002L99.1189 120.375Z" fill="#D2273D"/>
<path d="M109.091 134.865L100.764 136.06L104.029 126.249L112.356 125.054L109.091 134.865Z" fill="#D2273D"/>
<path d="M88.8369 135.787L111.587 132.524L103.722 156.151L80.9756 159.414L88.8369 135.787Z" fill="#D2273D"/>
<path d="M98.8094 150.277L90.4854 151.472L93.7499 141.661L102.074 140.466L98.8094 150.277Z" fill="#D2273D"/>
<path d="M74.4467 137.841L97.1935 134.579L89.3289 158.206L66.5821 161.469L74.4467 137.841Z" fill="#D2273D"/>
<path d="M84.4192 152.332L76.0919 153.527L79.3564 143.716L87.6836 142.521L84.4192 152.332Z" fill="#D2273D"/>
<path d="M63.1841 168.769L61.4704 155.858L116.601 148.554L118.403 149.502C121.221 150.765 135.744 152.003 145.805 147.275C150.581 145.031 153.445 141.928 154.565 137.792L167.144 141.192C164.935 149.352 159.127 155.689 150.343 159.518C138.256 164.787 122.218 164.461 114.591 161.96L63.1841 168.769Z" fill="#D2273D"/>
<path d="M62.3272 162.315L115.402 155.285C121.361 158.417 155.259 160.176 160.856 139.492" fill="#D2273D"/>
<path d="M25.92 112.927C24.3367 112.927 22.6881 112.719 21.0266 112.306L15.4849 110.931L16.1234 105.259C16.5274 101.671 16.9021 97.926 17.267 94.3018C18.0489 86.5162 18.8568 78.4668 20.0395 70.7789C21.4697 61.4823 25.0892 53.8009 30.7939 47.9559C36.2346 42.3813 43.6333 38.4315 52.7881 36.2205L52.9542 36.1814L143.765 19.1807L143.251 27.5199C142.267 43.5079 132.607 57.6432 118.047 64.4162L109.776 68.265L108.821 59.1964C108.055 51.9383 102.058 50.4177 97.1609 50.4177C96.6625 50.4177 96.1477 50.4339 95.6329 50.4698C83.3669 51.3001 64.8945 56.8487 56.9484 63.791C47.0834 72.4102 46.1321 78.3105 44.2425 90.0622C43.8939 92.2211 43.5356 94.4516 43.0892 96.9101C41.2876 106.789 34.7131 112.927 25.9265 112.927H25.92Z" fill="#FFFAEB"/>
<path d="M22.597 105.985C23.8578 94.758 24.7667 82.876 26.4771 71.769C28.9727 55.5628 38.6487 46.3379 54.3193 42.5509L136.748 27.1196C135.904 40.8414 127.645 52.7689 115.298 58.5129C114.164 47.7609 105.27 43.2901 95.1932 43.9706C82.5818 44.8237 62.2361 50.5189 52.6578 58.8874C39.0201 70.8019 39.6456 79.4342 36.6744 95.7446C35.3387 103.074 30.4257 107.929 22.6002 105.989L22.597 105.985Z" fill="#FFFAEB"/>
<path d="M25.1088 164.698C23.0009 164.698 20.9941 164.434 19.1403 163.92C10.5068 161.51 10.8978 154.757 11.0835 151.51L11.1128 151.006C11.6634 140.859 13.0643 129.827 14.4196 119.156C15.0353 114.308 15.6152 109.73 16.1202 105.259L16.951 97.877L24.1673 99.6679C24.8026 99.8242 25.3922 99.9056 25.92 99.9056C28.7055 99.9056 29.8198 97.0076 30.2628 94.5785C30.6864 92.2535 31.035 90.0881 31.3738 87.9944C33.3774 75.5393 34.964 65.699 48.3703 53.9831C59.8154 43.9832 82.383 38.3076 94.7533 37.474C95.558 37.4186 96.3693 37.3926 97.1577 37.3926C110.805 37.3926 120.468 45.4159 121.778 57.8352L122.266 62.459L118.047 64.4193C116.041 65.3538 113.926 66.1646 111.73 66.8842C113.457 67.4704 114.516 68.5482 115.07 69.2776C116.386 71.0131 116.796 73.2371 116.197 75.3797L115.946 76.2687L115.461 77.0534C114.128 79.2025 112.854 81.4005 111.506 83.732C106.355 92.6345 101.028 101.84 92.1046 108.463C82.7512 115.405 72.4301 117.229 62.4478 118.994C60.9068 119.267 59.3397 119.544 57.7759 119.84C57.6391 121.446 57.5121 123.054 57.3883 124.633C57.0755 128.619 56.753 132.738 56.2545 136.825C56.2154 137.154 56.1763 137.486 56.1372 137.815C55.743 141.169 55.2967 144.972 53.3289 148.71C48.6082 157.671 36.215 164.695 25.1121 164.695L25.1088 164.698Z" fill="#FFFAEB"/>
<path d="M115.295 58.5093C100.901 65.2041 78.9231 65.3409 63.1971 69.8019C57.4306 71.4366 53.5961 76.1255 54.8275 82.1919C55.73 82.3351 56.6846 82.2863 57.6 82.1984C73.8505 80.6321 91.4531 75.0672 107.87 73.1037C108.437 73.0354 110.186 72.6674 109.919 73.6182C103.501 83.96 98.2165 95.8094 88.2179 103.234C77.3854 111.276 64.4677 111.508 51.7423 114.442C50.9734 121.605 50.6607 128.883 49.7875 136.034C49.3868 139.319 49.1294 142.702 47.5624 145.679C43.3108 153.751 29.7448 160.117 20.8931 157.645C17.1171 156.59 17.4266 154.838 17.6156 151.357C18.3975 136.975 20.9582 120.518 22.5904 105.985C30.416 107.926 35.3289 103.074 36.6646 95.741C39.6359 79.4306 39.0104 70.7983 52.648 58.8838C62.2263 50.5185 82.572 44.8201 95.1834 43.967C105.26 43.2865 114.158 47.7573 115.288 58.5093H115.295Z" fill="#FFFAEB"/>
<path d="M125.629 132.888C126.065 131.573 126.466 128.242 126.622 126.933C126.684 126.402 126.743 125.93 126.795 125.545C128.118 115.734 129.124 105.64 130.098 95.8779C130.933 87.4996 131.796 78.8478 132.861 70.3133C132.643 69.4211 132.255 69.4211 131.636 69.4211C131.327 69.4211 130.981 69.4601 130.61 69.535C130.509 69.5611 130.157 69.7206 129.9 69.8346C128.926 70.2677 127.453 70.9189 125.524 71.1143L110.9 72.5861L119.631 60.766C120.198 59.9975 120.771 59.2291 121.341 58.4639C126.948 50.9289 132.242 43.8141 134.575 35.413C135.152 33.3421 135.51 31.1311 135.888 28.7931C136.096 27.5069 136.311 26.1784 136.572 24.827L137.386 20.5907L200.597 7.05127L199.935 15.7389C199.254 24.6707 193.937 32.6582 189.995 37.8877C182.919 47.2787 175.139 53.9214 166.871 57.6237C165.971 58.0275 164.929 58.389 163.72 58.8058C162.863 59.1021 161.378 59.6166 160.283 60.0822L157.706 78.6329L157.68 78.7306C157.234 81.4789 153.409 106.666 151.927 119.45L151.852 120.081L151.656 120.687C151.457 121.306 151.272 121.918 151.086 122.52C150.06 125.871 148.897 129.668 146.222 133.344C143.309 137.346 137.797 142.289 131.841 143.064L115.506 145.184L125.629 132.882V132.888Z" fill="#FFFAEB"/>
<path d="M124.87 64.6343C131.209 56.0541 137.934 47.6563 140.85 37.1517C141.866 33.4917 142.254 29.7666 142.967 26.0577L193.436 15.2471C192.921 22.0233 188.809 28.6334 184.786 33.9736C179.397 41.1243 172.464 47.9819 164.199 51.6843C161.785 52.7653 155.181 54.3739 154.184 56.6044L151.294 77.3922C151.216 77.7015 147.023 105.142 145.45 118.704C144.209 122.576 143.391 126.164 140.951 129.521C138.807 132.465 134.699 136.131 131.001 136.613C132.408 134.904 132.926 128.824 133.252 126.421C135.771 107.763 137.07 88.8899 139.442 70.2089C138.791 64.6668 134.692 62.0781 129.323 63.1559C127.645 63.4946 126.518 64.4715 124.873 64.6375L124.87 64.6343Z" fill="#FFFAEB"/>
<path d="M125.847 145.028C120.488 145.028 114.05 142.468 111.743 136.75C110.385 133.38 110.75 128.968 111.323 123.966C111.388 123.39 111.45 122.856 111.496 122.394C112.069 116.513 113.001 110.264 113.903 104.224C115.223 95.3734 116.588 86.2201 116.839 78.1609C115.611 77.6074 114.226 76.6566 113.333 74.9015C112.47 73.2082 112.362 71.2122 113.037 69.4245C113.385 68.503 113.874 67.8029 114.327 67.2298C114.496 66.5264 114.806 65.6831 115.395 64.8365C115.933 64.0647 116.464 63.6154 117.266 62.9381C117.751 62.5278 119.227 61.2807 119.641 60.7532L121.357 58.4315L124.055 58.171C124.195 58.1156 124.433 58.0114 124.619 57.93C125.443 57.5653 126.57 57.0671 128.039 56.7708C129.255 56.5266 130.467 56.4028 131.639 56.4028C139.26 56.4028 144.997 61.6454 145.916 69.4473L146.01 70.2386L145.909 71.0298C144.811 79.6881 143.925 88.5776 143.068 97.1773C142.084 107.05 141.068 117.258 139.713 127.294C139.667 127.626 139.618 128.03 139.566 128.486C138.931 133.777 138.269 138.04 136.038 140.752C133.767 143.51 130.151 145.028 125.853 145.028H125.847Z" fill="#FFFAEB"/>
<path d="M131.001 136.613C128.277 139.922 119.582 138.762 117.787 134.314C116.767 131.788 117.689 126.018 117.979 123.025C119.377 108.691 122.931 92.3318 123.351 78.2454C123.4 76.6108 123.498 75.0771 122.517 73.6867C122.266 72.4949 118.81 72.5665 119.126 71.7264C119.25 71.4008 120.113 70.5216 120.435 69.955C120.67 69.5415 120.536 68.8414 120.738 68.5549C120.905 68.3172 123.742 66.1583 124.866 64.6376C126.512 64.4715 127.642 63.4947 129.317 63.156C134.686 62.075 138.781 64.6669 139.436 70.209C137.064 88.89 135.764 107.763 133.246 126.421C132.92 128.824 132.405 134.904 130.994 136.613H131.001Z" fill="#FFFAEB"/>
<path d="M61.591 151.009C59.9588 149.785 58.9977 147.903 58.9553 145.845C58.9227 144.171 59.3365 142.663 61.995 137.652C64.8684 132.24 65.6047 131.641 66.3834 131.006C67.3608 130.212 68.5336 129.502 73.8896 128.209C77.242 127.401 79.6138 126.991 80.943 126.991C83.3278 126.991 84.8884 128.036 85.7778 128.916C86.993 130.114 88.762 132.748 86.9832 136.949C86.7258 137.558 86.374 138.284 85.8788 139.238C85.0838 140.772 84.0771 142.576 83.191 144.165C82.6437 145.148 81.9627 146.366 81.777 146.743L80.3892 149.912L63.8226 152.676L61.591 151.006V151.009Z" fill="#FFFAEB"/>
<path d="M81.2004 133.552C81.6304 133.976 76.3949 142.79 75.8346 144.073L65.4972 145.799C65.0574 145.47 69.8726 136.571 70.4981 136.063C71.355 135.366 80.8094 133.168 81.2004 133.556V133.552Z" fill="#FFFAEB"/>
<path d="M83.9272 126.643L99.4643 123.865L101.865 126.236C103.315 127.669 104.022 129.684 103.797 131.768C103.709 132.608 103.54 134.171 100.569 139.599C97.6561 144.92 96.4409 145.975 95.2615 146.724C93.1178 148.088 90.5636 148.31 87.6054 148.564C86.7421 148.639 85.4552 148.749 84.9437 148.86L68.7128 155.193L83.924 126.64L83.9272 126.643Z" fill="#FFFAEB"/>
<path d="M97.288 130.873C97.806 131.384 92.8247 140.563 91.7658 141.237C90.2835 142.181 84.7417 141.957 82.7381 142.738L88.1919 132.497L97.2913 130.873H97.288Z" fill="#FFFAEB"/>
<path d="M21.9063 173.077C10.4384 173.077 4.73377 167.473 1.96454 162.774C0.527794 160.335 -0.0651457 157.499 0.247614 154.571L7.33358 88.1965L8.85178 76.0899C10.067 55.885 19.2282 40.356 34.6643 32.3717C41.3625 28.9136 48.5658 27.5167 55.5345 26.1654C56.7464 25.9309 57.9486 25.6965 59.1377 25.4555C75.9323 22.0169 93.0527 18.8942 109.609 15.8757C122.784 13.4726 136.406 10.9914 149.74 8.36683C160.472 6.2568 180.961 2.36886 192.908 0.336972C193.67 0.206723 194.446 0.141602 195.214 0.141602C199.157 0.141602 202.91 1.86089 205.506 4.85336C208.093 7.83606 209.253 11.7891 208.689 15.6966C208.292 18.4644 208.067 19.3989 207.79 20.1511C202.916 33.443 190.53 52.5245 177.172 61.7234C174.546 63.5306 171.871 64.9405 169.285 66.3049L168.728 66.6012C168.565 66.6891 168.447 66.8552 168.421 67.0473L163.945 98.6523L160.143 129.925C160.045 130.726 159.895 131.459 159.68 132.172C157.299 140.075 151.441 146.203 142.749 149.899C134.92 153.227 126.564 153.923 120.931 153.923C115.721 153.923 110.834 153.318 107.515 152.26C107.388 152.22 107.296 152.211 107.244 152.211C107.225 152.211 107.205 152.211 107.189 152.214L58.7044 158.635C58.5839 158.652 58.4243 158.743 58.2777 158.883C52.951 163.975 36.2411 173.077 21.9128 173.077H21.9063ZM24.1282 151.631C24.4409 151.657 24.77 151.673 25.1088 151.673C31.2402 151.673 39.3524 147.287 41.7991 142.647C42.6364 141.055 42.9068 138.749 43.1935 136.311C43.2358 135.956 43.2782 135.601 43.3206 135.246C43.7799 131.478 44.0862 127.535 44.3859 123.722C44.64 120.459 44.9039 117.086 45.2655 113.742L45.764 109.137L50.2795 108.095C53.6319 107.32 56.9615 106.734 60.177 106.164C69.0581 104.595 77.444 103.113 84.3247 98.0043C89.9381 93.8396 93.9486 87.8514 97.8353 81.2966C93.6782 82.0846 89.4755 82.9931 85.3477 83.8853C76.3982 85.8195 67.1425 87.8188 58.219 88.6784C57.714 88.7273 56.9321 88.7957 56.0753 88.7957C55.2185 88.7957 54.5082 88.737 53.7752 88.6198L49.3347 87.8969L48.4387 83.4913C46.5948 74.4259 51.9312 66.2235 61.415 63.5404C68.2045 61.6159 76.0105 60.46 83.5591 59.3398C94.0268 57.7899 104.853 56.1845 112.545 52.6092C120.054 49.1153 125.707 42.8307 128.453 35.2991L55.6844 48.9264C42.1412 52.2412 34.9053 59.8185 32.9115 72.762C31.7875 80.082 30.9991 87.923 30.2368 95.5068C29.8653 99.2026 29.4809 103.022 29.0639 106.721C28.5492 111.299 27.9334 116.158 27.3372 120.856C26.0177 131.25 24.6527 141.996 24.1249 151.641L24.1282 151.631ZM123.843 131.579C124.267 131.781 125.006 132.003 125.85 132.003C126.075 132.003 126.254 131.986 126.391 131.967L127.609 130.488L130.167 130.156C131.164 130.026 133.874 128.18 135.689 125.692C137.077 123.784 137.758 121.553 138.624 118.727C138.765 118.265 138.908 117.802 139.054 117.333C140.41 105.94 144.013 81.3943 144.86 76.5067H144.85L147.861 54.7974L148.239 53.9508C150.125 49.7372 155.087 48.0179 159.462 46.5038C160.26 46.227 161.169 45.9144 161.547 45.7418C167.773 42.9512 173.846 37.6761 179.586 30.0598C181.209 27.9075 182.557 25.8951 183.639 24.0097L148.652 31.5023C148.261 33.8924 147.838 36.3574 147.131 38.8972C144.15 49.6395 137.869 58.0829 131.793 66.243C131.232 66.9952 130.672 67.7474 130.115 68.5028C129.734 69.0206 129.147 69.75 128.359 70.7138C128.365 70.7269 128.372 70.7366 128.375 70.7496C130.01 73.5826 129.929 76.422 129.877 78.1771L129.87 78.4246C129.607 87.2848 128.18 96.8516 126.798 106.106C125.879 112.27 125.01 118.092 124.469 123.654C124.417 124.181 124.348 124.783 124.273 125.435C124.107 126.877 123.746 130.02 123.843 131.576V131.579Z" fill="#FFFAEB"/>
<path d="M150.998 14.7557C120.866 20.682 90.5311 25.6706 60.4442 31.8346C52.8141 33.3943 44.6302 34.5568 37.6616 38.1549C22.7761 45.8559 16.2635 60.5741 15.3448 76.7087C15.3188 77.1385 15.2992 77.5651 15.2797 77.9981C15.2471 78.0047 15.208 78.0177 15.1787 78.0242L13.8103 88.9456L6.73088 155.262C6.5745 156.717 6.84165 158.206 7.58445 159.469C16.8565 175.213 46.8652 160.781 53.7752 154.174C54.8959 153.1 56.3099 152.38 57.8476 152.178L106.332 145.757C107.397 145.617 108.472 145.728 109.495 146.053C117.95 148.749 147.75 149.17 153.441 130.29C153.555 129.915 153.627 129.528 153.673 129.14L157.485 97.8058L161.971 66.1357C162.29 63.8791 163.668 61.9091 165.685 60.8443C168.337 59.4442 170.995 58.07 173.481 56.3638C184.897 48.5032 196.918 30.8935 201.675 17.9207C201.818 17.5332 202.024 16.3089 202.245 14.772C202.933 10.0049 198.756 5.95085 194.006 6.75839C181.978 8.8033 161.449 12.7043 151.005 14.7589L150.998 14.7557ZM54.8308 82.1889C55.7332 82.3354 56.6845 82.2833 57.6 82.1954C73.8538 80.6292 91.453 75.0675 107.873 73.1073C108.437 73.0357 110.189 72.6677 109.919 73.6185C103.504 83.9603 98.2165 95.8097 88.2147 103.231C77.3821 111.277 64.4644 111.508 51.7455 114.442C50.9734 121.606 50.6574 128.886 49.7875 136.037C49.3835 139.323 49.1294 142.703 47.5624 145.682C43.3108 153.748 29.7481 160.12 20.8898 157.645C17.1171 156.59 17.4299 154.839 17.6156 151.358C18.3942 136.972 20.9615 120.521 22.5904 105.985C23.8578 94.7547 24.7635 82.876 26.4706 71.7657C28.9629 55.5627 38.6389 46.3346 54.3128 42.5508L136.738 27.1163C135.894 40.8381 127.639 52.7656 115.291 58.5096C100.898 65.2012 78.9198 65.3412 63.1873 69.8022C57.4273 71.4336 53.5895 76.1226 54.8243 82.1889H54.8308ZM184.789 33.9739C179.397 41.1246 172.468 47.9822 164.206 51.6846C161.788 52.7656 155.181 54.3742 154.184 56.6047L151.301 77.3957C151.216 77.7018 147.03 105.139 145.45 118.704C144.209 122.576 143.397 126.171 140.954 129.525C138.81 132.465 134.699 136.135 131.004 136.613C128.281 139.925 119.582 138.759 117.787 134.311C116.77 131.788 117.692 126.014 117.986 123.025C119.38 108.688 122.934 92.3353 123.358 78.2489C123.403 76.6142 123.504 75.0773 122.527 73.6869C122.27 72.4984 118.82 72.57 119.132 71.7299C119.259 71.4043 123.755 66.1552 124.876 64.6346C131.213 56.0577 137.94 47.6599 140.856 37.152C141.873 33.4953 142.264 29.7702 142.974 26.0581L193.439 15.2506C192.927 22.0268 188.816 28.6402 184.792 33.9772L184.789 33.9739Z" fill="#FFFAEB"/>
<path d="M64.7088 114.715L87.4556 111.453L79.5942 135.08L56.8442 138.343L64.7088 114.715Z" fill="#FFFAEB"/>
<path d="M74.6813 129.206L66.354 130.401L69.6217 120.59L77.9457 119.395L74.6813 129.206Z" fill="#FFFAEB"/>
<path d="M78.5875 112.661L101.334 109.398L93.4697 133.025L70.7229 136.288L78.5875 112.661Z" fill="#FFFAEB"/>
<path d="M88.56 127.151L80.2328 128.346L83.4972 118.535L91.8245 117.34L88.56 127.151Z" fill="#FFFAEB"/>
<path d="M91.9515 110.606L114.698 107.343L106.834 130.97L84.0869 134.233L91.9515 110.606Z" fill="#FFFAEB"/>
<path d="M101.924 125.096L93.5967 126.291L96.8612 116.48L105.188 115.285L101.924 125.096Z" fill="#FFFAEB"/>
<path d="M81.6695 126.018L104.42 122.755L96.555 146.382L73.8082 149.645L81.6695 126.018Z" fill="#FFFAEB"/>
<path d="M91.642 140.508L83.318 141.703L86.5825 131.892L94.9064 130.697L91.642 140.508Z" fill="#FFFAEB"/>
<path d="M67.2793 128.072L90.0261 124.81L82.1615 148.437L59.4147 151.7L67.2793 128.072Z" fill="#FFFAEB"/>
<path d="M77.2518 142.562L68.9245 143.758L72.189 133.946L80.5162 132.751L77.2518 142.562Z" fill="#FFFAEB"/>
<path d="M56.0167 159L54.303 146.089L109.434 138.785L111.235 139.733C114.053 140.996 128.577 142.234 138.637 137.506C143.414 135.262 146.277 132.159 147.398 128.023L159.977 131.423C157.768 139.583 151.959 145.92 143.176 149.749C131.089 155.018 115.05 154.692 107.423 152.191L56.0167 159Z" fill="#FFFAEB"/>
<path d="M55.1598 152.546L108.235 145.516C114.193 148.648 148.092 150.407 153.689 129.723" fill="#FFFAEB"/>
<path d="M55.1598 152.546L108.235 145.516C114.193 148.648 148.092 150.407 153.689 129.723" stroke="#05021B" stroke-miterlimit="10"/>
<path d="M22.636 105.985C23.8968 94.758 24.8058 82.876 26.5162 71.769C29.0118 55.5628 38.6878 46.3379 54.3584 42.5509L136.787 27.1196C135.943 40.8414 127.684 52.7689 115.337 58.5129C114.203 47.7609 105.309 43.2901 95.2322 43.9706C82.6208 44.8237 62.2751 50.5189 52.6968 58.8874C39.0592 70.8019 39.6847 79.4342 36.7135 95.7446C35.3777 103.074 30.4648 107.929 22.6393 105.989L22.636 105.985Z" fill="#FFFAEB"/>
<path d="M115.337 58.5098C100.943 65.2046 78.9654 65.3414 63.2395 69.8024C57.4729 71.437 53.6384 76.126 54.8699 82.1924C55.7723 82.3356 56.7269 82.2868 57.6424 82.1989C73.8929 80.6326 91.4954 75.0677 107.912 73.1042C108.479 73.0358 110.228 72.6679 109.961 73.6187C103.543 83.9605 98.2588 95.8099 88.2603 103.234C77.4277 111.277 64.5101 111.508 51.7846 114.442C51.0158 121.606 50.703 128.883 49.8299 136.034C49.4292 139.32 49.1718 142.703 47.6047 145.679C43.3531 153.751 29.7872 160.117 20.9354 157.646C17.1595 156.591 17.469 154.839 17.6579 151.358C18.4398 136.975 21.0006 120.518 22.6328 105.986C30.4583 107.926 35.3712 103.075 36.707 95.7415C39.6782 79.4311 39.0527 70.7988 52.6903 58.8843C62.2686 50.519 82.6143 44.8206 95.2257 43.9675C105.302 43.2869 114.2 47.7578 115.33 58.5098H115.337Z" fill="#D2273D"/>
<path d="M124.912 64.6348C131.252 56.0546 137.976 47.6568 140.892 37.1522C141.908 33.4922 142.296 29.7671 143.01 26.0582L193.478 15.2476C192.963 22.0238 188.852 28.6339 184.828 33.9741C179.44 41.1248 172.507 47.9824 164.241 51.6847C161.827 52.7658 155.224 54.3744 154.227 56.6049L151.337 77.3927C151.259 77.702 147.066 105.142 145.492 118.704C144.251 122.576 143.433 126.164 140.993 129.522C138.849 132.465 134.741 136.132 131.043 136.614C132.451 134.904 132.969 128.825 133.294 126.422C135.813 107.764 137.113 88.8904 139.485 70.2094C138.833 64.6673 134.734 62.0786 129.365 63.1564C127.688 63.4951 126.56 64.472 124.915 64.638L124.912 64.6348Z" fill="#0DAAB8"/>
<path d="M131.043 136.614C128.32 139.922 119.624 138.763 117.829 134.315C116.809 131.788 117.731 126.018 118.021 123.026C119.419 108.692 122.973 92.3323 123.394 78.2459C123.443 76.6113 123.54 75.0776 122.56 73.6872C122.309 72.4954 118.852 72.567 119.168 71.7269C119.292 71.4013 120.155 70.5221 120.478 69.9555C120.712 69.542 120.579 68.8419 120.781 68.5553C120.947 68.3176 123.785 66.1588 124.909 64.6381C126.554 64.472 127.684 63.4952 129.359 63.1565C134.728 62.0755 138.823 64.6674 139.478 70.2095C137.106 88.8905 135.806 107.764 133.288 126.422C132.962 128.825 132.447 134.904 131.037 136.614H131.043Z" fill="#FFFAEB"/>
<path d="M81.2427 133.553C81.6727 133.976 76.4373 142.791 75.8769 144.074L65.5395 145.8C65.0997 145.471 69.9149 136.571 70.5404 136.063C71.3973 135.367 80.8518 133.169 81.2427 133.556V133.553Z" fill="#D2273D"/>
<path d="M97.3303 130.873C97.8483 131.384 92.867 140.564 91.8081 141.238C90.3258 142.182 84.7841 141.957 82.7805 142.739L88.2342 132.498L97.3336 130.873H97.3303Z" fill="#D2273D"/>
<path d="M151.04 14.7557C120.908 20.682 90.5734 25.6706 60.4865 31.8346C52.8565 33.3943 44.6726 34.5568 37.7039 38.1549C22.8185 45.8559 16.3059 60.5741 15.3871 76.7087C15.3611 77.1385 15.3415 77.5651 15.322 77.9981C15.2894 78.0047 15.2503 78.0177 15.221 78.0242L13.8527 88.9456L6.77321 155.262C6.61683 156.717 6.88398 158.206 7.62679 159.469C16.8988 175.213 46.9075 160.781 53.8176 154.174C54.9383 153.1 56.3522 152.38 57.8899 152.178L106.374 145.757C107.44 145.617 108.515 145.728 109.538 146.053C117.992 148.749 147.792 149.17 153.484 130.29C153.598 129.915 153.669 129.528 153.715 129.14L157.527 97.8058L162.013 66.1357C162.332 63.8791 163.71 61.9091 165.727 60.8443C168.379 59.4442 171.037 58.07 173.523 56.3638C184.939 48.5032 196.961 30.8935 201.717 17.9207C201.861 17.5332 202.066 16.3089 202.287 14.772C202.975 10.0049 198.798 5.95085 194.048 6.75839C182.02 8.8033 161.492 12.7043 151.047 14.7589L151.04 14.7557ZM54.8699 82.1889C55.7723 82.3354 56.7236 82.2833 57.6391 82.1954C73.8928 80.6292 91.4921 75.0675 107.912 73.1073C108.476 73.0357 110.228 72.6677 109.958 73.6185C103.543 83.9603 98.2556 95.8097 88.2538 103.231C77.4212 111.277 64.5035 111.508 51.7846 114.442C51.0125 121.606 50.6965 128.886 49.8266 136.037C49.4226 139.323 49.1685 142.703 47.6014 145.682C43.3499 153.748 29.7871 160.12 20.9289 157.645C17.1562 156.59 17.469 154.839 17.6547 151.358C18.4333 136.972 21.0005 120.521 22.6295 105.985C23.8968 94.7547 24.8025 82.876 26.5097 71.7657C29.002 55.5627 38.678 46.3346 54.3518 42.5508L136.777 27.1163C135.933 40.8381 127.678 52.7656 115.33 58.5096C100.937 65.2012 78.9589 65.3412 63.2264 69.8022C57.4664 71.4336 53.6286 76.1226 54.8633 82.1889H54.8699ZM184.828 33.9739C179.436 41.1246 172.507 47.9822 164.245 51.6846C161.827 52.7656 155.22 54.3742 154.223 56.6047L151.34 77.3957C151.255 77.7018 147.069 105.139 145.489 118.704C144.248 122.576 143.436 126.171 140.993 129.525C138.849 132.465 134.738 136.135 131.043 136.613C128.32 139.925 119.621 138.759 117.826 134.311C116.809 131.788 117.731 126.014 118.025 123.025C119.419 108.688 122.973 92.3353 123.397 78.2489C123.443 76.6142 123.544 75.0773 122.566 73.6869C122.309 72.4984 118.859 72.57 119.171 71.7299C119.298 71.4043 123.794 66.1552 124.915 64.6346C131.252 56.0577 137.979 47.6599 140.895 37.152C141.912 33.4953 142.303 29.7702 143.013 26.0581L193.478 15.2506C192.966 22.0268 188.855 28.6402 184.831 33.9772L184.828 33.9739Z" fill="#05021B"/>
<path d="M74.7236 129.206L66.3964 130.401L69.6608 120.59L77.988 119.395L74.7236 129.206Z" fill="#D2273D"/>
<path d="M88.6023 127.151L80.2751 128.346L83.5395 118.535L91.8668 117.34L88.6023 127.151Z" fill="#D2273D"/>
<path d="M101.966 125.096L93.6391 126.291L96.9035 116.48L105.231 115.285L101.966 125.096Z" fill="#D2273D"/>
<path d="M91.6843 140.508L83.3604 141.703L86.6248 131.892L94.9488 130.697L91.6843 140.508Z" fill="#D2273D"/>
<path d="M77.2941 142.562L68.9669 143.758L72.2313 133.946L80.5585 132.751L77.2941 142.562Z" fill="#D2273D"/>
<path d="M55.2022 152.546L108.277 145.516C114.236 148.648 148.134 150.407 153.731 129.723" stroke="#05021B" stroke-miterlimit="10"/>
</g>
<defs>
<clipPath id="clip0_1027_1478">
<rect width="216" height="183" fill="white"/>
</clipPath>
</defs>
</svg>
