<?xml version="1.0" encoding="UTF-8"?>
<svg id="Layer_1" data-name="Layer 1" xmlns="http://www.w3.org/2000/svg" viewBox="0 0 1263 850">
  <defs>
    <style>
      .cls-1 {
        fill: #d2273d;
      }

      .cls-2 {
        fill: #42423d;
      }

      .cls-3 {
        fill: #707070;
      }

      .cls-4 {
        fill: #ac2433;
      }

      .cls-5 {
        fill: #080a0a;
      }

      .cls-6 {
        fill: #232828;
      }

      .cls-7 {
        fill: #176d73;
      }

      .cls-8 {
        fill: #00aeb9;
      }

      .cls-9 {
        fill: #158f97;
      }

      .cls-10 {
        fill: #fff;
      }

      .cls-11 {
        stroke-linecap: round;
      }

      .cls-11, .cls-12, .cls-13 {
        fill: none;
        stroke-miterlimit: 10;
      }

      .cls-11, .cls-13 {
        stroke: #fefcf3;
        stroke-width: 3px;
      }

      .cls-14 {
        fill: #fefcf3;
      }

      .cls-15 {
        fill: #7c202c;
      }

      .cls-12 {
        stroke: #000;
        stroke-width: 5px;
      }

      .cls-16 {
        fill: #444b4c;
      }

      .cls-17 {
        fill: #333;
      }

      .cls-18 {
        fill: #e2dfd4;
      }
    </style>
  </defs>
  <line class="cls-12" x1="278" y1="167.5" x2="516.5" y2="393.5"/>
  <path class="cls-16" d="M1049.04,518.64c-.4-.15-.8-.29-1.18-.43-.15-.05-.7.79-.86.79l.37-.88c-.77-.01-2.38.67-2.37-.12v-.81c.02-.5-.23-.93-.6-1.19h0c-.22-.16-.48-.25-.76-.25l-10.9-.07c-.28,0-.54-.08-.77-.24-.15-.1-.29-.2-.43-.3-.04-.02-.07-.04-.11-.08-19.8-13.52-33.13-36.31-34.16-62.38-.03-.94-.89-1.6-1.76-1.34-.44.13-.94.28-1.5.44-.54.16-1.13.33-1.76.52-22.42,6.6-108.12,27.26-132.95,29.48l-3.17.15c-3.29-.11-165.16,6.25-299.12,3.07l-66-5c-49.04-1.16-93-2-104-1s2,17-29,33h-26.4c-.34-.04-12.42-3.08-12.6-3-9.63,4.52-11.31,16.39-22.57,16.39-6.99,0-13.76-.98-20.2-2.78-3.91-1.09-7.7-2.51-11.32-4.21-.18-.09-5.71-15.03-5.91-15.04-36.95-2-58.26-2.48-74.07-2.52h-1.02l-9.91.02c-4,.03-7.74.07-11.48.11-3.44.03-6.88.06-10.52.05-6.79-.01-14.24-.13-23.66-.49l-1.99-.06c-15.07-.57-23.19-3.81-27.29-6.21-.4-.24-.76-.47-1.09-.68l2.43-.18,30.6-2.24c0-.23,8.33-1.66,15.3-11.49,1.07-1.5,2.11-3.21,3.08-5.14.39-.77,1.28-1.64,2.62-2.58,1.61-1.15,3.88-2.41,6.71-3.78,4.04-1.96,9.22-4.12,15.29-6.43.9-.34,1.81-.68,2.75-1.03.68-.26,1.36-.5,2.06-.76.48-.18.97-.35,1.46-.54.23-.08.47-.16.7-.25h0c.05-.02.1-.04.15-.06,1.05-.38,2.12-.76,3.21-1.15l.14-.05c22.12-7.83,51.75-16.85,80.29-25.18l.11-.03.11-.03c31.85-9.31,62.3-17.74,79.35-22.64l-.4-1.16,2.76-.94,4.84-1.66,27.3-9.32h.02s5.15-1.77,5.15-1.77l.5-.17h649.5v.73c1.27-.06,2.55-.09,3.49-.05-.07,2.24.03,3.57.51,2.32.07-.18,1-1.82,1-2,0-.19-.6-.29-1.51-.32.15-5.1,1.17-14.91.51-9.68-.04.26-.49.47-.77.69.18-.47.42-1.19.59-1.57l.18-.12c.01-.24-.07-.14-.18.12l-2.82,1.88c-.01.3-3.67-.16-4.72-.09.26-.54.63-1.5.72-.91.03.2,2.9.85,3,1,0-.02-1-1.94-1-2-.01,0-1.98-1-2-1l-.18-.54c.11.03.23.04.35.04s.24-.02.36-.05c.15-.04.29-.1.42-.19.33-.21.65-.43.98-.64.24-.16.49-.31.73-.47,1.13-.72,2.27-1.41,3.44-2.07.53-.3,1.07-.59,1.61-.88,2.88-1.24,5.85-2.3,8.9-3.16.26.26.43.62.43,1.04l.23,33.01.07,10.1.42,58.96.07,10.37.21,29.12Z"/>
  <path class="cls-6" d="M1001.95,435.97l-.65,20.66c-.69.07-1.39.14-2.12.21l-5.18-7.84s-8.18,3.74-29.86,9.12c-41.61.06-98.95-3.24-145.51-6.51-72.14-5.07-139.06-7.14-152.66-9.33-15.46-2.49-105.25,3.56-176.93,8.63-33.62,2.38-63.26,4.56-79.38,5.54-5.75.35-9.78.55-11.66.55l-46.14,15.38-3.86-3.41-7,6.03-6-8,59-22c9.41-.01,248.19-23.36,274.9-19.06,27.83,4.48,266.66,17.05,333.05,10.03Z"/>
  <polygon class="cls-4" points="351.86 472.38 355.95 476 335 478 351.86 472.38"/>
  <path class="cls-4" d="M999.18,456.84c-9.34.87-21.34,1.26-35.04,1.28,21.68-5.38,29.86-9.12,29.86-9.12l5.18,7.84Z"/>
  <path class="cls-5" d="M1007,416l-12.78,33.23s-.03.01-.05.02l-.17-.25s-2.67,1.22-9.01,3.27c-4.75,1.54-11.56,3.54-20.85,5.85-36.54,9.05-111.43,22.72-250.14,30.88,0,0-120.87,9.82-157-4-35.28-13.5-60.65-15.39-61.82-15.47l-.06-.2-5.38-19.08-3.74-13.25,25-1,7,26c49,8,45,25,132.54,20.91,173.29-8.1,307.64-45.23,356.46-66.91Z"/>
  <path class="cls-15" d="M994.17,449.25c-50.72,22.5-166.22,37.19-343.31,43.65-75.36,2.75-132.69,4.1-179.86,4.1l26-21-1.82-6.47c1.17.08,26.54,1.97,61.82,15.47,36.13,13.82,157,4,157,4,138.71-8.16,213.6-21.83,250.14-30.88,9.29-2.31,16.1-4.31,20.85-5.85,6.34-2.05,9.01-3.27,9.01-3.27l.17.25Z"/>
  <polygon class="cls-16" points="1020 409 704 398 741 368 1034 395 1020 409"/>
  <polygon class="cls-16" points="1180 308 1180 444 1085 499 1085 331 1180 308"/>
  <path class="cls-6" d="M789,369l-166.9-37.71-105.6,58.17h50.61s12.81-19.71,49.35-29.08,172.54,22.8,172.54,22.8v-14.17Z"/>
  <polygon class="cls-5" points="1180 456 1085 511 1085 461 1180 420 1180 456"/>
  <path class="cls-1" d="M95.34,491.57l-11.34,3.03,13.97-1.02c-1.76-1.17-2.49-2-2.63-2.01Z"/>
  <path class="cls-1" d="M1030,387s.1-.08.28-.09c-.16.32-.28.5-.28.09Z"/>
  <path class="cls-1" d="M1037.23,386.69c-.16.41-.26.64-.23.31.01-.11.11-.21.23-.31Z"/>
  <path class="cls-1" d="M1038,385l-.18.12c.11-.26.19-.36.18-.12Z"/>
  <path class="cls-1" d="M1039,396c0,.18-.93,1.82-1,2-.48,1.25-.58-.08-.51-2.32.91.03,1.51.13,1.51.32Z"/>
  <path class="cls-17" d="M223.82,426.7c-.28.08-.56.17-.84.25.11-.5.28-.98.45-1.48l.39,1.23Z"/>
  <line class="cls-4" x1="948.71" y1="443.49" x2="946.75" y2="441.5"/>
  <path class="cls-6" d="M328,460l20.95-2-7.95-7.03-7,6.03-6-4,59-26c9.41-.01,248.19-23.36,274.9-19.06,27.83,4.48,273.71,13.08,340.1,6.06l-7.7,24.63c-36.73,3.88-119.6-.59-182.66-5.02-72.14-5.07-139.06-7.14-152.67-9.33-25.29-4.07-249.61,14.7-267.97,14.72l-63,21Z"/>
  <polygon class="cls-5" points="174 511 45 511 84.26 439.33 174 439.33 174 511"/>
  <polygon class="cls-6" points="45 511 106.24 473.21 174 473.21 174 511 45 511"/>
  <path class="cls-16" d="M900.95,395h-111.95v-78.92c74.54,0,101.89,52.21,109.49,71.7,1.75,4.47,2.46,7.22,2.46,7.22Z"/>
  <path class="cls-6" d="M900.95,395h-111.95v-17l109.49,9.78c1.75,4.47,2.46,7.22,2.46,7.22Z"/>
  <path class="cls-11" d="M865.65,352.89s-11.01-14.71-30.66-21.61"/>
  <path class="cls-11" d="M828,329s-1.68-.77-5.22-2.17"/>
  <polygon class="cls-6" points="424 395 356.8 415.85 352.14 417.29 179 471 180.97 459.15 181 459 184.33 457.95 264.76 432.72 264.87 432.69 348.67 406.4 351.14 405.62 378.85 396.93 385 395 424 395"/>
  <path class="cls-5" d="M183.91,500.84l-9.91.02v-39.12c.9-.34,1.81-.68,2.75-1.03.68-.26,1.36-.5,2.06-.76.48-.18.97-.35,1.46-.54.28-.1.57-.2.85-.31l2.79,41.74Z"/>
  <path class="cls-5" d="M335,467l20.95-2-7.95-7.03-7,6.03-6-4,59-26c9.41-.01,248.19-23.36,274.9-19.06,27.83,4.48,266.66,17.05,333.05,10.03l-.65,20.67c-36.73,3.88-119.6-.59-182.66-5.02-72.14-5.07-139.06-7.14-152.67-9.33-25.29-4.07-249.61,14.7-267.97,14.72l-63,21Z"/>
  <path class="cls-8" d="M342,457l-8-32,14,9.43-7,3.05-3,19.52,56-23.68c9.41,0,243.29-21.49,270-19.32,27.83,2.26,271.56,12.3,337.95,8.75l-.65,5.45c-36.73,1.96-119.6-.3-182.66-2.54-72.14-2.57-139.06-7.61-152.67-8.72-25.29-2.06-249.61,17.43-267.97,17.44l-56,22.62Z"/>
  <path class="cls-13" d="M1045.46,448.56s3.9,22.67,23.72,29.05"/>
  <g>
    <g>
      <path class="cls-2" d="M212.43,426.37c8.05-25.3,28.92-44.92,54.97-51.18,1.62-.39,3.26-.75,4.93-1,4.26-.75,8.64-1.14,13.1-1.14,10.73,0,20.93,2.2,30.2,6.19.92.39,1.81.81,2.7,1.23,13.15,6.24,24.21,16.13,31.93,28.36.5.78,1,1.59,1.45,2.42,4.24,7.24,7.3,15.27,8.92,23.8.95,4.74,1.42,9.64,1.42,14.63,0,2.65-.14,5.27-.42,7.86-.08.92-.19,1.87-.31,2.79-3.37,24.21-18.06,44.8-38.53,56.26-1.78,1-3.62,1.95-5.49,2.79-9.7,4.46-20.51,6.94-31.88,6.94-6.99,0-13.76-.95-20.2-2.7-4.01-1.09-7.89-2.51-11.59-4.21-1.87-.84-3.71-1.76-5.49-2.76-17.53-9.78-30.82-26.22-36.42-45.92-.25-.89-.5-1.78-.72-2.7-1.45-5.88-2.2-12.01-2.2-18.33,0-7.58,1.11-14.91,3.18-21.82l.45-1.48Z"/>
      <circle class="cls-14" cx="285.43" cy="449.66" r="44.58"/>
      <circle class="cls-18" cx="284.97" cy="449.31" r="36.51"/>
      <circle class="cls-2" cx="284.73" cy="450.65" r="13.27"/>
    </g>
    <path class="cls-11" d="M256.46,447.56s2.04,25.94,23.72,29.05"/>
  </g>
  <polygon class="cls-3" points="1155 494 1108 490 1108 468 1156 462 1155 494"/>
  <path class="cls-8" d="M1035,511H399.75c-7.75-8,14.25-7,14.25-7,0-.02.01-.05.01-.07,1.9-15.3-.93-32.31-3.06-42-.49-2.27-.95-4.13-1.29-5.48l80.08-6.2,5.38,19.08.02.2h.04c1.17.08,26.54,1.97,61.82,15.47,36.13,13.82,157,4,157,4,138.71-8.16,213.6-21.83,250.14-30.88,9.29-2.31,16.1-4.31,20.85-5.85,6.34-2.05,9.01-3.27,9.01-3.27l.17.25,5.01,7.59,35.82,54.16Z"/>
  <path class="cls-6" d="M1004,409l3,7-299-16h-.94s-190.06-3-190.06-3l-130,9-2-11,131.5-5.55c14.4-1.8,97.28,1.07,190.75,5.12,137.01,5.95,296.75,14.43,296.75,14.43Z"/>
  <path class="cls-5" d="M1004,404.07v4.93l-296-10.85h-.94s.19-3.58.19-3.58c137.01,3.92,296.75,9.5,296.75,9.5Z"/>
  <path class="cls-9" d="M986.74,457.59c-94.86,31.03-314.42,39.47-370.7,39.47-5.54,0-9.54-.08-11.75-.2-3.02-.18-5.76-.3-8.34-.41-14.41-.62-23.92-1.03-48.22-9.64-27.56-9.77-52.63-12.27-52.88-12.29l-2.05-.2-5.04-18.16-76.81,5.77c-.49-2.27-.95-4.13-1.29-5.48,16.12-.98,45.76-3.16,79.38-5.54.63.06.96.09.96.09l5.14,18.53s25.73,1.65,61.86,15.47,157,4,157,4c138.71-8.16,213.6-21.83,250.14-30.88,9.29-2.31,16.1-4.31,20.85-5.85l1.75,5.32Z"/>
  <path class="cls-7" d="M1015.22,511H399.75c-7.75-8,14.25-7,14.25-7,0-.02.01-.05.01-.07l595.99-1.93,5.22,9Z"/>
  <g>
    <g>
      <path class="cls-2" d="M984.43,426.37c8.05-25.3,28.92-44.92,54.97-51.18,1.62-.39,3.26-.75,4.93-1,4.26-.75,8.64-1.14,13.1-1.14,10.73,0,20.93,2.2,30.2,6.19.92.39,1.81.81,2.7,1.23,13.15,6.24,24.21,16.13,31.93,28.36.5.78,1,1.59,1.45,2.42,4.24,7.24,7.3,15.27,8.92,23.8.95,4.74,1.42,9.64,1.42,14.63,0,2.65-.14,5.27-.42,7.86-.08.92-.19,1.87-.31,2.79-3.37,24.21-18.06,44.8-38.53,56.26-1.78,1-3.62,1.95-5.49,2.79-9.7,4.46-20.51,6.94-31.88,6.94-6.99,0-13.76-.95-20.2-2.7-4.01-1.09-7.89-2.51-11.59-4.21-1.87-.84-3.71-1.76-5.49-2.76-17.53-9.78-30.82-26.22-36.42-45.92-.25-.89-.5-1.78-.72-2.7-1.45-5.88-2.2-12.01-2.2-18.33,0-7.58,1.11-14.91,3.18-21.82"/>
      <circle class="cls-14" cx="1057.43" cy="449.66" r="44.58"/>
      <circle class="cls-18" cx="1056.97" cy="449.31" r="36.51"/>
      <circle class="cls-2" cx="1056.73" cy="450.65" r="13.27"/>
    </g>
    <path class="cls-11" d="M1028.46,447.56s2.04,25.94,23.72,29.05"/>
  </g>
  <polygon class="cls-6" points="1180 337.28 1180 349.62 1137 360.03 1137 347.69 1180 337.28"/>
  <polygon class="cls-6" points="1180 361.28 1180 373.62 1137 384.03 1137 371.69 1180 361.28"/>
  <polygon class="cls-6" points="1180 384.28 1180 396.62 1137 407.03 1137 394.69 1180 384.28"/>
  <path class="cls-11" d="M570,374s16-16,44-22"/>
  <path class="cls-11" d="M561,382s2.57-3,4-4"/>
  <path d="M298.3,183.61s78.2-109.11,313.2-44.11,295,3,295,3v110.19s-86.2,62.81-304.1-5.69c0,0-150.71-51.2-208.3,27.65l-95.8-91.04Z"/>
  <g>
    <path class="cls-10" d="M522.05,150.99c4.61.25,8.18,4.17,7.93,8.79l-1.45,26.48c-.25,4.61-4.23,8.12-8.84,7.87l-34.75-1.9,2.36-43.13,34.75,1.9ZM522.02,159.33c.01-.24-.16-.43-.4-.44l-26.42-1.45c-.24-.01-.43.16-.44.4l-1.45,26.48c-.01.24.16.43.4.44l26.42,1.45c.24.01.43-.16.44-.4l1.45-26.48Z"/>
    <path class="cls-10" d="M579.04,168.1l-31.21-5.77-1.77,9.56,25.14,4.65-1.44,7.79-25.14-4.65-1.77,9.56,31.21,5.77-1.44,7.79-39.06-7.22,7.86-42.48,39.06,7.22-1.44,7.79Z"/>
    <path class="cls-10" d="M627.5,185.15l-7.69-2.14.89-3.18c.06-.23-.06-.45-.23-.5l-25.55-7.12c-.23-.06-.45.06-.52.29l-2.38,8.55c-.06.23.06.45.29.52l25.55,7.12c4.39,1.22,7.04,5.82,5.8,10.27l-2.38,8.55c-1.24,4.45-5.88,7.02-10.27,5.8l-25.55-7.12c-4.45-1.24-7.04-5.82-5.8-10.27l.89-3.18,7.63,2.12-.88,3.18c-.06.23.06.45.29.52l25.55,7.12c.17.05.4-.08.46-.31l2.38-8.55c.06-.23-.06-.45-.23-.5l-25.55-7.12c-4.45-1.24-7.04-5.82-5.8-10.27l2.38-8.55c1.24-4.45,5.82-7.04,10.27-5.8l25.55,7.12c4.39,1.22,7.04,5.82,5.8,10.27l-.89,3.18Z"/>
    <path class="cls-10" d="M638.05,176.66l7.53,2.45-13.37,41.08-7.53-2.45,13.37-41.08Z"/>
    <path class="cls-10" d="M688.55,201.22l-7.79-1.72.72-3.28c.05-.23-.08-.45-.32-.5l-25.84-5.7c-.23-.05-.45.09-.5.32l-5.71,25.9c-.05.23.08.45.32.5l25.84,5.7c.23.05.45-.09.5-.32l1.76-7.97-9.55-2.11,1.71-7.73,17.34,3.83-3.46,15.7c-1,4.51-5.49,7.33-10,6.33l-25.84-5.7c-4.51-1-7.34-5.43-6.35-9.94l5.71-25.9c1-4.51,5.43-7.34,9.94-6.35l25.84,5.7c4.51,1,7.4,5.44,6.41,9.95l-.72,3.28Z"/>
    <path class="cls-10" d="M731.1,195.35l7.91,1.05-5.69,42.82-8.56-1.14-22.24-34.91-4.17,31.4-7.85-1.04,5.69-42.83,8.57,1.14,22.18,34.91,4.17-31.4Z"/>
  </g>
</svg>