<svg width="1103" height="520" viewBox="0 0 1103 520" fill="none" xmlns="http://www.w3.org/2000/svg">
<g clip-path="url(#clip0_1027_983)">
<path d="M1102.08 415.147H0.119812V519.843H1102.08V415.147Z" fill="#696964"/>
<path d="M1058.99 312.086H45.3985V416.783H1058.99V312.086Z" fill="#696964"/>
<path d="M1004.43 207.39H99.9512V312.087H1004.43V207.39Z" fill="#696964"/>
<path d="M966.247 103.784H138.138V208.481H966.247V103.784Z" fill="#696964"/>
<path d="M920.423 0.178223H185.053V104.875H920.423V0.178223Z" fill="#696964"/>
<path d="M940.5 103.703V104H138.5V103.703H185.388V87H920.327V103.703H940.5Z" fill="#464645"/>
<path d="M996.5 207.709V208H113.5V207.709H138.058V191H966.485V207.709H996.5Z" fill="#464645"/>
<path d="M1038.5 312.708V313H75.5V312.708H100.039V296H1004.15V312.708H1038.5Z" fill="#464645"/>
<path d="M1058.5 398H45.5V415H1058.5V398Z" fill="#464645"/>
</g>
<defs>
<clipPath id="clip0_1027_983">
<rect width="1103" height="520" fill="white"/>
</clipPath>
</defs>
</svg>
