<?xml version="1.0" encoding="UTF-8"?>
<svg id="Layer_1" data-name="Layer 1" xmlns="http://www.w3.org/2000/svg" viewBox="0 0 1263 850">
  <defs>
    <style>
      .cls-1 {
        fill: #464645;
      }

      .cls-2 {
        fill: #696964;
      }
    </style>
  </defs>
  <rect class="cls-2" x="148" y="675" width="1010" height="96"/>
  <rect class="cls-2" x="189.5" y="580.5" width="929" height="96"/>
  <rect class="cls-2" x="239.5" y="484.5" width="829" height="96"/>
  <rect class="cls-2" x="274.5" y="389.5" width="759" height="96"/>
  <rect class="cls-2" x="317.5" y="294.5" width="674" height="96"/>
  <polygon class="cls-1" points="1010 389.72 1010 390 274.5 390 274.5 389.72 317.5 389.72 317.5 374 991.5 374 991.5 389.72 1010 389.72"/>
  <polygon class="cls-1" points="1061 484.64 1061 485 252 485 252 484.64 274.5 484.64 274.5 464 1033.5 464 1033.5 484.64 1061 484.64"/>
  <polygon class="cls-1" points="1100 580.57 1100 581 217 581 217 580.57 239.5 580.57 239.5 556 1068.5 556 1068.5 580.57 1100 580.57"/>
  <rect class="cls-1" x="189.5" y="646" width="929" height="29"/>
</svg>