<svg width="457" height="447" viewBox="0 0 457 447" fill="none" xmlns="http://www.w3.org/2000/svg">
<g filter="url(#filter0_d_1060_51)">
<path d="M402.951 112.017L298.223 203.036L432.731 237.095L294.504 249.173L383.304 355.79L264.377 284.313L273.55 422.763L219.349 295.033L145.391 412.433L176.619 277.24L47.7798 328.747L152.509 237.728L18.0004 203.669L156.227 191.591L67.4274 84.9745L186.354 156.451L177.181 18.0013L231.382 145.731L305.34 28.3306L274.112 163.524L402.951 112.017Z" fill="url(#paint0_radial_1060_51)"/>
<path d="M407.22 109.413C408.49 111.495 408.073 114.191 406.231 115.791L308.722 200.535L433.958 232.249C436.323 232.847 437.91 235.065 437.715 237.497C437.519 239.928 435.596 241.864 433.166 242.077L304.466 253.32L387.146 352.59C388.707 354.464 388.688 357.192 387.1 359.044C385.512 360.896 382.819 361.332 380.728 360.075L269.999 293.524L278.539 422.432C278.7 424.866 277.081 427.062 274.708 427.627C272.334 428.192 269.9 426.962 268.947 424.716L218.482 305.79L149.622 415.098C148.322 417.162 145.721 417.987 143.469 417.049C141.217 416.111 139.971 413.685 140.52 411.308L169.595 285.432L49.6361 333.39C47.3709 334.295 44.7829 333.434 43.512 331.352C42.2413 329.269 42.6585 326.573 44.4999 324.973L142.01 240.227L16.7734 208.516C14.4084 207.917 12.8207 205.699 13.0167 203.267C13.2127 200.835 15.1351 198.9 17.5655 198.687L146.264 187.442L63.5851 88.1743C62.024 86.2998 62.0436 83.5722 63.6313 81.7202C65.2192 79.8681 67.9122 79.4319 70.0032 80.6886L180.733 147.238L172.192 18.3317C172.031 15.8975 173.65 13.7021 176.024 13.137C178.397 12.5722 180.831 13.8022 181.784 16.0477L232.25 134.974L301.109 25.6655C302.41 23.6014 305.01 22.7771 307.262 23.7149C309.514 24.6528 310.761 27.0793 310.212 29.4563L281.137 155.33L401.095 107.374L401.308 107.294C403.521 106.523 405.989 107.396 407.22 109.413Z" stroke="white" stroke-width="10" stroke-linejoin="round"/>
</g>
<defs>
<filter id="filter0_d_1060_51" x="0" y="0" width="456.731" height="446.764" filterUnits="userSpaceOnUse" color-interpolation-filters="sRGB">
<feFlood flood-opacity="0" result="BackgroundImageFix"/>
<feColorMatrix in="SourceAlpha" type="matrix" values="0 0 0 0 0 0 0 0 0 0 0 0 0 0 0 0 0 0 127 0" result="hardAlpha"/>
<feOffset dx="3" dy="3"/>
<feGaussianBlur stdDeviation="5.5"/>
<feComposite in2="hardAlpha" operator="out"/>
<feColorMatrix type="matrix" values="0 0 0 0 0 0 0 0 0 0 0 0 0 0 0 0 0 0 0.25 0"/>
<feBlend mode="normal" in2="BackgroundImageFix" result="effect1_dropShadow_1060_51"/>
<feBlend mode="normal" in="SourceGraphic" in2="effect1_dropShadow_1060_51" result="shape"/>
</filter>
<radialGradient id="paint0_radial_1060_51" cx="0" cy="0" r="1" gradientUnits="userSpaceOnUse" gradientTransform="translate(225.366 220.382) rotate(142.838) scale(342.945)">
<stop stop-color="#00AEB9"/>
<stop offset="1" stop-color="#007A82"/>
</radialGradient>
</defs>
</svg>
