<svg width="1263" height="408" viewBox="0 316 1263 14" fill="none" xmlns="http://www.w3.org/2000/svg">
<path d="M279 167.5L517.5 393.5" stroke="black" stroke-width="5" stroke-miterlimit="10"/>
<path d="M1049.04 518.64C1048.64 518.49 1048.24 518.35 1047.86 518.21C1047.71 518.16 1047.16 519 1047 519L1047.37 518.12C1046.6 518.11 1044.99 518.79 1045 518V517.19C1045.02 516.69 1044.77 516.26 1044.4 516C1044.18 515.84 1043.92 515.75 1043.64 515.75L1032.74 515.68C1032.46 515.68 1032.2 515.6 1031.97 515.44C1031.82 515.34 1031.68 515.24 1031.54 515.14C1031.5 515.12 1031.47 515.1 1031.43 515.06C1011.63 501.54 998.3 478.75 997.27 452.68C997.24 451.74 996.38 451.08 995.51 451.34C995.07 451.47 994.57 451.62 994.01 451.78C993.47 451.94 992.88 452.11 992.25 452.3C969.83 458.9 884.13 479.56 859.3 481.78L856.13 481.93C852.84 481.82 690.97 488.18 557.01 485L491.01 480C441.97 478.84 398.01 478 387.01 479C376.01 480 389.01 496 358.01 512H331.61C331.27 511.96 319.19 508.92 319.01 509C309.38 513.52 307.7 525.39 296.44 525.39C289.45 525.39 282.68 524.41 276.24 522.61C272.33 521.52 268.54 520.1 264.92 518.4C264.74 518.31 259.21 503.37 259.01 503.36C222.06 501.36 200.75 500.88 184.94 500.84H183.92L174.01 500.86C170.01 500.89 166.27 500.93 162.53 500.97C159.09 501 155.65 501.03 152.01 501.02C145.22 501.01 137.77 500.89 128.35 500.53L126.36 500.47C111.29 499.9 103.17 496.66 99.07 494.26C98.67 494.02 98.31 493.79 97.98 493.58L100.41 493.4L131.01 491.16C131.01 490.93 139.34 489.5 146.31 479.67C147.38 478.17 148.42 476.46 149.39 474.53C149.78 473.76 150.67 472.89 152.01 471.95C153.62 470.8 155.89 469.54 158.72 468.17C162.76 466.21 167.94 464.05 174.01 461.74C174.91 461.4 175.82 461.06 176.76 460.71C177.44 460.45 178.12 460.21 178.82 459.95C179.3 459.77 179.79 459.6 180.28 459.41C180.51 459.33 180.75 459.25 180.98 459.16C181.03 459.14 181.08 459.12 181.13 459.1C182.18 458.72 183.25 458.34 184.34 457.95L184.48 457.9C206.6 450.07 236.23 441.05 264.77 432.72L264.88 432.69L264.99 432.66C296.84 423.35 327.29 414.92 344.34 410.02L343.94 408.86L346.7 407.92L351.54 406.26L378.84 396.94H378.86L384.01 395.17L384.51 395H1034.01V395.73C1035.28 395.67 1036.56 395.64 1037.5 395.68C1037.43 397.92 1037.53 399.25 1038.01 398C1038.08 397.82 1039.01 396.18 1039.01 396C1039.01 395.81 1038.41 395.71 1037.5 395.68C1037.65 390.58 1038.67 380.77 1038.01 386C1037.97 386.26 1037.52 386.47 1037.24 386.69C1037.42 386.22 1037.66 385.5 1037.83 385.12L1038.01 385C1038.02 384.76 1037.94 384.86 1037.83 385.12L1035.01 387C1035 387.3 1031.34 386.84 1030.29 386.91C1030.55 386.37 1030.92 385.41 1031.01 386C1031.04 386.2 1033.91 386.85 1034.01 387C1034.01 386.98 1033.01 385.06 1033.01 385C1033 385 1031.03 384 1031.01 384L1030.83 383.46C1030.94 383.49 1031.06 383.5 1031.18 383.5C1031.3 383.5 1031.42 383.48 1031.54 383.45C1031.69 383.41 1031.83 383.35 1031.96 383.26C1032.29 383.05 1032.61 382.83 1032.94 382.62C1033.18 382.46 1033.43 382.31 1033.67 382.15C1034.8 381.43 1035.94 380.74 1037.11 380.08C1037.64 379.78 1038.18 379.49 1038.72 379.2C1041.6 377.96 1044.57 376.9 1047.62 376.04C1047.88 376.3 1048.05 376.66 1048.05 377.08L1048.28 410.09L1048.35 420.19L1048.77 479.15L1048.84 489.52L1049.05 518.64H1049.04Z" fill="#3394FF"/>
<path d="M1001.95 435.97L1001.3 456.63C1000.61 456.7 999.91 456.77 999.18 456.84L994 449C994 449 985.82 452.74 964.14 458.12C922.53 458.18 865.19 454.88 818.63 451.61C746.49 446.54 679.57 444.47 665.97 442.28C650.51 439.79 560.72 445.84 489.04 450.91C455.42 453.29 425.78 455.47 409.66 456.45C403.91 456.8 399.88 457 398 457L351.86 472.38L348 468.97L341 475L335 467L394 445C403.41 444.99 642.19 421.64 668.9 425.94C696.73 430.42 935.56 442.99 1001.95 435.97Z" fill="#02267E"/>
<path d="M351.86 472.38L355.95 476L335 478L351.86 472.38Z" fill="#AC2433"/>
<path d="M999.18 456.84C989.84 457.71 977.84 458.1 964.14 458.12C985.82 452.74 994 449 994 449L999.18 456.84Z" fill="#AC2433"/>
<path d="M1007 416L994.22 449.23C994.22 449.23 994.19 449.24 994.17 449.25L994 449C994 449 991.33 450.22 984.99 452.27C980.24 453.81 973.43 455.81 964.14 458.12C927.6 467.17 852.71 480.84 714 489C714 489 593.13 498.82 557 485C521.72 471.5 496.35 469.61 495.18 469.53L495.12 469.33L489.74 450.25L486 437L511 436L518 462C567 470 563 487 650.54 482.91C823.83 474.81 958.18 437.68 1007 416Z" fill="#D7549E"/>
<path d="M994.17 449.25C943.45 471.75 827.95 486.44 650.86 492.9C575.5 495.65 518.17 497 471 497L497 476L495.18 469.53C496.35 469.61 521.72 471.5 557 485C593.13 498.82 714 489 714 489C852.71 480.84 927.6 467.17 964.14 458.12C973.43 455.81 980.24 453.81 984.99 452.27C991.33 450.22 994 449 994 449L994.17 449.25Z" fill="#7C202C"/>
<path d="M1020 409L704 398L741 368L1034 395L1020 409Z" fill="#3394FF"/>
<path d="M1180 308V444L1085 499V331L1180 308Z" fill="#3394FF"/>
<path d="M789 369L622.1 331.29L516.5 389.46H567.11C567.11 389.46 579.92 369.75 616.46 360.38C653 351.01 789 383.18 789 383.18V369.01V369Z" fill="#02267E"/>
<path d="M1180 456L1085 511V461L1180 420V456Z" fill="#D7549E"/>
<path d="M95.34 491.57L84 494.6L97.97 493.58C96.21 492.41 95.48 491.58 95.34 491.57Z" fill="#D7549E"/>
<path d="M1030 387C1030 387 1030.1 386.92 1030.28 386.91C1030.12 387.23 1030 387.41 1030 387Z" fill="#D7549E"/>
<path d="M1037.23 386.69C1037.07 387.1 1036.97 387.33 1037 387C1037.01 386.89 1037.11 386.79 1037.23 386.69Z" fill="#D7549E"/>
<path d="M1038 385L1037.82 385.12C1037.93 384.86 1038.01 384.76 1038 385Z" fill="#D7549E"/>
<path d="M1039 396C1039 396.18 1038.07 397.82 1038 398C1037.52 399.25 1037.42 397.92 1037.49 395.68C1038.4 395.71 1039 395.81 1039 396Z" fill="#D7549E"/>
<path d="M223.82 426.7C223.54 426.78 223.26 426.87 222.98 426.95C223.09 426.45 223.26 425.97 223.43 425.47L223.82 426.7Z" fill="#333333"/>
<path d="M328 460L348.95 458L341 450.97L334 457L328 453L387 427C396.41 426.99 635.19 403.64 661.9 407.94C689.73 412.42 935.61 421.02 1002 414L994.3 438.63C957.57 442.51 874.7 438.04 811.64 433.61C739.5 428.54 672.58 426.47 658.97 424.28C633.68 420.21 409.36 438.98 391 439L328 460Z" fill="#02267E"/>
<path d="M174 511H45L84.26 439.33H174V511Z" fill="#D7549E"/>
<path d="M45 511L106.24 473.21H174V511H45Z" fill="#02267E"/>
<path d="M900.95 395H789V316.08C863.54 316.08 890.89 368.29 898.49 387.78C900.24 392.25 900.95 395 900.95 395Z" fill="#3394FF"/>
<path d="M900.95 395H789V378L898.49 387.78C900.24 392.25 900.95 395 900.95 395Z" fill="#02267E"/>
<path d="M865.65 352.89C865.65 352.89 854.64 338.18 834.99 331.28" stroke="#FEFCF3" stroke-width="3" stroke-miterlimit="10" stroke-linecap="round"/>
<path d="M828 329C828 329 826.32 328.23 822.78 326.83" stroke="#FEFCF3" stroke-width="3" stroke-miterlimit="10" stroke-linecap="round"/>
<path d="M424 395L356.8 415.85L352.14 417.29L179 471L180.97 459.15L181 459L184.33 457.95L264.76 432.72L264.87 432.69L348.67 406.4L351.14 405.62L378.85 396.93L385 395H424Z" fill="#02267E"/>
<path d="M183.91 500.84L174 500.86V461.74C174.9 461.4 175.81 461.06 176.75 460.71C177.43 460.45 178.11 460.21 178.81 459.95C179.29 459.77 179.78 459.6 180.27 459.41C180.55 459.31 180.84 459.21 181.12 459.1L183.91 500.84Z" fill="#D7549E"/>
<path d="M335 467L355.95 465L348 457.97L341 464L335 460L394 434C403.41 433.99 642.19 410.64 668.9 414.94C696.73 419.42 935.56 431.99 1001.95 424.97L1001.3 445.64C964.57 449.52 881.7 445.05 818.64 440.62C746.5 435.55 679.58 433.48 665.97 431.29C640.68 427.22 416.36 445.99 398 446.01L335 467.01V467Z" fill="#D7549E"/>
<path d="M342 457L334 425L348 434.43L341 437.48L338 457L394 433.32C403.41 433.32 637.29 411.83 664 414C691.83 416.26 935.56 426.3 1001.95 422.75L1001.3 428.2C964.57 430.16 881.7 427.9 818.64 425.66C746.5 423.09 679.58 418.05 665.97 416.94C640.68 414.88 416.36 434.37 398 434.38L342 457Z" fill="#FEFCF3"/>
<path d="M1045.46 448.56C1045.46 448.56 1049.36 471.23 1069.18 477.61" stroke="#FEFCF3" stroke-width="3" stroke-miterlimit="10"/>
<path d="M212.43 426.37C220.48 401.07 241.35 381.45 267.4 375.19C269.02 374.8 270.66 374.44 272.33 374.19C276.59 373.44 280.97 373.05 285.43 373.05C296.16 373.05 306.36 375.25 315.63 379.24C316.55 379.63 317.44 380.05 318.33 380.47C331.48 386.71 342.54 396.6 350.26 408.83C350.76 409.61 351.26 410.42 351.71 411.25C355.95 418.49 359.01 426.52 360.63 435.05C361.58 439.79 362.05 444.69 362.05 449.68C362.05 452.33 361.91 454.95 361.63 457.54C361.55 458.46 361.44 459.41 361.32 460.33C357.95 484.54 343.26 505.13 322.79 516.59C321.01 517.59 319.17 518.54 317.3 519.38C307.6 523.84 296.79 526.32 285.42 526.32C278.43 526.32 271.66 525.37 265.22 523.62C261.21 522.53 257.33 521.11 253.63 519.41C251.76 518.57 249.92 517.65 248.14 516.65C230.61 506.87 217.32 490.43 211.72 470.73C211.47 469.84 211.22 468.95 211 468.03C209.55 462.15 208.8 456.02 208.8 449.7C208.8 442.12 209.91 434.79 211.98 427.88L212.43 426.4V426.37Z" fill="#42423D"/>
<path d="M285.43 494.24C310.051 494.24 330.01 474.281 330.01 449.66C330.01 425.039 310.051 405.08 285.43 405.08C260.809 405.08 240.85 425.039 240.85 449.66C240.85 474.281 260.809 494.24 285.43 494.24Z" fill="#FEFCF3"/>
<path d="M284.97 485.82C305.134 485.82 321.48 469.474 321.48 449.31C321.48 429.146 305.134 412.8 284.97 412.8C264.806 412.8 248.46 429.146 248.46 449.31C248.46 469.474 264.806 485.82 284.97 485.82Z" fill="#E2DFD4"/>
<path d="M284.73 463.92C292.059 463.92 298 457.979 298 450.65C298 443.321 292.059 437.38 284.73 437.38C277.401 437.38 271.46 443.321 271.46 450.65C271.46 457.979 277.401 463.92 284.73 463.92Z" fill="#42423D"/>
<path d="M256.46 447.56C256.46 447.56 258.5 473.5 280.18 476.61" stroke="#FEFCF3" stroke-width="3" stroke-miterlimit="10" stroke-linecap="round"/>
<path d="M1155 494L1108 490V468L1156 462L1155 494Z" fill="#707070"/>
<path d="M1035 511H399.75C392 503 414 504 414 504C414 503.98 414.01 503.95 414.01 503.93C415.91 488.63 413.08 471.62 410.95 461.93C410.46 459.66 410 457.8 409.66 456.45L489.74 450.25L495.12 469.33L495.14 469.53H495.18C496.35 469.61 521.72 471.5 557 485C593.13 498.82 714 489 714 489C852.71 480.84 927.6 467.17 964.14 458.12C973.43 455.81 980.24 453.81 984.99 452.27C991.33 450.22 994 449 994 449L994.17 449.25L999.18 456.84L1035 511Z" fill="#353535"/>
<path d="M1004 409L1007 416L708 400H707.06L517 397L387 406L385 395L516.5 389.45C530.9 387.65 613.78 390.52 707.25 394.57C844.26 400.52 1004 409 1004 409Z" fill="#02267E"/>
<path d="M1004 404.07V409L708 398.15H707.06L707.25 394.57C844.26 398.49 1004 404.07 1004 404.07Z" fill="#D7549E"/>
<path d="M986.74 457.59C891.88 488.62 672.32 497.06 616.04 497.06C610.5 497.06 606.5 496.98 604.29 496.86C601.27 496.68 598.53 496.56 595.95 496.45C581.54 495.83 572.03 495.42 547.73 486.81C520.17 477.04 495.1 474.54 494.85 474.52L492.8 474.32L487.76 456.16L410.95 461.93C410.46 459.66 410 457.8 409.66 456.45C425.78 455.47 455.42 453.29 489.04 450.91C489.67 450.97 490 451 490 451L495.14 469.53C495.14 469.53 520.87 471.18 557 485C593.13 498.82 714 489 714 489C852.71 480.84 927.6 467.17 964.14 458.12C973.43 455.81 980.24 453.81 984.99 452.27L986.74 457.59Z" fill="#1E1E1E"/>
<path d="M1015.22 511H399.75C392 503 414 504 414 504C414 503.98 414.01 503.95 414.01 503.93L1010 502L1015.22 511Z" fill="black"/>
<path d="M984.43 426.37C992.48 401.07 1013.35 381.45 1039.4 375.19C1041.02 374.8 1042.66 374.44 1044.33 374.19C1048.59 373.44 1052.97 373.05 1057.43 373.05C1068.16 373.05 1078.36 375.25 1087.63 379.24C1088.55 379.63 1089.44 380.05 1090.33 380.47C1103.48 386.71 1114.54 396.6 1122.26 408.83C1122.76 409.61 1123.26 410.42 1123.71 411.25C1127.95 418.49 1131.01 426.52 1132.63 435.05C1133.58 439.79 1134.05 444.69 1134.05 449.68C1134.05 452.33 1133.91 454.95 1133.63 457.54C1133.55 458.46 1133.44 459.41 1133.32 460.33C1129.95 484.54 1115.26 505.13 1094.79 516.59C1093.01 517.59 1091.17 518.54 1089.3 519.38C1079.6 523.84 1068.79 526.32 1057.42 526.32C1050.43 526.32 1043.66 525.37 1037.22 523.62C1033.21 522.53 1029.33 521.11 1025.63 519.41C1023.76 518.57 1021.92 517.65 1020.14 516.65C1002.61 506.87 989.32 490.43 983.72 470.73C983.47 469.84 983.22 468.95 983 468.03C981.55 462.15 980.8 456.02 980.8 449.7C980.8 442.12 981.91 434.79 983.98 427.88" fill="#42423D"/>
<path d="M1057.43 494.24C1082.05 494.24 1102.01 474.281 1102.01 449.66C1102.01 425.039 1082.05 405.08 1057.43 405.08C1032.81 405.08 1012.85 425.039 1012.85 449.66C1012.85 474.281 1032.81 494.24 1057.43 494.24Z" fill="#FEFCF3"/>
<path d="M1056.97 485.82C1077.13 485.82 1093.48 469.474 1093.48 449.31C1093.48 429.146 1077.13 412.8 1056.97 412.8C1036.81 412.8 1020.46 429.146 1020.46 449.31C1020.46 469.474 1036.81 485.82 1056.97 485.82Z" fill="#E2DFD4"/>
<path d="M1056.73 463.92C1064.06 463.92 1070 457.979 1070 450.65C1070 443.321 1064.06 437.38 1056.73 437.38C1049.4 437.38 1043.46 443.321 1043.46 450.65C1043.46 457.979 1049.4 463.92 1056.73 463.92Z" fill="#42423D"/>
<path d="M1028.46 447.56C1028.46 447.56 1030.5 473.5 1052.18 476.61" stroke="#FEFCF3" stroke-width="3" stroke-miterlimit="10" stroke-linecap="round"/>
<path d="M1180 337.28V349.62L1137 360.03V347.69L1180 337.28Z" fill="#02267E"/>
<path d="M1180 361.28V373.62L1137 384.03V371.69L1180 361.28Z" fill="#02267E"/>
<path d="M1180 384.28V396.62L1137 407.03V394.69L1180 384.28Z" fill="#02267E"/>
<path d="M570 374C570 374 586 358 614 352" stroke="#FEFCF3" stroke-width="3" stroke-miterlimit="10" stroke-linecap="round"/>
<path d="M561 382C561 382 563.57 379 565 378" stroke="#FEFCF3" stroke-width="3" stroke-miterlimit="10" stroke-linecap="round"/>
<path d="M299.3 183.61C299.3 183.61 377.5 74.5 612.5 139.5C847.5 204.5 907.5 142.5 907.5 142.5V252.69C907.5 252.69 821.3 315.5 603.4 247C603.4 247 452.69 195.8 395.1 274.65L299.3 183.61Z" fill="black"/>
<path d="M386.132 215.266L358.86 176.371L366.524 174.312L385.45 201.262L388.319 168.455L395.624 166.492L414.61 193.426L417.479 160.62L425.143 158.56L421.04 205.886L415.232 207.447L394.948 178.551L391.88 213.722L386.132 215.266Z" fill="white"/>
<path d="M448.536 200.077C447.022 200.294 445.578 200.125 444.204 199.57C442.83 199.016 441.684 198.157 440.766 196.994C439.848 195.831 439.28 194.493 439.063 192.979L435.106 165.361C434.889 163.847 435.058 162.403 435.612 161.029C436.167 159.655 437.026 158.509 438.189 157.591C439.352 156.673 440.69 156.105 442.204 155.888L469.822 151.931C471.336 151.714 472.759 151.886 474.092 152.446C475.466 153.001 476.612 153.86 477.53 155.023C478.489 156.18 479.077 157.515 479.294 159.029L483.252 186.647C483.469 188.161 483.28 189.607 482.684 190.987C482.129 192.361 481.27 193.507 480.108 194.425C478.986 195.338 477.668 195.902 476.154 196.119L448.536 200.077ZM447.656 192.624L474.844 188.728C475.131 188.687 475.362 188.55 475.537 188.316C475.753 188.076 475.838 187.793 475.791 187.465L471.903 160.338C471.857 160.011 471.696 159.763 471.421 159.593C471.187 159.418 470.927 159.351 470.64 159.392L443.452 163.288C443.166 163.329 442.914 163.47 442.698 163.709C442.523 163.943 442.459 164.224 442.506 164.551L446.393 191.678C446.44 192.005 446.58 192.257 446.814 192.432C447.089 192.601 447.37 192.665 447.656 192.624Z" fill="white"/>
<path d="M530.556 195L516.854 178.632H526.588L538.926 193.264V195H530.556ZM494.472 195V150.422H530.742C532.271 150.422 533.656 150.815 534.896 151.6C536.177 152.344 537.19 153.357 537.934 154.638C538.719 155.878 539.112 157.263 539.112 158.792V171.068C539.112 172.556 538.719 173.941 537.934 175.222C537.19 176.503 536.177 177.516 534.896 178.26C533.656 179.004 532.271 179.376 530.742 179.376L501.912 179.438V195H494.472ZM503.028 171.874H530.494C530.783 171.874 531.031 171.771 531.238 171.564C531.486 171.357 531.61 171.089 531.61 170.758V158.978C531.61 158.689 531.486 158.441 531.238 158.234C531.031 157.986 530.783 157.862 530.494 157.862H503.028C502.739 157.862 502.47 157.986 502.222 158.234C502.015 158.441 501.912 158.689 501.912 158.978V170.758C501.912 171.089 502.015 171.357 502.222 171.564C502.47 171.771 502.739 171.874 503.028 171.874Z" fill="white"/>
<path d="M546.684 196.842L553.193 152.679L560.615 153.773L557.903 172.174L569.189 173.838L587.297 157.706L595.577 158.927L595.315 160.705L575.271 178.494L589.33 201.311L589.068 203.089L580.787 201.869L568.104 181.198L556.818 179.535L554.105 197.936L546.684 196.842Z" fill="white"/>
<path d="M601.098 206.847C599.621 206.449 598.361 205.724 597.318 204.672C596.314 203.631 595.62 202.395 595.235 200.964C594.85 199.533 594.856 198.08 595.254 196.603L596.029 193.73L603.212 195.666L602.502 198.3C602.416 198.619 602.446 198.905 602.592 199.159C602.738 199.412 602.97 199.582 603.29 199.668L629.749 206.799C630.069 206.885 630.355 206.855 630.608 206.709C630.902 206.574 631.091 206.347 631.177 206.028L633.484 197.467C633.56 197.188 633.504 196.916 633.319 196.652C633.184 196.359 632.957 196.169 632.637 196.083L605.938 188.887C604.461 188.489 603.201 187.765 602.158 186.713C601.154 185.672 600.454 184.456 600.059 183.065C599.674 181.634 599.68 180.18 600.078 178.704L602.514 169.664C602.912 168.188 603.637 166.927 604.689 165.884C605.741 164.84 606.962 164.121 608.353 163.725C609.784 163.34 611.237 163.347 612.714 163.744L639.713 171.021C641.189 171.419 642.43 172.138 643.433 173.179C644.477 174.231 645.191 175.472 645.576 176.903C646.001 178.345 646.014 179.804 645.616 181.28L644.842 184.154L637.598 182.202L638.308 179.568C638.394 179.248 638.345 178.957 638.159 178.693C638.013 178.439 637.781 178.27 637.461 178.184L611.001 171.053C610.682 170.967 610.396 170.996 610.142 171.142C609.889 171.288 609.719 171.52 609.633 171.84L607.326 180.4C607.251 180.68 607.281 180.966 607.416 181.259C607.562 181.512 607.794 181.682 608.113 181.768L634.873 188.98C636.349 189.378 637.59 190.097 638.593 191.138C639.637 192.19 640.351 193.432 640.736 194.862C641.172 196.264 641.19 197.703 640.792 199.18L638.356 208.219C637.958 209.696 637.213 210.951 636.122 211.983C635.07 213.027 633.829 213.741 632.398 214.126C631.007 214.522 629.573 214.521 628.097 214.123L601.098 206.847Z" fill="white"/>
<path d="M645.384 219.682L657.22 176.64L664.393 178.612L659.462 196.547L689.114 204.7L694.045 186.766L701.219 188.738L689.383 231.781L682.21 229.808L687.141 211.874L657.49 203.721L652.558 221.655L645.384 219.682Z" fill="white"/>
<path d="M710.297 238.907C708.777 238.738 707.421 238.214 706.229 237.334C705.038 236.453 704.143 235.335 703.544 233.98C702.946 232.625 702.73 231.187 702.899 229.667L705.968 201.936C706.136 200.416 706.661 199.06 707.541 197.868C708.422 196.677 709.54 195.782 710.895 195.183C712.25 194.585 713.688 194.369 715.208 194.538L742.939 197.607C744.459 197.775 745.794 198.297 746.945 199.173C748.137 200.054 749.032 201.172 749.63 202.527C750.27 203.887 750.505 205.327 750.337 206.847L747.268 234.578C747.1 236.098 746.555 237.451 745.633 238.639C744.753 239.83 743.635 240.725 742.279 241.324C740.965 241.927 739.548 242.144 738.028 241.976L710.297 238.907ZM711.307 231.471L738.607 234.492C738.894 234.524 739.152 234.449 739.38 234.266C739.649 234.088 739.802 233.835 739.839 233.506L742.853 206.268C742.89 205.94 742.796 205.659 742.572 205.426C742.39 205.198 742.155 205.068 741.867 205.036L714.568 202.015C714.28 201.983 714.002 202.056 713.732 202.234C713.504 202.417 713.372 202.672 713.336 203.001L710.321 230.239C710.284 230.567 710.358 230.846 710.54 231.074C710.764 231.307 711.02 231.439 711.307 231.471Z" fill="white"/>
<path d="M761.472 245V200.422H797.742C799.271 200.422 800.656 200.815 801.896 201.6C803.177 202.344 804.19 203.357 804.934 204.638C805.719 205.878 806.112 207.263 806.112 208.792V221.068C806.112 222.556 805.719 223.941 804.934 225.222C804.19 226.503 803.177 227.516 801.896 228.26C800.656 229.004 799.271 229.376 797.742 229.376L768.912 229.438V245H761.472ZM770.028 221.874H797.494C797.783 221.874 798.031 221.771 798.238 221.564C798.486 221.357 798.61 221.089 798.61 220.758V208.978C798.61 208.689 798.486 208.441 798.238 208.234C798.031 207.986 797.783 207.862 797.494 207.862H770.028C769.739 207.862 769.47 207.986 769.222 208.234C769.015 208.441 768.912 208.689 768.912 208.978V220.758C768.912 221.089 769.015 221.357 769.222 221.564C769.47 221.771 769.739 221.874 770.028 221.874Z" fill="white"/>
<path d="M824.794 244.143C823.27 244.27 821.839 244.016 820.5 243.381C819.202 242.743 818.13 241.816 817.282 240.601C816.434 239.386 815.946 238.017 815.819 236.493L815.571 233.527L822.985 232.908L823.212 235.627C823.24 235.956 823.365 236.215 823.588 236.404C823.811 236.593 824.088 236.674 824.417 236.646L851.726 234.367C852.056 234.339 852.315 234.214 852.504 233.991C852.734 233.764 852.835 233.486 852.807 233.156L852.07 224.321C852.046 224.033 851.902 223.796 851.637 223.611C851.411 223.381 851.133 223.28 850.803 223.307L823.247 225.607C821.723 225.734 820.292 225.481 818.953 224.846C817.655 224.207 816.584 223.301 815.74 222.128C814.892 220.913 814.404 219.543 814.277 218.019L813.498 208.689C813.371 207.165 813.625 205.734 814.259 204.395C814.894 203.056 815.799 201.965 816.972 201.12C818.187 200.272 819.557 199.785 821.081 199.657L848.946 197.332C850.47 197.204 851.881 197.46 853.179 198.098C854.517 198.733 855.611 199.658 856.459 200.873C857.348 202.084 857.856 203.452 857.983 204.976L858.231 207.942L850.755 208.566L850.528 205.847C850.5 205.518 850.355 205.26 850.09 205.075C849.867 204.886 849.591 204.806 849.261 204.833L821.952 207.113C821.623 207.14 821.364 207.266 821.175 207.489C820.986 207.712 820.905 207.988 820.933 208.318L821.67 217.153C821.694 217.441 821.82 217.7 822.046 217.93C822.269 218.119 822.546 218.2 822.875 218.172L850.493 215.867C852.017 215.74 853.428 215.995 854.726 216.634C856.064 217.268 857.158 218.193 858.006 219.408C858.892 220.579 859.398 221.926 859.525 223.45L860.304 232.78C860.431 234.304 860.157 235.737 859.481 237.079C858.846 238.418 857.921 239.511 856.706 240.359C855.532 241.204 854.183 241.69 852.659 241.817L824.794 244.143Z" fill="white"/>
</svg>
