<svg width="180" height="208" viewBox="0 0 180 208" fill="none" xmlns="http://www.w3.org/2000/svg">
<rect y="33.0223" width="8.08215" height="179.603" transform="rotate(-13.032 0 33.0223)" fill="#00AEB9"/>
<rect x="0.558747" y="36.4496" width="32.3286" height="32.3286" transform="rotate(-13.032 0.558747 36.4496)" fill="#2D2D2A"/>
<rect x="32.0546" y="29.16" width="32.3286" height="32.3286" transform="rotate(-13.032 32.0546 29.16)" fill="white"/>
<rect x="63.5507" y="21.8696" width="32.3286" height="32.3286" transform="rotate(-13.032 63.5507 21.8696)" fill="url(#paint0_linear_1028_1708)"/>
<rect x="95.0464" y="14.5795" width="32.3286" height="32.3286" transform="rotate(-13.032 95.0464 14.5795)" fill="white"/>
<rect x="126.543" y="7.28988" width="32.3286" height="32.3286" transform="rotate(-13.032 126.543 7.28988)" fill="url(#paint1_linear_1028_1708)"/>
<rect x="7.74735" y="67.5085" width="32.3286" height="32.3286" transform="rotate(-13.032 7.74735 67.5085)" fill="white"/>
<rect x="39.2423" y="60.2184" width="32.3286" height="32.3286" transform="rotate(-13.032 39.2423 60.2184)" fill="url(#paint2_linear_1028_1708)"/>
<rect x="70.7393" y="52.928" width="32.3286" height="32.3286" transform="rotate(-13.032 70.7393 52.928)" fill="white"/>
<rect x="102.235" y="45.6384" width="32.3286" height="32.3286" transform="rotate(-13.032 102.235 45.6384)" fill="url(#paint3_linear_1028_1708)"/>
<rect x="133.731" y="38.3483" width="32.3286" height="32.3286" transform="rotate(-13.032 133.731 38.3483)" fill="white"/>
<rect x="14.9361" y="98.5667" width="32.3286" height="32.3286" transform="rotate(-13.032 14.9361 98.5667)" fill="url(#paint4_linear_1028_1708)"/>
<rect x="46.4322" y="91.2765" width="32.3286" height="32.3286" transform="rotate(-13.032 46.4322 91.2765)" fill="white"/>
<rect x="77.927" y="83.9869" width="32.3286" height="32.3286" transform="rotate(-13.032 77.927 83.9869)" fill="url(#paint5_linear_1028_1708)"/>
<rect x="109.423" y="76.6965" width="32.3286" height="32.3286" transform="rotate(-13.032 109.423 76.6965)" fill="white"/>
<rect x="140.919" y="69.4069" width="32.3286" height="32.3286" transform="rotate(-13.032 140.919 69.4069)" fill="url(#paint6_linear_1028_1708)"/>
<defs>
<linearGradient id="paint0_linear_1028_1708" x1="79.715" y1="21.8696" x2="79.715" y2="54.1983" gradientUnits="userSpaceOnUse">
<stop stop-color="#2D2D2A"/>
<stop offset="1" stop-color="#1E1E1C"/>
</linearGradient>
<linearGradient id="paint1_linear_1028_1708" x1="142.707" y1="7.28988" x2="142.707" y2="39.6185" gradientUnits="userSpaceOnUse">
<stop stop-color="#2D2D2A"/>
<stop offset="1" stop-color="#1E1E1C"/>
</linearGradient>
<linearGradient id="paint2_linear_1028_1708" x1="55.4066" y1="60.2184" x2="55.4066" y2="92.547" gradientUnits="userSpaceOnUse">
<stop stop-color="#2D2D2A"/>
<stop offset="1" stop-color="#1E1E1C"/>
</linearGradient>
<linearGradient id="paint3_linear_1028_1708" x1="118.4" y1="45.6384" x2="118.4" y2="77.967" gradientUnits="userSpaceOnUse">
<stop stop-color="#2D2D2A"/>
<stop offset="1" stop-color="#1E1E1C"/>
</linearGradient>
<linearGradient id="paint4_linear_1028_1708" x1="31.1004" y1="98.5667" x2="31.1004" y2="130.895" gradientUnits="userSpaceOnUse">
<stop stop-color="#2D2D2A"/>
<stop offset="1" stop-color="#1E1E1C"/>
</linearGradient>
<linearGradient id="paint5_linear_1028_1708" x1="94.0913" y1="83.9869" x2="94.0913" y2="116.316" gradientUnits="userSpaceOnUse">
<stop stop-color="#2D2D2A"/>
<stop offset="1" stop-color="#1E1E1C"/>
</linearGradient>
<linearGradient id="paint6_linear_1028_1708" x1="157.083" y1="69.4069" x2="157.083" y2="101.735" gradientUnits="userSpaceOnUse">
<stop stop-color="#2D2D2A"/>
<stop offset="1" stop-color="#1E1E1C"/>
</linearGradient>
</defs>
</svg>
