<svg width="180" height="208" viewBox="0 0 180 208" fill="none" xmlns="http://www.w3.org/2000/svg">
<rect width="8.06582" height="179.24" transform="matrix(-0.976217 -0.225952 -0.225952 0.976217 179.705 33.0223)" fill="#00AEB9"/>
<rect width="32.2633" height="32.2633" transform="matrix(-0.976217 -0.225952 -0.225952 0.976217 179.146 36.4496)" fill="#2D2D2A"/>
<rect width="32.2633" height="32.2633" transform="matrix(-0.976217 -0.225952 -0.225952 0.976217 147.65 29.16)" fill="white"/>
<rect width="32.2633" height="32.2633" transform="matrix(-0.976217 -0.225952 -0.225952 0.976217 116.154 21.8696)" fill="url(#paint0_linear_1028_1729)"/>
<rect width="32.2633" height="32.2633" transform="matrix(-0.976217 -0.225952 -0.225952 0.976217 84.6585 14.5795)" fill="white"/>
<rect width="32.2633" height="32.2633" transform="matrix(-0.976217 -0.225952 -0.225952 0.976217 53.1625 7.28988)" fill="url(#paint1_linear_1028_1729)"/>
<rect width="32.2633" height="32.2633" transform="matrix(-0.976217 -0.225952 -0.225952 0.976217 171.958 67.5085)" fill="white"/>
<rect width="32.2633" height="32.2633" transform="matrix(-0.976217 -0.225952 -0.225952 0.976217 140.462 60.2184)" fill="url(#paint2_linear_1028_1729)"/>
<rect width="32.2633" height="32.2633" transform="matrix(-0.976217 -0.225952 -0.225952 0.976217 108.966 52.928)" fill="white"/>
<rect width="32.2633" height="32.2633" transform="matrix(-0.976217 -0.225952 -0.225952 0.976217 77.4696 45.6384)" fill="url(#paint3_linear_1028_1729)"/>
<rect width="32.2633" height="32.2633" transform="matrix(-0.976217 -0.225952 -0.225952 0.976217 45.9736 38.3483)" fill="white"/>
<rect width="32.2633" height="32.2633" transform="matrix(-0.976217 -0.225952 -0.225952 0.976217 164.769 98.5667)" fill="url(#paint4_linear_1028_1729)"/>
<rect width="32.2633" height="32.2633" transform="matrix(-0.976217 -0.225952 -0.225952 0.976217 133.273 91.2765)" fill="white"/>
<rect width="32.2633" height="32.2633" transform="matrix(-0.976217 -0.225952 -0.225952 0.976217 101.778 83.9869)" fill="url(#paint5_linear_1028_1729)"/>
<rect width="32.2633" height="32.2633" transform="matrix(-0.976217 -0.225952 -0.225952 0.976217 70.2819 76.6965)" fill="white"/>
<rect width="32.2633" height="32.2633" transform="matrix(-0.976217 -0.225952 -0.225952 0.976217 38.7859 69.4069)" fill="url(#paint6_linear_1028_1729)"/>
<defs>
<linearGradient id="paint0_linear_1028_1729" x1="16.1316" y1="0" x2="16.1316" y2="32.2633" gradientUnits="userSpaceOnUse">
<stop stop-color="#2D2D2A"/>
<stop offset="1" stop-color="#1E1E1C"/>
</linearGradient>
<linearGradient id="paint1_linear_1028_1729" x1="16.1316" y1="0" x2="16.1316" y2="32.2633" gradientUnits="userSpaceOnUse">
<stop stop-color="#2D2D2A"/>
<stop offset="1" stop-color="#1E1E1C"/>
</linearGradient>
<linearGradient id="paint2_linear_1028_1729" x1="16.1316" y1="0" x2="16.1316" y2="32.2633" gradientUnits="userSpaceOnUse">
<stop stop-color="#2D2D2A"/>
<stop offset="1" stop-color="#1E1E1C"/>
</linearGradient>
<linearGradient id="paint3_linear_1028_1729" x1="16.1316" y1="0" x2="16.1316" y2="32.2633" gradientUnits="userSpaceOnUse">
<stop stop-color="#2D2D2A"/>
<stop offset="1" stop-color="#1E1E1C"/>
</linearGradient>
<linearGradient id="paint4_linear_1028_1729" x1="16.1316" y1="0" x2="16.1316" y2="32.2633" gradientUnits="userSpaceOnUse">
<stop stop-color="#2D2D2A"/>
<stop offset="1" stop-color="#1E1E1C"/>
</linearGradient>
<linearGradient id="paint5_linear_1028_1729" x1="16.1316" y1="0" x2="16.1316" y2="32.2633" gradientUnits="userSpaceOnUse">
<stop stop-color="#2D2D2A"/>
<stop offset="1" stop-color="#1E1E1C"/>
</linearGradient>
<linearGradient id="paint6_linear_1028_1729" x1="16.1316" y1="0" x2="16.1316" y2="32.2633" gradientUnits="userSpaceOnUse">
<stop stop-color="#2D2D2A"/>
<stop offset="1" stop-color="#1E1E1C"/>
</linearGradient>
</defs>
</svg>
